<svg version="1.1" viewBox="0.0 0.0 960.0 540.0" fill="none" stroke="none" stroke-linecap="square" stroke-miterlimit="10" xmlns:xlink="http://www.w3.org/1999/xlink" xmlns="http://www.w3.org/2000/svg"><clipPath id="g5d1b8bac41_0_0.0"><path d="m0 0l960.0 0l0 540.0l-960.0 0l0 -540.0z" clip-rule="nonzero"/></clipPath><g clip-path="url(#g5d1b8bac41_0_0.0)"><path fill="#91d3ed" d="m0 0l960.0 0l0 540.0l-960.0 0z" fill-rule="evenodd"/><path fill="#80c9e8" d="m0 0l960.0 0l0 86.89764l-960.0 0z" fill-rule="evenodd"/><path fill="#000000" fill-opacity="0.0" d="m24.141733 0.015748031l911.77954 0l0 86.89764l-911.77954 0z" fill-rule="evenodd"/><path fill="#ffffff" d="m41.54798 34.942062l3.515625 0l0 11.8125q0 1.625 -0.71875 2.875q-0.71875 1.25 -2.03125 1.9375q-1.3125 0.671875 -2.96875 0.671875q-2.703125 0 -4.21875 -1.375q-1.515625 -1.375 -1.515625 -3.90625l3.546875 0q0 1.265625 0.515625 1.859375q0.53125 0.59375 1.671875 0.59375q1.0 0 1.59375 -0.6875q0.609375 -0.6875 0.609375 -1.96875l0 -11.8125zm5.78125 10.609375q0 -1.890625 0.71875 -3.359375q0.734375 -1.484375 2.09375 -2.296875q1.359375 -0.8125 3.171875 -0.8125q2.5625 0 4.1875 1.578125q1.625 1.5625 1.8125 4.265625l0.015625 0.859375q0 2.921875 -1.625 4.6875q-1.625 1.765625 -4.375 1.765625q-2.734375 0 -4.375 -1.75q-1.625 -1.765625 -1.625 -4.796875l0 -0.140625zm3.375 0.234375q0 1.8125 0.671875 2.765625q0.6875 0.953125 1.953125 0.953125q1.234375 0 1.921875 -0.9375q0.703125 -0.953125 0.703125 -3.015625q0 -1.78125 -0.703125 -2.75q-0.6875 -0.96875 -1.9375 -0.96875q-1.25 0 -1.9375 0.96875q-0.671875 0.96875 -0.671875 2.984375zm17.585938 2.71875q0 -0.625 -0.625 -0.984375q-0.609375 -0.359375 -1.96875 -0.640625q-4.515625 -0.953125 -4.515625 -3.84375q0 -1.6875 1.390625 -2.8125q1.40625 -1.140625 3.671875 -1.140625q2.40625 0 3.84375 1.140625q1.453125 1.140625 1.453125 2.953125l-3.375 0q0 -0.71875 -0.46875 -1.1875q-0.46875 -0.484375 -1.46875 -0.484375q-0.859375 0 -1.328125 0.390625q-0.46875 0.375 -0.46875 0.984375q0 0.5625 0.53125 0.90625q0.53125 0.34375 1.796875 0.59375q1.265625 0.25 2.140625 0.5625q2.6875 0.984375 2.6875 3.421875q0 1.734375 -1.5 2.8125q-1.484375 1.0625 -3.84375 1.0625q-1.59375 0 -2.828125 -0.5625q-1.234375 -0.578125 -1.9375 -1.5625q-0.703125 -1.0 -0.703125 -2.140625l3.21875 0q0.046875 0.90625 0.65625 1.390625q0.625 0.46875 1.671875 0.46875q0.96875 0 1.46875 -0.359375q0.5 -0.375 0.5 -0.96875zm11.308594 3.734375q-2.796875 0 -4.546875 -1.703125q-1.75 -1.71875 -1.75 -4.5625l0 -0.328125q0 -1.921875 0.734375 -3.421875q0.75 -1.5 2.09375 -2.3125q1.359375 -0.828125 3.09375 -0.828125q2.59375 0 4.09375 1.640625q1.5 1.640625 1.5 4.65625l0 1.390625l-8.078125 0q0.15625 1.234375 0.984375 1.984375q0.828125 0.75 2.09375 0.75q1.953125 0 3.0625 -1.421875l1.65625 1.875q-0.75 1.078125 -2.0625 1.6875q-1.296875 0.59375 -2.875 0.59375zm-0.390625 -10.40625q-1.0 0 -1.640625 0.6875q-0.625 0.671875 -0.796875 1.9375l4.71875 0l0 -0.265625q-0.03125 -1.125 -0.625 -1.734375q-0.578125 -0.625 -1.65625 -0.625zm18.941406 3.953125q0 2.921875 -1.328125 4.6875q-1.328125 1.765625 -3.59375 1.765625q-1.921875 0 -3.109375 -1.34375l0 5.984375l-3.390625 0l0 -17.5625l3.140625 0l0.125 1.25q1.234375 -1.484375 3.203125 -1.484375q2.34375 0 3.640625 1.734375q1.3125 1.734375 1.3125 4.78125l0 0.1875zm-3.390625 -0.25q0 -1.765625 -0.625 -2.71875q-0.625 -0.96875 -1.828125 -0.96875q-1.59375 0 -2.1875 1.21875l0 5.1875q0.625 1.25 2.21875 1.25q2.421875 0 2.421875 -3.96875zm8.792969 -4.828125q1.34375 -1.625 3.390625 -1.625q4.125 0 4.171875 4.796875l0 8.125l-3.375 0l0 -8.03125q0 -1.09375 -0.46875 -1.609375q-0.46875 -0.515625 -1.5625 -0.515625q-1.484375 0 -2.15625 1.140625l0 9.015625l-3.390625 0l0 -18.0l3.390625 0l0 6.703125zm19.84375 5.28125l0 6.015625l-3.515625 0l0 -17.0625l6.65625 0q1.9218826 0 3.3750076 0.703125q1.453125 0.703125 2.234375 2.0q0.796875 1.296875 0.796875 2.9375q0 2.515625 -1.71875 3.96875q-1.71875 1.4375 -4.7500076 1.4375l-3.078125 0zm0 -2.84375l3.140625 0q1.390625 0 2.1250076 -0.65625q0.734375 -0.65625 0.734375 -1.875q0 -1.25 -0.75 -2.015625q-0.7343826 -0.78125 -2.0312576 -0.8125l-3.21875 0l0 5.359375zm11.062508 2.40625q0 -1.890625 0.71875 -3.359375q0.734375 -1.484375 2.09375 -2.296875q1.359375 -0.8125 3.171875 -0.8125q2.5625 0 4.1875 1.578125q1.625 1.5625 1.8125 4.265625l0.015625 0.859375q0 2.921875 -1.625 4.6875q-1.625 1.765625 -4.375 1.765625q-2.734375 0 -4.375 -1.75q-1.625 -1.765625 -1.625 -4.796875l0 -0.140625zm3.375 0.234375q0 1.8125 0.671875 2.765625q0.6875 0.953125 1.953125 0.953125q1.234375 0 1.921875 -0.9375q0.703125 -0.953125 0.703125 -3.015625q0 -1.78125 -0.703125 -2.75q-0.6875 -0.96875 -1.9375 -0.96875q-1.25 0 -1.9375 0.96875q-0.671875 0.96875 -0.671875 2.984375zm17.585938 2.71875q0 -0.625 -0.625 -0.984375q-0.609375 -0.359375 -1.96875 -0.640625q-4.515625 -0.953125 -4.515625 -3.84375q0 -1.6875 1.390625 -2.8125q1.40625 -1.140625 3.671875 -1.140625q2.40625 0 3.84375 1.140625q1.453125 1.140625 1.453125 2.953125l-3.375 0q0 -0.71875 -0.46875 -1.1875q-0.46875 -0.484375 -1.46875 -0.484375q-0.859375 0 -1.328125 0.390625q-0.46875 0.375 -0.46875 0.984375q0 0.5625 0.53125 0.90625q0.53125 0.34375 1.796875 0.59375q1.265625 0.25 2.140625 0.5625q2.6875 0.984375 2.6875 3.421875q0 1.734375 -1.5 2.8125q-1.484375 1.0625 -3.84375 1.0625q-1.59375 0 -2.828125 -0.5625q-1.234375 -0.578125 -1.9375 -1.5625q-0.703125 -1.0 -0.703125 -2.140625l3.21875 0q0.046875 0.90625 0.65625 1.390625q0.625 0.46875 1.671875 0.46875q0.96875 0 1.46875 -0.359375q0.5 -0.375 0.5 -0.96875zm9.527344 -12.296875l0 3.109375l2.171875 0l0 2.484375l-2.171875 0l0 6.328125q0 0.703125 0.265625 1.015625q0.265625 0.296875 1.03125 0.296875q0.5625 0 1.0 -0.078125l0 2.5625q-1.0 0.3125 -2.046875 0.3125q-3.5625 0 -3.640625 -3.59375l0 -6.84375l-1.84375 0l0 -2.484375l1.84375 0l0 -3.109375l3.390625 0zm7.625 15.796875l-3.390625 0l0 -12.6875l3.390625 0l0 12.6875zm-3.59375 -15.96875q0 -0.75 0.5 -1.234375q0.515625 -0.5 1.390625 -0.5q0.875 0 1.390625 0.5q0.515625 0.484375 0.515625 1.234375q0 0.78125 -0.53125 1.28125q-0.515625 0.484375 -1.375 0.484375q-0.84375 0 -1.375 -0.484375q-0.515625 -0.5 -0.515625 -1.28125zm5.8945312 9.53125q0 -2.921875 1.390625 -4.703125q1.390625 -1.78125 3.734375 -1.78125q2.09375 0 3.25 1.4375l0.140625 -1.203125l3.078125 0l0 12.265625q0 1.671875 -0.765625 2.890625q-0.75 1.234375 -2.125 1.875q-1.375 0.65625 -3.203125 0.65625q-1.40625 0 -2.734375 -0.5625q-1.3125 -0.5625 -2.0 -1.4375l1.5 -2.0625q1.265625 1.421875 3.078125 1.421875q1.34375 0 2.09375 -0.71875q0.75 -0.71875 0.75 -2.046875l0 -0.6875q-1.171875 1.328125 -3.078125 1.328125q-2.28125 0 -3.703125 -1.78125q-1.40625 -1.796875 -1.40625 -4.75l0 -0.140625zm3.390625 0.25q0 1.71875 0.6875 2.703125q0.6875 0.96875 1.890625 0.96875q1.546875 0 2.21875 -1.15625l0 -5.328125q-0.671875 -1.15625 -2.1875 -1.15625q-1.21875 0 -1.921875 1.0q-0.6875 0.984375 -0.6875 2.96875zm14.371094 6.1875l-3.390625 0l0 -18.0l3.390625 0l0 18.0zm6.3632812 0l-3.390625 0l0 -12.6875l3.390625 0l0 12.6875zm-3.59375 -15.96875q0 -0.75 0.5 -1.234375q0.515625 -0.5 1.390625 -0.5q0.875 0 1.390625 0.5q0.515625 0.484375 0.515625 1.234375q0 0.78125 -0.53125 1.28125q-0.515625 0.484375 -1.375 0.484375q-0.84375 0 -1.375 -0.484375q-0.515625 -0.5 -0.515625 -1.28125zm5.8632812 9.515625q0 -1.890625 0.71875 -3.359375q0.734375 -1.484375 2.09375 -2.296875q1.359375 -0.8125 3.171875 -0.8125q2.5625 0 4.1875 1.578125q1.625 1.5625 1.8125 4.265625l0.015625 0.859375q0 2.921875 -1.625 4.6875q-1.625 1.765625 -4.375 1.765625q-2.734375 0 -4.375 -1.75q-1.625 -1.765625 -1.625 -4.796875l0 -0.140625zm3.375 0.234375q0 1.8125 0.671875 2.765625q0.6875 0.953125 1.953125 0.953125q1.234375 0 1.921875 -0.9375q0.703125 -0.953125 0.703125 -3.015625q0 -1.78125 -0.703125 -2.75q-0.6875 -0.96875 -1.9375 -0.96875q-1.25 0 -1.9375 0.96875q-0.671875 0.96875 -0.671875 2.984375zm13.8359375 -6.46875l0.109375 1.46875q1.359375 -1.703125 3.640625 -1.703125q2.015625 0 3.0 1.1875q0.984375 1.1875 1.0 3.546875l0 8.1875l-3.375 0l0 -8.109375q0 -1.078125 -0.46875 -1.5625q-0.46875 -0.484375 -1.5625 -0.484375q-1.4375 0 -2.140625 1.21875l0 8.9375l-3.390625 0l0 -12.6875l3.1875 0zm16.160156 12.921875q-2.796875 0 -4.546875 -1.703125q-1.75 -1.71875 -1.75 -4.5625l0 -0.328125q0 -1.921875 0.734375 -3.421875q0.75 -1.5 2.09375 -2.3125q1.359375 -0.828125 3.09375 -0.828125q2.59375 0 4.09375 1.640625q1.5 1.640625 1.5 4.65625l0 1.390625l-8.078125 0q0.15625 1.234375 0.984375 1.984375q0.828125 0.75 2.09375 0.75q1.953125 0 3.0625 -1.421875l1.65625 1.875q-0.75 1.078125 -2.0625 1.6875q-1.296875 0.59375 -2.875 0.59375zm-0.390625 -10.40625q-1.0 0 -1.640625 0.6875q-0.625 0.671875 -0.796875 1.9375l4.71875 0l0 -0.265625q-0.03125 -1.125 -0.625 -1.734375q-0.578125 -0.625 -1.65625 -0.625z" fill-rule="nonzero"/><path fill="#ffffff" d="m249.57143 55.176437l-1.171875 0l0 -20.234375l1.171875 0l0 20.234375zm21.773422 -20.234375l0 11.640625q0 1.734375 -0.75 3.015625q-0.75 1.265625 -2.125 1.953125q-1.359375 0.6875 -3.125 0.6875q-2.703125 0 -4.328125 -1.46875q-1.625 -1.46875 -1.671875 -4.078125l0 -11.75l1.421875 0l0 11.546875q0 2.15625 1.234375 3.34375q1.234375 1.1875 3.34375 1.1875q2.109375 0 3.328125 -1.1875q1.21875 -1.203125 1.21875 -3.34375l0 -11.546875l1.453125 0zm11.2890625 13.84375q0 -1.046875 -0.84375 -1.671875q-0.828125 -0.640625 -2.515625 -1.0q-1.6875 -0.359375 -2.625 -0.8125q-0.921875 -0.46875 -1.375 -1.140625q-0.453125 -0.671875 -0.453125 -1.609375q0 -1.5 1.25 -2.484375q1.25 -0.984375 3.21875 -0.984375q2.109375 0 3.390625 1.0625q1.296875 1.046875 1.296875 2.734375l-1.40625 0q0 -1.125 -0.9375 -1.859375q-0.9375 -0.734375 -2.34375 -0.734375q-1.390625 0 -2.234375 0.625q-0.828125 0.609375 -0.828125 1.59375q0 0.9375 0.6875 1.46875q0.703125 0.515625 2.546875 0.953125q1.84375 0.4375 2.765625 0.9375q0.921875 0.484375 1.359375 1.171875q0.453125 0.6875 0.453125 1.671875q0 1.609375 -1.296875 2.578125q-1.296875 0.953125 -3.375 0.953125q-2.21875 0 -3.59375 -1.0625q-1.375 -1.078125 -1.375 -2.71875l1.40625 0q0.078125 1.21875 1.03125 1.90625q0.953125 0.6875 2.53125 0.6875q1.46875 0 2.359375 -0.640625q0.90625 -0.640625 0.90625 -1.625zm9.464844 3.453125q-1.609375 0 -2.921875 -0.796875q-1.296875 -0.796875 -2.03125 -2.21875q-0.71875 -1.421875 -0.71875 -3.203125l0 -0.5q0 -1.828125 0.703125 -3.28125q0.703125 -1.46875 1.96875 -2.3125q1.265625 -0.84375 2.75 -0.84375q2.3125 0 3.65625 1.578125q1.359375 1.578125 1.359375 4.3125l0 0.78125l-9.046875 0l0 0.265625q0 2.15625 1.234375 3.59375q1.234375 1.4375 3.109375 1.4375q1.125 0 1.984375 -0.40625q0.859375 -0.40625 1.5625 -1.3125l0.890625 0.671875q-1.546875 2.234375 -4.5 2.234375zm-0.25 -11.953125q-1.578125 0 -2.671875 1.15625q-1.078125 1.15625 -1.3125 3.125l7.609375 0l0 -0.15625q-0.0625 -1.828125 -1.046875 -2.96875q-0.984375 -1.15625 -2.578125 -1.15625zm13.6015625 0.234375q-0.4375 -0.078125 -0.953125 -0.078125q-1.3125 0 -2.21875 0.734375q-0.90625 0.71875 -1.296875 2.125l0 8.703125l-1.390625 0l0 -12.6875l1.375 0l0.015625 2.015625q1.125 -2.25 3.578125 -2.25q0.59375 0 0.921875 0.15625l-0.03125 1.28125zm17.800781 3.296875l-7.984375 0l0 6.96875l9.1875 0l0 1.21875l-10.625 0l0 -17.0625l10.5625 0l0 1.234375l-9.125 0l0 6.421875l7.984375 0l0 1.21875zm7.8867188 0.65625l3.421875 -5.15625l1.671875 0l-4.3125 6.234375l4.5 6.453125l-1.65625 0l-3.609375 -5.375l-3.609375 5.375l-1.65625 0l4.484375 -6.453125l-4.3125 -6.234375l1.65625 0l3.421875 5.15625zm17.890625 1.3125q0 2.96875 -1.3125 4.71875q-1.3125 1.734375 -3.515625 1.734375q-2.609375 0 -3.984375 -1.828125l0 6.46875l-1.40625 0l0 -17.5625l1.3125 0l0.0625 1.796875q1.375 -2.03125 3.96875 -2.03125q2.28125 0 3.578125 1.734375q1.296875 1.71875 1.296875 4.78125l0 0.1875zm-1.40625 -0.234375q0 -2.4375 -1.0 -3.84375q-1.0 -1.40625 -2.78125 -1.40625q-1.28125 0 -2.21875 0.625q-0.921875 0.625 -1.40625 1.8125l0 6.078125q0.5 1.09375 1.4375 1.671875q0.9375 0.5625 2.21875 0.5625q1.765625 0 2.75 -1.40625q1.0 -1.421875 1.0 -4.09375zm9.410156 6.6875q-1.609375 0 -2.921875 -0.796875q-1.296875 -0.796875 -2.03125 -2.21875q-0.71875 -1.421875 -0.71875 -3.203125l0 -0.5q0 -1.828125 0.703125 -3.28125q0.703125 -1.46875 1.96875 -2.3125q1.265625 -0.84375 2.75 -0.84375q2.3125 0 3.65625 1.578125q1.359375 1.578125 1.359375 4.3125l0 0.78125l-9.046875 0l0 0.265625q0 2.15625 1.234375 3.59375q1.234375 1.4375 3.109375 1.4375q1.125 0 1.984375 -0.40625q0.859375 -0.40625 1.5625 -1.3125l0.890625 0.671875q-1.546875 2.234375 -4.5 2.234375zm-0.25 -11.953125q-1.578125 0 -2.671875 1.15625q-1.078125 1.15625 -1.3125 3.125l7.609375 0l0 -0.15625q-0.0625 -1.828125 -1.046875 -2.96875q-0.984375 -1.15625 -2.578125 -1.15625zm13.6015625 0.234375q-0.4375 -0.078125 -0.953125 -0.078125q-1.3125 0 -2.21875 0.734375q-0.90625 0.71875 -1.296875 2.125l0 8.703125l-1.390625 0l0 -12.6875l1.375 0l0.015625 2.015625q1.125 -2.25 3.578125 -2.25q0.59375 0 0.921875 0.15625l-0.03125 1.28125zm3.7929688 11.484375l-1.40625 0l0 -12.6875l1.40625 0l0 12.6875zm-1.65625 -16.34375q0 -0.40625 0.25 -0.671875q0.265625 -0.28125 0.703125 -0.28125q0.453125 0 0.71875 0.28125q0.265625 0.265625 0.265625 0.671875q0 0.390625 -0.265625 0.671875q-0.265625 0.265625 -0.71875 0.265625q-0.4375 0 -0.703125 -0.265625q-0.25 -0.28125 -0.25 -0.671875zm10.363281 16.578125q-1.609375 0 -2.921875 -0.796875q-1.296875 -0.796875 -2.03125 -2.21875q-0.71875 -1.421875 -0.71875 -3.203125l0 -0.5q0 -1.828125 0.703125 -3.28125q0.703125 -1.46875 1.96875 -2.3125q1.265625 -0.84375 2.75 -0.84375q2.3125 0 3.65625 1.578125q1.359375 1.578125 1.359375 4.3125l0 0.78125l-9.046875 0l0 0.265625q0 2.15625 1.234375 3.59375q1.234375 1.4375 3.109375 1.4375q1.125 0 1.984375 -0.40625q0.859375 -0.40625 1.5625 -1.3125l0.890625 0.671875q-1.546875 2.234375 -4.5 2.234375zm-0.25 -11.953125q-1.578125 0 -2.671875 1.15625q-1.078125 1.15625 -1.3125 3.125l7.609375 0l0 -0.15625q-0.0625 -1.828125 -1.046875 -2.96875q-0.984375 -1.15625 -2.578125 -1.15625zm9.0859375 -0.96875l0.046875 2.171875q0.703125 -1.171875 1.765625 -1.78125q1.078125 -0.625 2.359375 -0.625q2.046875 0 3.03125 1.15625q1.0 1.140625 1.015625 3.4375l0 8.328125l-1.390625 0l0 -8.328125q-0.015625 -1.703125 -0.734375 -2.53125q-0.703125 -0.84375 -2.25 -0.84375q-1.3125 0 -2.3125 0.828125q-1.0 0.8125 -1.484375 2.1875l0 8.6875l-1.390625 0l0 -12.6875l1.34375 0zm16.527344 11.734375q1.46875 0 2.453125 -0.828125q1.0 -0.828125 1.078125 -2.140625l1.34375 0q-0.0625 1.171875 -0.734375 2.125q-0.65625 0.953125 -1.765625 1.5q-1.109375 0.53125 -2.375 0.53125q-2.5 0 -3.953125 -1.734375q-1.453125 -1.734375 -1.453125 -4.671875l0 -0.421875q0 -1.875 0.65625 -3.3125q0.65625 -1.4375 1.875 -2.21875q1.21875 -0.796875 2.859375 -0.796875q2.09375 0 3.4375 1.25q1.359375 1.234375 1.453125 3.265625l-1.34375 0q-0.09375 -1.484375 -1.078125 -2.390625q-0.96875 -0.921875 -2.46875 -0.921875q-1.890625 0 -2.9375 1.375q-1.046875 1.359375 -1.046875 3.84375l0 0.40625q0 2.421875 1.046875 3.78125q1.046875 1.359375 2.953125 1.359375zm12.582031 1.1875q-1.609375 0 -2.921875 -0.796875q-1.296875 -0.796875 -2.03125 -2.21875q-0.71875 -1.421875 -0.71875 -3.203125l0 -0.5q0 -1.828125 0.703125 -3.28125q0.703125 -1.46875 1.96875 -2.3125q1.265625 -0.84375 2.75 -0.84375q2.3125 0 3.65625 1.578125q1.359375 1.578125 1.359375 4.3125l0 0.78125l-9.046875 0l0 0.265625q0 2.15625 1.234375 3.59375q1.234375 1.4375 3.109375 1.4375q1.125 0 1.984375 -0.40625q0.859375 -0.40625 1.5625 -1.3125l0.890625 0.671875q-1.546875 2.234375 -4.5 2.234375zm-0.25 -11.953125q-1.578125 0 -2.671875 1.15625q-1.078125 1.15625 -1.3125 3.125l7.609375 0l0 -0.15625q-0.0625 -1.828125 -1.046875 -2.96875q-0.984375 -1.15625 -2.578125 -1.15625zm21.578125 11.71875q-0.203125 -0.59375 -0.265625 -1.765625q-0.734375 0.953125 -1.875 1.484375q-1.140625 0.515625 -2.421875 0.515625q-1.828125 0 -2.96875 -1.015625q-1.125 -1.03125 -1.125 -2.578125q0 -1.859375 1.53125 -2.9375q1.546875 -1.078125 4.3125 -1.078125l2.53125 0l0 -1.4375q0 -1.359375 -0.84375 -2.140625q-0.828125 -0.78125 -2.4375 -0.78125q-1.453125 0 -2.421875 0.75q-0.953125 0.75 -0.953125 1.8125l-1.40625 -0.015625q0 -1.515625 1.40625 -2.625q1.40625 -1.109375 3.453125 -1.109375q2.125 0 3.34375 1.0625q1.21875 1.0625 1.265625 2.96875l0 6.0q0 1.828125 0.375 2.75l0 0.140625l-1.5 0zm-4.40625 -1.015625q1.40625 0 2.515625 -0.671875q1.109375 -0.6875 1.609375 -1.8125l0 -2.796875l-2.5 0q-2.09375 0.03125 -3.28125 0.78125q-1.1875 0.734375 -1.1875 2.03125q0 1.0625 0.78125 1.765625q0.796875 0.703125 2.0625 0.703125zm10.605469 -11.671875l0.046875 2.171875q0.703125 -1.171875 1.765625 -1.78125q1.078125 -0.625 2.359375 -0.625q2.046875 0 3.03125 1.15625q1.0 1.140625 1.015625 3.4375l0 8.328125l-1.390625 0l0 -8.328125q-0.015625 -1.703125 -0.734375 -2.53125q-0.703125 -0.84375 -2.25 -0.84375q-1.3125 0 -2.3125 0.828125q-1.0 0.8125 -1.484375 2.1875l0 8.6875l-1.390625 0l0 -12.6875l1.34375 0zm11.277344 6.234375q0 -2.953125 1.3125 -4.703125q1.328125 -1.765625 3.59375 -1.765625q2.5625 0 3.90625 2.03125l0 -7.109375l1.390625 0l0 18.0l-1.3125 0l-0.046875 -1.6875q-1.359375 1.921875 -3.96875 1.921875q-2.1875 0 -3.53125 -1.765625q-1.34375 -1.765625 -1.34375 -4.765625l0 -0.15625zm1.421875 0.234375q0 2.4375 0.96875 3.84375q0.96875 1.390625 2.75 1.390625q2.578125 0 3.671875 -2.28125l0 -5.953125q-1.09375 -2.484375 -3.65625 -2.484375q-1.765625 0 -2.75 1.390625q-0.984375 1.390625 -0.984375 4.09375zm30.390625 -10.84375l0 11.640625q0 1.734375 -0.75 3.015625q-0.75 1.265625 -2.125 1.953125q-1.359375 0.6875 -3.125 0.6875q-2.703125 0 -4.328125 -1.46875q-1.625 -1.46875 -1.671875 -4.078125l0 -11.75l1.421875 0l0 11.546875q0 2.15625 1.234375 3.34375q1.234375 1.1875 3.34375 1.1875q2.109375 0 3.328125 -1.1875q1.21875 -1.203125 1.21875 -3.34375l0 -11.546875l1.453125 0zm11.2890625 13.84375q0 -1.046875 -0.84375 -1.671875q-0.828125 -0.640625 -2.515625 -1.0q-1.6875 -0.359375 -2.625 -0.8125q-0.921875 -0.46875 -1.375 -1.140625q-0.453125 -0.671875 -0.453125 -1.609375q0 -1.5 1.25 -2.484375q1.25 -0.984375 3.21875 -0.984375q2.109375 0 3.390625 1.0625q1.296875 1.046875 1.296875 2.734375l-1.40625 0q0 -1.125 -0.9375 -1.859375q-0.9375 -0.734375 -2.34375 -0.734375q-1.390625 0 -2.234375 0.625q-0.828125 0.609375 -0.828125 1.59375q0 0.9375 0.6875 1.46875q0.703125 0.515625 2.546875 0.953125q1.84375 0.4375 2.765625 0.9375q0.921875 0.484375 1.359375 1.171875q0.453125 0.6875 0.453125 1.671875q0 1.609375 -1.296875 2.578125q-1.296875 0.953125 -3.375 0.953125q-2.21875 0 -3.59375 -1.0625q-1.375 -1.078125 -1.375 -2.71875l1.40625 0q0.078125 1.21875 1.03125 1.90625q0.953125 0.6875 2.53125 0.6875q1.46875 0 2.359375 -0.640625q0.90625 -0.640625 0.90625 -1.625zm9.464844 3.453125q-1.609375 0 -2.921875 -0.796875q-1.296875 -0.796875 -2.03125 -2.21875q-0.71875 -1.421875 -0.71875 -3.203125l0 -0.5q0 -1.828125 0.703125 -3.28125q0.703125 -1.46875 1.96875 -2.3125q1.265625 -0.84375 2.75 -0.84375q2.3125 0 3.65625 1.578125q1.359375 1.578125 1.359375 4.3125l0 0.78125l-9.046875 0l0 0.265625q0 2.15625 1.234375 3.59375q1.234375 1.4375 3.109375 1.4375q1.125 0 1.984375 -0.40625q0.859375 -0.40625 1.5625 -1.3125l0.890625 0.671875q-1.546875 2.234375 -4.5 2.234375zm-0.25 -11.953125q-1.578125 0 -2.671875 1.15625q-1.078125 1.15625 -1.3125 3.125l7.609375 0l0 -0.15625q-0.0625 -1.828125 -1.046875 -2.96875q-0.984375 -1.15625 -2.578125 -1.15625zm13.6015625 0.234375q-0.4375 -0.078125 -0.953125 -0.078125q-1.3125 0 -2.21875 0.734375q-0.90625 0.71875 -1.296875 2.125l0 8.703125l-1.390625 0l0 -12.6875l1.375 0l0.015625 2.015625q1.125 -2.25 3.578125 -2.25q0.59375 0 0.921875 0.15625l-0.03125 1.28125zm10.144531 11.484375l-1.453125 0l0 -17.0625l1.453125 0l0 17.0625zm5.6367188 -12.6875l0.046875 2.171875q0.703125 -1.171875 1.765625 -1.78125q1.078125 -0.625 2.359375 -0.625q2.046875 0 3.03125 1.15625q1.0 1.140625 1.015625 3.4375l0 8.328125l-1.390625 0l0 -8.328125q-0.015625 -1.703125 -0.734375 -2.53125q-0.703125 -0.84375 -2.25 -0.84375q-1.3125 0 -2.3125 0.828125q-1.0 0.8125 -1.484375 2.1875l0 8.6875l-1.390625 0l0 -12.6875l1.34375 0zm14.027344 -3.234375l0 3.234375l2.625 0l0 1.15625l-2.625 0l0 8.453125q0 1.046875 0.375 1.5625q0.375 0.515625 1.265625 0.515625q0.359375 0 1.140625 -0.109375l0.0625 1.140625q-0.546875 0.203125 -1.5 0.203125q-1.4375 0 -2.09375 -0.828125q-0.65625 -0.84375 -0.65625 -2.484375l0 -8.453125l-2.34375 0l0 -1.15625l2.34375 0l0 -3.234375l1.40625 0zm10.4296875 16.15625q-1.609375 0 -2.921875 -0.796875q-1.296875 -0.796875 -2.03125 -2.21875q-0.71875 -1.421875 -0.71875 -3.203125l0 -0.5q0 -1.828125 0.703125 -3.28125q0.703125 -1.46875 1.96875 -2.3125q1.265625 -0.84375 2.75 -0.84375q2.3125 0 3.65625 1.578125q1.359375 1.578125 1.359375 4.3125l0 0.78125l-9.046875 0l0 0.265625q0 2.15625 1.234375 3.59375q1.234375 1.4375 3.109375 1.4375q1.125 0 1.984375 -0.40625q0.859375 -0.40625 1.5625 -1.3125l0.890625 0.671875q-1.546875 2.234375 -4.5 2.234375zm-0.25 -11.953125q-1.578125 0 -2.671875 1.15625q-1.078125 1.15625 -1.3125 3.125l7.609375 0l0 -0.15625q-0.0625 -1.828125 -1.046875 -2.96875q-0.984375 -1.15625 -2.578125 -1.15625zm13.6015625 0.234375q-0.4375 -0.078125 -0.953125 -0.078125q-1.3125 0 -2.21875 0.734375q-0.90625 0.71875 -1.296875 2.125l0 8.703125l-1.390625 0l0 -12.6875l1.375 0l0.015625 2.015625q1.125 -2.25 3.578125 -2.25q0.59375 0 0.921875 0.15625l-0.03125 1.28125zm3.40625 11.484375l0 -11.53125l-2.109375 0l0 -1.15625l2.109375 0l0 -1.53125q0 -1.9375 0.984375 -2.984375q0.984375 -1.046875 2.765625 -1.046875q0.796875 0 1.484375 0.203125l-0.109375 1.171875q-0.578125 -0.140625 -1.28125 -0.140625q-1.15625 0 -1.796875 0.71875q-0.640625 0.71875 -0.640625 2.046875l0 1.5625l3.015625 0l0 1.15625l-3.015625 0l0 11.53125l-1.40625 0zm14.9296875 0q-0.203125 -0.59375 -0.265625 -1.765625q-0.734375 0.953125 -1.875 1.484375q-1.140625 0.515625 -2.421875 0.515625q-1.828125 0 -2.96875 -1.015625q-1.125 -1.03125 -1.125 -2.578125q0 -1.859375 1.53125 -2.9375q1.546875 -1.078125 4.3125 -1.078125l2.53125 0l0 -1.4375q0 -1.359375 -0.84375 -2.140625q-0.828125 -0.78125 -2.4375 -0.78125q-1.453125 0 -2.421875 0.75q-0.953125 0.75 -0.953125 1.8125l-1.40625 -0.015625q0 -1.515625 1.40625 -2.625q1.40625 -1.109375 3.453125 -1.109375q2.125 0 3.34375 1.0625q1.21875 1.0625 1.265625 2.96875l0 6.0q0 1.828125 0.375 2.75l0 0.140625l-1.5 0zm-4.40625 -1.015625q1.40625 0 2.515625 -0.671875q1.109375 -0.6875 1.609375 -1.8125l0 -2.796875l-2.5 0q-2.09375 0.03125 -3.28125 0.78125q-1.1875 0.734375 -1.1875 2.03125q0 1.0625 0.78125 1.765625q0.796875 0.703125 2.0625 0.703125zm13.949219 0.0625q1.46875 0 2.453125 -0.828125q1.0 -0.828125 1.078125 -2.140625l1.34375 0q-0.0625 1.171875 -0.734375 2.125q-0.65625 0.953125 -1.765625 1.5q-1.109375 0.53125 -2.375 0.53125q-2.5 0 -3.953125 -1.734375q-1.453125 -1.734375 -1.453125 -4.671875l0 -0.421875q0 -1.875 0.65625 -3.3125q0.65625 -1.4375 1.875 -2.21875q1.21875 -0.796875 2.859375 -0.796875q2.09375 0 3.4375 1.25q1.359375 1.234375 1.453125 3.265625l-1.34375 0q-0.09375 -1.484375 -1.078125 -2.390625q-0.96875 -0.921875 -2.46875 -0.921875q-1.890625 0 -2.9375 1.375q-1.046875 1.359375 -1.046875 3.84375l0 0.40625q0 2.421875 1.046875 3.78125q1.046875 1.359375 2.953125 1.359375zm12.582031 1.1875q-1.609375 0 -2.921875 -0.796875q-1.296875 -0.796875 -2.03125 -2.21875q-0.71875 -1.421875 -0.71875 -3.203125l0 -0.5q0 -1.828125 0.703125 -3.28125q0.703125 -1.46875 1.96875 -2.3125q1.265625 -0.84375 2.75 -0.84375q2.3125 0 3.65625 1.578125q1.359375 1.578125 1.359375 4.3125l0 0.78125l-9.046875 0l0 0.265625q0 2.15625 1.234375 3.59375q1.234375 1.4375 3.109375 1.4375q1.125 0 1.984375 -0.40625q0.859375 -0.40625 1.5625 -1.3125l0.890625 0.671875q-1.546875 2.234375 -4.5 2.234375zm-0.25 -11.953125q-1.578125 0 -2.671875 1.15625q-1.078125 1.15625 -1.3125 3.125l7.609375 0l0 -0.15625q-0.0625 -1.828125 -1.046875 -2.96875q-0.984375 -1.15625 -2.578125 -1.15625zm13.90625 11.71875l0 -17.0625l4.765625 0q2.109375 0 3.765625 0.953125q1.671875 0.953125 2.59375 2.734375q0.9375 1.78125 0.9375 4.0625l0 1.5625q0 2.28125 -0.9375 4.0625q-0.921875 1.765625 -2.609375 2.734375q-1.671875 0.953125 -3.84375 0.953125l-4.671875 0zm1.4375 -15.828125l0 14.609375l3.234375 0q2.703125 0 4.328125 -1.78125q1.625 -1.796875 1.625 -4.84375l0 -1.5q0 -2.9375 -1.609375 -4.703125q-1.59375 -1.78125 -4.21875 -1.78125l-3.359375 0zm18.855469 16.0625q-1.609375 0 -2.921875 -0.796875q-1.296875 -0.796875 -2.03125 -2.21875q-0.71875 -1.421875 -0.71875 -3.203125l0 -0.5q0 -1.828125 0.703125 -3.28125q0.703125 -1.46875 1.96875 -2.3125q1.265625 -0.84375 2.75 -0.84375q2.3125 0 3.65625 1.578125q1.359375 1.578125 1.359375 4.3125l0 0.78125l-9.046875 0l0 0.265625q0 2.15625 1.234375 3.59375q1.234375 1.4375 3.109375 1.4375q1.125 0 1.984375 -0.40625q0.859375 -0.40625 1.5625 -1.3125l0.890625 0.671875q-1.546875 2.234375 -4.5 2.234375zm-0.25 -11.953125q-1.578125 0 -2.671875 1.15625q-1.078125 1.15625 -1.3125 3.125l7.609375 0l0 -0.15625q-0.0625 -1.828125 -1.046875 -2.96875q-0.984375 -1.15625 -2.578125 -1.15625zm15.3359375 8.5q0 -1.046875 -0.84375 -1.671875q-0.828125 -0.640625 -2.515625 -1.0q-1.6875 -0.359375 -2.625 -0.8125q-0.921875 -0.46875 -1.375 -1.140625q-0.453125 -0.671875 -0.453125 -1.609375q0 -1.5 1.25 -2.484375q1.25 -0.984375 3.21875 -0.984375q2.109375 0 3.390625 1.0625q1.296875 1.046875 1.296875 2.734375l-1.40625 0q0 -1.125 -0.9375 -1.859375q-0.9375 -0.734375 -2.34375 -0.734375q-1.390625 0 -2.234375 0.625q-0.828125 0.609375 -0.828125 1.59375q0 0.9375 0.6875 1.46875q0.703125 0.515625 2.546875 0.953125q1.84375 0.4375 2.765625 0.9375q0.921875 0.484375 1.359375 1.171875q0.453125 0.6875 0.453125 1.671875q0 1.609375 -1.296875 2.578125q-1.296875 0.953125 -3.375 0.953125q-2.21875 0 -3.59375 -1.0625q-1.375 -1.078125 -1.375 -2.71875l1.40625 0q0.078125 1.21875 1.03125 1.90625q0.953125 0.6875 2.53125 0.6875q1.46875 0 2.359375 -0.640625q0.90625 -0.640625 0.90625 -1.625zm6.1367188 3.21875l-1.40625 0l0 -12.6875l1.40625 0l0 12.6875zm-1.65625 -16.34375q0 -0.40625 0.25 -0.671875q0.265625 -0.28125 0.703125 -0.28125q0.453125 0 0.71875 0.28125q0.265625 0.265625 0.265625 0.671875q0 0.390625 -0.265625 0.671875q-0.265625 0.265625 -0.71875 0.265625q-0.4375 0 -0.703125 -0.265625q-0.25 -0.28125 -0.25 -0.671875zm4.8945312 9.890625q0 -2.984375 1.3125 -4.71875q1.328125 -1.75 3.59375 -1.75q2.578125 0 3.9375 2.0625l0.0625 -1.828125l1.3125 0l0 12.421875q0 2.453125 -1.375 3.875q-1.359375 1.4375 -3.703125 1.4375q-1.328125 0 -2.53125 -0.59375q-1.203125 -0.578125 -1.890625 -1.5625l0.78125 -0.84375q1.484375 1.828125 3.546875 1.828125q1.75 0 2.734375 -1.046875q0.984375 -1.03125 1.015625 -2.875l0 -1.59375q-1.34375 1.875 -3.921875 1.875q-2.203125 0 -3.546875 -1.75q-1.328125 -1.765625 -1.328125 -4.75l0 -0.1875zm1.421875 0.234375q0 2.4375 0.96875 3.84375q0.96875 1.390625 2.75 1.390625q2.578125 0 3.65625 -2.328125l0 -5.890625q-0.484375 -1.21875 -1.421875 -1.859375q-0.921875 -0.640625 -2.21875 -0.640625q-1.765625 0 -2.75 1.390625q-0.984375 1.390625 -0.984375 4.09375zm13.796875 -6.46875l0.046875 2.171875q0.703125 -1.171875 1.765625 -1.78125q1.078125 -0.625 2.359375 -0.625q2.046875 0 3.03125 1.15625q1.0 1.140625 1.015625 3.4375l0 8.328125l-1.390625 0l0 -8.328125q-0.015625 -1.703125 -0.734375 -2.53125q-0.703125 -0.84375 -2.25 -0.84375q-1.3125 0 -2.3125 0.828125q-1.0 0.8125 -1.484375 2.1875l0 8.6875l-1.390625 0l0 -12.6875l1.34375 0zm16.746094 12.921875q-1.609375 0 -2.921875 -0.796875q-1.296875 -0.796875 -2.03125 -2.21875q-0.71875 -1.421875 -0.71875 -3.203125l0 -0.5q0 -1.828125 0.703125 -3.28125q0.703125 -1.46875 1.96875 -2.3125q1.265625 -0.84375 2.75 -0.84375q2.3125 0 3.65625 1.578125q1.359375 1.578125 1.359375 4.3125l0 0.78125l-9.046875 0l0 0.265625q0 2.15625 1.234375 3.59375q1.234375 1.4375 3.109375 1.4375q1.125 0 1.984375 -0.40625q0.859375 -0.40625 1.5625 -1.3125l0.890625 0.671875q-1.546875 2.234375 -4.5 2.234375zm-0.25 -11.953125q-1.578125 0 -2.671875 1.15625q-1.078125 1.15625 -1.3125 3.125l7.609375 0l0 -0.15625q-0.0625 -1.828125 -1.046875 -2.96875q-0.984375 -1.15625 -2.578125 -1.15625zm13.6015625 0.234375q-0.4375 -0.078125 -0.953125 -0.078125q-1.3125 0 -2.21875 0.734375q-0.90625 0.71875 -1.296875 2.125l0 8.703125l-1.390625 0l0 -12.6875l1.375 0l0.015625 2.015625q1.125 -2.25 3.578125 -2.25q0.59375 0 0.921875 0.15625l-0.03125 1.28125z" fill-rule="nonzero"/><path fill="#000000" fill-opacity="0.0" d="m-0.70866144 86.91338l962.1102 0" fill-rule="evenodd"/><path stroke="#e396a1" stroke-width="4.0" stroke-linejoin="round" stroke-linecap="butt" d="m-0.70866144 86.91338l962.1102 0" fill-rule="evenodd"/><path fill="#000000" fill-opacity="0.0" d="m24.141733 217.74803l795.0236 0l0 104.50395l-795.0236 0z" fill-rule="evenodd"/><path fill="#ffffff" d="m78.75111 278.3475l-28.59375 0l-6.421875 17.8125l-9.28125 0l26.0625 -68.250015l7.875 0l26.109375 68.250015l-9.234375 0l-6.515625 -17.8125zm-25.875 -7.40625l23.203125 0l-11.625 -31.92189l-11.578125 31.92189zm57.65625 -25.500015l0.28125 6.375q5.8125 -7.3125 15.1875 -7.3125q16.078133 0 16.218758 18.14064l0 33.515625l-8.671875 0l0 -33.5625q-0.046875 -5.484375 -2.515625 -8.10939q-2.453125 -2.625 -7.6562576 -2.625q-4.21875 0 -7.40625 2.25q-3.1875 2.2500153 -4.96875 5.9062653l0 36.140625l-8.671875 0l0 -50.718765l8.203125 0zm61.359383 38.01564l11.8125 -38.01564l9.28125 0l-20.390625 58.54689q-4.734375 12.65625 -15.046875 12.65625l-1.640625 -0.140625l-3.234375 -0.609375l0 -7.03125l2.34375 0.1875q4.40625 0 6.859375 -1.78125q2.46875 -1.78125 4.0625 -6.515625l1.921875 -5.15625l-18.09375 -50.156265l9.46875 0l12.65625 38.01564zm106.07811 -19.21875q0 9.890625 -3.140625 17.046875q-3.140625 7.140625 -8.8125 11.171875l12.1875 9.5625l-6.140625 5.671875l-14.390625 -11.4375q-3.3749847 0.84375 -7.1249847 0.84375q-8.0625 0 -14.296875 -3.953125q-6.234375 -3.96875 -9.6875 -11.296875q-3.4375 -7.34375 -3.53125 -17.0l0 -4.921875q0 -9.843765 3.421875 -17.39064q3.421875 -7.546875 9.671875 -11.546875q6.265625 -4.015625 14.328125 -4.015625q8.249985 0 14.499985 3.984375q6.265625 3.984375 9.640625 11.46875q3.375 7.46875 3.375 17.45314l0 4.359375zm-9.0 -4.40625q0 -12.04689 -4.8125 -18.57814q-4.796875 -6.546875 -13.70311 -6.546875q-8.484375 0 -13.390625 6.5q-4.890625 6.484375 -5.03125 18.01564l0 5.015625q0 11.71875 4.890625 18.46875q4.90625 6.75 13.625 6.75q8.718735 0 13.499985 -6.34375q4.78125 -6.359375 4.921875 -18.21875l0 -5.0625zm52.828125 31.3125q-5.0625 5.953125 -14.859375 5.953125q-8.109375 0 -12.359375 -4.703125q-4.234375 -4.71875 -4.28125 -13.953125l0 -33.000015l8.671875 0l0 32.76564q0 11.53125 9.375 11.53125q9.9375 0 13.21875 -7.40625l0 -36.89064l8.671875 0l0 50.718765l-8.25 0l-0.1875 -5.015625zm42.65625 5.953125q-10.3125 0 -16.78125 -6.765625q-6.46875 -6.78125 -6.46875 -18.125l0 -1.59375q0 -7.546875 2.875 -13.46875q2.890625 -5.9375153 8.0625 -9.281265q5.1875 -3.359375 11.234375 -3.359375q9.890625 0 15.375 6.515625q5.484375 6.5156403 5.484375 18.656265l0 3.609375l-34.359375 0q0.1875 7.5 4.375 12.125q4.203125 4.609375 10.671875 4.609375q4.59375 0 7.78125 -1.875q3.1875 -1.875 5.578125 -4.96875l5.296875 4.125q-6.375 9.796875 -19.125 9.796875zm-1.078125 -45.468765q-5.25 0 -8.8125 3.828125q-3.5625 3.8125153 -4.40625 10.70314l25.40625 0l0 -0.65625q-0.375 -6.609375 -3.5625 -10.23439q-3.1875 -3.640625 -8.625 -3.640625zm60.421875 31.07814q0 -3.515625 -2.65625 -5.453125q-2.640625 -1.953125 -9.234375 -3.359375q-6.578125 -1.40625 -10.453125 -3.375q-3.859375 -1.96875 -5.71875 -4.6875q-1.84375 -2.71875 -1.84375 -6.46875q0 -6.2343903 5.265625 -10.54689q5.28125 -4.3125 13.484375 -4.3125q8.625 0 13.984375 4.453125q5.375 4.453125 5.375 11.39064l-8.71875 0q0 -3.5625 -3.03125 -6.1406403q-3.015625 -2.578125 -7.609375 -2.578125q-4.734375 0 -7.40625 2.0625q-2.671875 2.0625 -2.671875 5.3906403q0 3.140625 2.484375 4.734375q2.484375 1.59375 8.96875 3.046875q6.5 1.453125 10.53125 3.46875q4.03125 2.015625 5.96875 4.859375q1.953125 2.828125 1.953125 6.90625q0 6.796875 -5.4375 10.90625q-5.4375 4.09375 -14.109375 4.09375q-6.09375 0 -10.78125 -2.15625q-4.6875 -2.15625 -7.34375 -6.015625q-2.640625 -3.875 -2.640625 -8.375l8.671875 0q0.234375 4.359375 3.484375 6.921875q3.265625 2.546875 8.609375 2.546875q4.921875 0 7.890625 -1.984375q2.984375 -2.0 2.984375 -5.328125zm31.734375 -49.54689l0 12.28125l9.46875 0l0 6.703125l-9.46875 0l0 31.45314q0 3.046875 1.265625 4.578125q1.265625 1.515625 4.3125 1.515625q1.5 0 4.125 -0.5625l0 7.03125q-3.421875 0.9375 -6.65625 0.9375q-5.8125 0 -8.765625 -3.515625q-2.953125 -3.515625 -2.953125 -9.984375l0 -31.45314l-9.234375 0l0 -6.703125l9.234375 0l0 -12.28125l8.671875 0zm29.015625 63.000015l-8.671875 0l0 -50.718765l8.671875 0l0 50.718765zm-9.375 -64.17189q0 -2.109375 1.28125 -3.5625q1.296875 -1.453125 3.828125 -1.453125q2.53125 0 3.84375 1.453125q1.3125 1.453125 1.3125 3.5625q0 2.109375 -1.3125 3.515625q-1.3125 1.40625 -3.84375 1.40625q-2.53125 0 -3.828125 -1.40625q-1.28125 -1.40625 -1.28125 -3.515625zm20.953125 38.343765q0 -7.453125 2.921875 -13.40625q2.9375 -5.9531403 8.15625 -9.187515q5.234375 -3.234375 11.9375 -3.234375q10.359375 0 16.75 7.171875q6.40625 7.1718903 6.40625 19.07814l0 0.609375q0 7.40625 -2.84375 13.296875q-2.828125 5.875 -8.109375 9.15625q-5.265625 3.28125 -12.109375 3.28125q-10.3125 0 -16.71875 -7.171875q-6.390625 -7.171875 -6.390625 -18.984375l0 -0.609375zm8.71875 1.03125q0 8.4375 3.90625 13.546875q3.921875 5.109375 10.484375 5.109375q6.609375 0 10.5 -5.171875q3.890625 -5.1875 3.890625 -14.515625q0 -8.34375 -3.96875 -13.515625q-3.953125 -5.1875153 -10.515625 -5.1875153q-6.421875 0 -10.359375 5.1093903q-3.9375 5.109375 -3.9375 14.625zm56.53125 -25.92189l0.28125 6.375q5.8125 -7.3125 15.1875 -7.3125q16.078125 0 16.21875 18.14064l0 33.515625l-8.671875 0l0 -33.5625q-0.046875 -5.484375 -2.515625 -8.10939q-2.453125 -2.625 -7.65625 -2.625q-4.21875 0 -7.40625 2.25q-3.1875 2.2500153 -4.96875 5.9062653l0 36.140625l-8.671875 0l0 -50.718765l8.203125 0zm74.296875 37.26564q0 -3.515625 -2.65625 -5.453125q-2.640625 -1.953125 -9.234375 -3.359375q-6.578125 -1.40625 -10.453125 -3.375q-3.859375 -1.96875 -5.71875 -4.6875q-1.84375 -2.71875 -1.84375 -6.46875q0 -6.2343903 5.265625 -10.54689q5.28125 -4.3125 13.484375 -4.3125q8.625 0 13.984375 4.453125q5.375 4.453125 5.375 11.39064l-8.71875 0q0 -3.5625 -3.03125 -6.1406403q-3.015625 -2.578125 -7.609375 -2.578125q-4.734375 0 -7.40625 2.0625q-2.671875 2.0625 -2.671875 5.3906403q0 3.140625 2.484375 4.734375q2.484375 1.59375 8.96875 3.046875q6.5 1.453125 10.53125 3.46875q4.03125 2.015625 5.96875 4.859375q1.953125 2.828125 1.953125 6.90625q0 6.796875 -5.4375 10.90625q-5.4375 4.09375 -14.109375 4.09375q-6.09375 0 -10.78125 -2.15625q-4.6875 -2.15625 -7.34375 -6.015625q-2.640625 -3.875 -2.640625 -8.375l8.671875 0q0.234375 4.359375 3.484375 6.921875q3.265625 2.546875 8.609375 2.546875q4.921875 0 7.890625 -1.984375q2.984375 -2.0 2.984375 -5.328125zm30.140625 -5.765625q0.09375 -5.578125 1.265625 -8.8125q1.171875 -3.234375 4.78125 -7.171875l6.140625 -6.3281403q3.9375 -4.453125 3.9375 -9.5625q0 -4.921875 -2.578125 -7.703125q-2.578125 -2.796875 -7.5 -2.796875q-4.78125 0 -7.6875 2.53125q-2.90625 2.53125 -2.90625 6.796875l-8.671875 0q0.09375 -7.59375 5.40625 -12.25q5.328125 -4.671875 13.859375 -4.671875q8.859375 0 13.796875 4.765625q4.953125 4.75 4.953125 13.046875q0 8.203125 -7.59375 16.17189l-5.109375 5.0625q-3.421875 3.796875 -3.421875 10.921875l-8.671875 0zm-0.375 14.859375q0 -2.109375 1.28125 -3.53125q1.296875 -1.4375 3.828125 -1.4375q2.53125 0 3.84375 1.4375q1.3125 1.421875 1.3125 3.53125q0 2.109375 -1.3125 3.5q-1.3125 1.375 -3.84375 1.375q-2.53125 0 -3.828125 -1.375q-1.28125 -1.390625 -1.28125 -3.5z" fill-rule="nonzero"/><path fill="#000000" fill-opacity="0.0" d="m24.141733 400.32547l732.69293 0l0 104.50394l-732.69293 0z" fill-rule="evenodd"/><path fill="#ffffff" d="m49.29798 435.03992l2.421875 0l0 19.984375q0 4.03125 -2.34375 6.4375q-2.328125 2.40625 -6.25 2.40625q-4.140625 0 -6.375 -2.171875q-2.21875 -2.171875 -2.21875 -6.046875l2.40625 0q0 3.078125 1.609375 4.640625q1.625 1.546875 4.578125 1.546875q2.71875 0 4.421875 -1.796875q1.703125 -1.796875 1.75 -4.890625l0 -20.109375zm7.6210938 17.5625q0 -3.046875 1.171875 -5.484375q1.1875 -2.453125 3.34375 -3.8125q2.15625 -1.359375 4.890625 -1.359375q4.21875 0 6.828125 2.96875q2.625 2.953125 2.625 7.84375l0 0.484375q0 3.0625 -1.1875 5.515625q-1.171875 2.453125 -3.328125 3.78125q-2.140625 1.328125 -4.890625 1.328125q-4.203125 0 -6.828125 -2.953125q-2.625 -2.96875 -2.625 -7.84375l0 -0.46875zm2.34375 0.640625q0 3.78125 1.953125 6.21875q1.96875 2.4375 5.15625 2.4375q3.15625 0 5.109375 -2.4375q1.96875 -2.4375 1.96875 -6.421875l0 -0.4375q0 -2.421875 -0.90625 -4.4375q-0.890625 -2.015625 -2.515625 -3.109375q-1.609375 -1.109375 -3.703125 -1.109375q-3.125 0 -5.09375 2.453125q-1.96875 2.453125 -1.96875 6.40625l0 0.4375zm33.996094 4.859375q0 -1.734375 -1.40625 -2.78125q-1.390625 -1.0625 -4.203125 -1.65625q-2.8125 -0.59375 -4.359375 -1.359375q-1.546875 -0.78125 -2.3125 -1.890625q-0.75 -1.125 -0.75 -2.703125q0 -2.5 2.09375 -4.125q2.09375 -1.640625 5.359375 -1.640625q3.53125 0 5.671875 1.75q2.140625 1.75 2.140625 4.5625l-2.34375 0q0 -1.859375 -1.5625 -3.078125q-1.546875 -1.234375 -3.90625 -1.234375q-2.3125 0 -3.71875 1.03125q-1.390625 1.015625 -1.390625 2.65625q0 1.578125 1.15625 2.453125q1.171875 0.875 4.25 1.59375q3.078125 0.71875 4.609375 1.546875q1.53125 0.8125 2.265625 1.96875q0.75 1.15625 0.75 2.796875q0 2.671875 -2.15625 4.28125q-2.15625 1.59375 -5.640625 1.59375q-3.6875 0 -5.984375 -1.78125q-2.296875 -1.796875 -2.296875 -4.53125l2.34375 0q0.140625 2.046875 1.734375 3.203125q1.59375 1.140625 4.203125 1.140625q2.453125 0 3.953125 -1.078125q1.5 -1.078125 1.5 -2.71875zm15.785156 5.765625q-2.703125 0 -4.875 -1.328125q-2.171875 -1.328125 -3.390625 -3.703125q-1.203125 -2.375 -1.203125 -5.328125l0 -0.828125q0 -3.046875 1.171875 -5.484375q1.1875 -2.453125 3.296875 -3.84375q2.109375 -1.40625 4.5625 -1.40625q3.859375 0 6.109375 2.640625q2.25 2.625 2.25 7.171875l0 1.3125l-15.078125 0l0 0.4375q0 3.59375 2.0625 6.0q2.0625 2.390625 5.1875 2.390625q1.875 0 3.3125 -0.6875q1.4375 -0.6875 2.609375 -2.1875l1.46875 1.109375q-2.578125 3.734375 -7.484375 3.734375zm-0.4375 -19.921875q-2.625 0 -4.4375 1.9375q-1.8125 1.921875 -2.203125 5.1875l12.6875 0l0 -0.25q-0.109375 -3.046875 -1.75 -4.953125q-1.640625 -1.921875 -4.296875 -1.921875zm29.91407 9.171875q0 4.953125 -2.1875 7.859375q-2.1875 2.890625 -5.859375 2.890625q-4.3437576 0 -6.6406326 -3.046875l0 10.78125l-2.328125 0l0 -29.265625l2.171875 0l0.109375 3.0q2.28125 -3.390625 6.6250076 -3.390625q3.78125 0 5.9375 2.875q2.171875 2.875 2.171875 7.96875l0 0.328125zm-2.34375 -0.40625q0 -4.046875 -1.671875 -6.390625q-1.65625 -2.34375 -4.625 -2.34375q-2.1406326 0 -3.6875076 1.046875q-1.546875 1.03125 -2.359375 3.0l0 10.140625q0.828125 1.8125 2.390625 2.78125q1.5625 0.953125 3.7031326 0.953125q2.9375 0 4.59375 -2.359375q1.65625 -2.359375 1.65625 -6.828125zm9.839844 -6.796875q1.15625 -1.890625 2.953125 -2.921875q1.796875 -1.046875 3.921875 -1.046875q3.390625 0 5.046875 1.921875q1.671875 1.90625 1.6875 5.734375l0 13.875l-2.328125 0l0 -13.890625q-0.015625 -2.828125 -1.203125 -4.21875q-1.171875 -1.390625 -3.765625 -1.390625q-2.171875 0 -3.84375 1.359375q-1.671875 1.359375 -2.46875 3.671875l0 14.46875l-2.328125 0l0 -30.0l2.328125 0l0 12.4375zm19.40625 16.15625q0 -0.6875 0.4375 -1.15625q0.453125 -0.484375 1.234375 -0.484375q0.78125 0 1.21875 0.484375q0.453125 0.46875 0.453125 1.15625q0 0.6875 -0.453125 1.125q-0.4375 0.4375 -1.21875 0.4375q-0.78125 0 -1.234375 -0.4375q-0.4375 -0.4375 -0.4375 -1.125zm8.832031 -9.359375q0 -4.953125 2.1875 -7.859375q2.203125 -2.90625 5.984375 -2.90625q4.3125 0 6.5625 3.4375l0.109375 -3.046875l2.1875 0l0 20.703125q0 4.09375 -2.28125 6.46875q-2.28125 2.390625 -6.1875 2.390625q-2.21875 0 -4.21875 -0.984375q-2.0 -0.984375 -3.15625 -2.625l1.3125 -1.40625q2.484375 3.046875 5.90625 3.046875q2.921875 0 4.5625 -1.734375q1.640625 -1.734375 1.703125 -4.796875l0 -2.65625q-2.25 3.125 -6.546875 3.125q-3.671875 0 -5.90625 -2.921875q-2.21875 -2.9375 -2.21875 -7.921875l0 -0.3125zm2.359375 0.40625q0 4.046875 1.625 6.390625q1.625 2.328125 4.578125 2.328125q4.3125 0 6.109375 -3.875l0 -9.8125q-0.828125 -2.03125 -2.375 -3.09375q-1.53125 -1.078125 -3.703125 -1.078125q-2.953125 0 -4.59375 2.328125q-1.640625 2.3125 -1.640625 6.8125zm20.546875 8.953125q0 -0.6875 0.4375 -1.15625q0.453125 -0.484375 1.234375 -0.484375q0.78125 0 1.21875 0.484375q0.453125 0.46875 0.453125 1.15625q0 0.6875 -0.453125 1.125q-0.4375 0.4375 -1.21875 0.4375q-0.78125 0 -1.234375 -0.4375q-0.4375 -0.4375 -0.4375 -1.125zm26.769531 -8.953125q0 4.953125 -2.1875 7.859375q-2.1875 2.890625 -5.859375 2.890625q-4.34375 0 -6.640625 -3.046875l0 10.78125l-2.328125 0l0 -29.265625l2.171875 0l0.109375 3.0q2.28125 -3.390625 6.625 -3.390625q3.78125 0 5.9375 2.875q2.171875 2.875 2.171875 7.96875l0 0.328125zm-2.34375 -0.40625q0 -4.046875 -1.671875 -6.390625q-1.65625 -2.34375 -4.625 -2.34375q-2.140625 0 -3.6875 1.046875q-1.546875 1.03125 -2.359375 3.0l0 10.140625q0.828125 1.8125 2.390625 2.78125q1.5625 0.953125 3.703125 0.953125q2.9375 0 4.59375 -2.359375q1.65625 -2.359375 1.65625 -6.828125zm6.2304688 -0.109375q0 -3.046875 1.171875 -5.484375q1.1875 -2.453125 3.34375 -3.8125q2.15625 -1.359375 4.890625 -1.359375q4.21875 0 6.828125 2.96875q2.625 2.953125 2.625 7.84375l0 0.484375q0 3.0625 -1.1875 5.515625q-1.171875 2.453125 -3.328125 3.78125q-2.140625 1.328125 -4.890625 1.328125q-4.203125 0 -6.828125 -2.953125q-2.625 -2.96875 -2.625 -7.84375l0 -0.46875zm2.34375 0.640625q0 3.78125 1.953125 6.21875q1.96875 2.4375 5.15625 2.4375q3.15625 0 5.109375 -2.4375q1.96875 -2.4375 1.96875 -6.421875l0 -0.4375q0 -2.421875 -0.90625 -4.4375q-0.890625 -2.015625 -2.515625 -3.109375q-1.609375 -1.109375 -3.703125 -1.109375q-3.125 0 -5.09375 2.453125q-1.96875 2.453125 -1.96875 6.40625l0 0.4375zm33.99608 4.859375q0 -1.734375 -1.40625 -2.78125q-1.390625 -1.0625 -4.203125 -1.65625q-2.8124847 -0.59375 -4.3593597 -1.359375q-1.546875 -0.78125 -2.3125 -1.890625q-0.75 -1.125 -0.75 -2.703125q0 -2.5 2.09375 -4.125q2.09375 -1.640625 5.3593597 -1.640625q3.53125 0 5.671875 1.75q2.140625 1.75 2.140625 4.5625l-2.34375 0q0 -1.859375 -1.5625 -3.078125q-1.546875 -1.234375 -3.90625 -1.234375q-2.3125 0 -3.7187347 1.03125q-1.390625 1.015625 -1.390625 2.65625q0 1.578125 1.15625 2.453125q1.171875 0.875 4.2499847 1.59375q3.078125 0.71875 4.609375 1.546875q1.53125 0.8125 2.265625 1.96875q0.75 1.15625 0.75 2.796875q0 2.671875 -2.15625 4.28125q-2.15625 1.59375 -5.640625 1.59375q-3.6874847 0 -5.9843597 -1.78125q-2.296875 -1.796875 -2.296875 -4.53125l2.34375 0q0.140625 2.046875 1.734375 3.203125q1.5937347 1.140625 4.2031097 1.140625q2.453125 0 3.953125 -1.078125q1.5 -1.078125 1.5 -2.71875zm11.238281 -21.171875l0 5.40625l4.375 0l0 1.921875l-4.375 0l0 14.078125q0 1.765625 0.625 2.625q0.640625 0.859375 2.125 0.859375q0.578125 0 1.890625 -0.203125l0.09375 1.921875q-0.90625 0.328125 -2.5 0.328125q-2.390625 0 -3.484375 -1.390625q-1.09375 -1.40625 -1.09375 -4.125l0 -14.09375l-3.890625 0l0 -1.921875l3.890625 0l0 -5.40625l2.34375 0zm11.8359375 26.546875l-2.34375 0l0 -21.140625l2.34375 0l0 21.140625zm-2.765625 -27.25q0 -0.65625 0.421875 -1.109375q0.4375 -0.46875 1.171875 -0.46875q0.75 0 1.1875 0.46875q0.453125 0.453125 0.453125 1.125q0 0.65625 -0.453125 1.109375q-0.4375 0.4375 -1.1875 0.4375q-0.734375 0 -1.171875 -0.4375q-0.421875 -0.453125 -0.421875 -1.125zm8.167969 16.484375q0 -4.953125 2.1875 -7.859375q2.203125 -2.90625 5.984375 -2.90625q4.3125 0 6.5625 3.4375l0.109375 -3.046875l2.1875 0l0 20.703125q0 4.09375 -2.28125 6.46875q-2.28125 2.390625 -6.1875 2.390625q-2.21875 0 -4.21875 -0.984375q-2.0 -0.984375 -3.15625 -2.625l1.3125 -1.40625q2.484375 3.046875 5.90625 3.046875q2.921875 0 4.5625 -1.734375q1.640625 -1.734375 1.703125 -4.796875l0 -2.65625q-2.25 3.125 -6.546875 3.125q-3.671875 0 -5.90625 -2.921875q-2.21875 -2.9375 -2.21875 -7.921875l0 -0.3125zm2.359375 0.40625q0 4.046875 1.625 6.390625q1.625 2.328125 4.578125 2.328125q4.3125 0 6.109375 -3.875l0 -9.8125q-0.828125 -2.03125 -2.375 -3.09375q-1.53125 -1.078125 -3.703125 -1.078125q-2.953125 0 -4.59375 2.328125q-1.640625 2.3125 -1.640625 6.8125zm23.390625 10.359375l-2.34375 0l0 -30.0l2.34375 0l0 30.0zm8.964844 0l-2.34375 0l0 -21.140625l2.34375 0l0 21.140625zm-2.765625 -27.25q0 -0.65625 0.421875 -1.109375q0.4375 -0.46875 1.171875 -0.46875q0.75 0 1.1875 0.46875q0.453125 0.453125 0.453125 1.125q0 0.65625 -0.453125 1.109375q-0.4375 0.4375 -1.1875 0.4375q-0.734375 0 -1.171875 -0.4375q-0.421875 -0.453125 -0.421875 -1.125zm7.8242188 16.375q0 -3.046875 1.171875 -5.484375q1.1875 -2.453125 3.34375 -3.8125q2.15625 -1.359375 4.890625 -1.359375q4.21875 0 6.828125 2.96875q2.625 2.953125 2.625 7.84375l0 0.484375q0 3.0625 -1.1875 5.515625q-1.171875 2.453125 -3.328125 3.78125q-2.140625 1.328125 -4.890625 1.328125q-4.203125 0 -6.828125 -2.953125q-2.625 -2.96875 -2.625 -7.84375l0 -0.46875zm2.34375 0.640625q0 3.78125 1.953125 6.21875q1.96875 2.4375 5.15625 2.4375q3.15625 0 5.109375 -2.4375q1.96875 -2.4375 1.96875 -6.421875l0 -0.4375q0 -2.421875 -0.90625 -4.4375q-0.890625 -2.015625 -2.515625 -3.109375q-1.609375 -1.109375 -3.703125 -1.109375q-3.125 0 -5.09375 2.453125q-1.96875 2.453125 -1.96875 6.40625l0 0.4375zm23.574219 -10.90625l0.078125 3.625q1.1875 -1.953125 2.953125 -2.984375q1.78125 -1.03125 3.9375 -1.03125q3.390625 0 5.046875 1.921875q1.671875 1.90625 1.6875 5.734375l0 13.875l-2.328125 0l0 -13.890625q-0.015625 -2.828125 -1.203125 -4.21875q-1.171875 -1.390625 -3.765625 -1.390625q-2.171875 0 -3.84375 1.359375q-1.671875 1.359375 -2.46875 3.671875l0 14.46875l-2.328125 0l0 -21.140625l2.234375 0zm27.925781 21.53125q-2.703125 0 -4.875 -1.328125q-2.171875 -1.328125 -3.390625 -3.703125q-1.203125 -2.375 -1.203125 -5.328125l0 -0.828125q0 -3.046875 1.171875 -5.484375q1.1875 -2.453125 3.296875 -3.84375q2.109375 -1.40625 4.5625 -1.40625q3.859375 0 6.109375 2.640625q2.25 2.625 2.25 7.171875l0 1.3125l-15.078125 0l0 0.4375q0 3.59375 2.0625 6.0q2.0625 2.390625 5.1875 2.390625q1.875 0 3.3125 -0.6875q1.4375 -0.6875 2.609375 -2.1875l1.46875 1.109375q-2.578125 3.734375 -7.484375 3.734375zm-0.4375 -19.921875q-2.625 0 -4.4375 1.9375q-1.8125 1.921875 -2.203125 5.1875l12.6875 0l0 -0.25q-0.109375 -3.046875 -1.75 -4.953125q-1.640625 -1.921875 -4.296875 -1.921875zm44.132812 9.515625q-0.109375 2.859375 -1.0625 5.3125q-0.953125 2.453125 -2.640625 3.78125q-1.6875 1.3125 -3.921875 1.3125q-1.890625 0 -3.09375 -1.0q-1.1875 -1.0 -1.578125 -2.796875q-2.109375 3.796875 -5.8125 3.796875q-2.734375 0 -4.09375 -2.359375q-1.34375 -2.375 -0.984375 -6.375q0.296875 -3.1875 1.453125 -5.671875q1.15625 -2.484375 3.015625 -3.875q1.875 -1.40625 4.0 -1.40625q1.515625 0 2.640625 0.421875q1.140625 0.421875 2.640625 1.6875l-1.0 11.125q-0.1875 2.265625 0.578125 3.515625q0.765625 1.25 2.46875 1.25q2.40625 0 3.890625 -2.34375q1.5 -2.359375 1.671875 -6.375q0.375 -7.921875 -3.0 -11.90625q-3.375 -4.0 -10.234375 -4.0q-4.125 0 -7.4375 2.0625q-3.3125 2.0625 -5.234375 5.828125q-1.90625 3.765625 -2.140625 8.6875q-0.234375 4.921875 1.296875 8.671875q1.546875 3.734375 4.640625 5.75q3.09375 2.015625 7.375 2.015625q1.796875 0 3.53125 -0.4375q1.734375 -0.421875 2.90625 -1.109375l0.609375 1.5625q-1.109375 0.75 -3.109375 1.234375q-1.984375 0.5 -4.015625 0.5q-4.890625 0 -8.40625 -2.203125q-3.515625 -2.1875 -5.265625 -6.328125q-1.75 -4.125 -1.515625 -9.65625q0.234375 -5.421875 2.390625 -9.609375q2.171875 -4.1875 5.921875 -6.484375q3.75 -2.296875 8.53125 -2.296875q4.984375 0 8.4375 2.078125q3.453125 2.078125 5.109375 6.09375q1.671875 4.0 1.4375 9.546875zm-21.125 4.421875q0.21875 1.953125 1.09375 3.03125q0.890625 1.0625 2.328125 1.0625q3.609375 0 5.328125 -4.984375l0.890625 -10.078125q-1.3125 -0.953125 -3.09375 -0.953125q-2.171875 0 -3.765625 1.734375q-1.578125 1.71875 -2.328125 4.765625q-0.734375 3.03125 -0.453125 5.421875zm25.492188 -5.171875q0 -4.953125 2.1875 -7.859375q2.203125 -2.90625 5.984375 -2.90625q4.3125 0 6.5625 3.4375l0.109375 -3.046875l2.1875 0l0 20.703125q0 4.09375 -2.28125 6.46875q-2.28125 2.390625 -6.1875 2.390625q-2.21875 0 -4.21875 -0.984375q-2.0 -0.984375 -3.15625 -2.625l1.3125 -1.40625q2.484375 3.046875 5.90625 3.046875q2.921875 0 4.5625 -1.734375q1.640625 -1.734375 1.703125 -4.796875l0 -2.65625q-2.25 3.125 -6.546875 3.125q-3.671875 0 -5.90625 -2.921875q-2.21875 -2.9375 -2.21875 -7.921875l0 -0.3125zm2.359375 0.40625q0 4.046875 1.625 6.390625q1.625 2.328125 4.578125 2.328125q4.3125 0 6.109375 -3.875l0 -9.8125q-0.828125 -2.03125 -2.375 -3.09375q-1.53125 -1.078125 -3.703125 -1.078125q-2.953125 0 -4.59375 2.328125q-1.640625 2.3125 -1.640625 6.8125zm22.890625 -10.78125l0.078125 3.4375q1.171875 -1.90625 2.921875 -2.859375q1.765625 -0.96875 3.921875 -0.96875q5.0 0 6.34375 4.109375q1.140625 -1.96875 3.03125 -3.03125q1.890625 -1.078125 4.171875 -1.078125q6.796875 0 6.9375 7.421875l0 14.109375l-2.34375 0l0 -13.921875q-0.015625 -2.84375 -1.21875 -4.203125q-1.203125 -1.375 -3.921875 -1.375q-2.515625 0.046875 -4.25 1.640625q-1.734375 1.59375 -1.9375 3.875l0 13.984375l-2.34375 0l0 -14.109375q-0.015625 -2.703125 -1.28125 -4.046875q-1.25 -1.34375 -3.875 -1.34375q-2.203125 0 -3.796875 1.265625q-1.578125 1.265625 -2.328125 3.734375l0 14.5l-2.34375 0l0 -21.140625l2.234375 0zm46.66797 21.140625q-0.359375 -1.0 -0.453125 -2.953125q-1.234375 1.609375 -3.140625 2.484375q-1.890625 0.859375 -4.03125 0.859375q-3.046875 0 -4.9375 -1.703125q-1.875 -1.703125 -1.875 -4.296875q0 -3.078125 2.5625 -4.875q2.578125 -1.796875 7.171875 -1.796875l4.234375 0l0 -2.40625q0 -2.265625 -1.40625 -3.5625q-1.390625 -1.296875 -4.0625 -1.296875q-2.4375 0 -4.046875 1.25q-1.59375 1.25 -1.59375 3.0l-2.34375 -0.015625q0 -2.515625 2.34375 -4.359375q2.34375 -1.859375 5.75 -1.859375q3.546875 0 5.578125 1.78125q2.046875 1.765625 2.109375 4.921875l0 10.0q0 3.0625 0.640625 4.59375l0 0.234375l-2.5 0zm-7.34375 -1.6875q2.34375 0 4.1875 -1.125q1.84375 -1.140625 2.6875 -3.03125l0 -4.640625l-4.1875 0q-3.484375 0.03125 -5.46875 1.28125q-1.96875 1.234375 -1.96875 3.40625q0 1.765625 1.3125 2.9375q1.328125 1.171875 3.4375 1.171875zm18.050781 1.6875l-2.34375 0l0 -21.140625l2.34375 0l0 21.140625zm-2.765625 -27.25q0 -0.65625 0.421875 -1.109375q0.4375 -0.46875 1.171875 -0.46875q0.75 0 1.1875 0.46875q0.453125 0.453125 0.453125 1.125q0 0.65625 -0.453125 1.109375q-0.4375 0.4375 -1.1875 0.4375q-0.734375 0 -1.171875 -0.4375q-0.421875 -0.453125 -0.421875 -1.125zm11.730469 27.25l-2.34375 0l0 -30.0l2.34375 0l0 30.0zm6.1210938 -1.40625q0 -0.6875 0.4375 -1.15625q0.453125 -0.484375 1.234375 -0.484375q0.78125 0 1.21875 0.484375q0.453125 0.46875 0.453125 1.15625q0 0.6875 -0.453125 1.125q-0.4375 0.4375 -1.21875 0.4375q-0.78125 0 -1.234375 -0.4375q-0.4375 -0.4375 -0.4375 -1.125zm17.582031 -0.171875q2.4375 0 4.09375 -1.375q1.65625 -1.390625 1.78125 -3.578125l2.25 0q-0.09375 1.9375 -1.21875 3.53125q-1.109375 1.59375 -2.953125 2.5q-1.84375 0.890625 -3.953125 0.890625q-4.15625 0 -6.59375 -2.890625q-2.421875 -2.890625 -2.421875 -7.78125l0 -0.703125q0 -3.125 1.09375 -5.515625q1.09375 -2.40625 3.125 -3.71875q2.046875 -1.3125 4.78125 -1.3125q3.46875 0 5.71875 2.078125q2.265625 2.0625 2.421875 5.453125l-2.25 0q-0.15625 -2.484375 -1.78125 -4.0q-1.625 -1.53125 -4.109375 -1.53125q-3.171875 0 -4.921875 2.28125q-1.734375 2.28125 -1.734375 6.40625l0 0.6875q0 4.046875 1.734375 6.3125q1.75 2.265625 4.9375 2.265625zm11.511719 -9.296875q0 -3.046875 1.171875 -5.484375q1.1875 -2.453125 3.34375 -3.8125q2.15625 -1.359375 4.890625 -1.359375q4.21875 0 6.828125 2.96875q2.625 2.953125 2.625 7.84375l0 0.484375q0 3.0625 -1.1875 5.515625q-1.171875 2.453125 -3.328125 3.78125q-2.140625 1.328125 -4.890625 1.328125q-4.203125 0 -6.828125 -2.953125q-2.625 -2.96875 -2.625 -7.84375l0 -0.46875zm2.34375 0.640625q0 3.78125 1.953125 6.21875q1.96875 2.4375 5.15625 2.4375q3.15625 0 5.109375 -2.4375q1.96875 -2.4375 1.96875 -6.421875l0 -0.4375q0 -2.421875 -0.90625 -4.4375q-0.890625 -2.015625 -2.515625 -3.109375q-1.609375 -1.109375 -3.703125 -1.109375q-3.125 0 -5.09375 2.453125q-1.96875 2.453125 -1.96875 6.40625l0 0.4375zm23.464844 -10.90625l0.078125 3.4375q1.171875 -1.90625 2.921875 -2.859375q1.765625 -0.96875 3.921875 -0.96875q5.0 0 6.34375 4.109375q1.140625 -1.96875 3.03125 -3.03125q1.890625 -1.078125 4.171875 -1.078125q6.796875 0 6.9375 7.421875l0 14.109375l-2.34375 0l0 -13.921875q-0.015625 -2.84375 -1.21875 -4.203125q-1.203125 -1.375 -3.921875 -1.375q-2.515625 0.046875 -4.25 1.640625q-1.734375 1.59375 -1.9375 3.875l0 13.984375l-2.34375 0l0 -14.109375q-0.015625 -2.703125 -1.28125 -4.046875q-1.25 -1.34375 -3.875 -1.34375q-2.203125 0 -3.796875 1.265625q-1.578125 1.265625 -2.328125 3.734375l0 14.5l-2.34375 0l0 -21.140625l2.234375 0z" fill-rule="nonzero"/></g></svg>