<svg version="1.1" viewBox="0.0 0.0 960.0 540.0" fill="none" stroke="none" stroke-linecap="square" stroke-miterlimit="10" xmlns:xlink="http://www.w3.org/1999/xlink" xmlns="http://www.w3.org/2000/svg"><clipPath id="g5d01dd7041_0_3.0"><path d="m0 0l960.0 0l0 540.0l-960.0 0l0 -540.0z" clip-rule="nonzero"/></clipPath><g clip-path="url(#g5d01dd7041_0_3.0)"><path fill="#ffffff" d="m0 0l960.0 0l0 540.0l-960.0 0z" fill-rule="evenodd"/><path fill="#e396a1" d="m0 293.61154l960.0 0l0 247.49606l-960.0 0z" fill-rule="evenodd"/><path fill="#000000" fill-opacity="0.0" d="m24.141733 98.69554l835.9685 0l0 183.11812l-835.9685 0z" fill-rule="evenodd"/><path fill="#80c9e8" d="m60.688606 118.91272l-10.96875 0l0 30.421875l-4.484375 0l0 -30.421875l-10.9375 0l0 -3.703125l26.390625 0l0 3.703125zm8.71875 8.125q2.875 -3.53125 7.5 -3.53125q8.03125 0 8.109375 9.0625l0 16.765625l-4.34375 0l0 -16.78125q-0.015625 -2.75 -1.25 -4.0625q-1.234375 -1.3125 -3.828125 -1.3125q-2.109375 0 -3.703125 1.125q-1.59375 1.125 -2.484375 2.953125l0 18.078125l-4.34375 0l0 -36.0l4.34375 0l0 13.703125zm34.359375 0.828125q-0.984375 -0.171875 -2.140625 -0.171875q-4.265625 0 -5.78125 3.640625l0 18.0l-4.34375 0l0 -25.359375l4.21875 0l0.078125 2.921875q2.125 -3.390625 6.046875 -3.390625q1.265625 0 1.921875 0.328125l0 4.03125zm2.3671875 8.546875q0 -3.71875 1.453125 -6.6875q1.46875 -2.984375 4.078125 -4.59375q2.625 -1.625 5.96875 -1.625q5.1875 0 8.375 3.59375q3.2031326 3.578125 3.2031326 9.53125l0 0.296875q0 3.703125 -1.4218826 6.65625q-1.40625 2.9375 -4.046875 4.578125q-2.640625 1.640625 -6.0625 1.640625q-5.15625 0 -8.359375 -3.578125q-3.1875 -3.59375 -3.1875 -9.5l0 -0.3125zm4.359375 0.515625q0 4.21875 1.953125 6.78125q1.953125 2.546875 5.234375 2.546875q3.3125 0 5.25 -2.578125q1.953125 -2.59375 1.953125 -7.265625q0 -4.171875 -1.984375 -6.75q-1.984375 -2.59375 -5.265625 -2.59375q-3.203125 0 -5.171875 2.5625q-1.96875 2.546875 -1.96875 7.296875zm39.812508 9.890625q-2.53125 2.984375 -7.421875 2.984375q-4.0625 0 -6.1875 -2.359375q-2.109375 -2.359375 -2.140625 -6.96875l0 -16.5l4.34375 0l0 16.375q0 5.765625 4.6875 5.765625q4.96875 0 6.609375 -3.703125l0 -18.4375l4.328125 0l0 25.359375l-4.125 0l-0.09375 -2.515625zm9.7734375 -10.375q0 -5.9375 2.734375 -9.4375q2.75 -3.5 7.28125 -3.5q4.640625 0 7.234375 3.28125l0.21875 -2.8125l3.953125 0l0 24.75q0 4.921875 -2.921875 7.75q-2.90625 2.84375 -7.828125 2.84375q-2.75 0 -5.375 -1.171875q-2.625 -1.171875 -4.0 -3.203125l2.25 -2.609375q2.78125 3.453125 6.8125 3.453125q3.171875 0 4.9375 -1.78125q1.765625 -1.78125 1.765625 -5.03125l0 -2.171875q-2.59375 3.0 -7.09375 3.0q-4.453125 0 -7.21875 -3.578125q-2.75 -3.59375 -2.75 -9.78125zm4.359375 0.484375q0 4.296875 1.75 6.75q1.765625 2.4375 4.9375 2.4375q4.09375 0 6.015625 -3.71875l0 -11.578125q-1.984375 -3.640625 -5.96875 -3.640625q-3.171875 0 -4.953125 2.46875q-1.78125 2.453125 -1.78125 7.28125zm27.945312 -9.890625q2.875 -3.53125 7.5 -3.53125q8.03125 0 8.109375 9.0625l0 16.765625l-4.34375 0l0 -16.78125q-0.015625 -2.75 -1.25 -4.0625q-1.234375 -1.3125 -3.828125 -1.3125q-2.109375 0 -3.703125 1.125q-1.59375 1.125 -2.484375 2.953125l0 18.078125l-4.34375 0l0 -36.0l4.34375 0l0 13.703125zm49.632812 19.78125q-2.53125 2.984375 -7.421875 2.984375q-4.0625 0 -6.1875 -2.359375q-2.109375 -2.359375 -2.140625 -6.96875l0 -16.5l4.34375 0l0 16.375q0 5.765625 4.6875 5.765625q4.96875 0 6.609375 -3.703125l0 -18.4375l4.328125 0l0 25.359375l-4.125 0l-0.09375 -2.515625zm25.570297 -4.21875q0 -1.75 -1.328125 -2.71875q-1.3125 -0.984375 -4.609375 -1.6875q-3.296875 -0.703125 -5.234375 -1.6875q-1.9218597 -0.984375 -2.8593597 -2.34375q-0.921875 -1.359375 -0.921875 -3.234375q0 -3.109375 2.640625 -5.265625q2.6406097 -2.15625 6.7343597 -2.15625q4.3125 0 7.0 2.234375q2.6875 2.21875 2.6875 5.6875l-4.359375 0q0 -1.78125 -1.515625 -3.0625q-1.515625 -1.296875 -3.8125 -1.296875q-2.359375 0 -3.703125 1.03125q-1.328125 1.03125 -1.328125 2.6875q0 1.578125 1.234375 2.375q1.25 0.796875 4.484375 1.53125q3.25 0.71875 5.265625 1.734375q2.015625 1.0 2.984375 2.421875q0.984375 1.40625 0.984375 3.453125q0 3.390625 -2.71875 5.453125q-2.71875 2.046875 -7.0625 2.046875q-3.046875 0 -5.390625 -1.078125q-2.3437347 -1.078125 -3.6718597 -3.015625q-1.3125 -1.9375 -1.3125 -4.1875l4.3281097 0q0.125 2.1875 1.75 3.46875q1.625 1.265625 4.296875 1.265625q2.46875 0 3.953125 -0.984375q1.484375 -1.0 1.484375 -2.671875zm25.640625 6.734375q-0.375 -0.75 -0.609375 -2.671875q-3.015625 3.140625 -7.21875 3.140625q-3.75 0 -6.15625 -2.125q-2.390625 -2.125 -2.390625 -5.375q0 -3.96875 3.0 -6.15625q3.015625 -2.1875 8.484375 -2.1875l4.21875 0l0 -2.0q0 -2.265625 -1.359375 -3.609375q-1.359375 -1.359375 -4.015625 -1.359375q-2.3125 0 -3.890625 1.171875q-1.5625 1.171875 -1.5625 2.84375l-4.359375 0q0 -1.90625 1.34375 -3.671875q1.34375 -1.765625 3.65625 -2.796875q2.3125 -1.03125 5.078125 -1.03125q4.375 0 6.859375 2.1875q2.484375 2.1875 2.578125 6.03125l0 11.671875q0 3.5 0.890625 5.5625l0 0.375l-4.546875 0zm-7.1875 -3.3125q2.03125 0 3.859375 -1.046875q1.828125 -1.0625 2.65625 -2.75l0 -5.203125l-3.40625 0q-7.96875 0 -7.96875 4.671875q0 2.03125 1.359375 3.1875q1.359375 1.140625 3.5 1.140625zm39.109375 -9.09375q0 5.8125 -2.671875 9.34375q-2.671875 3.53125 -7.171875 3.53125q-4.796875 0 -7.421875 -3.40625l-0.21875 2.9375l-3.984375 0l0 -36.0l4.34375 0l0 13.421875q2.625 -3.25 7.234375 -3.25q4.625 0 7.25 3.5q2.640625 3.484375 2.640625 9.546875l0 0.375zm-4.328125 -0.484375q0 -4.4375 -1.71875 -6.84375q-1.703125 -2.421875 -4.921875 -2.421875q-4.28125 0 -6.15625 3.984375l0 10.96875q1.984375 3.984375 6.203125 3.984375q3.125 0 4.859375 -2.40625q1.734375 -2.421875 1.734375 -7.265625zm14.5078125 12.890625l-4.34375 0l0 -25.359375l4.34375 0l0 25.359375zm-4.6875 -32.09375q0 -1.046875 0.640625 -1.765625q0.640625 -0.734375 1.90625 -0.734375q1.265625 0 1.921875 0.734375q0.65625 0.71875 0.65625 1.78125q0 1.046875 -0.65625 1.75q-0.65625 0.703125 -1.921875 0.703125q-1.265625 0 -1.90625 -0.703125q-0.640625 -0.703125 -0.640625 -1.765625zm16.335938 32.09375l-4.34375 0l0 -36.0l4.34375 0l0 36.0zm11.6484375 0l-4.34375 0l0 -25.359375l4.34375 0l0 25.359375zm-4.6875 -32.09375q0 -1.046875 0.640625 -1.765625q0.640625 -0.734375 1.90625 -0.734375q1.265625 0 1.921875 0.734375q0.65625 0.71875 0.65625 1.78125q0 1.046875 -0.65625 1.75q-0.65625 0.703125 -1.921875 0.703125q-1.265625 0 -1.90625 -0.703125q-0.640625 -0.703125 -0.640625 -1.765625zm17.507812 0.59375l0 6.140625l4.734375 0l0 3.34375l-4.734375 0l0 15.734375q0 1.515625 0.625 2.28125q0.640625 0.765625 2.15625 0.765625q0.75 0 2.0625 -0.28125l0 3.515625q-1.703125 0.46875 -3.328125 0.46875q-2.90625 0 -4.390625 -1.75q-1.46875 -1.765625 -1.46875 -5.0l0 -15.734375l-4.609375 0l0 -3.34375l4.609375 0l0 -6.140625l4.34375 0zm18.085938 25.140625l5.90625 -19.0l4.640625 0l-10.1875 29.28125q-2.375 6.328125 -7.53125 6.328125l-0.8125 -0.078125l-1.625 -0.296875l0 -3.515625l1.171875 0.09375q2.203125 0 3.4375 -0.890625q1.234375 -0.890625 2.03125 -3.265625l0.953125 -2.578125l-9.046875 -25.078125l4.734375 0l6.328125 19.0zm32.1875 -25.140625l0 6.140625l4.734375 0l0 3.34375l-4.734375 0l0 15.734375q0 1.515625 0.625 2.28125q0.640625 0.765625 2.15625 0.765625q0.75 0 2.0625 -0.28125l0 3.515625q-1.703125 0.46875 -3.328125 0.46875q-2.90625 0 -4.390625 -1.75q-1.46875 -1.765625 -1.46875 -5.0l0 -15.734375l-4.609375 0l0 -3.34375l4.609375 0l0 -6.140625l4.34375 0zm20.320312 31.96875q-5.15625 0 -8.390625 -3.390625q-3.234375 -3.390625 -3.234375 -9.0625l0 -0.796875q0 -3.765625 1.4375 -6.734375q1.4375 -2.96875 4.03125 -4.640625q2.59375 -1.671875 5.609375 -1.671875q4.953125 0 7.6875 3.265625q2.75 3.25 2.75 9.3125l0 1.8125l-17.1875 0q0.09375 3.75 2.1875 6.0625q2.109375 2.296875 5.34375 2.296875q2.296875 0 3.890625 -0.9375q1.59375 -0.9375 2.78125 -2.484375l2.65625 2.0625q-3.1875 4.90625 -9.5625 4.90625zm-0.546875 -22.734375q-2.625 0 -4.40625 1.90625q-1.78125 1.90625 -2.203125 5.359375l12.703125 0l0 -0.328125q-0.1875 -3.3125 -1.78125 -5.125q-1.59375 -1.8125 -4.3125 -1.8125zm30.210938 15.53125q0 -1.75 -1.328125 -2.71875q-1.3125 -0.984375 -4.609375 -1.6875q-3.296875 -0.703125 -5.234375 -1.6875q-1.921875 -0.984375 -2.859375 -2.34375q-0.921875 -1.359375 -0.921875 -3.234375q0 -3.109375 2.640625 -5.265625q2.640625 -2.15625 6.734375 -2.15625q4.3125 0 7.0 2.234375q2.6875 2.21875 2.6875 5.6875l-4.359375 0q0 -1.78125 -1.515625 -3.0625q-1.515625 -1.296875 -3.8125 -1.296875q-2.359375 0 -3.703125 1.03125q-1.328125 1.03125 -1.328125 2.6875q0 1.578125 1.234375 2.375q1.25 0.796875 4.484375 1.53125q3.25 0.71875 5.265625 1.734375q2.015625 1.0 2.984375 2.421875q0.984375 1.40625 0.984375 3.453125q0 3.390625 -2.71875 5.453125q-2.71875 2.046875 -7.0625 2.046875q-3.046875 0 -5.390625 -1.078125q-2.34375 -1.078125 -3.671875 -3.015625q-1.3125 -1.9375 -1.3125 -4.1875l4.328125 0q0.125 2.1875 1.75 3.46875q1.625 1.265625 4.296875 1.265625q2.46875 0 3.953125 -0.984375q1.484375 -1.0 1.484375 -2.671875zm15.875 -24.765625l0 6.140625l4.734375 0l0 3.34375l-4.734375 0l0 15.734375q0 1.515625 0.625 2.28125q0.640625 0.765625 2.15625 0.765625q0.75 0 2.0625 -0.28125l0 3.515625q-1.703125 0.46875 -3.328125 0.46875q-2.90625 0 -4.390625 -1.75q-1.46875 -1.765625 -1.46875 -5.0l0 -15.734375l-4.609375 0l0 -3.34375l4.609375 0l0 -6.140625l4.34375 0zm14.5078125 31.5l-4.34375 0l0 -25.359375l4.34375 0l0 25.359375zm-4.6875 -32.09375q0 -1.046875 0.640625 -1.765625q0.640625 -0.734375 1.90625 -0.734375q1.265625 0 1.921875 0.734375q0.65625 0.71875 0.65625 1.78125q0 1.046875 -0.65625 1.75q-0.65625 0.703125 -1.921875 0.703125q-1.265625 0 -1.90625 -0.703125q-0.640625 -0.703125 -0.640625 -1.765625zm15.7265625 6.734375l0.140625 3.1875q2.90625 -3.65625 7.59375 -3.65625q8.03125 0 8.109375 9.0625l0 16.765625l-4.34375 0l0 -16.78125q-0.015625 -2.75 -1.25 -4.0625q-1.234375 -1.3125 -3.828125 -1.3125q-2.109375 0 -3.703125 1.125q-1.59375 1.125 -2.484375 2.953125l0 18.078125l-4.34375 0l0 -25.359375l4.109375 0zm21.34375 12.46875q0 -5.9375 2.734375 -9.4375q2.75 -3.5 7.28125 -3.5q4.640625 0 7.234375 3.28125l0.21875 -2.8125l3.953125 0l0 24.75q0 4.921875 -2.921875 7.75q-2.90625 2.84375 -7.828125 2.84375q-2.75 0 -5.375 -1.171875q-2.625 -1.171875 -4.0 -3.203125l2.25 -2.609375q2.78125 3.453125 6.8125 3.453125q3.171875 0 4.9375 -1.78125q1.765625 -1.78125 1.765625 -5.03125l0 -2.171875q-2.59375 3.0 -7.09375 3.0q-4.453125 0 -7.21875 -3.578125q-2.75 -3.59375 -2.75 -9.78125zm4.359375 0.484375q0 4.296875 1.75 6.75q1.765625 2.4375 4.9375 2.4375q4.09375 0 6.015625 -3.71875l0 -11.578125q-1.984375 -3.640625 -5.96875 -3.640625q-3.171875 0 -4.953125 2.46875q-1.78125 2.453125 -1.78125 7.28125zm51.140625 12.40625q-0.375 -0.75 -0.609375 -2.671875q-3.015625 3.140625 -7.21875 3.140625q-3.75 0 -6.15625 -2.125q-2.390625 -2.125 -2.390625 -5.375q0 -3.96875 3.0 -6.15625q3.015625 -2.1875 8.484375 -2.1875l4.21875 0l0 -2.0q0 -2.265625 -1.359375 -3.609375q-1.359375 -1.359375 -4.015625 -1.359375q-2.3125 0 -3.890625 1.171875q-1.5625 1.171875 -1.5625 2.84375l-4.359375 0q0 -1.90625 1.34375 -3.671875q1.34375 -1.765625 3.65625 -2.796875q2.3125 -1.03125 5.078125 -1.03125q4.375 0 6.859375 2.1875q2.484375 2.1875 2.578125 6.03125l0 11.671875q0 3.5 0.890625 5.5625l0 0.375l-4.546875 0zm-7.1875 -3.3125q2.03125 0 3.859375 -1.046875q1.828125 -1.0625 2.65625 -2.75l0 -5.203125l-3.40625 0q-7.96875 0 -7.96875 4.671875q0 2.03125 1.359375 3.1875q1.359375 1.140625 3.5 1.140625zm21.75 -22.046875l0.140625 3.1875q2.90625 -3.65625 7.59375 -3.65625q8.03125 0 8.109375 9.0625l0 16.765625l-4.34375 0l0 -16.78125q-0.015625 -2.75 -1.25 -4.0625q-1.234375 -1.3125 -3.828125 -1.3125q-2.109375 0 -3.703125 1.125q-1.59375 1.125 -2.484375 2.953125l0 18.078125l-4.34375 0l0 -25.359375l4.109375 0zm21.328125 12.46875q0 -5.84375 2.765625 -9.390625q2.765625 -3.546875 7.234375 -3.546875q4.453125 0 7.0625 3.046875l0 -13.21875l4.328125 0l0 36.0l-3.984375 0l-0.203125 -2.71875q-2.609375 3.1875 -7.25 3.1875q-4.40625 0 -7.1875 -3.609375q-2.765625 -3.609375 -2.765625 -9.421875l0 -0.328125zm4.328125 0.484375q0 4.3125 1.78125 6.75q1.78125 2.4375 4.921875 2.4375q4.125 0 6.03125 -3.703125l0 -11.640625q-1.953125 -3.59375 -5.984375 -3.59375q-3.1875 0 -4.96875 2.46875q-1.78125 2.453125 -1.78125 7.28125zm34.625 -0.484375q0 -5.84375 2.765625 -9.390625q2.765625 -3.546875 7.234375 -3.546875q4.453125 0 7.0625 3.046875l0 -13.21875l4.328125 0l0 36.0l-3.984375 0l-0.203125 -2.71875q-2.609375 3.1875 -7.25 3.1875q-4.40625 0 -7.1875 -3.609375q-2.765625 -3.609375 -2.765625 -9.421875l0 -0.328125zm4.328125 0.484375q0 4.3125 1.78125 6.75q1.78125 2.4375 4.921875 2.4375q4.125 0 6.03125 -3.703125l0 -11.640625q-1.953125 -3.59375 -5.984375 -3.59375q-3.1875 0 -4.96875 2.46875q-1.78125 2.453125 -1.78125 7.28125zm39.445312 12.40625q-0.375 -0.75 -0.609375 -2.671875q-3.015625 3.140625 -7.21875 3.140625q-3.75 0 -6.15625 -2.125q-2.390625 -2.125 -2.390625 -5.375q0 -3.96875 3.0 -6.15625q3.015625 -2.1875 8.484375 -2.1875l4.21875 0l0 -2.0q0 -2.265625 -1.359375 -3.609375q-1.359375 -1.359375 -4.015625 -1.359375q-2.3125 0 -3.890625 1.171875q-1.5625 1.171875 -1.5625 2.84375l-4.359375 0q0 -1.90625 1.34375 -3.671875q1.34375 -1.765625 3.65625 -2.796875q2.3125 -1.03125 5.078125 -1.03125q4.375 0 6.859375 2.1875q2.484375 2.1875 2.578125 6.03125l0 11.671875q0 3.5 0.890625 5.5625l0 0.375l-4.546875 0zm-7.1875 -3.3125q2.03125 0 3.859375 -1.046875q1.828125 -1.0625 2.65625 -2.75l0 -5.203125l-3.40625 0q-7.96875 0 -7.96875 4.671875q0 2.03125 1.359375 3.1875q1.359375 1.140625 3.5 1.140625zm23.53125 -28.1875l0 6.140625l4.734375 0l0 3.34375l-4.734375 0l0 15.734375q0 1.515625 0.625 2.28125q0.640625 0.765625 2.15625 0.765625q0.75 0 2.0625 -0.28125l0 3.515625q-1.703125 0.46875 -3.328125 0.46875q-2.90625 0 -4.390625 -1.75q-1.46875 -1.765625 -1.46875 -5.0l0 -15.734375l-4.609375 0l0 -3.34375l4.609375 0l0 -6.140625l4.34375 0zm25.445312 31.5q-0.375 -0.75 -0.609375 -2.671875q-3.015625 3.140625 -7.21875 3.140625q-3.75 0 -6.15625 -2.125q-2.390625 -2.125 -2.390625 -5.375q0 -3.96875 3.0 -6.15625q3.015625 -2.1875 8.484375 -2.1875l4.21875 0l0 -2.0q0 -2.265625 -1.359375 -3.609375q-1.359375 -1.359375 -4.015625 -1.359375q-2.3125 0 -3.890625 1.171875q-1.5625 1.171875 -1.5625 2.84375l-4.359375 0q0 -1.90625 1.34375 -3.671875q1.34375 -1.765625 3.65625 -2.796875q2.3125 -1.03125 5.078125 -1.03125q4.375 0 6.859375 2.1875q2.484375 2.1875 2.578125 6.03125l0 11.671875q0 3.5 0.890625 5.5625l0 0.375l-4.546875 0zm-7.1875 -3.3125q2.03125 0 3.859375 -1.046875q1.828125 -1.0625 2.65625 -2.75l0 -5.203125l-3.40625 0q-7.96875 0 -7.96875 4.671875q0 2.03125 1.359375 3.1875q1.359375 1.140625 3.5 1.140625z" fill-rule="nonzero"/><path fill="#80c9e8" d="m52.07923 207.3346q-0.375 -0.75 -0.609375 -2.671875q-3.015625 3.140625 -7.21875 3.140625q-3.75 0 -6.15625 -2.125q-2.390625 -2.125 -2.390625 -5.375q0 -3.96875 3.0 -6.15625q3.015625 -2.1875 8.484375 -2.1875l4.21875 0l0 -2.0q0 -2.265625 -1.359375 -3.609375q-1.359375 -1.359375 -4.015625 -1.359375q-2.3125 0 -3.890625 1.171875q-1.5625 1.171875 -1.5625 2.84375l-4.359375 0q0 -1.90625 1.34375 -3.671875q1.34375 -1.765625 3.65625 -2.796875q2.3125 -1.03125 5.078125 -1.03125q4.375 0 6.859375 2.1875q2.484375 2.1875 2.578125 6.03125l0 11.671875q0 3.5 0.890625 5.5625l0 0.375l-4.546875 0zm-7.1875 -3.3125q2.03125 0 3.859375 -1.046875q1.828125 -1.0625 2.65625 -2.75l0 -5.203125l-3.40625 0q-7.96875 0 -7.96875 4.671875q0 2.03125 1.359375 3.1875q1.359375 1.140625 3.5 1.140625zm21.75 -22.046875l0.140625 3.1875q2.90625 -3.65625 7.59375 -3.65625q8.03125 0 8.109375 9.0625l0 16.765625l-4.34375 0l0 -16.78125q-0.015625 -2.75 -1.25 -4.0625q-1.234375 -1.3125 -3.828125 -1.3125q-2.109375 0 -3.703125 1.125q-1.59375 1.125 -2.484375 2.953125l0 18.078125l-4.34375 0l0 -25.359375l4.109375 0zm38.03125 25.359375q-0.375 -0.75 -0.609375 -2.671875q-3.015625 3.140625 -7.21875 3.140625q-3.75 0 -6.15625 -2.125q-2.390625 -2.125 -2.390625 -5.375q0 -3.96875 3.0 -6.15625q3.015625 -2.1875 8.484375 -2.1875l4.21875 0l0 -2.0q0 -2.265625 -1.359375 -3.609375q-1.359375 -1.359375 -4.015625 -1.359375q-2.3125 0 -3.890625 1.171875q-1.5625 1.171875 -1.5625 2.84375l-4.359375 0q0 -1.90625 1.34375 -3.671875q1.34375 -1.765625 3.65625 -2.796875q2.3125 -1.03125 5.078125 -1.03125q4.375 0 6.859375 2.1875q2.484375 2.1875 2.578125 6.03125l0 11.671875q0 3.5 0.890625 5.5625l0 0.375l-4.546875 0zm-7.1875 -3.3125q2.03125 0 3.859375 -1.046875q1.828125 -1.0625 2.65625 -2.75l0 -5.203125l-3.40625 0q-7.96875 0 -7.96875 4.671875q0 2.03125 1.359375 3.1875q1.359375 1.140625 3.5 1.140625zm22.359375 3.3125l-4.34375 0l0 -36.0l4.34375 0l0 36.0zm15.22657 -6.359375l5.90625 -19.0l4.640625 0l-10.1875 29.28125q-2.375 6.328125 -7.5312576 6.328125l-0.8125 -0.078125l-1.625 -0.296875l0 -3.515625l1.171875 0.09375q2.2031326 0 3.4375076 -0.890625q1.234375 -0.890625 2.03125 -3.265625l0.953125 -2.578125l-9.046883 -25.078125l4.7343826 0l6.328125 19.0zm29.179688 -0.375q0 -1.75 -1.328125 -2.71875q-1.3125 -0.984375 -4.609375 -1.6875q-3.296875 -0.703125 -5.234375 -1.6875q-1.921875 -0.984375 -2.859375 -2.34375q-0.921875 -1.359375 -0.921875 -3.234375q0 -3.109375 2.640625 -5.265625q2.640625 -2.15625 6.734375 -2.15625q4.3125 0 7.0 2.234375q2.6875 2.21875 2.6875 5.6875l-4.359375 0q0 -1.78125 -1.515625 -3.0625q-1.515625 -1.296875 -3.8125 -1.296875q-2.359375 0 -3.703125 1.03125q-1.328125 1.03125 -1.328125 2.6875q0 1.578125 1.234375 2.375q1.25 0.796875 4.484375 1.53125q3.25 0.71875 5.265625 1.734375q2.015625 1.0 2.984375 2.421875q0.984375 1.40625 0.984375 3.453125q0 3.390625 -2.71875 5.453125q-2.71875 2.046875 -7.0625 2.046875q-3.046875 0 -5.390625 -1.078125q-2.34375 -1.078125 -3.671875 -3.015625q-1.3125 -1.9375 -1.3125 -4.1875l4.328125 0q0.125 2.1875 1.75 3.46875q1.625 1.265625 4.296875 1.265625q2.46875 0 3.953125 -0.984375q1.484375 -1.0 1.484375 -2.671875zm14.703125 6.734375l-4.34375 0l0 -25.359375l4.34375 0l0 25.359375zm-4.6875 -32.09375q0 -1.046875 0.640625 -1.765625q0.640625 -0.734375 1.90625 -0.734375q1.265625 0 1.921875 0.734375q0.65625 0.71875 0.65625 1.78125q0 1.046875 -0.65625 1.75q-0.65625 0.703125 -1.921875 0.703125q-1.265625 0 -1.90625 -0.703125q-0.640625 -0.703125 -0.640625 -1.765625zm26.382812 25.359375q0 -1.75 -1.328125 -2.71875q-1.3125 -0.984375 -4.609375 -1.6875q-3.296875 -0.703125 -5.234375 -1.6875q-1.921875 -0.984375 -2.859375 -2.34375q-0.921875 -1.359375 -0.921875 -3.234375q0 -3.109375 2.640625 -5.265625q2.640625 -2.15625 6.734375 -2.15625q4.3125 0 7.0 2.234375q2.6875 2.21875 2.6875 5.6875l-4.359375 0q0 -1.78125 -1.515625 -3.0625q-1.515625 -1.296875 -3.8125 -1.296875q-2.359375 0 -3.703125 1.03125q-1.328125 1.03125 -1.328125 2.6875q0 1.578125 1.234375 2.375q1.25 0.796875 4.484375 1.53125q3.25 0.71875 5.265625 1.734375q2.015625 1.0 2.984375 2.421875q0.984375 1.40625 0.984375 3.453125q0 3.390625 -2.71875 5.453125q-2.71875 2.046875 -7.0625 2.046875q-3.046875 0 -5.390625 -1.078125q-2.34375 -1.078125 -3.671875 -3.015625q-1.3125 -1.9375 -1.3125 -4.1875l4.328125 0q0.125 2.1875 1.75 3.46875q1.625 1.265625 4.296875 1.265625q2.46875 0 3.953125 -0.984375q1.484375 -1.0 1.484375 -2.671875zm9.84375 13.53125l-2.453125 -1.6875q2.203125 -3.0625 2.296875 -6.328125l0 -3.921875l4.234375 0l0 3.40625q0 2.375 -1.15625 4.734375q-1.15625 2.375 -2.921875 3.796875zm26.960938 -6.796875l-4.5 0l0 -34.125l4.5 0l0 34.125zm21.562485 0l0 -22.015625l-4.0156097 0l0 -3.34375l4.0156097 0l0 -2.609375q0 -4.078125 2.171875 -6.296875q2.1875 -2.234375 6.171875 -2.234375q1.5 0 2.96875 0.40625l-0.234375 3.515625q-1.09375 -0.21875 -2.34375 -0.21875q-2.109375 0 -3.265625 1.234375q-1.140625 1.234375 -1.140625 3.53125l0 2.671875l5.421875 0l0 3.34375l-5.421875 0l0 22.015625l-4.328125 0zm13.3828125 -12.921875q0 -3.71875 1.453125 -6.6875q1.46875 -2.984375 4.078125 -4.59375q2.625 -1.625 5.96875 -1.625q5.1875 0 8.375 3.59375q3.203125 3.578125 3.203125 9.53125l0 0.296875q0 3.703125 -1.421875 6.65625q-1.40625 2.9375 -4.046875 4.578125q-2.640625 1.640625 -6.0625 1.640625q-5.15625 0 -8.359375 -3.578125q-3.1875 -3.59375 -3.1875 -9.5l0 -0.3125zm4.359375 0.515625q0 4.21875 1.953125 6.78125q1.953125 2.546875 5.234375 2.546875q3.3125 0 5.25 -2.578125q1.953125 -2.59375 1.953125 -7.265625q0 -4.171875 -1.984375 -6.75q-1.984375 -2.59375 -5.265625 -2.59375q-3.203125 0 -5.171875 2.5625q-1.96875 2.546875 -1.96875 7.296875zm39.8125 9.890625q-2.53125 2.984375 -7.421875 2.984375q-4.0625 0 -6.1875 -2.359375q-2.109375 -2.359375 -2.140625 -6.96875l0 -16.5l4.34375 0l0 16.375q0 5.765625 4.6875 5.765625q4.96875 0 6.609375 -3.703125l0 -18.4375l4.328125 0l0 25.359375l-4.125 0l-0.09375 -2.515625zm14.9140625 -22.84375l0.140625 3.1875q2.90625 -3.65625 7.59375 -3.65625q8.03125 0 8.109375 9.0625l0 16.765625l-4.34375 0l0 -16.78125q-0.015625 -2.75 -1.25 -4.0625q-1.234375 -1.3125 -3.828125 -1.3125q-2.109375 0 -3.703125 1.125q-1.59375 1.125 -2.484375 2.953125l0 18.078125l-4.34375 0l0 -25.359375l4.109375 0zm21.328125 12.46875q0 -5.84375 2.765625 -9.390625q2.765625 -3.546875 7.234375 -3.546875q4.453125 0 7.0625 3.046875l0 -13.21875l4.328125 0l0 36.0l-3.984375 0l-0.203125 -2.71875q-2.609375 3.1875 -7.25 3.1875q-4.40625 0 -7.1875 -3.609375q-2.765625 -3.609375 -2.765625 -9.421875l0 -0.328125zm4.328125 0.484375q0 4.3125 1.78125 6.75q1.78125 2.4375 4.921875 2.4375q4.125 0 6.03125 -3.703125l0 -11.640625q-1.953125 -3.59375 -5.984375 -3.59375q-3.1875 0 -4.96875 2.46875q-1.78125 2.453125 -1.78125 7.28125zm41.5625 -19.09375l0 6.140625l4.734375 0l0 3.34375l-4.734375 0l0 15.734375q0 1.515625 0.625 2.28125q0.640625 0.765625 2.15625 0.765625q0.75 0 2.0625 -0.28125l0 3.515625q-1.703125 0.46875 -3.328125 0.46875q-2.90625 0 -4.390625 -1.75q-1.46875 -1.765625 -1.46875 -5.0l0 -15.734375l-4.609375 0l0 -3.34375l4.609375 0l0 -6.140625l4.34375 0zm14.1328125 9.203125q2.875 -3.53125 7.5 -3.53125q8.03125 0 8.109375 9.0625l0 16.765625l-4.34375 0l0 -16.78125q-0.015625 -2.75 -1.25 -4.0625q-1.234375 -1.3125 -3.828125 -1.3125q-2.109375 0 -3.703125 1.125q-1.59375 1.125 -2.484375 2.953125l0 18.078125l-4.34375 0l0 -36.0l4.34375 0l0 13.703125zm37.75 22.296875q-0.375 -0.75 -0.609375 -2.671875q-3.015625 3.140625 -7.21875 3.140625q-3.75 0 -6.15625 -2.125q-2.390625 -2.125 -2.390625 -5.375q0 -3.96875 3.0 -6.15625q3.015625 -2.1875 8.484375 -2.1875l4.21875 0l0 -2.0q0 -2.265625 -1.359375 -3.609375q-1.359375 -1.359375 -4.015625 -1.359375q-2.3125 0 -3.890625 1.171875q-1.5625 1.171875 -1.5625 2.84375l-4.359375 0q0 -1.90625 1.34375 -3.671875q1.34375 -1.765625 3.65625 -2.796875q2.3125 -1.03125 5.078125 -1.03125q4.375 0 6.859375 2.1875q2.484375 2.1875 2.578125 6.03125l0 11.671875q0 3.5 0.890625 5.5625l0 0.375l-4.546875 0zm-7.1875 -3.3125q2.03125 0 3.859375 -1.046875q1.828125 -1.0625 2.65625 -2.75l0 -5.203125l-3.40625 0q-7.96875 0 -7.96875 4.671875q0 2.03125 1.359375 3.1875q1.359375 1.140625 3.5 1.140625zm23.53125 -28.1875l0 6.140625l4.734375 0l0 3.34375l-4.734375 0l0 15.734375q0 1.515625 0.625 2.28125q0.640625 0.765625 2.15625 0.765625q0.75 0 2.0625 -0.28125l0 3.515625q-1.703125 0.46875 -3.328125 0.46875q-2.90625 0 -4.390625 -1.75q-1.46875 -1.765625 -1.46875 -5.0l0 -15.734375l-4.609375 0l0 -3.34375l4.609375 0l0 -6.140625l4.34375 0zm37.328125 28.984375q-2.53125 2.984375 -7.421875 2.984375q-4.0625 0 -6.1875 -2.359375q-2.109375 -2.359375 -2.140625 -6.96875l0 -16.5l4.34375 0l0 16.375q0 5.765625 4.6875 5.765625q4.96875 0 6.609375 -3.703125l0 -18.4375l4.328125 0l0 25.359375l-4.125 0l-0.09375 -2.515625zm25.570312 -4.21875q0 -1.75 -1.328125 -2.71875q-1.3125 -0.984375 -4.609375 -1.6875q-3.296875 -0.703125 -5.234375 -1.6875q-1.921875 -0.984375 -2.859375 -2.34375q-0.921875 -1.359375 -0.921875 -3.234375q0 -3.109375 2.640625 -5.265625q2.640625 -2.15625 6.734375 -2.15625q4.3125 0 7.0 2.234375q2.6875 2.21875 2.6875 5.6875l-4.359375 0q0 -1.78125 -1.515625 -3.0625q-1.515625 -1.296875 -3.8125 -1.296875q-2.359375 0 -3.703125 1.03125q-1.328125 1.03125 -1.328125 2.6875q0 1.578125 1.234375 2.375q1.25 0.796875 4.484375 1.53125q3.25 0.71875 5.265625 1.734375q2.015625 1.0 2.984375 2.421875q0.984375 1.40625 0.984375 3.453125q0 3.390625 -2.71875 5.453125q-2.71875 2.046875 -7.0625 2.046875q-3.046875 0 -5.390625 -1.078125q-2.34375 -1.078125 -3.671875 -3.015625q-1.3125 -1.9375 -1.3125 -4.1875l4.328125 0q0.125 2.1875 1.75 3.46875q1.625 1.265625 4.296875 1.265625q2.46875 0 3.953125 -0.984375q1.484375 -1.0 1.484375 -2.671875zm20.515625 7.203125q-5.15625 0 -8.390625 -3.390625q-3.234375 -3.390625 -3.234375 -9.0625l0 -0.796875q0 -3.765625 1.4375 -6.734375q1.4375 -2.96875 4.03125 -4.640625q2.59375 -1.671875 5.609375 -1.671875q4.953125 0 7.6875 3.265625q2.75 3.25 2.75 9.3125l0 1.8125l-17.1875 0q0.09375 3.75 2.1875 6.0625q2.109375 2.296875 5.34375 2.296875q2.296875 0 3.890625 -0.9375q1.59375 -0.9375 2.78125 -2.484375l2.65625 2.0625q-3.1875 4.90625 -9.5625 4.90625zm-0.546875 -22.734375q-2.625 0 -4.40625 1.90625q-1.78125 1.90625 -2.203125 5.359375l12.703125 0l0 -0.328125q-0.1875 -3.3125 -1.78125 -5.125q-1.59375 -1.8125 -4.3125 -1.8125zm27.710938 0.796875q-0.984375 -0.171875 -2.140625 -0.171875q-4.265625 0 -5.78125 3.640625l0 18.0l-4.34375 0l0 -25.359375l4.21875 0l0.078125 2.921875q2.125 -3.390625 6.046875 -3.390625q1.265625 0 1.921875 0.328125l0 4.03125zm18.742188 14.734375q0 -1.75 -1.328125 -2.71875q-1.3125 -0.984375 -4.609375 -1.6875q-3.296875 -0.703125 -5.234375 -1.6875q-1.921875 -0.984375 -2.859375 -2.34375q-0.921875 -1.359375 -0.921875 -3.234375q0 -3.109375 2.640625 -5.265625q2.640625 -2.15625 6.734375 -2.15625q4.3125 0 7.0 2.234375q2.6875 2.21875 2.6875 5.6875l-4.359375 0q0 -1.78125 -1.515625 -3.0625q-1.515625 -1.296875 -3.8125 -1.296875q-2.359375 0 -3.703125 1.03125q-1.328125 1.03125 -1.328125 2.6875q0 1.578125 1.234375 2.375q1.25 0.796875 4.484375 1.53125q3.25 0.71875 5.265625 1.734375q2.015625 1.0 2.984375 2.421875q0.984375 1.40625 0.984375 3.453125q0 3.390625 -2.71875 5.453125q-2.71875 2.046875 -7.0625 2.046875q-3.046875 0 -5.390625 -1.078125q-2.34375 -1.078125 -3.671875 -3.015625q-1.3125 -1.9375 -1.3125 -4.1875l4.328125 0q0.125 2.1875 1.75 3.46875q1.625 1.265625 4.296875 1.265625q2.46875 0 3.953125 -0.984375q1.484375 -1.0 1.484375 -2.671875zm43.289062 -5.671875q0 5.796875 -2.65625 9.34375q-2.640625 3.53125 -7.15625 3.53125q-4.625 0 -7.265625 -2.9375l0 12.21875l-4.34375 0l0 -35.109375l3.96875 0l0.203125 2.8125q2.65625 -3.28125 7.359375 -3.28125q4.578125 0 7.234375 3.453125q2.65625 3.4375 2.65625 9.578125l0 0.390625zm-4.328125 -0.484375q0 -4.296875 -1.828125 -6.78125q-1.828125 -2.484375 -5.015625 -2.484375q-3.9375 0 -5.90625 3.5l0 12.109375q1.9375 3.46875 5.953125 3.46875q3.109375 0 4.953125 -2.46875q1.84375 -2.46875 1.84375 -7.34375zm22.101562 -8.578125q-0.984375 -0.171875 -2.140625 -0.171875q-4.265625 0 -5.78125 3.640625l0 18.0l-4.34375 0l0 -25.359375l4.21875 0l0.078125 2.921875q2.125 -3.390625 6.046875 -3.390625q1.265625 0 1.921875 0.328125l0 4.03125zm14.0625 21.9375q-5.15625 0 -8.390625 -3.390625q-3.234375 -3.390625 -3.234375 -9.0625l0 -0.796875q0 -3.765625 1.4375 -6.734375q1.4375 -2.96875 4.03125 -4.640625q2.59375 -1.671875 5.609375 -1.671875q4.953125 0 7.6875 3.265625q2.75 3.25 2.75 9.3125l0 1.8125l-17.1875 0q0.09375 3.75 2.1875 6.0625q2.109375 2.296875 5.34375 2.296875q2.296875 0 3.890625 -0.9375q1.59375 -0.9375 2.78125 -2.484375l2.65625 2.0625q-3.1875 4.90625 -9.5625 4.90625zm-0.546875 -22.734375q-2.625 0 -4.40625 1.90625q-1.78125 1.90625 -2.203125 5.359375l12.703125 0l0 -0.328125q-0.1875 -3.3125 -1.78125 -5.125q-1.59375 -1.8125 -4.3125 -1.8125zm17.585938 22.265625l0 -22.015625l-4.015625 0l0 -3.34375l4.015625 0l0 -2.609375q0 -4.078125 2.171875 -6.296875q2.1875 -2.234375 6.171875 -2.234375q1.5 0 2.96875 0.40625l-0.234375 3.515625q-1.09375 -0.21875 -2.34375 -0.21875q-2.109375 0 -3.265625 1.234375q-1.140625 1.234375 -1.140625 3.53125l0 2.671875l5.421875 0l0 3.34375l-5.421875 0l0 22.015625l-4.328125 0zm24.492188 0.46875q-5.15625 0 -8.390625 -3.390625q-3.234375 -3.390625 -3.234375 -9.0625l0 -0.796875q0 -3.765625 1.4375 -6.734375q1.4375 -2.96875 4.03125 -4.640625q2.59375 -1.671875 5.609375 -1.671875q4.953125 0 7.6875 3.265625q2.75 3.25 2.75 9.3125l0 1.8125l-17.1875 0q0.09375 3.75 2.1875 6.0625q2.109375 2.296875 5.34375 2.296875q2.296875 0 3.890625 -0.9375q1.59375 -0.9375 2.78125 -2.484375l2.65625 2.0625q-3.1875 4.90625 -9.5625 4.90625zm-0.546875 -22.734375q-2.625 0 -4.40625 1.90625q-1.78125 1.90625 -2.203125 5.359375l12.703125 0l0 -0.328125q-0.1875 -3.3125 -1.78125 -5.125q-1.59375 -1.8125 -4.3125 -1.8125zm27.710938 0.796875q-0.984375 -0.171875 -2.140625 -0.171875q-4.265625 0 -5.78125 3.640625l0 18.0l-4.34375 0l0 -25.359375l4.21875 0l0.078125 2.921875q2.125 -3.390625 6.046875 -3.390625q1.265625 0 1.921875 0.328125l0 4.03125zm21.75 -10.03125l0 6.140625l4.734375 0l0 3.34375l-4.734375 0l0 15.734375q0 1.515625 0.625 2.28125q0.640625 0.765625 2.15625 0.765625q0.75 0 2.0625 -0.28125l0 3.515625q-1.703125 0.46875 -3.328125 0.46875q-2.90625 0 -4.390625 -1.75q-1.46875 -1.765625 -1.46875 -5.0l0 -15.734375l-4.609375 0l0 -3.34375l4.609375 0l0 -6.140625l4.34375 0zm14.1328125 9.203125q2.875 -3.53125 7.5 -3.53125q8.03125 0 8.109375 9.0625l0 16.765625l-4.34375 0l0 -16.78125q-0.015625 -2.75 -1.25 -4.0625q-1.234375 -1.3125 -3.828125 -1.3125q-2.109375 0 -3.703125 1.125q-1.59375 1.125 -2.484375 2.953125l0 18.078125l-4.34375 0l0 -36.0l4.34375 0l0 13.703125zm32.625 22.765625q-5.15625 0 -8.390625 -3.390625q-3.234375 -3.390625 -3.234375 -9.0625l0 -0.796875q0 -3.765625 1.4375 -6.734375q1.4375 -2.96875 4.03125 -4.640625q2.59375 -1.671875 5.609375 -1.671875q4.953125 0 7.6875 3.265625q2.75 3.25 2.75 9.3125l0 1.8125l-17.1875 0q0.09375 3.75 2.1875 6.0625q2.109375 2.296875 5.34375 2.296875q2.296875 0 3.890625 -0.9375q1.59375 -0.9375 2.78125 -2.484375l2.65625 2.0625q-3.1875 4.90625 -9.5625 4.90625zm-0.546875 -22.734375q-2.625 0 -4.40625 1.90625q-1.78125 1.90625 -2.203125 5.359375l12.703125 0l0 -0.328125q-0.1875 -3.3125 -1.78125 -5.125q-1.59375 -1.8125 -4.3125 -1.8125z" fill-rule="nonzero"/><path fill="#80c9e8" d="m35.39173 252.44397q0 -5.9375 2.734375 -9.4375q2.75 -3.5 7.28125 -3.5q4.640625 0 7.234375 3.28125l0.21875 -2.8125l3.953125 0l0 24.75q0 4.921875 -2.921875 7.75q-2.90625 2.84375 -7.828125 2.84375q-2.75 0 -5.375 -1.171875q-2.625 -1.171875 -4.0 -3.203125l2.25 -2.609375q2.78125 3.453125 6.8125 3.453125q3.171875 0 4.9375 -1.78125q1.765625 -1.78125 1.765625 -5.03125l0 -2.171875q-2.59375 3.0 -7.09375 3.0q-4.453125 0 -7.21875 -3.578125q-2.75 -3.59375 -2.75 -9.78125zm4.359375 0.484375q0 4.296875 1.75 6.75q1.765625 2.4375 4.9375 2.4375q4.09375 0 6.015625 -3.71875l0 -11.578125q-1.984375 -3.640625 -5.96875 -3.640625q-3.171875 0 -4.953125 2.46875q-1.78125 2.453125 -1.78125 7.28125zm35.867188 -9.0625q-0.984375 -0.171875 -2.140625 -0.171875q-4.265625 0 -5.78125 3.640625l0 18.0l-4.34375 0l0 -25.359375l4.21875 0l0.078125 2.921875q2.125 -3.390625 6.046875 -3.390625q1.265625 0 1.921875 0.328125l0 4.03125zm18.695312 21.46875q-0.375 -0.75 -0.609375 -2.671875q-3.015625 3.140625 -7.21875 3.140625q-3.75 0 -6.15625 -2.125q-2.390625 -2.125 -2.390625 -5.375q0 -3.96875 3.0 -6.15625q3.015625 -2.1875 8.484375 -2.1875l4.21875 0l0 -2.0q0 -2.265625 -1.359375 -3.609375q-1.359375 -1.359375 -4.015625 -1.359375q-2.3125 0 -3.890625 1.171875q-1.5625 1.171875 -1.5625 2.84375l-4.359375 0q0 -1.90625 1.34375 -3.671875q1.34375 -1.765625 3.65625 -2.796875q2.3125 -1.03125 5.078125 -1.03125q4.375 0 6.859375 2.1875q2.484375 2.1875 2.578125 6.03125l0 11.671875q0 3.5 0.890625 5.5625l0 0.375l-4.546875 0zm-7.1875 -3.3125q2.03125 0 3.859375 -1.046875q1.828125 -1.0625 2.65625 -2.75l0 -5.203125l-3.40625 0q-7.96875 0 -7.96875 4.671875q0 2.03125 1.359375 3.1875q1.359375 1.140625 3.5 1.140625zm21.75 -22.046875l0.140625 3.1875q2.90625 -3.65625 7.59375 -3.65625q8.03125 0 8.109375 9.0625l0 16.765625l-4.34375 0l0 -16.78125q-0.015625 -2.75 -1.25 -4.0625q-1.234375 -1.3125 -3.828125 -1.3125q-2.109375 0 -3.703125 1.125q-1.59375 1.125 -2.484375 2.953125l0 18.078125l-4.34375 0l0 -25.359375l4.109375 0zm38.031258 22.84375q-2.53125 2.984375 -7.421875 2.984375q-4.0625 0 -6.1875 -2.359375q-2.109375 -2.359375 -2.140625 -6.96875l0 -16.5l4.34375 0l0 16.375q0 5.765625 4.6875 5.765625q4.96875 0 6.609375 -3.703125l0 -18.4375l4.328125 0l0 25.359375l-4.125 0l-0.09375 -2.515625zm15.5234375 2.515625l-4.34375 0l0 -36.0l4.34375 0l0 36.0zm22.585938 0q-0.375 -0.75 -0.609375 -2.671875q-3.015625 3.140625 -7.21875 3.140625q-3.75 0 -6.15625 -2.125q-2.390625 -2.125 -2.390625 -5.375q0 -3.96875 3.0 -6.15625q3.015625 -2.1875 8.484375 -2.1875l4.21875 0l0 -2.0q0 -2.265625 -1.359375 -3.609375q-1.359375 -1.359375 -4.015625 -1.359375q-2.3125 0 -3.890625 1.171875q-1.5625 1.171875 -1.5625 2.84375l-4.359375 0q0 -1.90625 1.34375 -3.671875q1.34375 -1.765625 3.65625 -2.796875q2.3125 -1.03125 5.078125 -1.03125q4.375 0 6.859375 2.1875q2.484375 2.1875 2.578125 6.03125l0 11.671875q0 3.5 0.890625 5.5625l0 0.375l-4.546875 0zm-7.1875 -3.3125q2.03125 0 3.859375 -1.046875q1.828125 -1.0625 2.65625 -2.75l0 -5.203125l-3.40625 0q-7.96875 0 -7.96875 4.671875q0 2.03125 1.359375 3.1875q1.359375 1.140625 3.5 1.140625zm29.90625 -18.15625q-0.984375 -0.171875 -2.140625 -0.171875q-4.265625 0 -5.78125 3.640625l0 18.0l-4.34375 0l0 -25.359375l4.21875 0l0.078125 2.921875q2.125 -3.390625 6.046875 -3.390625q1.265625 0 1.921875 0.328125l0 4.03125zm14.71875 8.546875q0 -3.71875 1.453125 -6.6875q1.46875 -2.984375 4.078125 -4.59375q2.625 -1.625 5.96875 -1.625q5.1875 0 8.375 3.59375q3.203125 3.578125 3.203125 9.53125l0 0.296875q0 3.703125 -1.421875 6.65625q-1.40625 2.9375 -4.046875 4.578125q-2.640625 1.640625 -6.0625 1.640625q-5.15625 0 -8.359375 -3.578125q-3.1875 -3.59375 -3.1875 -9.5l0 -0.3125zm4.359375 0.515625q0 4.21875 1.953125 6.78125q1.953125 2.546875 5.234375 2.546875q3.3125 0 5.25 -2.578125q1.953125 -2.59375 1.953125 -7.265625q0 -4.171875 -1.984375 -6.75q-1.984375 -2.59375 -5.265625 -2.59375q-3.203125 0 -5.171875 2.5625q-1.96875 2.546875 -1.96875 7.296875zm45.57811 0q0 5.796875 -2.65625 9.34375q-2.640625 3.53125 -7.15625 3.53125q-4.625 0 -7.2656097 -2.9375l0 12.21875l-4.34375 0l0 -35.109375l3.96875 0l0.203125 2.8125q2.6562347 -3.28125 7.3593597 -3.28125q4.578125 0 7.234375 3.453125q2.65625 3.4375 2.65625 9.578125l0 0.390625zm-4.328125 -0.484375q0 -4.296875 -1.828125 -6.78125q-1.828125 -2.484375 -5.015625 -2.484375q-3.9375 0 -5.9062347 3.5l0 12.109375q1.9374847 3.46875 5.9531097 3.46875q3.109375 0 4.953125 -2.46875q1.84375 -2.46875 1.84375 -7.34375zm15.7265625 -18.609375l0 6.140625l4.734375 0l0 3.34375l-4.734375 0l0 15.734375q0 1.515625 0.625 2.28125q0.640625 0.765625 2.15625 0.765625q0.75 0 2.0625 -0.28125l0 3.515625q-1.703125 0.46875 -3.328125 0.46875q-2.90625 0 -4.390625 -1.75q-1.46875 -1.765625 -1.46875 -5.0l0 -15.734375l-4.609375 0l0 -3.34375l4.609375 0l0 -6.140625l4.34375 0zm14.5078125 31.5l-4.34375 0l0 -25.359375l4.34375 0l0 25.359375zm-4.6875 -32.09375q0 -1.046875 0.640625 -1.765625q0.640625 -0.734375 1.90625 -0.734375q1.265625 0 1.921875 0.734375q0.65625 0.71875 0.65625 1.78125q0 1.046875 -0.65625 1.75q-0.65625 0.703125 -1.921875 0.703125q-1.265625 0 -1.90625 -0.703125q-0.640625 -0.703125 -0.640625 -1.765625zm10.4765625 19.171875q0 -3.71875 1.453125 -6.6875q1.46875 -2.984375 4.078125 -4.59375q2.625 -1.625 5.96875 -1.625q5.1875 0 8.375 3.59375q3.203125 3.578125 3.203125 9.53125l0 0.296875q0 3.703125 -1.421875 6.65625q-1.40625 2.9375 -4.046875 4.578125q-2.640625 1.640625 -6.0625 1.640625q-5.15625 0 -8.359375 -3.578125q-3.1875 -3.59375 -3.1875 -9.5l0 -0.3125zm4.359375 0.515625q0 4.21875 1.953125 6.78125q1.953125 2.546875 5.234375 2.546875q3.3125 0 5.25 -2.578125q1.953125 -2.59375 1.953125 -7.265625q0 -4.171875 -1.984375 -6.75q-1.984375 -2.59375 -5.265625 -2.59375q-3.203125 0 -5.171875 2.5625q-1.96875 2.546875 -1.96875 7.296875zm28.265625 -12.953125l0.140625 3.1875q2.90625 -3.65625 7.59375 -3.65625q8.03125 0 8.109375 9.0625l0 16.765625l-4.34375 0l0 -16.78125q-0.015625 -2.75 -1.25 -4.0625q-1.234375 -1.3125 -3.828125 -1.3125q-2.109375 0 -3.703125 1.125q-1.59375 1.125 -2.484375 2.953125l0 18.078125l-4.34375 0l0 -25.359375l4.109375 0zm22.46875 23.078125q0 -1.125 0.671875 -1.875q0.671875 -0.75 2.0 -0.75q1.34375 0 2.03125 0.75q0.6875 0.75 0.6875 1.875q0 1.078125 -0.6875 1.8125q-0.6875 0.734375 -2.03125 0.734375q-1.328125 0 -2.0 -0.734375q-0.671875 -0.734375 -0.671875 -1.8125z" fill-rule="nonzero"/><path fill="#000000" fill-opacity="0.0" d="m24.0 336.0l856.31494 0l0 108.31497l-856.31494 0z" fill-rule="evenodd"/><path fill="#ffffff" d="m40.59375 353.025l1.359375 1.0625q-2.0625 2.359375 -2.578125 4.765625l-0.46875 2.65625l-2.3125 0l0.328125 -2.140625q0.59375 -3.75 3.671875 -6.34375zm5.0 0l1.359375 1.0625q-2.0625 2.359375 -2.578125 4.765625l-0.46875 2.65625l-2.3125 0l0.328125 -2.140625q0.59375 -3.75 3.671875 -6.34375zm3.515625 30.375l-2.375 0l4.9375 -28.4375l2.390625 0l-4.953125 28.4375zm22.53125 -4.859375l0 1.65625l0.75 -1.8125l7.71875 -16.125l2.0 0l2.078125 16.15625l0.125 2.0l0.796875 -2.015625l7.0 -16.140625l2.46875 0l-9.640625 21.140625l-2.0 0l-2.3125 -16.765625l-0.03125 -1.171875l-0.4375 1.203125l-8.09375 16.734375l-1.984375 0l-2.25 -21.140625l2.1875 -0.015625l1.625 16.296875zm36.8125 4.859375q-0.09375 -0.75 -0.0625 -1.484375l0.171875 -1.46875q-1.453125 1.578125 -3.34375 2.484375q-1.890625 0.90625 -4.078125 0.859375q-2.671875 -0.03125 -4.34375 -1.6875q-1.671875 -1.65625 -1.484375 -4.15625q0.15625 -2.09375 1.421875 -3.625q1.28125 -1.53125 3.640625 -2.375q2.375 -0.859375 5.296875 -0.859375l4.328125 0.03125l0.34375 -2.421875q0.234375 -2.171875 -0.9375 -3.484375q-1.171875 -1.3125 -3.453125 -1.390625q-2.3125 -0.03125 -4.015625 1.15625q-1.703125 1.171875 -2.140625 3.109375l-2.28125 0q0.390625 -2.78125 2.84375 -4.515625q2.46875 -1.75 5.828125 -1.71875q3.265625 0.078125 5.03125 1.984375q1.765625 1.890625 1.4375 4.90625l-1.765625 10.625l-0.15625 1.703125q-0.0625 1.0625 0.15625 2.09375l-0.03125 0.234375l-2.40625 0zm-6.921875 -1.65625q2.15625 0.078125 4.109375 -1.03125q1.96875 -1.109375 3.265625 -3.140625l0.796875 -4.65625l-3.734375 -0.03125q-3.546875 0 -5.796875 1.265625q-2.25 1.265625 -2.484375 3.609375q-0.171875 1.71875 0.90625 2.828125q1.09375 1.109375 2.9375 1.15625zm28.117188 -3.859375q0.3125 -2.6875 -3.28125 -3.90625l-3.359375 -0.984375q-4.640625 -1.5625 -4.375 -5.21875q0.125 -2.640625 2.421875 -4.28125q2.296875 -1.65625 5.46875 -1.625q3.09375 0.046875 5.03125 1.765625q1.9375 1.703125 1.796875 4.546875l-2.296875 0q0.109375 -1.890625 -1.1875 -3.078125q-1.296875 -1.203125 -3.453125 -1.234375q-2.21875 0 -3.75 1.046875q-1.515625 1.046875 -1.71875 2.765625q-0.28125 2.515625 3.09375 3.53125l2.4375 0.703125l1.3125 0.453125q4.40625 1.65625 4.15625 5.40625q-0.15625 2.53125 -2.203125 4.171875q-2.03125 1.625 -5.25 1.828125l-0.8125 0.015625q-2.125 -0.03125 -3.84375 -0.828125q-1.71875 -0.796875 -2.640625 -2.21875q-0.90625 -1.421875 -0.796875 -3.28125l2.328125 0.015625q0 2.0 1.34375 3.15625q1.34375 1.140625 3.71875 1.1875q2.34375 0 3.984375 -1.0625q1.640625 -1.078125 1.875 -2.875zm22.003906 -15.625l-0.703125 3.625q1.40625 -1.953125 3.25 -3.0q1.84375 -1.046875 3.953125 -1.015625q3.046875 0.078125 4.4375 2.140625q1.390625 2.046875 0.984375 5.640625l-2.3125 13.75l-2.296875 0l2.296875 -13.796875q0.125 -1.109375 0.046875 -2.140625q-0.34375 -3.484375 -3.796875 -3.578125q-2.046875 -0.03125 -3.828125 1.234375q-1.78125 1.25 -3.125 3.78125l-2.5 14.5l-2.296875 0l3.671875 -21.140625l2.21875 0zm16.175781 10.375q0.34375 -3.0625 1.859375 -5.609375q1.53125 -2.546875 3.8125 -3.875q2.28125 -1.328125 4.9375 -1.28125q2.609375 0.046875 4.453125 1.453125q1.84375 1.390625 2.6875 3.796875q0.859375 2.40625 0.59375 5.34375l-0.046875 0.375q-0.578125 5.0 -3.546875 8.03125q-2.953125 3.015625 -7.09375 2.921875q-3.5625 -0.0625 -5.6875 -2.609375q-2.125 -2.5625 -2.09375 -6.765625l0.0625 -1.109375l0.0625 -0.671875zm2.265625 0.671875q-0.25 2.3125 0.34375 4.28125q0.59375 1.96875 1.890625 3.078125q1.3125 1.109375 3.265625 1.171875q2.109375 0.03125 3.859375 -1.078125q1.75 -1.109375 2.875 -3.140625q1.140625 -2.03125 1.46875 -4.5l0.0625 -0.640625q0.359375 -3.765625 -1.15625 -6.15625q-1.515625 -2.390625 -4.390625 -2.453125q-3.125 -0.09375 -5.40625 2.421875q-2.265625 2.5 -2.78125 6.65625l-0.03125 0.359375zm27.277344 -16.453125l-0.9375 5.40625l4.25 0l-0.34375 1.921875l-4.234375 0l-2.34375 14.09375l-0.03125 1.21875q0 2.125 1.953125 2.1875q0.59375 0.015625 1.890625 -0.140625l-0.09375 1.921875q-1.15625 0.328125 -2.34375 0.296875q-2.0625 -0.046875 -3.0 -1.4375q-0.9375 -1.40625 -0.671875 -4.0625l2.3125 -14.078125l-3.78125 0l0.34375 -1.921875l3.75 0l0.96875 -5.40625l2.3125 0zm27.472656 21.03125q0.3125 -2.6875 -3.28125 -3.90625l-3.359375 -0.984375q-4.640625 -1.5625 -4.375 -5.21875q0.125 -2.640625 2.421875 -4.28125q2.296875 -1.65625 5.46875 -1.625q3.09375 0.046875 5.03125 1.765625q1.9375 1.703125 1.796875 4.546875l-2.296875 0q0.109375 -1.890625 -1.1875 -3.078125q-1.296875 -1.203125 -3.453125 -1.234375q-2.21875 0 -3.75 1.046875q-1.515625 1.046875 -1.71875 2.765625q-0.28125 2.515625 3.09375 3.53125l2.4375 0.703125l1.3125 0.453125q4.40625 1.65625 4.15625 5.40625q-0.15625 2.53125 -2.203125 4.171875q-2.03125 1.625 -5.25 1.828125l-0.8125 0.015625q-2.125 -0.03125 -3.84375 -0.828125q-1.71875 -0.796875 -2.640625 -2.21875q-0.90625 -1.421875 -0.796875 -3.28125l2.328125 0.015625q0 2.0 1.34375 3.15625q1.34375 1.140625 3.71875 1.1875q2.34375 0 3.984375 -1.0625q1.640625 -1.078125 1.875 -2.875zm20.5 2.859375q-2.515625 3.171875 -6.953125 3.046875q-2.984375 -0.0625 -4.453125 -2.15625q-1.46875 -2.109375 -1.046875 -5.828125l2.265625 -13.546875l2.296875 0l-2.25 13.59375q-0.109375 1.0625 -0.015625 2.09375q0.140625 1.796875 1.078125 2.78125q0.9375 0.96875 2.578125 1.03125q2.34375 0.09375 4.328125 -1.078125q2.0 -1.1875 2.578125 -3.109375l2.625 -15.3125l2.34375 0l-3.671875 21.140625l-2.265625 0l0.5625 -2.65625zm20.394531 -16.5q-0.765625 -0.15625 -1.546875 -0.1875q-2.21875 0 -4.078125 1.359375q-1.859375 1.359375 -2.484375 3.453125l-2.5 14.53125l-2.296875 0l3.671875 -21.140625l2.28125 0l-0.703125 3.359375q1.15625 -1.875 2.78125 -2.84375q1.625 -0.984375 3.578125 -0.9375q0.6875 0 1.609375 0.265625l-0.3125 2.140625zm8.339844 19.546875q-2.546875 -0.03125 -4.40625 -1.40625q-1.84375 -1.390625 -2.71875 -3.765625q-0.859375 -2.375 -0.609375 -5.125l0.0625 -0.65625q0.265625 -2.9375 1.734375 -5.578125q1.46875 -2.65625 3.703125 -4.046875q2.25 -1.390625 4.8125 -1.34375q2.359375 0.046875 3.984375 1.296875q1.640625 1.25 2.375 3.484375q0.75 2.21875 0.46875 4.90625l-0.15625 1.4375l-14.625 0l-0.0625 0.46875q-0.28125 2.125 0.3125 4.078125q0.609375 1.9375 1.984375 3.078125q1.375 1.140625 3.3125 1.171875q1.875 0.0625 3.375 -0.71875q1.515625 -0.78125 2.78125 -2.09375l1.359375 1.125q-1.421875 1.828125 -3.390625 2.78125q-1.953125 0.953125 -4.296875 0.90625zm2.453125 -19.921875q-2.53125 -0.09375 -4.546875 1.796875q-2.015625 1.890625 -3.03125 5.328125l12.265625 0.015625l0.0625 -0.28125q0.359375 -2.78125 -0.96875 -4.78125q-1.328125 -2.0 -3.78125 -2.078125zm24.816406 14.671875l0 1.65625l0.75 -1.8125l7.71875 -16.125l2.0 0l2.078125 16.15625l0.125 2.0l0.796875 -2.015625l7.0 -16.140625l2.46875 0l-9.640625 21.140625l-2.0 0l-2.3125 -16.765625l-0.03125 -1.171875l-0.4375 1.203125l-8.09375 16.734375l-1.984375 0l-2.25 -21.140625l2.1875 -0.015625l1.625 16.296875zm28.875 -12.703125q3.046875 -4.046875 7.1875 -3.96875q3.046875 0.078125 4.4375 2.140625q1.390625 2.046875 0.984375 5.640625l-2.3125 13.75l-2.296875 0l2.296875 -13.796875q0.125 -1.109375 0.046875 -2.140625q-0.34375 -3.484375 -3.796875 -3.578125q-2.046875 -0.03125 -3.828125 1.234375q-1.78125 1.25 -3.125 3.78125l-2.5 14.5l-2.296875 0l5.203125 -30.0l2.3125 0l-2.3125 12.4375zm23.34375 14.125l9.046875 -17.703125l2.59375 0l-12.890625 24.546875q-1.421875 2.84375 -3.015625 4.03125q-1.59375 1.203125 -3.546875 1.15625q-0.75 -0.03125 -1.875 -0.3125l0.234375 -1.90625l1.171875 0.125q3.28125 0.140625 5.171875 -3.859375l1.484375 -2.953125l-4.078125 -20.828125l2.4375 0l3.265625 17.703125zm29.371094 -23.109375l-0.9375 5.40625l4.25 0l-0.34375 1.921875l-4.234375 0l-2.34375 14.09375l-0.03125 1.21875q0 2.125 1.953125 2.1875q0.59375 0.015625 1.890625 -0.140625l-0.09375 1.921875q-1.15625 0.328125 -2.34375 0.296875q-2.0625 -0.046875 -3.0 -1.4375q-0.9375 -1.40625 -0.671875 -4.0625l2.3125 -14.078125l-3.78125 0l0.34375 -1.921875l3.75 0l0.96875 -5.40625l2.3125 0zm9.6875 8.984375q3.046875 -4.046875 7.1875 -3.96875q3.046875 0.078125 4.4375 2.140625q1.390625 2.046875 0.984375 5.640625l-2.3125 13.75l-2.296875 0l2.296875 -13.796875q0.125 -1.109375 0.046875 -2.140625q-0.34375 -3.484375 -3.796875 -3.578125q-2.046875 -0.03125 -3.828125 1.234375q-1.78125 1.25 -3.125 3.78125l-2.5 14.5l-2.296875 0l5.203125 -30.0l2.3125 0l-2.3125 12.4375zm24.65625 17.953125q-2.546875 -0.03125 -4.40625 -1.40625q-1.84375 -1.390625 -2.71875 -3.765625q-0.859375 -2.375 -0.609375 -5.125l0.0625 -0.65625q0.265625 -2.9375 1.734375 -5.578125q1.46875 -2.65625 3.703125 -4.046875q2.25 -1.390625 4.8125 -1.34375q2.359375 0.046875 3.984375 1.296875q1.640625 1.25 2.375 3.484375q0.75 2.21875 0.46875 4.90625l-0.15625 1.4375l-14.625 0l-0.0625 0.46875q-0.28125 2.125 0.3125 4.078125q0.609375 1.9375 1.984375 3.078125q1.375 1.140625 3.3125 1.171875q1.875 0.0625 3.375 -0.71875q1.515625 -0.78125 2.78125 -2.09375l1.359375 1.125q-1.421875 1.828125 -3.390625 2.78125q-1.953125 0.953125 -4.296875 0.90625zm2.453125 -19.921875q-2.53125 -0.09375 -4.546875 1.796875q-2.015625 1.890625 -3.03125 5.328125l12.265625 0.015625l0.0625 -0.28125q0.359375 -2.78125 -0.96875 -4.78125q-1.328125 -2.0 -3.78125 -2.078125zm31.941406 0.375q-0.765625 -0.15625 -1.546875 -0.1875q-2.21875 0 -4.078125 1.359375q-1.859375 1.359375 -2.484375 3.453125l-2.5 14.53125l-2.296875 0l3.671875 -21.140625l2.28125 0l-0.703125 3.359375q1.15625 -1.875 2.78125 -2.84375q1.625 -0.984375 3.578125 -0.9375q0.6875 0 1.609375 0.265625l-0.3125 2.140625zm8.339844 19.546875q-2.546875 -0.03125 -4.40625 -1.40625q-1.84375 -1.390625 -2.71875 -3.765625q-0.859375 -2.375 -0.609375 -5.125l0.0625 -0.65625q0.265625 -2.9375 1.734375 -5.578125q1.46875 -2.65625 3.703125 -4.046875q2.25 -1.390625 4.8125 -1.34375q2.359375 0.046875 3.984375 1.296875q1.640625 1.25 2.375 3.484375q0.75 2.21875 0.46875 4.90625l-0.15625 1.4375l-14.625 0l-0.0625 0.46875q-0.28125 2.125 0.3125 4.078125q0.609375 1.9375 1.984375 3.078125q1.375 1.140625 3.3125 1.171875q1.875 0.0625 3.375 -0.71875q1.515625 -0.78125 2.78125 -2.09375l1.359375 1.125q-1.421875 1.828125 -3.390625 2.78125q-1.953125 0.953125 -4.296875 0.90625zm2.453125 -19.921875q-2.53125 -0.09375 -4.546875 1.796875q-2.015625 1.890625 -3.03125 5.328125l12.265625 0.015625l0.0625 -0.28125q0.359375 -2.78125 -0.96875 -4.78125q-1.328125 -2.0 -3.78125 -2.078125zm12.0 19.53125l-2.34375 0l5.21875 -30.0l2.34375 0l-5.21875 30.0zm19.433594 0q-0.09375 -0.75 -0.0625 -1.484375l0.171875 -1.46875q-1.453125 1.578125 -3.34375 2.484375q-1.890625 0.90625 -4.078125 0.859375q-2.671875 -0.03125 -4.34375 -1.6875q-1.671875 -1.65625 -1.484375 -4.15625q0.15625 -2.09375 1.421875 -3.625q1.28125 -1.53125 3.640625 -2.375q2.375 -0.859375 5.296875 -0.859375l4.328125 0.03125l0.34375 -2.421875q0.234375 -2.171875 -0.9375 -3.484375q-1.171875 -1.3125 -3.453125 -1.390625q-2.3125 -0.03125 -4.015625 1.15625q-1.703125 1.171875 -2.140625 3.109375l-2.28125 0q0.390625 -2.78125 2.84375 -4.515625q2.46875 -1.75 5.828125 -1.71875q3.265625 0.078125 5.03125 1.984375q1.765625 1.890625 1.4375 4.90625l-1.765625 10.625l-0.15625 1.703125q-0.0625 1.0625 0.15625 2.09375l-0.03125 0.234375l-2.40625 0zm-6.921875 -1.65625q2.15625 0.078125 4.109375 -1.03125q1.96875 -1.109375 3.265625 -3.140625l0.796875 -4.65625l-3.734375 -0.03125q-3.546875 0 -5.796875 1.265625q-2.25 1.265625 -2.484375 3.609375q-0.171875 1.71875 0.90625 2.828125q1.09375 1.109375 2.9375 1.15625zm23.304688 -10.9375l6.859375 -8.546875l2.890625 0l-8.671875 10.5l5.53125 10.640625l-2.578125 0l-4.421875 -8.90625l-7.21875 8.90625l-2.859375 0l9.03125 -10.875l-5.296875 -10.265625l2.578125 0l4.15625 8.546875zm23.65625 12.59375q-0.09375 -0.75 -0.0625 -1.484375l0.171875 -1.46875q-1.453125 1.578125 -3.34375 2.484375q-1.890625 0.90625 -4.078125 0.859375q-2.671875 -0.03125 -4.34375 -1.6875q-1.671875 -1.65625 -1.484375 -4.15625q0.15625 -2.09375 1.421875 -3.625q1.28125 -1.53125 3.640625 -2.375q2.375 -0.859375 5.296875 -0.859375l4.328125 0.03125l0.34375 -2.421875q0.234375 -2.171875 -0.9375 -3.484375q-1.171875 -1.3125 -3.453125 -1.390625q-2.3125 -0.03125 -4.015625 1.15625q-1.703125 1.171875 -2.140625 3.109375l-2.28125 0q0.390625 -2.78125 2.84375 -4.515625q2.46875 -1.75 5.828125 -1.71875q3.265625 0.078125 5.03125 1.984375q1.765625 1.890625 1.4375 4.90625l-1.765625 10.625l-0.15625 1.703125q-0.0625 1.0625 0.15625 2.09375l-0.03125 0.234375l-2.40625 0zm-6.921875 -1.65625q2.15625 0.078125 4.109375 -1.03125q1.96875 -1.109375 3.265625 -3.140625l0.796875 -4.65625l-3.734375 -0.03125q-3.546875 0 -5.796875 1.265625q-2.25 1.265625 -2.484375 3.609375q-0.171875 1.71875 0.90625 2.828125q1.09375 1.109375 2.9375 1.15625zm22.929688 -24.890625l-0.9375 5.40625l4.25 0l-0.34375 1.921875l-4.234375 0l-2.34375 14.09375l-0.03125 1.21875q0 2.125 1.953125 2.1875q0.59375 0.015625 1.890625 -0.140625l-0.09375 1.921875q-1.15625 0.328125 -2.34375 0.296875q-2.0625 -0.046875 -3.0 -1.4375q-0.9375 -1.40625 -0.671875 -4.0625l2.3125 -14.078125l-3.78125 0l0.34375 -1.921875l3.75 0l0.96875 -5.40625l2.3125 0zm7.078125 26.546875l-2.34375 0l3.6875 -21.140625l2.328125 0l-3.671875 21.140625zm1.984375 -27.25q0.109375 -1.265625 1.6875 -1.59375q0.765625 0.125 1.078125 0.46875q0.328125 0.34375 0.421875 1.125q-0.1875 0.75 -0.5625 1.09375q-0.375 0.328125 -1.109375 0.484375q-1.59375 -0.234375 -1.515625 -1.578125zm4.8710938 16.484375q0.34375 -3.0625 1.859375 -5.609375q1.53125 -2.546875 3.8125 -3.875q2.28125 -1.328125 4.9375 -1.28125q2.609375 0.046875 4.453125 1.453125q1.84375 1.390625 2.6875 3.796875q0.859375 2.40625 0.59375 5.34375l-0.046875 0.375q-0.578125 5.0 -3.546875 8.03125q-2.953125 3.015625 -7.09375 2.921875q-3.5625 -0.0625 -5.6875 -2.609375q-2.125 -2.5625 -2.09375 -6.765625l0.0625 -1.109375l0.0625 -0.671875zm2.265625 0.671875q-0.25 2.3125 0.34375 4.28125q0.59375 1.96875 1.890625 3.078125q1.3125 1.109375 3.265625 1.171875q2.109375 0.03125 3.859375 -1.078125q1.75 -1.109375 2.875 -3.140625q1.140625 -2.03125 1.46875 -4.5l0.0625 -0.640625q0.359375 -3.765625 -1.15625 -6.15625q-1.515625 -2.390625 -4.390625 -2.453125q-3.125 -0.09375 -5.40625 2.421875q-2.265625 2.5 -2.78125 6.65625l-0.03125 0.359375zm24.996094 -11.046875l-0.703125 3.625q1.40625 -1.953125 3.25 -3.0q1.84375 -1.046875 3.953125 -1.015625q3.046875 0.078125 4.4375 2.140625q1.390625 2.046875 0.984375 5.640625l-2.3125 13.75l-2.296875 0l2.296875 -13.796875q0.125 -1.109375 0.046875 -2.140625q-0.34375 -3.484375 -3.796875 -3.578125q-2.046875 -0.03125 -3.828125 1.234375q-1.78125 1.25 -3.125 3.78125l-2.5 14.5l-2.296875 0l3.671875 -21.140625l2.21875 0zm34.101562 21.546875q-1.8125 -0.03125 -3.421875 -0.765625q-1.609375 -0.734375 -2.609375 -2.296875l-1.953125 10.78125l-2.3125 0l5.078125 -29.265625l2.15625 0l-0.546875 3.0q2.75 -3.5 6.890625 -3.390625q2.96875 0.078125 4.625 2.21875q1.671875 2.125 1.71875 6.03125q0.03125 1.234375 -0.109375 2.375l-0.078125 0.546875q-0.484375 3.421875 -1.84375 5.90625q-1.34375 2.484375 -3.28125 3.703125q-1.921875 1.21875 -4.3125 1.15625zm7.1875 -11.3125l0.125 -1.84375q0.046875 -3.125 -1.140625 -4.90625q-1.1875 -1.78125 -3.53125 -1.859375q-2.046875 -0.03125 -3.71875 1.015625q-1.671875 1.03125 -2.828125 3.03125l-1.734375 10.171875q0.625 1.796875 1.984375 2.734375q1.359375 0.9375 3.25 1.0q2.828125 0.09375 4.78125 -2.125q1.96875 -2.21875 2.65625 -6.171875l0.15625 -1.046875zm18.792969 10.90625q-0.09375 -0.75 -0.0625 -1.484375l0.171875 -1.46875q-1.453125 1.578125 -3.34375 2.484375q-1.890625 0.90625 -4.078125 0.859375q-2.671875 -0.03125 -4.34375 -1.6875q-1.671875 -1.65625 -1.484375 -4.15625q0.15625 -2.09375 1.421875 -3.625q1.28125 -1.53125 3.640625 -2.375q2.375 -0.859375 5.296875 -0.859375l4.328125 0.03125l0.34375 -2.421875q0.234375 -2.171875 -0.9375 -3.484375q-1.171875 -1.3125 -3.453125 -1.390625q-2.3125 -0.03125 -4.015625 1.15625q-1.703125 1.171875 -2.140625 3.109375l-2.28125 0q0.390625 -2.78125 2.84375 -4.515625q2.46875 -1.75 5.828125 -1.71875q3.265625 0.078125 5.03125 1.984375q1.765625 1.890625 1.4375 4.90625l-1.765625 10.625l-0.15625 1.703125q-0.0625 1.0625 0.15625 2.09375l-0.03125 0.234375l-2.40625 0zm-6.921875 -1.65625q2.15625 0.078125 4.109375 -1.03125q1.96875 -1.109375 3.265625 -3.140625l0.796875 -4.65625l-3.734375 -0.03125q-3.546875 0 -5.796875 1.265625q-2.25 1.265625 -2.484375 3.609375q-0.171875 1.71875 0.90625 2.828125q1.09375 1.109375 2.9375 1.15625zm25.273438 -19.890625q1.90625 0.0625 3.46875 0.90625q1.5625 0.828125 2.453125 2.546875l0.71875 -3.046875l2.171875 0l-3.546875 20.765625q-0.375 2.65625 -1.6875 4.6875q-1.3125 2.03125 -3.359375 3.109375q-2.03125 1.09375 -4.53125 1.015625q-1.984375 -0.03125 -3.8125 -1.0q-1.828125 -0.96875 -2.9375 -2.703125l1.4375 -1.375q2.015625 3.03125 5.25 3.109375q2.890625 0.078125 4.828125 -1.75q1.953125 -1.828125 2.46875 -4.96875l0.5 -2.46875q-2.8125 3.234375 -6.78125 3.109375q-2.96875 -0.078125 -4.625 -2.265625q-1.640625 -2.203125 -1.71875 -6.0q-0.109375 -3.5 1.171875 -6.90625q1.296875 -3.421875 3.5 -5.125q2.21875 -1.71875 5.03125 -1.640625zm-7.265625 11.328125l-0.109375 1.8125q-0.0625 3.203125 1.109375 4.953125q1.171875 1.75 3.453125 1.828125q1.953125 0.078125 3.65625 -0.90625q1.703125 -1.0 2.9375 -2.953125l1.65625 -9.875q-0.53125 -1.890625 -1.828125 -2.984375q-1.296875 -1.109375 -3.328125 -1.171875q-2.984375 -0.09375 -4.953125 2.3125q-1.96875 2.390625 -2.59375 6.984375zm26.84375 10.609375q-2.546875 -0.03125 -4.40625 -1.40625q-1.84375 -1.390625 -2.71875 -3.765625q-0.859375 -2.375 -0.609375 -5.125l0.0625 -0.65625q0.265625 -2.9375 1.734375 -5.578125q1.46875 -2.65625 3.703125 -4.046875q2.25 -1.390625 4.8125 -1.34375q2.359375 0.046875 3.984375 1.296875q1.640625 1.25 2.375 3.484375q0.75 2.21875 0.46875 4.90625l-0.15625 1.4375l-14.625 0l-0.0625 0.46875q-0.28125 2.125 0.3125 4.078125q0.609375 1.9375 1.984375 3.078125q1.375 1.140625 3.3125 1.171875q1.875 0.0625 3.375 -0.71875q1.515625 -0.78125 2.78125 -2.09375l1.359375 1.125q-1.421875 1.828125 -3.390625 2.78125q-1.953125 0.953125 -4.296875 0.90625zm2.453125 -19.921875q-2.53125 -0.09375 -4.546875 1.796875q-2.015625 1.890625 -3.03125 5.328125l12.265625 0.015625l0.0625 -0.28125q0.359375 -2.78125 -0.96875 -4.78125q-1.328125 -2.0 -3.78125 -2.078125zm24.816406 14.671875l0 1.65625l0.75 -1.8125l7.71875 -16.125l2.0 0l2.078125 16.15625l0.125 2.0l0.796875 -2.015625l7.0 -16.140625l2.46875 0l-9.640625 21.140625l-2.0 0l-2.3125 -16.765625l-0.03125 -1.171875l-0.4375 1.203125l-8.09375 16.734375l-1.984375 0l-2.25 -21.140625l2.1875 -0.015625l1.625 16.296875zm36.8125 4.859375q-0.09375 -0.75 -0.0625 -1.484375l0.171875 -1.46875q-1.453125 1.578125 -3.34375 2.484375q-1.890625 0.90625 -4.078125 0.859375q-2.671875 -0.03125 -4.34375 -1.6875q-1.671875 -1.65625 -1.484375 -4.15625q0.15625 -2.09375 1.421875 -3.625q1.28125 -1.53125 3.640625 -2.375q2.375 -0.859375 5.296875 -0.859375l4.328125 0.03125l0.34375 -2.421875q0.234375 -2.171875 -0.9375 -3.484375q-1.171875 -1.3125 -3.453125 -1.390625q-2.3125 -0.03125 -4.015625 1.15625q-1.703125 1.171875 -2.140625 3.109375l-2.28125 0q0.390625 -2.78125 2.84375 -4.515625q2.46875 -1.75 5.828125 -1.71875q3.265625 0.078125 5.03125 1.984375q1.765625 1.890625 1.4375 4.90625l-1.765625 10.625l-0.15625 1.703125q-0.0625 1.0625 0.15625 2.09375l-0.03125 0.234375l-2.40625 0zm-6.921875 -1.65625q2.15625 0.078125 4.109375 -1.03125q1.96875 -1.109375 3.265625 -3.140625l0.796875 -4.65625l-3.734375 -0.03125q-3.546875 0 -5.796875 1.265625q-2.25 1.265625 -2.484375 3.609375q-0.171875 1.71875 0.90625 2.828125q1.09375 1.109375 2.9375 1.15625zm28.117188 -3.859375q0.3125 -2.6875 -3.28125 -3.90625l-3.359375 -0.984375q-4.640625 -1.5625 -4.375 -5.21875q0.125 -2.640625 2.421875 -4.28125q2.296875 -1.65625 5.46875 -1.625q3.09375 0.046875 5.03125 1.765625q1.9375 1.703125 1.796875 4.546875l-2.296875 0q0.109375 -1.890625 -1.1875 -3.078125q-1.296875 -1.203125 -3.453125 -1.234375q-2.21875 0 -3.75 1.046875q-1.515625 1.046875 -1.71875 2.765625q-0.28125 2.515625 3.09375 3.53125l2.4375 0.703125l1.3125 0.453125q4.40625 1.65625 4.15625 5.40625q-0.15625 2.53125 -2.203125 4.171875q-2.03125 1.625 -5.25 1.828125l-0.8125 0.015625q-2.125 -0.03125 -3.84375 -0.828125q-1.71875 -0.796875 -2.640625 -2.21875q-0.90625 -1.421875 -0.796875 -3.28125l2.328125 0.015625q0 2.0 1.34375 3.15625q1.34375 1.140625 3.71875 1.1875q2.34375 0 3.984375 -1.0625q1.640625 -1.078125 1.875 -2.875z" fill-rule="nonzero"/><path fill="#ffffff" d="m47.265625 425.88437q0.3125 -2.6875 -3.28125 -3.90625l-3.359375 -0.984375q-4.640625 -1.5625 -4.375 -5.21875q0.125 -2.640625 2.421875 -4.28125q2.296875 -1.65625 5.46875 -1.625q3.09375 0.046875 5.03125 1.765625q1.9375 1.703125 1.796875 4.546875l-2.296875 0q0.109375 -1.890625 -1.1875 -3.078125q-1.296875 -1.203125 -3.453125 -1.234375q-2.21875 0 -3.75 1.046875q-1.515625 1.046875 -1.71875 2.765625q-0.28125 2.515625 3.09375 3.53125l2.4375 0.703125l1.3125 0.453125q4.40625 1.65625 4.15625 5.40625q-0.15625 2.53125 -2.203125 4.171875q-2.03125 1.625 -5.25 1.828125l-0.8125 0.015625q-2.125 -0.03125 -3.84375 -0.828125q-1.71875 -0.796875 -2.640625 -2.21875q-0.90625 -1.421875 -0.796875 -3.28125l2.328125 0.015625q0 2.0 1.34375 3.15625q1.34375 1.140625 3.71875 1.1875q2.34375 0 3.984375 -1.0625q1.640625 -1.078125 1.875 -2.875zm14.859375 5.90625q-2.546875 -0.03125 -4.40625 -1.40625q-1.84375 -1.390625 -2.71875 -3.765625q-0.859375 -2.375 -0.609375 -5.125l0.0625 -0.65625q0.265625 -2.9375 1.734375 -5.578125q1.46875 -2.65625 3.703125 -4.046875q2.25 -1.390625 4.8125 -1.34375q2.359375 0.046875 3.984375 1.296875q1.640625 1.25 2.375 3.484375q0.75 2.21875 0.46875 4.90625l-0.15625 1.4375l-14.625 0l-0.0625 0.46875q-0.28125 2.125 0.3125 4.078125q0.609375 1.9375 1.984375 3.078125q1.375 1.140625 3.3125 1.171875q1.875 0.0625 3.375 -0.71875q1.515625 -0.78125 2.78125 -2.09375l1.359375 1.125q-1.421875 1.828125 -3.390625 2.78125q-1.953125 0.953125 -4.296875 0.90625zm2.453125 -19.921875q-2.53125 -0.09375 -4.546875 1.796875q-2.015625 1.890625 -3.03125 5.328125l12.265625 0.015625l0.0625 -0.28125q0.359375 -2.78125 -0.96875 -4.78125q-1.328125 -2.0 -3.78125 -2.078125zm18.265625 19.9375q-1.8125 -0.03125 -3.421875 -0.765625q-1.609375 -0.734375 -2.609375 -2.296875l-1.953125 10.78125l-2.3125 0l5.078125 -29.265625l2.15625 0l-0.546875 3.0q2.75 -3.5 6.890625 -3.390625q2.96875 0.078125 4.625 2.21875q1.671875 2.125 1.71875 6.03125q0.03125 1.234375 -0.109375 2.375l-0.078125 0.546875q-0.484375 3.421875 -1.84375 5.90625q-1.34375 2.484375 -3.28125 3.703125q-1.921875 1.21875 -4.3125 1.15625zm7.1875 -11.3125l0.125 -1.84375q0.046875 -3.125 -1.140625 -4.90625q-1.1875 -1.78125 -3.53125 -1.859375q-2.046875 -0.03125 -3.71875 1.015625q-1.671875 1.03125 -2.828125 3.03125l-1.734375 10.171875q0.625 1.796875 1.984375 2.734375q1.359375 0.9375 3.25 1.0q2.828125 0.09375 4.78125 -2.125q1.96875 -2.21875 2.65625 -6.171875l0.15625 -1.046875zm18.792969 10.90625q-0.09375 -0.75 -0.0625 -1.484375l0.171875 -1.46875q-1.453125 1.578125 -3.34375 2.484375q-1.890625 0.90625 -4.078125 0.859375q-2.671875 -0.03125 -4.34375 -1.6875q-1.671875 -1.65625 -1.484375 -4.15625q0.15625 -2.09375 1.421875 -3.625q1.28125 -1.53125 3.640625 -2.375q2.375 -0.859375 5.296875 -0.859375l4.328125 0.03125l0.34375 -2.421875q0.234375 -2.171875 -0.9375 -3.484375q-1.171875 -1.3125 -3.453125 -1.390625q-2.3125 -0.03125 -4.015625 1.15625q-1.703125 1.171875 -2.140625 3.109375l-2.28125 0q0.390625 -2.78125 2.84375 -4.515625q2.46875 -1.75 5.828125 -1.71875q3.265625 0.078125 5.03125 1.984375q1.765625 1.890625 1.4375 4.90625l-1.765625 10.625l-0.15625 1.703125q-0.0625 1.0625 0.15625 2.09375l-0.03125 0.234375l-2.40625 0zm-6.921875 -1.65625q2.15625 0.078125 4.109375 -1.03125q1.96875 -1.109375 3.265625 -3.140625l0.796875 -4.65625l-3.734375 -0.03125q-3.546875 0 -5.796875 1.265625q-2.25 1.265625 -2.484375 3.609375q-0.171875 1.71875 0.90625 2.828125q1.09375 1.109375 2.9375 1.15625zm27.664062 -17.5q-0.765625 -0.15625 -1.546875 -0.1875q-2.21875 0 -4.078125 1.359375q-1.859375 1.359375 -2.484375 3.453125l-2.5 14.53125l-2.296875 0l3.671875 -21.140625l2.28125 0l-0.703125 3.359375q1.15625 -1.875 2.78125 -2.84375q1.625 -0.984375 3.578125 -0.9375q0.6875 0 1.609375 0.265625l-0.3125 2.140625zm12.6953125 19.15625q-0.09375 -0.75 -0.0625 -1.484375l0.171875 -1.46875q-1.453125 1.578125 -3.34375 2.484375q-1.890625 0.90625 -4.078125 0.859375q-2.671875 -0.03125 -4.34375 -1.6875q-1.671875 -1.65625 -1.484375 -4.15625q0.15625 -2.09375 1.421875 -3.625q1.28125 -1.53125 3.640625 -2.375q2.375 -0.859375 5.296875 -0.859375l4.328125 0.03125l0.34375 -2.421875q0.234375 -2.171875 -0.9375 -3.484375q-1.171875 -1.3125 -3.453125 -1.390625q-2.3125 -0.03125 -4.015625 1.15625q-1.703125 1.171875 -2.140625 3.109375l-2.28125 0q0.390625 -2.78125 2.84375 -4.515625q2.46875 -1.75 5.828125 -1.71875q3.265625 0.078125 5.03125 1.984375q1.765625 1.890625 1.4375 4.90625l-1.765625 10.625l-0.15625 1.703125q-0.0625 1.0625 0.15625 2.09375l-0.03125 0.234375l-2.40625 0zm-6.921875 -1.65625q2.15625 0.078125 4.109375 -1.03125q1.96875 -1.109375 3.265625 -3.140625l0.796875 -4.65625l-3.734375 -0.03125q-3.546875 0 -5.796875 1.265625q-2.25 1.265625 -2.484375 3.609375q-0.171875 1.71875 0.90625 2.828125q1.09375 1.109375 2.9375 1.15625zm22.929688 -24.890625l-0.9375 5.40625l4.25 0l-0.34375 1.921875l-4.234375 0l-2.34375 14.09375l-0.03125 1.21875q0 2.125 1.953125 2.1875q0.59375 0.015625 1.890625 -0.140625l-0.09375 1.921875q-1.15625 0.328125 -2.34375 0.296875q-2.0625 -0.046875 -3.0 -1.4375q-0.9375 -1.40625 -0.671875 -4.0625l2.3125 -14.078125l-3.78125 0l0.34375 -1.921875l3.75 0l0.96875 -5.40625l2.3125 0zm12.859375 26.9375q-2.546875 -0.03125 -4.40625 -1.40625q-1.84375 -1.390625 -2.71875 -3.765625q-0.859375 -2.375 -0.609375 -5.125l0.0625 -0.65625q0.265625 -2.9375 1.734375 -5.578125q1.46875 -2.65625 3.703125 -4.046875q2.25 -1.390625 4.8125 -1.34375q2.359375 0.046875 3.984375 1.296875q1.640625 1.25 2.375 3.484375q0.75 2.21875 0.46875 4.90625l-0.15625 1.4375l-14.625 0l-0.0625 0.46875q-0.28125 2.125 0.3125 4.078125q0.609375 1.9375 1.984375 3.078125q1.375 1.140625 3.3125 1.171875q1.875 0.0625 3.375 -0.71875q1.515625 -0.78125 2.78125 -2.09375l1.359375 1.125q-1.421875 1.828125 -3.390625 2.78125q-1.953125 0.953125 -4.296875 0.90625zm2.453125 -19.921875q-2.53125 -0.09375 -4.546875 1.796875q-2.015625 1.890625 -3.03125 5.328125l12.265625 0.015625l0.0625 -0.28125q0.359375 -2.78125 -0.96875 -4.78125q-1.328125 -2.0 -3.78125 -2.078125zm20.644531 19.53125l3.34375 -19.21875l-3.390625 0l0.34375 -1.921875l3.375 0l0.421875 -2.859375q0.484375 -3.109375 2.359375 -4.8125q1.890625 -1.703125 4.703125 -1.65625q1.140625 0.03125 2.5625 0.390625l-0.40625 1.9375q-1.09375 -0.296875 -2.09375 -0.296875q-1.953125 0 -3.234375 1.265625q-1.28125 1.265625 -1.609375 3.53125l-0.375 2.5l4.90625 0l-0.359375 1.921875l-4.859375 0l-3.34375 19.21875l-2.34375 0zm24.34375 -19.15625q-0.765625 -0.15625 -1.546875 -0.1875q-2.21875 0 -4.078125 1.359375q-1.859375 1.359375 -2.484375 3.453125l-2.5 14.53125l-2.296875 0l3.671875 -21.140625l2.28125 0l-0.703125 3.359375q1.15625 -1.875 2.78125 -2.84375q1.625 -0.984375 3.578125 -0.9375q0.6875 0 1.609375 0.265625l-0.3125 2.140625zm0.5078125 8.390625q0.34375 -3.0625 1.859375 -5.609375q1.53125 -2.546875 3.8125 -3.875q2.28125 -1.328125 4.9375 -1.28125q2.609375 0.046875 4.453125 1.453125q1.84375 1.390625 2.6875 3.796875q0.859375 2.40625 0.59375 5.34375l-0.046875 0.375q-0.578125 5.0 -3.546875 8.03125q-2.953125 3.015625 -7.09375 2.921875q-3.5625 -0.0625 -5.6875 -2.609375q-2.125 -2.5625 -2.09375 -6.765625l0.0625 -1.109375l0.0625 -0.671875zm2.265625 0.671875q-0.25 2.3125 0.34375 4.28125q0.59375 1.96875 1.890625 3.078125q1.3125 1.109375 3.265625 1.171875q2.109375 0.03125 3.859375 -1.078125q1.75 -1.109375 2.875 -3.140625q1.140625 -2.03125 1.46875 -4.5l0.0625 -0.640625q0.359375 -3.765625 -1.15625 -6.15625q-1.515625 -2.390625 -4.390625 -2.453125q-3.125 -0.09375 -5.40625 2.421875q-2.265625 2.5 -2.78125 6.65625l-0.03125 0.359375zm24.902344 -11.046875l-0.671875 3.4375q2.859375 -3.90625 7.171875 -3.828125q2.234375 0.046875 3.703125 1.125q1.46875 1.0625 1.828125 2.984375q1.4375 -1.96875 3.359375 -3.046875q1.9375 -1.09375 4.203125 -1.0625q3.0 0.0625 4.453125 1.984375q1.453125 1.921875 1.203125 5.328125l-0.03125 0.453125l-2.328125 13.765625l-2.328125 0l2.3125 -13.8125q0.109375 -1.15625 0.015625 -2.1875q-0.390625 -3.453125 -3.953125 -3.515625q-2.375 -0.03125 -4.375 1.5625q-2.0 1.578125 -2.515625 3.96875l-2.421875 13.984375l-2.328125 0l2.34375 -13.984375q0.578125 -5.390625 -3.953125 -5.53125q-2.25 -0.03125 -4.1875 1.421875q-1.9375 1.4375 -2.59375 3.578125l-2.5 14.515625l-2.328125 0l3.671875 -21.140625l2.25 0zm46.59375 -5.40625l-0.9375 5.40625l4.25 0l-0.34375 1.921875l-4.234375 0l-2.34375 14.09375l-0.03125 1.21875q0 2.125 1.953125 2.1875q0.59375 0.015625 1.890625 -0.140625l-0.09375 1.921875q-1.15625 0.328125 -2.34375 0.296875q-2.0625 -0.046875 -3.0 -1.4375q-0.9375 -1.40625 -0.671875 -4.0625l2.3125 -14.078125l-3.78125 0l0.34375 -1.921875l3.75 0l0.96875 -5.40625l2.3125 0zm9.6875 8.984375q3.046875 -4.046875 7.1875 -3.96875q3.046875 0.078125 4.4375 2.140625q1.390625 2.046875 0.984375 5.640625l-2.3125 13.75l-2.296875 0l2.296875 -13.796875q0.125 -1.109375 0.046875 -2.140625q-0.34375 -3.484375 -3.796875 -3.578125q-2.046875 -0.03125 -3.828125 1.234375q-1.78125 1.25 -3.125 3.78125l-2.5 14.5l-2.296875 0l5.203125 -30.0l2.3125 0l-2.3125 12.4375zm24.65625 17.953125q-2.546875 -0.03125 -4.40625 -1.40625q-1.84375 -1.390625 -2.71875 -3.765625q-0.859375 -2.375 -0.609375 -5.125l0.0625 -0.65625q0.265625 -2.9375 1.734375 -5.578125q1.46875 -2.65625 3.703125 -4.046875q2.25 -1.390625 4.8125 -1.34375q2.359375 0.046875 3.984375 1.296875q1.640625 1.25 2.375 3.484375q0.75 2.21875 0.46875 4.90625l-0.15625 1.4375l-14.625 0l-0.0625 0.46875q-0.28125 2.125 0.3125 4.078125q0.609375 1.9375 1.984375 3.078125q1.375 1.140625 3.3125 1.171875q1.875 0.0625 3.375 -0.71875q1.515625 -0.78125 2.78125 -2.09375l1.359375 1.125q-1.421875 1.828125 -3.390625 2.78125q-1.953125 0.953125 -4.296875 0.90625zm2.453125 -19.921875q-2.53125 -0.09375 -4.546875 1.796875q-2.015625 1.890625 -3.03125 5.328125l12.265625 0.015625l0.0625 -0.28125q0.359375 -2.78125 -0.96875 -4.78125q-1.328125 -2.0 -3.78125 -2.078125zm24.832031 -1.609375l-0.671875 3.4375q2.859375 -3.90625 7.171875 -3.828125q2.234375 0.046875 3.703125 1.125q1.46875 1.0625 1.828125 2.984375q1.4375 -1.96875 3.359375 -3.046875q1.9375 -1.09375 4.203125 -1.0625q3.0 0.0625 4.453125 1.984375q1.453125 1.921875 1.203125 5.328125l-0.03125 0.453125l-2.328125 13.765625l-2.328125 0l2.3125 -13.8125q0.109375 -1.15625 0.015625 -2.1875q-0.390625 -3.453125 -3.953125 -3.515625q-2.375 -0.03125 -4.375 1.5625q-2.0 1.578125 -2.515625 3.96875l-2.421875 13.984375l-2.328125 0l2.34375 -13.984375q0.578125 -5.390625 -3.953125 -5.53125q-2.25 -0.03125 -4.1875 1.421875q-1.9375 1.4375 -2.59375 3.578125l-2.5 14.515625l-2.328125 0l3.671875 -21.140625l2.25 0zm41.933594 21.140625q-0.09375 -0.75 -0.0625 -1.484375l0.171875 -1.46875q-1.453125 1.578125 -3.34375 2.484375q-1.890625 0.90625 -4.078125 0.859375q-2.671875 -0.03125 -4.34375 -1.6875q-1.671875 -1.65625 -1.484375 -4.15625q0.15625 -2.09375 1.421875 -3.625q1.28125 -1.53125 3.640625 -2.375q2.375 -0.859375 5.296875 -0.859375l4.328125 0.03125l0.34375 -2.421875q0.234375 -2.171875 -0.9375 -3.484375q-1.171875 -1.3125 -3.453125 -1.390625q-2.3125 -0.03125 -4.015625 1.15625q-1.703125 1.171875 -2.140625 3.109375l-2.28125 0q0.390625 -2.78125 2.84375 -4.515625q2.46875 -1.75 5.828125 -1.71875q3.265625 0.078125 5.03125 1.984375q1.765625 1.890625 1.4375 4.90625l-1.765625 10.625l-0.15625 1.703125q-0.0625 1.0625 0.15625 2.09375l-0.03125 0.234375l-2.40625 0zm-6.921875 -1.65625q2.15625 0.078125 4.109375 -1.03125q1.96875 -1.109375 3.265625 -3.140625l0.796875 -4.65625l-3.734375 -0.03125q-3.546875 0 -5.796875 1.265625q-2.25 1.265625 -2.484375 3.609375q-0.171875 1.71875 0.90625 2.828125q1.09375 1.109375 2.9375 1.15625zm17.351562 1.65625l-2.34375 0l3.6875 -21.140625l2.328125 0l-3.671875 21.140625zm1.984375 -27.25q0.109375 -1.265625 1.6875 -1.59375q0.765625 0.125 1.078125 0.46875q0.328125 0.34375 0.421875 1.125q-0.1875 0.75 -0.5625 1.09375q-0.375 0.328125 -1.109375 0.484375q-1.59375 -0.234375 -1.515625 -1.578125zm10.199219 6.109375l-0.703125 3.625q1.40625 -1.953125 3.25 -3.0q1.84375 -1.046875 3.953125 -1.015625q3.046875 0.078125 4.4375 2.140625q1.390625 2.046875 0.984375 5.640625l-2.3125 13.75l-2.296875 0l2.296875 -13.796875q0.125 -1.109375 0.046875 -2.140625q-0.34375 -3.484375 -3.796875 -3.578125q-2.046875 -0.03125 -3.828125 1.234375q-1.78125 1.25 -3.125 3.78125l-2.5 14.5l-2.296875 0l3.671875 -21.140625l2.21875 0zm26.851562 21.140625l3.34375 -19.21875l-3.390625 0l0.34375 -1.921875l3.375 0l0.421875 -2.859375q0.484375 -3.109375 2.359375 -4.8125q1.890625 -1.703125 4.703125 -1.65625q1.140625 0.03125 2.5625 0.390625l-0.40625 1.9375q-1.09375 -0.296875 -2.09375 -0.296875q-1.953125 0 -3.234375 1.265625q-1.28125 1.265625 -1.609375 3.53125l-0.375 2.5l4.90625 0l-0.359375 1.921875l-4.859375 0l-3.34375 19.21875l-2.34375 0zm19.34375 0.390625q-2.546875 -0.03125 -4.40625 -1.40625q-1.84375 -1.390625 -2.71875 -3.765625q-0.859375 -2.375 -0.609375 -5.125l0.0625 -0.65625q0.265625 -2.9375 1.734375 -5.578125q1.46875 -2.65625 3.703125 -4.046875q2.25 -1.390625 4.8125 -1.34375q2.359375 0.046875 3.984375 1.296875q1.640625 1.25 2.375 3.484375q0.75 2.21875 0.46875 4.90625l-0.15625 1.4375l-14.625 0l-0.0625 0.46875q-0.28125 2.125 0.3125 4.078125q0.609375 1.9375 1.984375 3.078125q1.375 1.140625 3.3125 1.171875q1.875 0.0625 3.375 -0.71875q1.515625 -0.78125 2.78125 -2.09375l1.359375 1.125q-1.421875 1.828125 -3.390625 2.78125q-1.953125 0.953125 -4.296875 0.90625zm2.453125 -19.921875q-2.53125 -0.09375 -4.546875 1.796875q-2.015625 1.890625 -3.03125 5.328125l12.265625 0.015625l0.0625 -0.28125q0.359375 -2.78125 -0.96875 -4.78125q-1.328125 -2.0 -3.78125 -2.078125zm17.78125 19.921875q-2.546875 -0.03125 -4.40625 -1.40625q-1.84375 -1.390625 -2.71875 -3.765625q-0.859375 -2.375 -0.609375 -5.125l0.0625 -0.65625q0.265625 -2.9375 1.734375 -5.578125q1.46875 -2.65625 3.703125 -4.046875q2.25 -1.390625 4.8125 -1.34375q2.359375 0.046875 3.984375 1.296875q1.640625 1.25 2.375 3.484375q0.75 2.21875 0.46875 4.90625l-0.15625 1.4375l-14.625 0l-0.0625 0.46875q-0.28125 2.125 0.3125 4.078125q0.609375 1.9375 1.984375 3.078125q1.375 1.140625 3.3125 1.171875q1.875 0.0625 3.375 -0.71875q1.515625 -0.78125 2.78125 -2.09375l1.359375 1.125q-1.421875 1.828125 -3.390625 2.78125q-1.953125 0.953125 -4.296875 0.90625zm2.453125 -19.921875q-2.53125 -0.09375 -4.546875 1.796875q-2.015625 1.890625 -3.03125 5.328125l12.265625 0.015625l0.0625 -0.28125q0.359375 -2.78125 -0.96875 -4.78125q-1.328125 -2.0 -3.78125 -2.078125zm10.34375 8.90625q0.4375 -3.328125 1.796875 -5.890625q1.375 -2.5625 3.359375 -3.8125q1.984375 -1.25 4.453125 -1.203125q1.875 0.046875 3.40625 0.875q1.546875 0.828125 2.453125 2.515625l2.140625 -11.859375l2.3125 0l-5.21875 30.0l-2.171875 0l0.53125 -2.8125q-2.75 3.328125 -6.84375 3.203125q-2.9375 -0.078125 -4.609375 -2.296875q-1.671875 -2.21875 -1.75 -5.96875q-0.046875 -1.203125 0.09375 -2.34375l0.046875 -0.40625zm2.34375 0.390625q-0.15625 1.3125 -0.125 2.796875q0.078125 2.671875 1.234375 4.203125q1.171875 1.53125 3.3125 1.609375q2.171875 0.0625 3.8125 -0.984375q1.640625 -1.0625 2.78125 -2.828125l1.6875 -9.953125q-0.5625 -1.890625 -1.859375 -2.96875q-1.296875 -1.09375 -3.3125 -1.15625q-2.96875 -0.09375 -4.953125 2.28125q-1.984375 2.375 -2.546875 6.59375l-0.03125 0.40625zm18.507812 8.828125q0.0625 -0.6875 0.5625 -1.15625q0.5 -0.484375 1.171875 -0.5q0.703125 -0.03125 1.15625 0.46875q0.453125 0.484375 0.390625 1.1875q-0.03125 0.6875 -0.53125 1.125q-0.5 0.4375 -1.1875 0.453125q-0.6875 0.03125 -1.140625 -0.421875q-0.453125 -0.453125 -0.421875 -1.15625zm9.6328125 -20.015625l-1.390625 -1.09375q2.078125 -2.421875 2.578125 -4.875l0.46875 -2.609375l2.28125 0l-0.34375 2.21875q-0.609375 3.828125 -3.59375 6.359375zm5.0 0l-1.390625 -1.09375q2.078125 -2.421875 2.578125 -4.875l0.46875 -2.609375l2.28125 0l-0.34375 2.21875q-0.609375 3.828125 -3.59375 6.359375z" fill-rule="nonzero"/><path fill="#000000" fill-opacity="0.0" d="m511.67715 444.31497l419.93704 0l0 64.566925l-419.93704 0z" fill-rule="evenodd"/><path fill="#ffffff" d="m543.77094 474.78497l-7.484375 0l0 -1.578125l7.484375 0l0 1.578125z" fill-rule="nonzero"/><path fill="#ffffff" d="m587.22406 461.28497l0 15.53125q-0.015625 2.296875 -1.015625 4.0q-1.0 1.703125 -2.828125 2.625q-1.8125 0.90625 -4.171875 0.90625q-3.59375 0 -5.765625 -1.953125q-2.15625 -1.96875 -2.234375 -5.4375l0 -15.671875l1.90625 0l0 15.390625q0 2.875 1.640625 4.46875q1.640625 1.578125 4.453125 1.578125q2.8125 0 4.4375 -1.59375q1.640625 -1.59375 1.640625 -4.4375l0 -15.40625l1.9375 0zm15.046875 18.453125q0 -1.390625 -1.125 -2.234375q-1.109375 -0.84375 -3.359375 -1.3125q-2.25 -0.484375 -3.5 -1.09375q-1.234375 -0.625 -1.84375 -1.515625q-0.59375 -0.890625 -0.59375 -2.15625q0 -2.0 1.671875 -3.296875q1.671875 -1.3125 4.28125 -1.3125q2.828125 0 4.53125 1.40625q1.71875 1.390625 1.71875 3.640625l-1.875 0q0 -1.484375 -1.25 -2.46875q-1.234375 -0.984375 -3.125 -0.984375q-1.84375 0 -2.96875 0.828125q-1.109375 0.8125 -1.109375 2.125q0 1.265625 0.921875 1.96875q0.9375 0.6875 3.390625 1.265625q2.46875 0.578125 3.6875 1.234375q1.234375 0.65625 1.828125 1.578125q0.59375 0.921875 0.59375 2.234375q0 2.140625 -1.734375 3.421875q-1.71875 1.28125 -4.5 1.28125q-2.953125 0 -4.796875 -1.421875q-1.828125 -1.4375 -1.828125 -3.625l1.875 0q0.109375 1.640625 1.375 2.5625q1.28125 0.90625 3.375 0.90625q1.953125 0 3.15625 -0.859375q1.203125 -0.859375 1.203125 -2.171875zm16.75 4.296875q-0.28125 -0.796875 -0.359375 -2.359375q-0.984375 1.28125 -2.515625 1.984375q-1.515625 0.6875 -3.21875 0.6875q-2.4375 0 -3.953125 -1.359375q-1.5 -1.359375 -1.5 -3.4375q0 -2.46875 2.046875 -3.90625q2.0625 -1.4375 5.734375 -1.4375l3.390625 0l0 -1.921875q0 -1.8125 -1.125 -2.84375q-1.109375 -1.046875 -3.25 -1.046875q-1.953125 0 -3.234375 1.0q-1.28125 1.0 -1.28125 2.40625l-1.875 -0.015625q0 -2.015625 1.875 -3.484375q1.875 -1.484375 4.609375 -1.484375q2.828125 0 4.453125 1.421875q1.640625 1.40625 1.6875 3.9375l0 8.0q0 2.453125 0.515625 3.671875l0 0.1875l-2.0 0zm-5.875 -1.34375q1.875 0 3.34375 -0.90625q1.484375 -0.90625 2.15625 -2.421875l0 -3.71875l-3.34375 0q-2.796875 0.03125 -4.375 1.03125q-1.578125 0.984375 -1.578125 2.71875q0 1.421875 1.046875 2.359375q1.0625 0.9375 2.75 0.9375zm25.953125 -6.9375q0 3.953125 -1.75 6.28125q-1.75 2.3125 -4.703125 2.3125q-3.53125 0 -5.34375 -2.625l-0.078125 2.3125l-1.75 0l0 -24.0l1.859375 0l0 9.546875q1.78125 -2.765625 5.28125 -2.765625q3.0 0 4.734375 2.296875q1.75 2.28125 1.75 6.359375l0 0.28125zm-1.875 -0.328125q0 -3.34375 -1.296875 -5.15625q-1.296875 -1.828125 -3.65625 -1.828125q-1.796875 0 -3.046875 0.890625q-1.25 0.875 -1.890625 2.578125l0 7.625q1.40625 3.1875 4.96875 3.1875q2.3125 0 3.609375 -1.828125q1.3125 -1.828125 1.3125 -5.46875zm8.09375 8.609375l-1.875 0l0 -16.90625l1.875 0l0 16.90625zm-2.203125 -21.796875q0 -0.53125 0.34375 -0.890625q0.34375 -0.375 0.9375 -0.375q0.59375 0 0.9375 0.375q0.359375 0.359375 0.359375 0.890625q0 0.53125 -0.359375 0.890625q-0.34375 0.359375 -0.9375 0.359375q-0.59375 0 -0.9375 -0.359375q-0.34375 -0.359375 -0.34375 -0.890625zm9.375 21.796875l-1.875 0l0 -24.0l1.875 0l0 24.0zm7.171875 0l-1.875 0l0 -16.90625l1.875 0l0 16.90625zm-2.203125 -21.796875q0 -0.53125 0.34375 -0.890625q0.34375 -0.375 0.9375 -0.375q0.59375 0 0.9375 0.375q0.359375 0.359375 0.359375 0.890625q0 0.53125 -0.359375 0.890625q-0.34375 0.359375 -0.9375 0.359375q-0.59375 0 -0.9375 -0.359375q-0.34375 -0.359375 -0.34375 -0.890625zm10.1875 0.5625l0 4.328125l3.5 0l0 1.53125l-3.5 0l0 11.265625q0 1.40625 0.5 2.09375q0.515625 0.6875 1.703125 0.6875q0.46875 0 1.515625 -0.15625l0.078125 1.53125q-0.734375 0.265625 -2.0 0.265625q-1.921875 0 -2.796875 -1.109375q-0.875 -1.125 -0.875 -3.296875l0 -11.28125l-3.109375 0l0 -1.53125l3.109375 0l0 -4.328125l1.875 0zm12.734375 18.546875l4.9375 -14.21875l2.015625 0l-7.21875 19.78125l-0.375 0.875q-1.390625 3.078125 -4.296875 3.078125q-0.671875 0 -1.4375 -0.21875l-0.015625 -1.546875l0.96875 0.09375q1.375 0 2.21875 -0.6875q0.859375 -0.671875 1.453125 -2.328125l0.828125 -2.28125l-6.375 -16.765625l2.046875 0l5.25 14.21875zm32.875 -18.421875l-7.796875 0l0 21.109375l-1.921875 0l0 -21.109375l-7.78125 0l0 -1.640625l17.5 0l0 1.640625zm8.234375 21.421875q-2.15625 0 -3.90625 -1.0625q-1.734375 -1.0625 -2.703125 -2.953125q-0.96875 -1.90625 -0.96875 -4.265625l0 -0.671875q0 -2.4375 0.9375 -4.390625q0.953125 -1.953125 2.640625 -3.0625q1.6875 -1.125 3.65625 -1.125q3.078125 0 4.875 2.109375q1.8125 2.09375 1.8125 5.734375l0 1.046875l-12.0625 0l0 0.359375q0 2.875 1.640625 4.796875q1.65625 1.90625 4.15625 1.90625q1.5 0 2.640625 -0.546875q1.15625 -0.546875 2.09375 -1.75l1.171875 0.890625q-2.0625 2.984375 -5.984375 2.984375zm-0.34375 -15.9375q-2.109375 0 -3.5625 1.546875q-1.4375 1.546875 -1.75 4.15625l10.140625 0l0 -0.203125q-0.078125 -2.4375 -1.390625 -3.96875q-1.3125 -1.53125 -3.4375 -1.53125zm20.453125 11.328125q0 -1.390625 -1.125 -2.234375q-1.109375 -0.84375 -3.359375 -1.3125q-2.25 -0.484375 -3.5 -1.09375q-1.234375 -0.625 -1.84375 -1.515625q-0.59375 -0.890625 -0.59375 -2.15625q0 -2.0 1.671875 -3.296875q1.671875 -1.3125 4.28125 -1.3125q2.828125 0 4.53125 1.40625q1.71875 1.390625 1.71875 3.640625l-1.875 0q0 -1.484375 -1.25 -2.46875q-1.234375 -0.984375 -3.125 -0.984375q-1.84375 0 -2.96875 0.828125q-1.109375 0.8125 -1.109375 2.125q0 1.265625 0.921875 1.96875q0.9375 0.6875 3.390625 1.265625q2.46875 0.578125 3.6875 1.234375q1.234375 0.65625 1.828125 1.578125q0.59375 0.921875 0.59375 2.234375q0 2.140625 -1.734375 3.421875q-1.71875 1.28125 -4.5 1.28125q-2.953125 0 -4.796875 -1.421875q-1.828125 -1.4375 -1.828125 -3.625l1.875 0q0.109375 1.640625 1.375 2.5625q1.28125 0.90625 3.375 0.90625q1.953125 0 3.15625 -0.859375q1.203125 -0.859375 1.203125 -2.171875zm8.984375 -16.9375l0 4.328125l3.5 0l0 1.53125l-3.5 0l0 11.265625q0 1.40625 0.5 2.09375q0.515625 0.6875 1.703125 0.6875q0.46875 0 1.515625 -0.15625l0.078125 1.53125q-0.734375 0.265625 -2.0 0.265625q-1.921875 0 -2.796875 -1.109375q-0.875 -1.125 -0.875 -3.296875l0 -11.28125l-3.109375 0l0 -1.53125l3.109375 0l0 -4.328125l1.875 0zm17.515625 11.96875l0 9.265625l-1.921875 0l0 -22.75l7.75 0q3.546875 0 5.59375 1.8125q2.0625 1.8125 2.0625 4.984375q0 3.203125 -1.984375 4.953125q-1.96875 1.734375 -5.71875 1.734375l-5.78125 0zm0 -1.625l5.828125 0q2.796875 0 4.265625 -1.328125q1.46875 -1.328125 1.46875 -3.703125q0 -2.359375 -1.46875 -3.75q-1.453125 -1.40625 -4.140625 -1.4375l-5.953125 0l0 10.21875zm27.84375 10.890625q-0.28125 -0.796875 -0.359375 -2.359375q-0.984375 1.28125 -2.515625 1.984375q-1.515625 0.6875 -3.21875 0.6875q-2.4375 0 -3.953125 -1.359375q-1.5 -1.359375 -1.5 -3.4375q0 -2.46875 2.046875 -3.90625q2.0625 -1.4375 5.734375 -1.4375l3.390625 0l0 -1.921875q0 -1.8125 -1.125 -2.84375q-1.109375 -1.046875 -3.25 -1.046875q-1.953125 0 -3.234375 1.0q-1.28125 1.0 -1.28125 2.40625l-1.875 -0.015625q0 -2.015625 1.875 -3.484375q1.875 -1.484375 4.609375 -1.484375q2.828125 0 4.453125 1.421875q1.640625 1.40625 1.6875 3.9375l0 8.0q0 2.453125 0.515625 3.671875l0 0.1875l-2.0 0zm-5.875 -1.34375q1.875 0 3.34375 -0.90625q1.484375 -0.90625 2.15625 -2.421875l0 -3.71875l-3.34375 0q-2.796875 0.03125 -4.375 1.03125q-1.578125 0.984375 -1.578125 2.71875q0 1.421875 1.046875 2.359375q1.0625 0.9375 2.75 0.9375zm20.15625 -13.96875q-0.59375 -0.109375 -1.265625 -0.109375q-1.75 0 -2.96875 0.984375q-1.203125 0.96875 -1.71875 2.828125l0 11.609375l-1.859375 0l0 -16.90625l1.828125 0l0.03125 2.6875q1.484375 -3.0 4.765625 -3.0q0.78125 0 1.234375 0.203125l-0.046875 1.703125zm6.640625 -5.921875l0 4.328125l3.5 0l0 1.53125l-3.5 0l0 11.265625q0 1.40625 0.5 2.09375q0.515625 0.6875 1.703125 0.6875q0.46875 0 1.515625 -0.15625l0.078125 1.53125q-0.734375 0.265625 -2.0 0.265625q-1.921875 0 -2.796875 -1.109375q-0.875 -1.125 -0.875 -3.296875l0 -11.28125l-3.109375 0l0 -1.53125l3.109375 0l0 -4.328125l1.875 0zm9.46875 21.234375l-1.875 0l0 -16.90625l1.875 0l0 16.90625zm-2.203125 -21.796875q0 -0.53125 0.34375 -0.890625q0.34375 -0.375 0.9375 -0.375q0.59375 0 0.9375 0.375q0.359375 0.359375 0.359375 0.890625q0 0.53125 -0.359375 0.890625q-0.34375 0.359375 -0.9375 0.359375q-0.59375 0 -0.9375 -0.359375q-0.34375 -0.359375 -0.34375 -0.890625zm13.53125 20.53125q1.953125 0 3.265625 -1.09375q1.328125 -1.109375 1.4375 -2.859375l1.796875 0q-0.078125 1.546875 -0.96875 2.828125q-0.890625 1.265625 -2.375 1.984375q-1.46875 0.71875 -3.15625 0.71875q-3.328125 0 -5.28125 -2.3125q-1.9375 -2.3125 -1.9375 -6.21875l0 -0.5625q0 -2.5 0.875 -4.421875q0.875 -1.921875 2.5 -2.96875q1.640625 -1.046875 3.828125 -1.046875q2.78125 0 4.578125 1.65625q1.8125 1.65625 1.9375 4.359375l-1.796875 0q-0.125 -1.984375 -1.4375 -3.203125q-1.296875 -1.21875 -3.28125 -1.21875q-2.53125 0 -3.9375 1.828125q-1.390625 1.828125 -1.390625 5.125l0 0.546875q0 3.234375 1.390625 5.046875q1.40625 1.8125 3.953125 1.8125zm12.328125 1.265625l-1.875 0l0 -16.90625l1.875 0l0 16.90625zm-2.203125 -21.796875q0 -0.53125 0.34375 -0.890625q0.34375 -0.375 0.9375 -0.375q0.59375 0 0.9375 0.375q0.359375 0.359375 0.359375 0.890625q0 0.53125 -0.359375 0.890625q-0.34375 0.359375 -0.9375 0.359375q-0.59375 0 -0.9375 -0.359375q-0.34375 -0.359375 -0.34375 -0.890625zm20.875 13.515625q0 3.953125 -1.75 6.28125q-1.75 2.3125 -4.6875 2.3125q-3.46875 0 -5.3125 -2.4375l0 8.625l-1.859375 0l0 -23.40625l1.734375 0l0.09375 2.390625q1.828125 -2.703125 5.296875 -2.703125q3.03125 0 4.75 2.296875q1.734375 2.296875 1.734375 6.375l0 0.265625zm-1.875 -0.328125q0 -3.234375 -1.328125 -5.109375q-1.328125 -1.875 -3.703125 -1.875q-1.71875 0 -2.953125 0.828125q-1.234375 0.828125 -1.890625 2.40625l0 8.109375q0.671875 1.453125 1.921875 2.21875q1.25 0.765625 2.953125 0.765625q2.359375 0 3.671875 -1.875q1.328125 -1.890625 1.328125 -5.46875zm16.6875 8.609375q-0.28125 -0.796875 -0.359375 -2.359375q-0.984375 1.28125 -2.515625 1.984375q-1.515625 0.6875 -3.21875 0.6875q-2.4375 0 -3.953125 -1.359375q-1.5 -1.359375 -1.5 -3.4375q0 -2.46875 2.046875 -3.90625q2.0625 -1.4375 5.734375 -1.4375l3.390625 0l0 -1.921875q0 -1.8125 -1.125 -2.84375q-1.109375 -1.046875 -3.25 -1.046875q-1.953125 0 -3.234375 1.0q-1.28125 1.0 -1.28125 2.40625l-1.875 -0.015625q0 -2.015625 1.875 -3.484375q1.875 -1.484375 4.609375 -1.484375q2.828125 0 4.453125 1.421875q1.640625 1.40625 1.6875 3.9375l0 8.0q0 2.453125 0.515625 3.671875l0 0.1875l-2.0 0zm-5.875 -1.34375q1.875 0 3.34375 -0.90625q1.484375 -0.90625 2.15625 -2.421875l0 -3.71875l-3.34375 0q-2.796875 0.03125 -4.375 1.03125q-1.578125 0.984375 -1.578125 2.71875q0 1.421875 1.046875 2.359375q1.0625 0.9375 2.75 0.9375zm14.125 -15.5625l0.0625 2.890625q0.953125 -1.5625 2.375 -2.375q1.421875 -0.828125 3.140625 -0.828125q2.71875 0 4.046875 1.53125q1.328125 1.53125 1.34375 4.59375l0 11.09375l-1.859375 0l0 -11.109375q-0.015625 -2.265625 -0.96875 -3.375q-0.9375 -1.109375 -3.015625 -1.109375q-1.734375 0 -3.078125 1.09375q-1.328125 1.078125 -1.96875 2.921875l0 11.578125l-1.859375 0l0 -16.90625l1.78125 0zm18.703125 -4.328125l0 4.328125l3.5 0l0 1.53125l-3.5 0l0 11.265625q0 1.40625 0.5 2.09375q0.515625 0.6875 1.703125 0.6875q0.46875 0 1.515625 -0.15625l0.078125 1.53125q-0.734375 0.265625 -2.0 0.265625q-1.921875 0 -2.796875 -1.109375q-0.875 -1.125 -0.875 -3.296875l0 -11.28125l-3.109375 0l0 -1.53125l3.109375 0l0 -4.328125l1.875 0z" fill-rule="nonzero"/><path fill="#80c9e8" d="m0 0l960.0 0l0 86.89764l-960.0 0z" fill-rule="evenodd"/><path fill="#000000" fill-opacity="0.0" d="m24.141733 0.015748031l911.77954 0l0 86.89764l-911.77954 0z" fill-rule="evenodd"/><path fill="#ffffff" d="m48.688606 43.863937q0 2.515625 -0.890625 4.421875q-0.890625 1.890625 -2.5625 2.921875q-1.65625 1.03125 -3.796875 1.03125q-2.125 0 -3.796875 -1.015625q-1.65625 -1.03125 -2.578125 -2.921875q-0.90625 -1.890625 -0.90625 -4.34375l0 -0.84375q0 -2.53125 0.90625 -4.4375q0.90625 -1.921875 2.5625 -2.9375q1.65625 -1.03125 3.78125 -1.03125q2.140625 0 3.796875 1.03125q1.65625 1.015625 2.5625 2.9375q0.921875 1.90625 0.921875 4.421875l0 0.765625zm-3.5625 -0.78125q0 -2.6875 -0.96875 -4.078125q-0.953125 -1.390625 -2.734375 -1.390625q-1.78125 0 -2.75 1.375q-0.953125 1.375 -0.953125 4.03125l0 0.84375q0 2.609375 0.953125 4.046875q0.96875 1.4375 2.765625 1.4375q1.765625 0 2.71875 -1.375q0.953125 -1.390625 0.96875 -4.0625l0 -0.828125zm10.6328125 4.78125l2.359375 -8.546875l3.53125 0l-4.265625 12.6875l-3.234375 0l-4.28125 -12.6875l3.53125 0l2.359375 8.546875zm13.0703125 4.375q-2.796875 0 -4.546875 -1.703125q-1.75 -1.71875 -1.75 -4.5625l0 -0.328125q0 -1.921875 0.734375 -3.421875q0.75 -1.5 2.09375 -2.3125q1.359375 -0.828125 3.09375 -0.828125q2.59375 0 4.09375 1.640625q1.5 1.640625 1.5 4.65625l0 1.390625l-8.078125 0q0.15625 1.234375 0.984375 1.984375q0.828125 0.75 2.09375 0.75q1.953125 0 3.0625 -1.421875l1.65625 1.875q-0.75 1.078125 -2.0625 1.6875q-1.296875 0.59375 -2.875 0.59375zm-0.390625 -10.40625q-1.0 0 -1.640625 0.6875q-0.625 0.671875 -0.796875 1.9375l4.71875 0l0 -0.265625q-0.03125 -1.125 -0.625 -1.734375q-0.578125 -0.625 -1.65625 -0.625zm14.644531 0.671875q-0.6875 -0.09375 -1.21875 -0.09375q-1.921875 0 -2.515625 1.296875l0 8.296875l-3.390625 0l0 -12.6875l3.203125 0l0.09375 1.515625q1.015625 -1.75 2.828125 -1.75q0.5625 0 1.046875 0.15625l-0.046875 3.265625zm6.5898438 5.359375l2.359375 -8.546875l3.53125 0l-4.265625 12.6875l-3.234375 0l-4.28125 -12.6875l3.53125 0l2.359375 8.546875zm10.957031 4.140625l-3.390625 0l0 -12.6875l3.390625 0l0 12.6875zm-3.59375 -15.96875q0 -0.75 0.5 -1.234375q0.515625 -0.5 1.390625 -0.5q0.875 0 1.390625 0.5q0.515625 0.484375 0.515625 1.234375q0 0.78125 -0.53125 1.28125q-0.515625 0.484375 -1.375 0.484375q-0.84375 0 -1.375 -0.484375q-0.515625 -0.5 -0.515625 -1.28125zm12.222656 16.203125q-2.796875 0 -4.546875 -1.703125q-1.75 -1.71875 -1.75 -4.5625l0 -0.328125q0 -1.921875 0.734375 -3.421875q0.75 -1.5 2.09375 -2.3125q1.359375 -0.828125 3.09375 -0.828125q2.59375 0 4.09375 1.640625q1.5 1.640625 1.5 4.65625l0 1.390625l-8.078125 0q0.15625 1.234375 0.984375 1.984375q0.828125 0.75 2.09375 0.75q1.953125 0 3.0625 -1.421875l1.65625 1.875q-0.75 1.078125 -2.0625 1.6875q-1.296875 0.59375 -2.875 0.59375zm-0.390625 -10.40625q-1.0 0 -1.640625 0.6875q-0.625 0.671875 -0.796875 1.9375l4.71875 0l0 -0.265625q-0.03125 -1.125 -0.625 -1.734375q-0.578125 -0.625 -1.65625 -0.625zm18.550781 5.5625l1.6718826 -8.078125l3.265625 0l-3.234375 12.6875l-2.8437576 0l-2.390625 -7.984375l-2.40625 7.984375l-2.828125 0l-3.234375 -12.6875l3.265625 0l1.65625 8.0625l2.328125 -8.0625l2.4375 0l2.3125 8.078125z" fill-rule="nonzero"/><path fill="#ffffff" d="m141.82924 55.176437l-1.171875 0l0 -20.234375l1.171875 0l0 20.234375zm11.9296875 -20.234375l6.296875 15.0625l6.3125 -15.0625l1.921875 0l0 17.0625l-1.4375 0l0 -7.4375l0.125 -7.609375l-6.359375 15.046875l-1.109375 0l-6.328125 -14.984375l0.109375 7.5l0 7.484375l-1.4375 0l0 -17.0625l1.90625 0zm17.765625 10.53125q0 -1.828125 0.703125 -3.28125q0.703125 -1.46875 2.0 -2.28125q1.296875 -0.828125 2.9375 -0.828125q2.53125 0 4.09375 1.78125q1.578125 1.78125 1.578125 4.703125l0 0.296875q0 1.84375 -0.71875 3.3125q-0.703125 1.46875 -2.0 2.265625q-1.28125 0.796875 -2.921875 0.796875q-2.53125 0 -4.109375 -1.765625q-1.5625 -1.78125 -1.5625 -4.71875l0 -0.28125zm1.40625 0.390625q0 2.265625 1.171875 3.734375q1.171875 1.453125 3.09375 1.453125q1.890625 0 3.0625 -1.453125q1.1875 -1.46875 1.1875 -3.859375l0 -0.265625q0 -1.453125 -0.546875 -2.65625q-0.53125 -1.203125 -1.515625 -1.859375q-0.96875 -0.671875 -2.21875 -0.671875q-1.875 0 -3.0625 1.46875q-1.171875 1.46875 -1.171875 3.84375l0 0.265625zm12.238281 -0.3125q0 -2.953125 1.3125 -4.703125q1.328125 -1.765625 3.59375 -1.765625q2.5625 0 3.90625 2.03125l0 -7.109375l1.390625 0l0 18.0l-1.3125 0l-0.046875 -1.6875q-1.359375 1.921875 -3.96875 1.921875q-2.1875 0 -3.53125 -1.765625q-1.34375 -1.765625 -1.34375 -4.765625l0 -0.15625zm1.421875 0.234375q0 2.4375 0.96875 3.84375q0.96875 1.390625 2.75 1.390625q2.578125 0 3.671875 -2.28125l0 -5.953125q-1.09375 -2.484375 -3.65625 -2.484375q-1.765625 0 -2.75 1.390625q-0.984375 1.390625 -0.984375 4.09375zm17.382812 6.453125q-1.609375 0 -2.921875 -0.796875q-1.296875 -0.796875 -2.03125 -2.21875q-0.71875 -1.421875 -0.71875 -3.203125l0 -0.5q0 -1.828125 0.703125 -3.28125q0.703125 -1.46875 1.96875 -2.3125q1.265625 -0.84375 2.75 -0.84375q2.3125 0 3.65625 1.578125q1.359375 1.578125 1.359375 4.3125l0 0.78125l-9.046875 0l0 0.265625q0 2.15625 1.234375 3.59375q1.234375 1.4375 3.109375 1.4375q1.125 0 1.984375 -0.40625q0.859375 -0.40625 1.5625 -1.3125l0.890625 0.671875q-1.546875 2.234375 -4.5 2.234375zm-0.25 -11.953125q-1.578125 0 -2.671875 1.15625q-1.078125 1.15625 -1.3125 3.125l7.609375 0l0 -0.15625q-0.0625 -1.828125 -1.046875 -2.96875q-0.984375 -1.15625 -2.578125 -1.15625zm15.3359375 8.5q0 -1.046875 -0.84375 -1.671875q-0.828125 -0.640625 -2.515625 -1.0q-1.6875 -0.359375 -2.625 -0.8125q-0.921875 -0.46875 -1.375 -1.140625q-0.453125 -0.671875 -0.453125 -1.609375q0 -1.5 1.25 -2.484375q1.25 -0.984375 3.21875 -0.984375q2.109375 0 3.390625 1.0625q1.296875 1.046875 1.296875 2.734375l-1.40625 0q0 -1.125 -0.9375 -1.859375q-0.9375 -0.734375 -2.34375 -0.734375q-1.390625 0 -2.234375 0.625q-0.828125 0.609375 -0.828125 1.59375q0 0.9375 0.6875 1.46875q0.703125 0.515625 2.546875 0.953125q1.84375 0.4375 2.765625 0.9375q0.921875 0.484375 1.359375 1.171875q0.453125 0.6875 0.453125 1.671875q0 1.609375 -1.296875 2.578125q-1.296875 0.953125 -3.375 0.953125q-2.21875 0 -3.59375 -1.0625q-1.375 -1.078125 -1.375 -2.71875l1.40625 0q0.078125 1.21875 1.03125 1.90625q0.953125 0.6875 2.53125 0.6875q1.46875 0 2.359375 -0.640625q0.90625 -0.640625 0.90625 -1.625zm13.300781 -6.09375q-1.015625 -1.21875 -1.484375 -2.1875q-0.453125 -0.96875 -0.453125 -1.921875q0 -1.796875 1.0625 -2.828125q1.0625 -1.046875 2.859375 -1.046875q1.625 0 2.625 0.953125q1.015625 0.9375 1.015625 2.390625q0 1.6875 -1.9375 3.3125l-1.875 1.453125l4.6875 5.453125q1.0625 -1.71875 1.0625 -3.890625l1.296875 0q0 2.90625 -1.5 4.90625l2.328125 2.71875l-1.6875 0l-1.46875 -1.71875q-0.921875 0.921875 -2.140625 1.4375q-1.21875 0.515625 -2.5625 0.515625q-2.4375 0 -3.875 -1.25q-1.421875 -1.25 -1.421875 -3.328125q0 -1.25 0.734375 -2.359375q0.734375 -1.109375 2.578125 -2.484375l0.15625 -0.125zm1.828125 8.359375q1.0625 0 2.0625 -0.453125q1.015625 -0.453125 1.8125 -1.28125l-4.78125 -5.53125l-0.15625 -0.171875l-0.546875 0.40625q-2.296875 1.875 -2.296875 3.640625q0 1.53125 1.046875 2.46875q1.0625 0.921875 2.859375 0.921875zm-2.359375 -12.515625q0 1.4375 1.578125 3.375l1.53125 -1.171875q0.75 -0.53125 1.234375 -1.171875q0.484375 -0.65625 0.484375 -1.515625q0 -0.921875 -0.640625 -1.53125q-0.625 -0.625 -1.6875 -0.625q-1.140625 0 -1.828125 0.75q-0.671875 0.734375 -0.671875 1.890625zm20.460938 -3.59375l6.2968597 15.0625l6.3125 -15.0625l1.921875 0l0 17.0625l-1.4375 0l0 -7.4375l0.125 -7.609375l-6.359375 15.046875l-1.109375 0l-6.3281097 -14.984375l0.109375 7.5l0 7.484375l-1.4375 0l0 -17.0625l1.90625 0zm17.76561 10.53125q0 -1.828125 0.703125 -3.28125q0.703125 -1.46875 2.0 -2.28125q1.296875 -0.828125 2.9375 -0.828125q2.53125 0 4.09375 1.78125q1.578125 1.78125 1.578125 4.703125l0 0.296875q0 1.84375 -0.71875 3.3125q-0.703125 1.46875 -2.0 2.265625q-1.28125 0.796875 -2.921875 0.796875q-2.53125 0 -4.109375 -1.765625q-1.5625 -1.78125 -1.5625 -4.71875l0 -0.28125zm1.40625 0.390625q0 2.265625 1.171875 3.734375q1.171875 1.453125 3.09375 1.453125q1.890625 0 3.0625 -1.453125q1.1875 -1.46875 1.1875 -3.859375l0 -0.265625q0 -1.453125 -0.546875 -2.65625q-0.53125 -1.203125 -1.515625 -1.859375q-0.96875 -0.671875 -2.21875 -0.671875q-1.875 0 -3.0625 1.46875q-1.171875 1.46875 -1.171875 3.84375l0 0.265625zm23.003906 -0.078125q0 2.96875 -1.3125 4.71875q-1.3125 1.734375 -3.515625 1.734375q-2.65625 0 -4.015625 -1.96875l-0.0625 1.734375l-1.3125 0l0 -18.0l1.40625 0l0 7.15625q1.328125 -2.078125 3.953125 -2.078125q2.25 0 3.546875 1.71875q1.3125 1.71875 1.3125 4.78125l0 0.203125zm-1.40625 -0.234375q0 -2.515625 -0.96875 -3.875q-0.96875 -1.375 -2.734375 -1.375q-1.359375 0 -2.296875 0.671875q-0.9375 0.65625 -1.40625 1.9375l0 5.71875q1.046875 2.390625 3.71875 2.390625q1.734375 0 2.703125 -1.375q0.984375 -1.375 0.984375 -4.09375zm6.0820312 6.453125l-1.40625 0l0 -12.6875l1.40625 0l0 12.6875zm-1.65625 -16.34375q0 -0.40625 0.25 -0.671875q0.265625 -0.28125 0.703125 -0.28125q0.453125 0 0.71875 0.28125q0.265625 0.265625 0.265625 0.671875q0 0.390625 -0.265625 0.671875q-0.265625 0.265625 -0.71875 0.265625q-0.4375 0 -0.703125 -0.265625q-0.25 -0.28125 -0.25 -0.671875zm7.0351562 16.34375l-1.40625 0l0 -18.0l1.40625 0l0 18.0zm8.707031 0.234375q-1.609375 0 -2.921875 -0.796875q-1.296875 -0.796875 -2.03125 -2.21875q-0.71875 -1.421875 -0.71875 -3.203125l0 -0.5q0 -1.828125 0.703125 -3.28125q0.703125 -1.46875 1.96875 -2.3125q1.265625 -0.84375 2.75 -0.84375q2.3125 0 3.65625 1.578125q1.359375 1.578125 1.359375 4.3125l0 0.78125l-9.046875 0l0 0.265625q0 2.15625 1.234375 3.59375q1.234375 1.4375 3.109375 1.4375q1.125 0 1.984375 -0.40625q0.859375 -0.40625 1.5625 -1.3125l0.890625 0.671875q-1.546875 2.234375 -4.5 2.234375zm-0.25 -11.953125q-1.578125 0 -2.671875 1.15625q-1.078125 1.15625 -1.3125 3.125l7.609375 0l0 -0.15625q-0.0625 -1.828125 -1.046875 -2.96875q-0.984375 -1.15625 -2.578125 -1.15625zm13.90625 11.71875l0 -17.0625l4.765625 0q2.109375 0 3.765625 0.953125q1.671875 0.953125 2.59375 2.734375q0.9375 1.78125 0.9375 4.0625l0 1.5625q0 2.28125 -0.9375 4.0625q-0.921875 1.765625 -2.609375 2.734375q-1.671875 0.953125 -3.84375 0.953125l-4.671875 0zm1.4375 -15.828125l0 14.609375l3.234375 0q2.703125 0 4.328125 -1.78125q1.625 -1.796875 1.625 -4.84375l0 -1.5q0 -2.9375 -1.609375 -4.703125q-1.59375 -1.78125 -4.21875 -1.78125l-3.359375 0zm13.183594 9.296875q0 -1.828125 0.703125 -3.28125q0.703125 -1.46875 2.0 -2.28125q1.296875 -0.828125 2.9375 -0.828125q2.53125 0 4.09375 1.78125q1.578125 1.78125 1.578125 4.703125l0 0.296875q0 1.84375 -0.71875 3.3125q-0.703125 1.46875 -2.0 2.265625q-1.28125 0.796875 -2.921875 0.796875q-2.53125 0 -4.109375 -1.765625q-1.5625 -1.78125 -1.5625 -4.71875l0 -0.28125zm1.40625 0.390625q0 2.265625 1.171875 3.734375q1.171875 1.453125 3.09375 1.453125q1.890625 0 3.0625 -1.453125q1.1875 -1.46875 1.1875 -3.859375l0 -0.265625q0 -1.453125 -0.546875 -2.65625q-0.53125 -1.203125 -1.515625 -1.859375q-0.96875 -0.671875 -2.21875 -0.671875q-1.875 0 -3.0625 1.46875q-1.171875 1.46875 -1.171875 3.84375l0 0.265625zm14.144531 -6.546875l0.046875 2.171875q0.703125 -1.171875 1.765625 -1.78125q1.078125 -0.625 2.359375 -0.625q2.046875 0 3.03125 1.15625q1.0 1.140625 1.015625 3.4375l0 8.328125l-1.390625 0l0 -8.328125q-0.015625 -1.703125 -0.734375 -2.53125q-0.703125 -0.84375 -2.25 -0.84375q-1.3125 0 -2.3125 0.828125q-1.0 0.8125 -1.484375 2.1875l0 8.6875l-1.390625 0l0 -12.6875l1.34375 0zm10.636719 -0.1875l-0.828125 -0.609375q1.046875 -1.421875 1.078125 -2.984375l0 -1.53125l1.390625 0l0 1.1875q0 2.4375 -1.640625 3.9375zm6.71875 -3.046875l0 3.234375l2.625 0l0 1.15625l-2.625 0l0 8.453125q0 1.046875 0.375 1.5625q0.375 0.515625 1.265625 0.515625q0.359375 0 1.140625 -0.109375l0.0625 1.140625q-0.546875 0.203125 -1.5 0.203125q-1.4375 0 -2.09375 -0.828125q-0.65625 -0.84375 -0.65625 -2.484375l0 -8.453125l-2.34375 0l0 -1.15625l2.34375 0l0 -3.234375l1.40625 0zm13.59375 -1.140625l6.296875 15.0625l6.3125 -15.0625l1.921875 0l0 17.0625l-1.4375 0l0 -7.4375l0.125 -7.609375l-6.359375 15.046875l-1.109375 0l-6.328125 -14.984375l0.109375 7.5l0 7.484375l-1.4375 0l0 -17.0625l1.90625 0zm20.109375 17.0625l-1.40625 0l0 -12.6875l1.40625 0l0 12.6875zm-1.65625 -16.34375q0 -0.40625 0.25 -0.671875q0.265625 -0.28125 0.703125 -0.28125q0.453125 0 0.71875 0.28125q0.265625 0.265625 0.265625 0.671875q0 0.390625 -0.265625 0.671875q-0.265625 0.265625 -0.71875 0.265625q-0.4375 0 -0.703125 -0.265625q-0.25 -0.28125 -0.25 -0.671875zm9.441406 8.8125l3.421875 -5.15625l1.671875 0l-4.3125 6.234375l4.5 6.453125l-1.65625 0l-3.609375 -5.375l-3.609375 5.375l-1.65625 0l4.484375 -6.453125l-4.3125 -6.234375l1.65625 0l3.421875 5.15625z" fill-rule="nonzero"/><path fill="#000000" fill-opacity="0.0" d="m-0.70866144 86.91338l962.1102 0" fill-rule="evenodd"/><path stroke="#e396a1" stroke-width="4.0" stroke-linejoin="round" stroke-linecap="butt" d="m-0.70866144 86.91338l962.1102 0" fill-rule="evenodd"/></g></svg>