<svg version="1.1" viewBox="0.0 0.0 960.0 540.0" fill="none" stroke="none" stroke-linecap="square" stroke-miterlimit="10" xmlns:xlink="http://www.w3.org/1999/xlink" xmlns="http://www.w3.org/2000/svg"><clipPath id="g5d01dd7041_0_0.0"><path d="m0 0l960.0 0l0 540.0l-960.0 0l0 -540.0z" clip-rule="nonzero"/></clipPath><g clip-path="url(#g5d01dd7041_0_0.0)"><path fill="#ffffff" d="m0 0l960.0 0l0 540.0l-960.0 0z" fill-rule="evenodd"/><path fill="#80c9e8" d="m0 0l960.0 0l0 86.89764l-960.0 0z" fill-rule="evenodd"/><path fill="#000000" fill-opacity="0.0" d="m24.141733 0.015748031l911.77954 0l0 86.89764l-911.77954 0z" fill-rule="evenodd"/><path fill="#ffffff" d="m41.54798 34.942062l3.515625 0l0 11.8125q0 1.625 -0.71875 2.875q-0.71875 1.25 -2.03125 1.9375q-1.3125 0.671875 -2.96875 0.671875q-2.703125 0 -4.21875 -1.375q-1.515625 -1.375 -1.515625 -3.90625l3.546875 0q0 1.265625 0.515625 1.859375q0.53125 0.59375 1.671875 0.59375q1.0 0 1.59375 -0.6875q0.609375 -0.6875 0.609375 -1.96875l0 -11.8125zm5.78125 10.609375q0 -1.890625 0.71875 -3.359375q0.734375 -1.484375 2.09375 -2.296875q1.359375 -0.8125 3.171875 -0.8125q2.5625 0 4.1875 1.578125q1.625 1.5625 1.8125 4.265625l0.015625 0.859375q0 2.921875 -1.625 4.6875q-1.625 1.765625 -4.375 1.765625q-2.734375 0 -4.375 -1.75q-1.625 -1.765625 -1.625 -4.796875l0 -0.140625zm3.375 0.234375q0 1.8125 0.671875 2.765625q0.6875 0.953125 1.953125 0.953125q1.234375 0 1.921875 -0.9375q0.703125 -0.953125 0.703125 -3.015625q0 -1.78125 -0.703125 -2.75q-0.6875 -0.96875 -1.9375 -0.96875q-1.25 0 -1.9375 0.96875q-0.671875 0.96875 -0.671875 2.984375zm17.585938 2.71875q0 -0.625 -0.625 -0.984375q-0.609375 -0.359375 -1.96875 -0.640625q-4.515625 -0.953125 -4.515625 -3.84375q0 -1.6875 1.390625 -2.8125q1.40625 -1.140625 3.671875 -1.140625q2.40625 0 3.84375 1.140625q1.453125 1.140625 1.453125 2.953125l-3.375 0q0 -0.71875 -0.46875 -1.1875q-0.46875 -0.484375 -1.46875 -0.484375q-0.859375 0 -1.328125 0.390625q-0.46875 0.375 -0.46875 0.984375q0 0.5625 0.53125 0.90625q0.53125 0.34375 1.796875 0.59375q1.265625 0.25 2.140625 0.5625q2.6875 0.984375 2.6875 3.421875q0 1.734375 -1.5 2.8125q-1.484375 1.0625 -3.84375 1.0625q-1.59375 0 -2.828125 -0.5625q-1.234375 -0.578125 -1.9375 -1.5625q-0.703125 -1.0 -0.703125 -2.140625l3.21875 0q0.046875 0.90625 0.65625 1.390625q0.625 0.46875 1.671875 0.46875q0.96875 0 1.46875 -0.359375q0.5 -0.375 0.5 -0.96875zm11.308594 3.734375q-2.796875 0 -4.546875 -1.703125q-1.75 -1.71875 -1.75 -4.5625l0 -0.328125q0 -1.921875 0.734375 -3.421875q0.75 -1.5 2.09375 -2.3125q1.359375 -0.828125 3.09375 -0.828125q2.59375 0 4.09375 1.640625q1.5 1.640625 1.5 4.65625l0 1.390625l-8.078125 0q0.15625 1.234375 0.984375 1.984375q0.828125 0.75 2.09375 0.75q1.953125 0 3.0625 -1.421875l1.65625 1.875q-0.75 1.078125 -2.0625 1.6875q-1.296875 0.59375 -2.875 0.59375zm-0.390625 -10.40625q-1.0 0 -1.640625 0.6875q-0.625 0.671875 -0.796875 1.9375l4.71875 0l0 -0.265625q-0.03125 -1.125 -0.625 -1.734375q-0.578125 -0.625 -1.65625 -0.625zm18.941406 3.953125q0 2.921875 -1.328125 4.6875q-1.328125 1.765625 -3.59375 1.765625q-1.921875 0 -3.109375 -1.34375l0 5.984375l-3.390625 0l0 -17.5625l3.140625 0l0.125 1.25q1.234375 -1.484375 3.203125 -1.484375q2.34375 0 3.640625 1.734375q1.3125 1.734375 1.3125 4.78125l0 0.1875zm-3.390625 -0.25q0 -1.765625 -0.625 -2.71875q-0.625 -0.96875 -1.828125 -0.96875q-1.59375 0 -2.1875 1.21875l0 5.1875q0.625 1.25 2.21875 1.25q2.421875 0 2.421875 -3.96875zm8.792969 -4.828125q1.34375 -1.625 3.390625 -1.625q4.125 0 4.171875 4.796875l0 8.125l-3.375 0l0 -8.03125q0 -1.09375 -0.46875 -1.609375q-0.46875 -0.515625 -1.5625 -0.515625q-1.484375 0 -2.15625 1.140625l0 9.015625l-3.390625 0l0 -18.0l3.390625 0l0 6.703125zm19.84375 5.28125l0 6.015625l-3.515625 0l0 -17.0625l6.65625 0q1.9218826 0 3.3750076 0.703125q1.453125 0.703125 2.234375 2.0q0.796875 1.296875 0.796875 2.9375q0 2.515625 -1.71875 3.96875q-1.71875 1.4375 -4.7500076 1.4375l-3.078125 0zm0 -2.84375l3.140625 0q1.390625 0 2.1250076 -0.65625q0.734375 -0.65625 0.734375 -1.875q0 -1.25 -0.75 -2.015625q-0.7343826 -0.78125 -2.0312576 -0.8125l-3.21875 0l0 5.359375zm11.062508 2.40625q0 -1.890625 0.71875 -3.359375q0.734375 -1.484375 2.09375 -2.296875q1.359375 -0.8125 3.171875 -0.8125q2.5625 0 4.1875 1.578125q1.625 1.5625 1.8125 4.265625l0.015625 0.859375q0 2.921875 -1.625 4.6875q-1.625 1.765625 -4.375 1.765625q-2.734375 0 -4.375 -1.75q-1.625 -1.765625 -1.625 -4.796875l0 -0.140625zm3.375 0.234375q0 1.8125 0.671875 2.765625q0.6875 0.953125 1.953125 0.953125q1.234375 0 1.921875 -0.9375q0.703125 -0.953125 0.703125 -3.015625q0 -1.78125 -0.703125 -2.75q-0.6875 -0.96875 -1.9375 -0.96875q-1.25 0 -1.9375 0.96875q-0.671875 0.96875 -0.671875 2.984375zm17.585938 2.71875q0 -0.625 -0.625 -0.984375q-0.609375 -0.359375 -1.96875 -0.640625q-4.515625 -0.953125 -4.515625 -3.84375q0 -1.6875 1.390625 -2.8125q1.40625 -1.140625 3.671875 -1.140625q2.40625 0 3.84375 1.140625q1.453125 1.140625 1.453125 2.953125l-3.375 0q0 -0.71875 -0.46875 -1.1875q-0.46875 -0.484375 -1.46875 -0.484375q-0.859375 0 -1.328125 0.390625q-0.46875 0.375 -0.46875 0.984375q0 0.5625 0.53125 0.90625q0.53125 0.34375 1.796875 0.59375q1.265625 0.25 2.140625 0.5625q2.6875 0.984375 2.6875 3.421875q0 1.734375 -1.5 2.8125q-1.484375 1.0625 -3.84375 1.0625q-1.59375 0 -2.828125 -0.5625q-1.234375 -0.578125 -1.9375 -1.5625q-0.703125 -1.0 -0.703125 -2.140625l3.21875 0q0.046875 0.90625 0.65625 1.390625q0.625 0.46875 1.671875 0.46875q0.96875 0 1.46875 -0.359375q0.5 -0.375 0.5 -0.96875zm9.527344 -12.296875l0 3.109375l2.171875 0l0 2.484375l-2.171875 0l0 6.328125q0 0.703125 0.265625 1.015625q0.265625 0.296875 1.03125 0.296875q0.5625 0 1.0 -0.078125l0 2.5625q-1.0 0.3125 -2.046875 0.3125q-3.5625 0 -3.640625 -3.59375l0 -6.84375l-1.84375 0l0 -2.484375l1.84375 0l0 -3.109375l3.390625 0zm7.625 15.796875l-3.390625 0l0 -12.6875l3.390625 0l0 12.6875zm-3.59375 -15.96875q0 -0.75 0.5 -1.234375q0.515625 -0.5 1.390625 -0.5q0.875 0 1.390625 0.5q0.515625 0.484375 0.515625 1.234375q0 0.78125 -0.53125 1.28125q-0.515625 0.484375 -1.375 0.484375q-0.84375 0 -1.375 -0.484375q-0.515625 -0.5 -0.515625 -1.28125zm5.8945312 9.53125q0 -2.921875 1.390625 -4.703125q1.390625 -1.78125 3.734375 -1.78125q2.09375 0 3.25 1.4375l0.140625 -1.203125l3.078125 0l0 12.265625q0 1.671875 -0.765625 2.890625q-0.75 1.234375 -2.125 1.875q-1.375 0.65625 -3.203125 0.65625q-1.40625 0 -2.734375 -0.5625q-1.3125 -0.5625 -2.0 -1.4375l1.5 -2.0625q1.265625 1.421875 3.078125 1.421875q1.34375 0 2.09375 -0.71875q0.75 -0.71875 0.75 -2.046875l0 -0.6875q-1.171875 1.328125 -3.078125 1.328125q-2.28125 0 -3.703125 -1.78125q-1.40625 -1.796875 -1.40625 -4.75l0 -0.140625zm3.390625 0.25q0 1.71875 0.6875 2.703125q0.6875 0.96875 1.890625 0.96875q1.546875 0 2.21875 -1.15625l0 -5.328125q-0.671875 -1.15625 -2.1875 -1.15625q-1.21875 0 -1.921875 1.0q-0.6875 0.984375 -0.6875 2.96875zm14.371094 6.1875l-3.390625 0l0 -18.0l3.390625 0l0 18.0zm6.3632812 0l-3.390625 0l0 -12.6875l3.390625 0l0 12.6875zm-3.59375 -15.96875q0 -0.75 0.5 -1.234375q0.515625 -0.5 1.390625 -0.5q0.875 0 1.390625 0.5q0.515625 0.484375 0.515625 1.234375q0 0.78125 -0.53125 1.28125q-0.515625 0.484375 -1.375 0.484375q-0.84375 0 -1.375 -0.484375q-0.515625 -0.5 -0.515625 -1.28125zm5.8632812 9.515625q0 -1.890625 0.71875 -3.359375q0.734375 -1.484375 2.09375 -2.296875q1.359375 -0.8125 3.171875 -0.8125q2.5625 0 4.1875 1.578125q1.625 1.5625 1.8125 4.265625l0.015625 0.859375q0 2.921875 -1.625 4.6875q-1.625 1.765625 -4.375 1.765625q-2.734375 0 -4.375 -1.75q-1.625 -1.765625 -1.625 -4.796875l0 -0.140625zm3.375 0.234375q0 1.8125 0.671875 2.765625q0.6875 0.953125 1.953125 0.953125q1.234375 0 1.921875 -0.9375q0.703125 -0.953125 0.703125 -3.015625q0 -1.78125 -0.703125 -2.75q-0.6875 -0.96875 -1.9375 -0.96875q-1.25 0 -1.9375 0.96875q-0.671875 0.96875 -0.671875 2.984375zm13.8359375 -6.46875l0.109375 1.46875q1.359375 -1.703125 3.640625 -1.703125q2.015625 0 3.0 1.1875q0.984375 1.1875 1.0 3.546875l0 8.1875l-3.375 0l0 -8.109375q0 -1.078125 -0.46875 -1.5625q-0.46875 -0.484375 -1.5625 -0.484375q-1.4375 0 -2.140625 1.21875l0 8.9375l-3.390625 0l0 -12.6875l3.1875 0zm16.160156 12.921875q-2.796875 0 -4.546875 -1.703125q-1.75 -1.71875 -1.75 -4.5625l0 -0.328125q0 -1.921875 0.734375 -3.421875q0.75 -1.5 2.09375 -2.3125q1.359375 -0.828125 3.09375 -0.828125q2.59375 0 4.09375 1.640625q1.5 1.640625 1.5 4.65625l0 1.390625l-8.078125 0q0.15625 1.234375 0.984375 1.984375q0.828125 0.75 2.09375 0.75q1.953125 0 3.0625 -1.421875l1.65625 1.875q-0.75 1.078125 -2.0625 1.6875q-1.296875 0.59375 -2.875 0.59375zm-0.390625 -10.40625q-1.0 0 -1.640625 0.6875q-0.625 0.671875 -0.796875 1.9375l4.71875 0l0 -0.265625q-0.03125 -1.125 -0.625 -1.734375q-0.578125 -0.625 -1.65625 -0.625z" fill-rule="nonzero"/><path fill="#ffffff" d="m249.57143 55.176437l-1.171875 0l0 -20.234375l1.171875 0l0 20.234375zm21.773422 -20.234375l0 11.640625q0 1.734375 -0.75 3.015625q-0.75 1.265625 -2.125 1.953125q-1.359375 0.6875 -3.125 0.6875q-2.703125 0 -4.328125 -1.46875q-1.625 -1.46875 -1.671875 -4.078125l0 -11.75l1.421875 0l0 11.546875q0 2.15625 1.234375 3.34375q1.234375 1.1875 3.34375 1.1875q2.109375 0 3.328125 -1.1875q1.21875 -1.203125 1.21875 -3.34375l0 -11.546875l1.453125 0zm11.2890625 13.84375q0 -1.046875 -0.84375 -1.671875q-0.828125 -0.640625 -2.515625 -1.0q-1.6875 -0.359375 -2.625 -0.8125q-0.921875 -0.46875 -1.375 -1.140625q-0.453125 -0.671875 -0.453125 -1.609375q0 -1.5 1.25 -2.484375q1.25 -0.984375 3.21875 -0.984375q2.109375 0 3.390625 1.0625q1.296875 1.046875 1.296875 2.734375l-1.40625 0q0 -1.125 -0.9375 -1.859375q-0.9375 -0.734375 -2.34375 -0.734375q-1.390625 0 -2.234375 0.625q-0.828125 0.609375 -0.828125 1.59375q0 0.9375 0.6875 1.46875q0.703125 0.515625 2.546875 0.953125q1.84375 0.4375 2.765625 0.9375q0.921875 0.484375 1.359375 1.171875q0.453125 0.6875 0.453125 1.671875q0 1.609375 -1.296875 2.578125q-1.296875 0.953125 -3.375 0.953125q-2.21875 0 -3.59375 -1.0625q-1.375 -1.078125 -1.375 -2.71875l1.40625 0q0.078125 1.21875 1.03125 1.90625q0.953125 0.6875 2.53125 0.6875q1.46875 0 2.359375 -0.640625q0.90625 -0.640625 0.90625 -1.625zm9.464844 3.453125q-1.609375 0 -2.921875 -0.796875q-1.296875 -0.796875 -2.03125 -2.21875q-0.71875 -1.421875 -0.71875 -3.203125l0 -0.5q0 -1.828125 0.703125 -3.28125q0.703125 -1.46875 1.96875 -2.3125q1.265625 -0.84375 2.75 -0.84375q2.3125 0 3.65625 1.578125q1.359375 1.578125 1.359375 4.3125l0 0.78125l-9.046875 0l0 0.265625q0 2.15625 1.234375 3.59375q1.234375 1.4375 3.109375 1.4375q1.125 0 1.984375 -0.40625q0.859375 -0.40625 1.5625 -1.3125l0.890625 0.671875q-1.546875 2.234375 -4.5 2.234375zm-0.25 -11.953125q-1.578125 0 -2.671875 1.15625q-1.078125 1.15625 -1.3125 3.125l7.609375 0l0 -0.15625q-0.0625 -1.828125 -1.046875 -2.96875q-0.984375 -1.15625 -2.578125 -1.15625zm13.6015625 0.234375q-0.4375 -0.078125 -0.953125 -0.078125q-1.3125 0 -2.21875 0.734375q-0.90625 0.71875 -1.296875 2.125l0 8.703125l-1.390625 0l0 -12.6875l1.375 0l0.015625 2.015625q1.125 -2.25 3.578125 -2.25q0.59375 0 0.921875 0.15625l-0.03125 1.28125zm17.800781 3.296875l-7.984375 0l0 6.96875l9.1875 0l0 1.21875l-10.625 0l0 -17.0625l10.5625 0l0 1.234375l-9.125 0l0 6.421875l7.984375 0l0 1.21875zm7.8867188 0.65625l3.421875 -5.15625l1.671875 0l-4.3125 6.234375l4.5 6.453125l-1.65625 0l-3.609375 -5.375l-3.609375 5.375l-1.65625 0l4.484375 -6.453125l-4.3125 -6.234375l1.65625 0l3.421875 5.15625zm17.890625 1.3125q0 2.96875 -1.3125 4.71875q-1.3125 1.734375 -3.515625 1.734375q-2.609375 0 -3.984375 -1.828125l0 6.46875l-1.40625 0l0 -17.5625l1.3125 0l0.0625 1.796875q1.375 -2.03125 3.96875 -2.03125q2.28125 0 3.578125 1.734375q1.296875 1.71875 1.296875 4.78125l0 0.1875zm-1.40625 -0.234375q0 -2.4375 -1.0 -3.84375q-1.0 -1.40625 -2.78125 -1.40625q-1.28125 0 -2.21875 0.625q-0.921875 0.625 -1.40625 1.8125l0 6.078125q0.5 1.09375 1.4375 1.671875q0.9375 0.5625 2.21875 0.5625q1.765625 0 2.75 -1.40625q1.0 -1.421875 1.0 -4.09375zm9.410156 6.6875q-1.609375 0 -2.921875 -0.796875q-1.296875 -0.796875 -2.03125 -2.21875q-0.71875 -1.421875 -0.71875 -3.203125l0 -0.5q0 -1.828125 0.703125 -3.28125q0.703125 -1.46875 1.96875 -2.3125q1.265625 -0.84375 2.75 -0.84375q2.3125 0 3.65625 1.578125q1.359375 1.578125 1.359375 4.3125l0 0.78125l-9.046875 0l0 0.265625q0 2.15625 1.234375 3.59375q1.234375 1.4375 3.109375 1.4375q1.125 0 1.984375 -0.40625q0.859375 -0.40625 1.5625 -1.3125l0.890625 0.671875q-1.546875 2.234375 -4.5 2.234375zm-0.25 -11.953125q-1.578125 0 -2.671875 1.15625q-1.078125 1.15625 -1.3125 3.125l7.609375 0l0 -0.15625q-0.0625 -1.828125 -1.046875 -2.96875q-0.984375 -1.15625 -2.578125 -1.15625zm13.6015625 0.234375q-0.4375 -0.078125 -0.953125 -0.078125q-1.3125 0 -2.21875 0.734375q-0.90625 0.71875 -1.296875 2.125l0 8.703125l-1.390625 0l0 -12.6875l1.375 0l0.015625 2.015625q1.125 -2.25 3.578125 -2.25q0.59375 0 0.921875 0.15625l-0.03125 1.28125zm3.7929688 11.484375l-1.40625 0l0 -12.6875l1.40625 0l0 12.6875zm-1.65625 -16.34375q0 -0.40625 0.25 -0.671875q0.265625 -0.28125 0.703125 -0.28125q0.453125 0 0.71875 0.28125q0.265625 0.265625 0.265625 0.671875q0 0.390625 -0.265625 0.671875q-0.265625 0.265625 -0.71875 0.265625q-0.4375 0 -0.703125 -0.265625q-0.25 -0.28125 -0.25 -0.671875zm10.363281 16.578125q-1.609375 0 -2.921875 -0.796875q-1.296875 -0.796875 -2.03125 -2.21875q-0.71875 -1.421875 -0.71875 -3.203125l0 -0.5q0 -1.828125 0.703125 -3.28125q0.703125 -1.46875 1.96875 -2.3125q1.265625 -0.84375 2.75 -0.84375q2.3125 0 3.65625 1.578125q1.359375 1.578125 1.359375 4.3125l0 0.78125l-9.046875 0l0 0.265625q0 2.15625 1.234375 3.59375q1.234375 1.4375 3.109375 1.4375q1.125 0 1.984375 -0.40625q0.859375 -0.40625 1.5625 -1.3125l0.890625 0.671875q-1.546875 2.234375 -4.5 2.234375zm-0.25 -11.953125q-1.578125 0 -2.671875 1.15625q-1.078125 1.15625 -1.3125 3.125l7.609375 0l0 -0.15625q-0.0625 -1.828125 -1.046875 -2.96875q-0.984375 -1.15625 -2.578125 -1.15625zm9.0859375 -0.96875l0.046875 2.171875q0.703125 -1.171875 1.765625 -1.78125q1.078125 -0.625 2.359375 -0.625q2.046875 0 3.03125 1.15625q1.0 1.140625 1.015625 3.4375l0 8.328125l-1.390625 0l0 -8.328125q-0.015625 -1.703125 -0.734375 -2.53125q-0.703125 -0.84375 -2.25 -0.84375q-1.3125 0 -2.3125 0.828125q-1.0 0.8125 -1.484375 2.1875l0 8.6875l-1.390625 0l0 -12.6875l1.34375 0zm16.527344 11.734375q1.46875 0 2.453125 -0.828125q1.0 -0.828125 1.078125 -2.140625l1.34375 0q-0.0625 1.171875 -0.734375 2.125q-0.65625 0.953125 -1.765625 1.5q-1.109375 0.53125 -2.375 0.53125q-2.5 0 -3.953125 -1.734375q-1.453125 -1.734375 -1.453125 -4.671875l0 -0.421875q0 -1.875 0.65625 -3.3125q0.65625 -1.4375 1.875 -2.21875q1.21875 -0.796875 2.859375 -0.796875q2.09375 0 3.4375 1.25q1.359375 1.234375 1.453125 3.265625l-1.34375 0q-0.09375 -1.484375 -1.078125 -2.390625q-0.96875 -0.921875 -2.46875 -0.921875q-1.890625 0 -2.9375 1.375q-1.046875 1.359375 -1.046875 3.84375l0 0.40625q0 2.421875 1.046875 3.78125q1.046875 1.359375 2.953125 1.359375zm12.582031 1.1875q-1.609375 0 -2.921875 -0.796875q-1.296875 -0.796875 -2.03125 -2.21875q-0.71875 -1.421875 -0.71875 -3.203125l0 -0.5q0 -1.828125 0.703125 -3.28125q0.703125 -1.46875 1.96875 -2.3125q1.265625 -0.84375 2.75 -0.84375q2.3125 0 3.65625 1.578125q1.359375 1.578125 1.359375 4.3125l0 0.78125l-9.046875 0l0 0.265625q0 2.15625 1.234375 3.59375q1.234375 1.4375 3.109375 1.4375q1.125 0 1.984375 -0.40625q0.859375 -0.40625 1.5625 -1.3125l0.890625 0.671875q-1.546875 2.234375 -4.5 2.234375zm-0.25 -11.953125q-1.578125 0 -2.671875 1.15625q-1.078125 1.15625 -1.3125 3.125l7.609375 0l0 -0.15625q-0.0625 -1.828125 -1.046875 -2.96875q-0.984375 -1.15625 -2.578125 -1.15625zm21.578125 11.71875q-0.203125 -0.59375 -0.265625 -1.765625q-0.734375 0.953125 -1.875 1.484375q-1.140625 0.515625 -2.421875 0.515625q-1.828125 0 -2.96875 -1.015625q-1.125 -1.03125 -1.125 -2.578125q0 -1.859375 1.53125 -2.9375q1.546875 -1.078125 4.3125 -1.078125l2.53125 0l0 -1.4375q0 -1.359375 -0.84375 -2.140625q-0.828125 -0.78125 -2.4375 -0.78125q-1.453125 0 -2.421875 0.75q-0.953125 0.75 -0.953125 1.8125l-1.40625 -0.015625q0 -1.515625 1.40625 -2.625q1.40625 -1.109375 3.453125 -1.109375q2.125 0 3.34375 1.0625q1.21875 1.0625 1.265625 2.96875l0 6.0q0 1.828125 0.375 2.75l0 0.140625l-1.5 0zm-4.40625 -1.015625q1.40625 0 2.515625 -0.671875q1.109375 -0.6875 1.609375 -1.8125l0 -2.796875l-2.5 0q-2.09375 0.03125 -3.28125 0.78125q-1.1875 0.734375 -1.1875 2.03125q0 1.0625 0.78125 1.765625q0.796875 0.703125 2.0625 0.703125zm10.605469 -11.671875l0.046875 2.171875q0.703125 -1.171875 1.765625 -1.78125q1.078125 -0.625 2.359375 -0.625q2.046875 0 3.03125 1.15625q1.0 1.140625 1.015625 3.4375l0 8.328125l-1.390625 0l0 -8.328125q-0.015625 -1.703125 -0.734375 -2.53125q-0.703125 -0.84375 -2.25 -0.84375q-1.3125 0 -2.3125 0.828125q-1.0 0.8125 -1.484375 2.1875l0 8.6875l-1.390625 0l0 -12.6875l1.34375 0zm11.277344 6.234375q0 -2.953125 1.3125 -4.703125q1.328125 -1.765625 3.59375 -1.765625q2.5625 0 3.90625 2.03125l0 -7.109375l1.390625 0l0 18.0l-1.3125 0l-0.046875 -1.6875q-1.359375 1.921875 -3.96875 1.921875q-2.1875 0 -3.53125 -1.765625q-1.34375 -1.765625 -1.34375 -4.765625l0 -0.15625zm1.421875 0.234375q0 2.4375 0.96875 3.84375q0.96875 1.390625 2.75 1.390625q2.578125 0 3.671875 -2.28125l0 -5.953125q-1.09375 -2.484375 -3.65625 -2.484375q-1.765625 0 -2.75 1.390625q-0.984375 1.390625 -0.984375 4.09375zm30.390625 -10.84375l0 11.640625q0 1.734375 -0.75 3.015625q-0.75 1.265625 -2.125 1.953125q-1.359375 0.6875 -3.125 0.6875q-2.703125 0 -4.328125 -1.46875q-1.625 -1.46875 -1.671875 -4.078125l0 -11.75l1.421875 0l0 11.546875q0 2.15625 1.234375 3.34375q1.234375 1.1875 3.34375 1.1875q2.109375 0 3.328125 -1.1875q1.21875 -1.203125 1.21875 -3.34375l0 -11.546875l1.453125 0zm11.2890625 13.84375q0 -1.046875 -0.84375 -1.671875q-0.828125 -0.640625 -2.515625 -1.0q-1.6875 -0.359375 -2.625 -0.8125q-0.921875 -0.46875 -1.375 -1.140625q-0.453125 -0.671875 -0.453125 -1.609375q0 -1.5 1.25 -2.484375q1.25 -0.984375 3.21875 -0.984375q2.109375 0 3.390625 1.0625q1.296875 1.046875 1.296875 2.734375l-1.40625 0q0 -1.125 -0.9375 -1.859375q-0.9375 -0.734375 -2.34375 -0.734375q-1.390625 0 -2.234375 0.625q-0.828125 0.609375 -0.828125 1.59375q0 0.9375 0.6875 1.46875q0.703125 0.515625 2.546875 0.953125q1.84375 0.4375 2.765625 0.9375q0.921875 0.484375 1.359375 1.171875q0.453125 0.6875 0.453125 1.671875q0 1.609375 -1.296875 2.578125q-1.296875 0.953125 -3.375 0.953125q-2.21875 0 -3.59375 -1.0625q-1.375 -1.078125 -1.375 -2.71875l1.40625 0q0.078125 1.21875 1.03125 1.90625q0.953125 0.6875 2.53125 0.6875q1.46875 0 2.359375 -0.640625q0.90625 -0.640625 0.90625 -1.625zm9.464844 3.453125q-1.609375 0 -2.921875 -0.796875q-1.296875 -0.796875 -2.03125 -2.21875q-0.71875 -1.421875 -0.71875 -3.203125l0 -0.5q0 -1.828125 0.703125 -3.28125q0.703125 -1.46875 1.96875 -2.3125q1.265625 -0.84375 2.75 -0.84375q2.3125 0 3.65625 1.578125q1.359375 1.578125 1.359375 4.3125l0 0.78125l-9.046875 0l0 0.265625q0 2.15625 1.234375 3.59375q1.234375 1.4375 3.109375 1.4375q1.125 0 1.984375 -0.40625q0.859375 -0.40625 1.5625 -1.3125l0.890625 0.671875q-1.546875 2.234375 -4.5 2.234375zm-0.25 -11.953125q-1.578125 0 -2.671875 1.15625q-1.078125 1.15625 -1.3125 3.125l7.609375 0l0 -0.15625q-0.0625 -1.828125 -1.046875 -2.96875q-0.984375 -1.15625 -2.578125 -1.15625zm13.6015625 0.234375q-0.4375 -0.078125 -0.953125 -0.078125q-1.3125 0 -2.21875 0.734375q-0.90625 0.71875 -1.296875 2.125l0 8.703125l-1.390625 0l0 -12.6875l1.375 0l0.015625 2.015625q1.125 -2.25 3.578125 -2.25q0.59375 0 0.921875 0.15625l-0.03125 1.28125zm10.144531 11.484375l-1.453125 0l0 -17.0625l1.453125 0l0 17.0625zm5.6367188 -12.6875l0.046875 2.171875q0.703125 -1.171875 1.765625 -1.78125q1.078125 -0.625 2.359375 -0.625q2.046875 0 3.03125 1.15625q1.0 1.140625 1.015625 3.4375l0 8.328125l-1.390625 0l0 -8.328125q-0.015625 -1.703125 -0.734375 -2.53125q-0.703125 -0.84375 -2.25 -0.84375q-1.3125 0 -2.3125 0.828125q-1.0 0.8125 -1.484375 2.1875l0 8.6875l-1.390625 0l0 -12.6875l1.34375 0zm14.027344 -3.234375l0 3.234375l2.625 0l0 1.15625l-2.625 0l0 8.453125q0 1.046875 0.375 1.5625q0.375 0.515625 1.265625 0.515625q0.359375 0 1.140625 -0.109375l0.0625 1.140625q-0.546875 0.203125 -1.5 0.203125q-1.4375 0 -2.09375 -0.828125q-0.65625 -0.84375 -0.65625 -2.484375l0 -8.453125l-2.34375 0l0 -1.15625l2.34375 0l0 -3.234375l1.40625 0zm10.4296875 16.15625q-1.609375 0 -2.921875 -0.796875q-1.296875 -0.796875 -2.03125 -2.21875q-0.71875 -1.421875 -0.71875 -3.203125l0 -0.5q0 -1.828125 0.703125 -3.28125q0.703125 -1.46875 1.96875 -2.3125q1.265625 -0.84375 2.75 -0.84375q2.3125 0 3.65625 1.578125q1.359375 1.578125 1.359375 4.3125l0 0.78125l-9.046875 0l0 0.265625q0 2.15625 1.234375 3.59375q1.234375 1.4375 3.109375 1.4375q1.125 0 1.984375 -0.40625q0.859375 -0.40625 1.5625 -1.3125l0.890625 0.671875q-1.546875 2.234375 -4.5 2.234375zm-0.25 -11.953125q-1.578125 0 -2.671875 1.15625q-1.078125 1.15625 -1.3125 3.125l7.609375 0l0 -0.15625q-0.0625 -1.828125 -1.046875 -2.96875q-0.984375 -1.15625 -2.578125 -1.15625zm13.6015625 0.234375q-0.4375 -0.078125 -0.953125 -0.078125q-1.3125 0 -2.21875 0.734375q-0.90625 0.71875 -1.296875 2.125l0 8.703125l-1.390625 0l0 -12.6875l1.375 0l0.015625 2.015625q1.125 -2.25 3.578125 -2.25q0.59375 0 0.921875 0.15625l-0.03125 1.28125zm3.40625 11.484375l0 -11.53125l-2.109375 0l0 -1.15625l2.109375 0l0 -1.53125q0 -1.9375 0.984375 -2.984375q0.984375 -1.046875 2.765625 -1.046875q0.796875 0 1.484375 0.203125l-0.109375 1.171875q-0.578125 -0.140625 -1.28125 -0.140625q-1.15625 0 -1.796875 0.71875q-0.640625 0.71875 -0.640625 2.046875l0 1.5625l3.015625 0l0 1.15625l-3.015625 0l0 11.53125l-1.40625 0zm14.9296875 0q-0.203125 -0.59375 -0.265625 -1.765625q-0.734375 0.953125 -1.875 1.484375q-1.140625 0.515625 -2.421875 0.515625q-1.828125 0 -2.96875 -1.015625q-1.125 -1.03125 -1.125 -2.578125q0 -1.859375 1.53125 -2.9375q1.546875 -1.078125 4.3125 -1.078125l2.53125 0l0 -1.4375q0 -1.359375 -0.84375 -2.140625q-0.828125 -0.78125 -2.4375 -0.78125q-1.453125 0 -2.421875 0.75q-0.953125 0.75 -0.953125 1.8125l-1.40625 -0.015625q0 -1.515625 1.40625 -2.625q1.40625 -1.109375 3.453125 -1.109375q2.125 0 3.34375 1.0625q1.21875 1.0625 1.265625 2.96875l0 6.0q0 1.828125 0.375 2.75l0 0.140625l-1.5 0zm-4.40625 -1.015625q1.40625 0 2.515625 -0.671875q1.109375 -0.6875 1.609375 -1.8125l0 -2.796875l-2.5 0q-2.09375 0.03125 -3.28125 0.78125q-1.1875 0.734375 -1.1875 2.03125q0 1.0625 0.78125 1.765625q0.796875 0.703125 2.0625 0.703125zm13.949219 0.0625q1.46875 0 2.453125 -0.828125q1.0 -0.828125 1.078125 -2.140625l1.34375 0q-0.0625 1.171875 -0.734375 2.125q-0.65625 0.953125 -1.765625 1.5q-1.109375 0.53125 -2.375 0.53125q-2.5 0 -3.953125 -1.734375q-1.453125 -1.734375 -1.453125 -4.671875l0 -0.421875q0 -1.875 0.65625 -3.3125q0.65625 -1.4375 1.875 -2.21875q1.21875 -0.796875 2.859375 -0.796875q2.09375 0 3.4375 1.25q1.359375 1.234375 1.453125 3.265625l-1.34375 0q-0.09375 -1.484375 -1.078125 -2.390625q-0.96875 -0.921875 -2.46875 -0.921875q-1.890625 0 -2.9375 1.375q-1.046875 1.359375 -1.046875 3.84375l0 0.40625q0 2.421875 1.046875 3.78125q1.046875 1.359375 2.953125 1.359375zm12.582031 1.1875q-1.609375 0 -2.921875 -0.796875q-1.296875 -0.796875 -2.03125 -2.21875q-0.71875 -1.421875 -0.71875 -3.203125l0 -0.5q0 -1.828125 0.703125 -3.28125q0.703125 -1.46875 1.96875 -2.3125q1.265625 -0.84375 2.75 -0.84375q2.3125 0 3.65625 1.578125q1.359375 1.578125 1.359375 4.3125l0 0.78125l-9.046875 0l0 0.265625q0 2.15625 1.234375 3.59375q1.234375 1.4375 3.109375 1.4375q1.125 0 1.984375 -0.40625q0.859375 -0.40625 1.5625 -1.3125l0.890625 0.671875q-1.546875 2.234375 -4.5 2.234375zm-0.25 -11.953125q-1.578125 0 -2.671875 1.15625q-1.078125 1.15625 -1.3125 3.125l7.609375 0l0 -0.15625q-0.0625 -1.828125 -1.046875 -2.96875q-0.984375 -1.15625 -2.578125 -1.15625zm13.90625 11.71875l0 -17.0625l4.765625 0q2.109375 0 3.765625 0.953125q1.671875 0.953125 2.59375 2.734375q0.9375 1.78125 0.9375 4.0625l0 1.5625q0 2.28125 -0.9375 4.0625q-0.921875 1.765625 -2.609375 2.734375q-1.671875 0.953125 -3.84375 0.953125l-4.671875 0zm1.4375 -15.828125l0 14.609375l3.234375 0q2.703125 0 4.328125 -1.78125q1.625 -1.796875 1.625 -4.84375l0 -1.5q0 -2.9375 -1.609375 -4.703125q-1.59375 -1.78125 -4.21875 -1.78125l-3.359375 0zm18.855469 16.0625q-1.609375 0 -2.921875 -0.796875q-1.296875 -0.796875 -2.03125 -2.21875q-0.71875 -1.421875 -0.71875 -3.203125l0 -0.5q0 -1.828125 0.703125 -3.28125q0.703125 -1.46875 1.96875 -2.3125q1.265625 -0.84375 2.75 -0.84375q2.3125 0 3.65625 1.578125q1.359375 1.578125 1.359375 4.3125l0 0.78125l-9.046875 0l0 0.265625q0 2.15625 1.234375 3.59375q1.234375 1.4375 3.109375 1.4375q1.125 0 1.984375 -0.40625q0.859375 -0.40625 1.5625 -1.3125l0.890625 0.671875q-1.546875 2.234375 -4.5 2.234375zm-0.25 -11.953125q-1.578125 0 -2.671875 1.15625q-1.078125 1.15625 -1.3125 3.125l7.609375 0l0 -0.15625q-0.0625 -1.828125 -1.046875 -2.96875q-0.984375 -1.15625 -2.578125 -1.15625zm15.3359375 8.5q0 -1.046875 -0.84375 -1.671875q-0.828125 -0.640625 -2.515625 -1.0q-1.6875 -0.359375 -2.625 -0.8125q-0.921875 -0.46875 -1.375 -1.140625q-0.453125 -0.671875 -0.453125 -1.609375q0 -1.5 1.25 -2.484375q1.25 -0.984375 3.21875 -0.984375q2.109375 0 3.390625 1.0625q1.296875 1.046875 1.296875 2.734375l-1.40625 0q0 -1.125 -0.9375 -1.859375q-0.9375 -0.734375 -2.34375 -0.734375q-1.390625 0 -2.234375 0.625q-0.828125 0.609375 -0.828125 1.59375q0 0.9375 0.6875 1.46875q0.703125 0.515625 2.546875 0.953125q1.84375 0.4375 2.765625 0.9375q0.921875 0.484375 1.359375 1.171875q0.453125 0.6875 0.453125 1.671875q0 1.609375 -1.296875 2.578125q-1.296875 0.953125 -3.375 0.953125q-2.21875 0 -3.59375 -1.0625q-1.375 -1.078125 -1.375 -2.71875l1.40625 0q0.078125 1.21875 1.03125 1.90625q0.953125 0.6875 2.53125 0.6875q1.46875 0 2.359375 -0.640625q0.90625 -0.640625 0.90625 -1.625zm6.1367188 3.21875l-1.40625 0l0 -12.6875l1.40625 0l0 12.6875zm-1.65625 -16.34375q0 -0.40625 0.25 -0.671875q0.265625 -0.28125 0.703125 -0.28125q0.453125 0 0.71875 0.28125q0.265625 0.265625 0.265625 0.671875q0 0.390625 -0.265625 0.671875q-0.265625 0.265625 -0.71875 0.265625q-0.4375 0 -0.703125 -0.265625q-0.25 -0.28125 -0.25 -0.671875zm4.8945312 9.890625q0 -2.984375 1.3125 -4.71875q1.328125 -1.75 3.59375 -1.75q2.578125 0 3.9375 2.0625l0.0625 -1.828125l1.3125 0l0 12.421875q0 2.453125 -1.375 3.875q-1.359375 1.4375 -3.703125 1.4375q-1.328125 0 -2.53125 -0.59375q-1.203125 -0.578125 -1.890625 -1.5625l0.78125 -0.84375q1.484375 1.828125 3.546875 1.828125q1.75 0 2.734375 -1.046875q0.984375 -1.03125 1.015625 -2.875l0 -1.59375q-1.34375 1.875 -3.921875 1.875q-2.203125 0 -3.546875 -1.75q-1.328125 -1.765625 -1.328125 -4.75l0 -0.1875zm1.421875 0.234375q0 2.4375 0.96875 3.84375q0.96875 1.390625 2.75 1.390625q2.578125 0 3.65625 -2.328125l0 -5.890625q-0.484375 -1.21875 -1.421875 -1.859375q-0.921875 -0.640625 -2.21875 -0.640625q-1.765625 0 -2.75 1.390625q-0.984375 1.390625 -0.984375 4.09375zm13.796875 -6.46875l0.046875 2.171875q0.703125 -1.171875 1.765625 -1.78125q1.078125 -0.625 2.359375 -0.625q2.046875 0 3.03125 1.15625q1.0 1.140625 1.015625 3.4375l0 8.328125l-1.390625 0l0 -8.328125q-0.015625 -1.703125 -0.734375 -2.53125q-0.703125 -0.84375 -2.25 -0.84375q-1.3125 0 -2.3125 0.828125q-1.0 0.8125 -1.484375 2.1875l0 8.6875l-1.390625 0l0 -12.6875l1.34375 0zm16.746094 12.921875q-1.609375 0 -2.921875 -0.796875q-1.296875 -0.796875 -2.03125 -2.21875q-0.71875 -1.421875 -0.71875 -3.203125l0 -0.5q0 -1.828125 0.703125 -3.28125q0.703125 -1.46875 1.96875 -2.3125q1.265625 -0.84375 2.75 -0.84375q2.3125 0 3.65625 1.578125q1.359375 1.578125 1.359375 4.3125l0 0.78125l-9.046875 0l0 0.265625q0 2.15625 1.234375 3.59375q1.234375 1.4375 3.109375 1.4375q1.125 0 1.984375 -0.40625q0.859375 -0.40625 1.5625 -1.3125l0.890625 0.671875q-1.546875 2.234375 -4.5 2.234375zm-0.25 -11.953125q-1.578125 0 -2.671875 1.15625q-1.078125 1.15625 -1.3125 3.125l7.609375 0l0 -0.15625q-0.0625 -1.828125 -1.046875 -2.96875q-0.984375 -1.15625 -2.578125 -1.15625zm13.6015625 0.234375q-0.4375 -0.078125 -0.953125 -0.078125q-1.3125 0 -2.21875 0.734375q-0.90625 0.71875 -1.296875 2.125l0 8.703125l-1.390625 0l0 -12.6875l1.375 0l0.015625 2.015625q1.125 -2.25 3.578125 -2.25q0.59375 0 0.921875 0.15625l-0.03125 1.28125z" fill-rule="nonzero"/><path fill="#000000" fill-opacity="0.0" d="m24.141733 145.44882l911.77954 0l0 249.10236l-911.77954 0z" fill-rule="evenodd"/><path fill="#80c9e8" d="m48.23548 229.09625l0.875 6.0l1.28125 -5.40625l9.0 -31.75l5.0625 0l8.78125 31.75l1.25 5.5l0.96875 -6.125l7.0625 -31.125l6.03125 0l-11.03125 45.5l-5.46875 0l-9.375 -33.15625l-0.71875 -3.46875l-0.71875 3.46875l-9.71875 33.15625l-5.46875 0l-11.0 -45.5l6.0 0l7.1875 31.15625zm51.84375 -15.375q3.84375 -4.71875 10.0 -4.71875q10.71875 0 10.8125 12.09375l0 22.34375l-5.78125 0l0 -22.375q-0.03125 -3.65625 -1.671875 -5.40625q-1.640625 -1.75 -5.109375 -1.75q-2.8125 0 -4.9375 1.5q-2.125 1.5 -3.3125 3.9375l0 24.09375l-5.78125 0l0 -48.0l5.78125 0l0 18.28125zm40.531258 21.25l7.875 -25.34375l6.1875 0l-13.59375 39.03125q-3.15625 8.4375 -10.03125 8.4375l-1.09375 -0.09375l-2.1562576 -0.40625l0 -4.6875l1.5625076 0.125q2.9375 0 4.578125 -1.1875q1.640625 -1.1875 2.703125 -4.34375l1.28125 -3.4375l-12.062508 -33.4375l6.3125076 0l8.4375 25.34375zm41.34375 8.46875l-5.78125 0l0 -33.8125l5.78125 0l0 33.8125zm-6.25 -42.78125q0 -1.40625 0.859375 -2.375q0.859375 -0.96875 2.546875 -0.96875q1.6875 0 2.5625 0.96875q0.875 0.96875 0.875 2.375q0 1.40625 -0.875 2.34375q-0.875 0.9375 -2.5625 0.9375q-1.6875 0 -2.546875 -0.9375q-0.859375 -0.9375 -0.859375 -2.34375zm35.1875 33.8125q0 -2.34375 -1.765625 -3.640625q-1.765625 -1.296875 -6.15625 -2.234375q-4.390625 -0.9375 -6.96875 -2.25q-2.578125 -1.3125 -3.8125 -3.125q-1.234375 -1.8125 -1.234375 -4.3125q0 -4.15625 3.515625 -7.03125q3.515625 -2.875 8.984375 -2.875q5.75 0 9.328125 2.96875q3.578125 2.96875 3.578125 7.59375l-5.8125 0q0 -2.375 -2.015625 -4.09375q-2.015625 -1.71875 -5.078125 -1.71875q-3.15625 0 -4.9375 1.375q-1.78125 1.375 -1.78125 3.59375q0 2.09375 1.65625 3.15625q1.65625 1.0625 5.984375 2.03125q4.328125 0.96875 7.015625 2.3125q2.6875 1.34375 3.984375 3.234375q1.296875 1.890625 1.296875 4.609375q0 4.53125 -3.625 7.265625q-3.625 2.734375 -9.40625 2.734375q-4.0625 0 -7.1875 -1.4375q-3.125 -1.4375 -4.890625 -4.015625q-1.765625 -2.578125 -1.765625 -5.578125l5.78125 0q0.15625 2.90625 2.328125 4.609375q2.171875 1.703125 5.734375 1.703125q3.28125 0 5.265625 -1.328125q1.984375 -1.328125 1.984375 -3.546875zm35.4375 8.96875l-5.78125 0l0 -48.0l5.78125 0l0 48.0zm23.281235 0.625q-6.875 0 -11.1875 -4.515625q-4.3124847 -4.515625 -4.3124847 -12.078125l0 -1.0625q0 -5.03125 1.9218597 -8.984375q1.921875 -3.953125 5.375 -6.1875q3.453125 -2.234375 7.484375 -2.234375q6.59375 0 10.25 4.34375q3.65625 4.34375 3.65625 12.4375l0 2.40625l-22.90625 0q0.125 5.0 2.921875 8.078125q2.796875 3.078125 7.109375 3.078125q3.0625 0 5.1875 -1.25q2.125 -1.25 3.71875 -3.3125l3.53125 2.75q-4.25 6.53125 -12.75 6.53125zm-0.71875 -30.3125q-3.5 0 -5.875 2.546875q-2.375 2.546875 -2.9375 7.140625l16.9375 0l0 -0.4375q-0.25 -4.40625 -2.375 -6.828125q-2.125 -2.421875 -5.75 -2.421875zm41.46875 29.6875q-0.5 -1.0 -0.8125 -3.5625q-4.03125 4.1875 -9.625 4.1875q-5.0 0 -8.203125 -2.828125q-3.203125 -2.828125 -3.203125 -7.171875q0 -5.28125 4.015625 -8.203125q4.015625 -2.921875 11.296875 -2.921875l5.625 0l0 -2.65625q0 -3.03125 -1.8125 -4.828125q-1.8125 -1.796875 -5.34375 -1.796875q-3.09375 0 -5.1875 1.5625q-2.09375 1.5625 -2.09375 3.78125l-5.8125 0q0 -2.53125 1.796875 -4.890625q1.796875 -2.359375 4.875 -3.734375q3.078125 -1.375 6.765625 -1.375q5.84375 0 9.15625 2.921875q3.3125 2.921875 3.4375 8.046875l0 15.5625q0 4.65625 1.1875 7.40625l0 0.5l-6.0625 0zm-9.59375 -4.40625q2.71875 0 5.15625 -1.40625q2.4375 -1.40625 3.53125 -3.65625l0 -6.9375l-4.53125 0q-10.625 0 -10.625 6.21875q0 2.71875 1.8125 4.25q1.8125 1.53125 4.65625 1.53125zm39.875 -24.21875q-1.3125 -0.21875 -2.84375 -0.21875q-5.6875 0 -7.71875 4.84375l0 24.0l-5.78125 0l0 -33.8125l5.625 0l0.09375 3.90625q2.84375 -4.53125 8.0625 -4.53125q1.6875 0 2.5625 0.4375l0 5.375zm10.78125 -5.1875l0.1875 4.25q3.875 -4.875 10.125 -4.875q10.71875 0 10.8125 12.09375l0 22.34375l-5.78125 0l0 -22.375q-0.03125 -3.65625 -1.671875 -5.40625q-1.640625 -1.75 -5.109375 -1.75q-2.8125 0 -4.9375 1.5q-2.125 1.5 -3.3125 3.9375l0 24.09375l-5.78125 0l0 -33.8125l5.46875 0zm36.125 33.8125l-5.78125 0l0 -33.8125l5.78125 0l0 33.8125zm-6.25 -42.78125q0 -1.40625 0.859375 -2.375q0.859375 -0.96875 2.546875 -0.96875q1.6875 0 2.5625 0.96875q0.875 0.96875 0.875 2.375q0 1.40625 -0.875 2.34375q-0.875 0.9375 -2.5625 0.9375q-1.6875 0 -2.546875 -0.9375q-0.859375 -0.9375 -0.859375 -2.34375zm20.96875 8.96875l0.1875 4.25q3.875 -4.875 10.125 -4.875q10.71875 0 10.8125 12.09375l0 22.34375l-5.78125 0l0 -22.375q-0.03125 -3.65625 -1.671875 -5.40625q-1.640625 -1.75 -5.109375 -1.75q-2.8125 0 -4.9375 1.5q-2.125 1.5 -3.3125 3.9375l0 24.09375l-5.78125 0l0 -33.8125l5.46875 0zm28.46875 16.625q0 -7.90625 3.65625 -12.578125q3.65625 -4.671875 9.6875 -4.671875q6.1875 0 9.65625 4.375l0.28125 -3.75l5.28125 0l0 33.0q0 6.5625 -3.890625 10.34375q-3.890625 3.78125 -10.453125 3.78125q-3.65625 0 -7.15625 -1.5625q-3.5 -1.5625 -5.34375 -4.28125l3.0 -3.46875q3.71875 4.59375 9.09375 4.59375q4.21875 0 6.578125 -2.375q2.359375 -2.375 2.359375 -6.6875l0 -2.90625q-3.46875 4.0 -9.46875 4.0q-5.9375 0 -9.609375 -4.78125q-3.671875 -4.78125 -3.671875 -13.03125zm5.8125 0.65625q0 5.71875 2.34375 8.984375q2.34375 3.265625 6.5625 3.265625q5.46875 0 8.03125 -4.96875l0 -15.4375q-2.65625 -4.84375 -7.96875 -4.84375q-4.21875 0 -6.59375 3.28125q-2.375 3.28125 -2.375 9.71875zm68.1875 16.53125q-0.5 -1.0 -0.8125 -3.5625q-4.03125 4.1875 -9.625 4.1875q-5.0 0 -8.203125 -2.828125q-3.203125 -2.828125 -3.203125 -7.171875q0 -5.28125 4.015625 -8.203125q4.015625 -2.921875 11.296875 -2.921875l5.625 0l0 -2.65625q0 -3.03125 -1.8125 -4.828125q-1.8125 -1.796875 -5.34375 -1.796875q-3.09375 0 -5.1875 1.5625q-2.09375 1.5625 -2.09375 3.78125l-5.8125 0q0 -2.53125 1.796875 -4.890625q1.796875 -2.359375 4.875 -3.734375q3.078125 -1.375 6.765625 -1.375q5.84375 0 9.15625 2.921875q3.3125 2.921875 3.4375 8.046875l0 15.5625q0 4.65625 1.1875 7.40625l0 0.5l-6.0625 0zm-9.59375 -4.40625q2.71875 0 5.15625 -1.40625q2.4375 -1.40625 3.53125 -3.65625l0 -6.9375l-4.53125 0q-10.625 0 -10.625 6.21875q0 2.71875 1.8125 4.25q1.8125 1.53125 4.65625 1.53125zm52.15625 -12.125q0 7.75 -3.5625 12.453125q-3.5625 4.703125 -9.5625 4.703125q-6.40625 0 -9.90625 -4.53125l-0.28125 3.90625l-5.3125 0l0 -48.0l5.78125 0l0 17.90625q3.5 -4.34375 9.65625 -4.34375q6.15625 0 9.671875 4.65625q3.515625 4.65625 3.515625 12.75l0 0.5zm-5.78125 -0.65625q0 -5.90625 -2.28125 -9.125q-2.28125 -3.21875 -6.5625 -3.21875q-5.71875 0 -8.21875 5.3125l0 14.625q2.65625 5.3125 8.28125 5.3125q4.15625 0 6.46875 -3.21875q2.3125 -3.21875 2.3125 -9.6875zm11.53125 -0.03125q0 -4.96875 1.953125 -8.9375q1.953125 -3.96875 5.4375 -6.125q3.484375 -2.15625 7.953125 -2.15625q6.90625 0 11.171875 4.78125q4.265625 4.78125 4.265625 12.71875l0 0.40625q0 4.9375 -1.890625 8.859375q-1.890625 3.921875 -5.40625 6.109375q-3.515625 2.1875 -8.078125 2.1875q-6.875 0 -11.140625 -4.78125q-4.265625 -4.78125 -4.265625 -12.65625l0 -0.40625zm5.8125 0.6875q0 5.625 2.609375 9.03125q2.609375 3.40625 6.984375 3.40625q4.40625 0 7.0 -3.453125q2.59375 -3.453125 2.59375 -9.671875q0 -5.5625 -2.640625 -9.015625q-2.640625 -3.453125 -7.015625 -3.453125q-4.28125 0 -6.90625 3.40625q-2.625 3.40625 -2.625 9.75zm53.09375 13.1875q-3.375 3.96875 -9.90625 3.96875q-5.40625 0 -8.234375 -3.140625q-2.828125 -3.140625 -2.859375 -9.296875l0 -22.0l5.78125 0l0 21.84375q0 7.6875 6.25 7.6875q6.625 0 8.8125 -4.9375l0 -24.59375l5.78125 0l0 33.8125l-5.5 0l-0.125 -3.34375zm22.25 -38.65625l0 8.1875l6.3125 0l0 4.46875l-6.3125 0l0 20.96875q0 2.03125 0.84375 3.046875q0.84375 1.015625 2.875 1.015625q1.0 0 2.75 -0.375l0 4.6875q-2.28125 0.625 -4.4375 0.625q-3.875 0 -5.84375 -2.34375q-1.96875 -2.34375 -1.96875 -6.65625l0 -20.96875l-6.15625 0l0 -4.46875l6.15625 0l0 -8.1875l5.78125 0zm49.78125 38.65625q-3.375 3.96875 -9.90625 3.96875q-5.40625 0 -8.234375 -3.140625q-2.828125 -3.140625 -2.859375 -9.296875l0 -22.0l5.78125 0l0 21.84375q0 7.6875 6.25 7.6875q6.625 0 8.8125 -4.9375l0 -24.59375l5.78125 0l0 33.8125l-5.5 0l-0.125 -3.34375zm34.09375 -5.625q0 -2.34375 -1.765625 -3.640625q-1.765625 -1.296875 -6.15625 -2.234375q-4.390625 -0.9375 -6.96875 -2.25q-2.578125 -1.3125 -3.8125 -3.125q-1.234375 -1.8125 -1.234375 -4.3125q0 -4.15625 3.515625 -7.03125q3.515625 -2.875 8.984375 -2.875q5.75 0 9.328125 2.96875q3.578125 2.96875 3.578125 7.59375l-5.8125 0q0 -2.375 -2.015625 -4.09375q-2.015625 -1.71875 -5.078125 -1.71875q-3.15625 0 -4.9375 1.375q-1.78125 1.375 -1.78125 3.59375q0 2.09375 1.65625 3.15625q1.65625 1.0625 5.984375 2.03125q4.328125 0.96875 7.015625 2.3125q2.6875 1.34375 3.984375 3.234375q1.296875 1.890625 1.296875 4.609375q0 4.53125 -3.625 7.265625q-3.625 2.734375 -9.40625 2.734375q-4.0625 0 -7.1875 -1.4375q-3.125 -1.4375 -4.890625 -4.015625q-1.765625 -2.578125 -1.765625 -5.578125l5.78125 0q0.15625 2.90625 2.328125 4.609375q2.171875 1.703125 5.734375 1.703125q3.28125 0 5.265625 -1.328125q1.984375 -1.328125 1.984375 -3.546875zm27.34375 9.59375q-6.875 0 -11.1875 -4.515625q-4.3125 -4.515625 -4.3125 -12.078125l0 -1.0625q0 -5.03125 1.921875 -8.984375q1.921875 -3.953125 5.375 -6.1875q3.453125 -2.234375 7.484375 -2.234375q6.59375 0 10.25 4.34375q3.65625 4.34375 3.65625 12.4375l0 2.40625l-22.90625 0q0.125 5.0 2.921875 8.078125q2.796875 3.078125 7.109375 3.078125q3.0625 0 5.1875 -1.25q2.125 -1.25 3.71875 -3.3125l3.53125 2.75q-4.25 6.53125 -12.75 6.53125zm-0.71875 -30.3125q-3.5 0 -5.875 2.546875q-2.375 2.546875 -2.9375 7.140625l16.9375 0l0 -0.4375q-0.25 -4.40625 -2.375 -6.828125q-2.125 -2.421875 -5.75 -2.421875zm36.9375 1.0625q-1.3125 -0.21875 -2.84375 -0.21875q-5.6875 0 -7.71875 4.84375l0 24.0l-5.78125 0l0 -33.8125l5.625 0l0.09375 3.90625q2.84375 -4.53125 8.0625 -4.53125q1.6875 0 2.5625 0.4375l0 5.375z" fill-rule="nonzero"/><path fill="#80c9e8" d="m51.54798 332.065q-6.875 0 -11.1875 -4.515625q-4.3125 -4.515625 -4.3125 -12.078125l0 -1.0625q0 -5.03125 1.921875 -8.984375q1.921875 -3.953125 5.375 -6.1875q3.453125 -2.234375 7.484375 -2.234375q6.59375 0 10.25 4.34375q3.65625 4.34375 3.65625 12.4375l0 2.40625l-22.90625 0q0.125 5.0 2.921875 8.078125q2.796875 3.078125 7.109375 3.078125q3.0625 0 5.1875 -1.25q2.125 -1.25 3.71875 -3.3125l3.53125 2.75q-4.25 6.53125 -12.75 6.53125zm-0.71875 -30.3125q-3.5 0 -5.875 2.546875q-2.375 2.546875 -2.9375 7.140625l16.9375 0l0 -0.4375q-0.25 -4.40625 -2.375 -6.828125q-2.125 -2.421875 -5.75 -2.421875zm31.9375 8.21875l7.5 -12.34375l6.75 0l-11.0625 16.71875l11.40625 17.09375l-6.6875 0l-7.8125 -12.65625l-7.8125 12.65625l-6.71875 0l11.40625 -17.09375l-11.0625 -16.71875l6.6875 0l7.40625 12.34375zm48.937508 4.9375q0 7.71875 -3.53125 12.4375q-3.5312576 4.71875 -9.562508 4.71875q-6.15625 0 -9.6875 -3.90625l0 16.28125l-5.78125 0l0 -46.8125l5.28125 0l0.28125 3.75q3.53125 -4.375 9.8125 -4.375q6.09375 0 9.640633 4.59375q3.546875 4.59375 3.546875 12.78125l0 0.53125zm-5.7812576 -0.65625q0 -5.71875 -2.4375 -9.03125q-2.4375 -3.3125 -6.6875 -3.3125q-5.25 0 -7.875 4.65625l0 16.15625q2.59375 4.625 7.9375 4.625q4.15625 0 6.609375 -3.296875q2.453125 -3.296875 2.453125 -9.796875zm27.156258 17.8125q-6.875 0 -11.1875 -4.515625q-4.3125 -4.515625 -4.3125 -12.078125l0 -1.0625q0 -5.03125 1.921875 -8.984375q1.921875 -3.953125 5.375 -6.1875q3.453125 -2.234375 7.484375 -2.234375q6.59375 0 10.25 4.34375q3.65625 4.34375 3.65625 12.4375l0 2.40625l-22.90625 0q0.125 5.0 2.921875 8.078125q2.796875 3.078125 7.109375 3.078125q3.0625 0 5.1875 -1.25q2.125 -1.25 3.71875 -3.3125l3.53125 2.75q-4.25 6.53125 -12.75 6.53125zm-0.71875 -30.3125q-3.5 0 -5.875 2.546875q-2.375 2.546875 -2.9375 7.140625l16.9375 0l0 -0.4375q-0.25 -4.40625 -2.375 -6.828125q-2.125 -2.421875 -5.75 -2.421875zm36.9375 1.0625q-1.3125 -0.21875 -2.84375 -0.21875q-5.6875 0 -7.71875 4.84375l0 24.0l-5.78125 0l0 -33.8125l5.625 0l0.09375 3.90625q2.84375 -4.53125 8.0625 -4.53125q1.6875 0 2.5625 0.4375l0 5.375zm11.59375 28.625l-5.78125 0l0 -33.8125l5.78125 0l0 33.8125zm-6.25 -42.78125q0 -1.40625 0.859375 -2.375q0.859375 -0.96875 2.546875 -0.96875q1.6875 0 2.5625 0.96875q0.875 0.96875 0.875 2.375q0 1.40625 -0.875 2.34375q-0.875 0.9375 -2.5625 0.9375q-1.6875 0 -2.546875 -0.9375q-0.859375 -0.9375 -0.859375 -2.34375zm29.53125 43.40625q-6.875 0 -11.1875 -4.515625q-4.3125 -4.515625 -4.3125 -12.078125l0 -1.0625q0 -5.03125 1.921875 -8.984375q1.921875 -3.953125 5.375 -6.1875q3.453125 -2.234375 7.484375 -2.234375q6.59375 0 10.25 4.34375q3.65625 4.34375 3.65625 12.4375l0 2.40625l-22.90625 0q0.125 5.0 2.921875 8.078125q2.796875 3.078125 7.109375 3.078125q3.0625 0 5.1875 -1.25q2.125 -1.25 3.71875 -3.3125l3.53125 2.75q-4.25 6.53125 -12.75 6.53125zm-0.71875 -30.3125q-3.5 0 -5.875 2.546875q-2.375 2.546875 -2.9375 7.140625l16.9375 0l0 -0.4375q-0.25 -4.40625 -2.375 -6.828125q-2.125 -2.421875 -5.75 -2.421875zm26.0625 -4.125l0.1875 4.25q3.875 -4.875 10.124985 -4.875q10.71875 0 10.8125 12.09375l0 22.34375l-5.78125 0l0 -22.375q-0.03125 -3.65625 -1.671875 -5.40625q-1.640625 -1.75 -5.109375 -1.75q-2.8124847 0 -4.9374847 1.5q-2.125 1.5 -3.3125 3.9375l0 24.09375l-5.78125 0l0 -33.8125l5.46875 0zm43.406235 29.71875q3.09375 0 5.40625 -1.875q2.3125 -1.875 2.5625 -4.6875l5.46875 0q-0.15625 2.90625 -2.0 5.53125q-1.84375 2.625 -4.921875 4.1875q-3.078125 1.5625 -6.515625 1.5625q-6.90625 0 -10.984375 -4.609375q-4.078125 -4.609375 -4.078125 -12.609375l0 -0.96875q0 -4.9375 1.8125 -8.78125q1.8125 -3.84375 5.203125 -5.96875q3.390625 -2.125 8.015625 -2.125q5.6875 0 9.453125 3.40625q3.765625 3.40625 4.015625 8.84375l-5.46875 0q-0.25 -3.28125 -2.484375 -5.390625q-2.234375 -2.109375 -5.515625 -2.109375q-4.40625 0 -6.828125 3.171875q-2.421875 3.171875 -2.421875 9.171875l0 1.09375q0 5.84375 2.40625 9.0q2.40625 3.15625 6.875 3.15625zm33.96875 4.71875q-6.875 0 -11.1875 -4.515625q-4.3125 -4.515625 -4.3125 -12.078125l0 -1.0625q0 -5.03125 1.921875 -8.984375q1.921875 -3.953125 5.375 -6.1875q3.453125 -2.234375 7.484375 -2.234375q6.59375 0 10.25 4.34375q3.65625 4.34375 3.65625 12.4375l0 2.40625l-22.90625 0q0.125 5.0 2.921875 8.078125q2.796875 3.078125 7.109375 3.078125q3.0625 0 5.1875 -1.25q2.125 -1.25 3.71875 -3.3125l3.53125 2.75q-4.25 6.53125 -12.75 6.53125zm-0.71875 -30.3125q-3.5 0 -5.875 2.546875q-2.375 2.546875 -2.9375 7.140625l16.9375 0l0 -0.4375q-0.25 -4.40625 -2.375 -6.828125q-2.125 -2.421875 -5.75 -2.421875zm56.125 20.71875q0 -2.34375 -1.765625 -3.640625q-1.765625 -1.296875 -6.15625 -2.234375q-4.390625 -0.9375 -6.96875 -2.25q-2.578125 -1.3125 -3.8125 -3.125q-1.234375 -1.8125 -1.234375 -4.3125q0 -4.15625 3.515625 -7.03125q3.515625 -2.875 8.984375 -2.875q5.75 0 9.328125 2.96875q3.578125 2.96875 3.578125 7.59375l-5.8125 0q0 -2.375 -2.015625 -4.09375q-2.015625 -1.71875 -5.078125 -1.71875q-3.15625 0 -4.9375 1.375q-1.78125 1.375 -1.78125 3.59375q0 2.09375 1.65625 3.15625q1.65625 1.0625 5.984375 2.03125q4.328125 0.96875 7.015625 2.3125q2.6875 1.34375 3.984375 3.234375q1.296875 1.890625 1.296875 4.609375q0 4.53125 -3.625 7.265625q-3.625 2.734375 -9.40625 2.734375q-4.0625 0 -7.1875 -1.4375q-3.125 -1.4375 -4.890625 -4.015625q-1.765625 -2.578125 -1.765625 -5.578125l5.78125 0q0.15625 2.90625 2.328125 4.609375q2.171875 1.703125 5.734375 1.703125q3.28125 0 5.265625 -1.328125q1.984375 -1.328125 1.984375 -3.546875zm11.78125 -8.25q0 -4.96875 1.953125 -8.9375q1.953125 -3.96875 5.4375 -6.125q3.484375 -2.15625 7.953125 -2.15625q6.90625 0 11.171875 4.78125q4.265625 4.78125 4.265625 12.71875l0 0.40625q0 4.9375 -1.890625 8.859375q-1.890625 3.921875 -5.40625 6.109375q-3.515625 2.1875 -8.078125 2.1875q-6.875 0 -11.140625 -4.78125q-4.265625 -4.78125 -4.265625 -12.65625l0 -0.40625zm5.8125 0.6875q0 5.625 2.609375 9.03125q2.609375 3.40625 6.984375 3.40625q4.40625 0 7.0 -3.453125q2.59375 -3.453125 2.59375 -9.671875q0 -5.5625 -2.640625 -9.015625q-2.640625 -3.453125 -7.015625 -3.453125q-4.28125 0 -6.90625 3.40625q-2.625 3.40625 -2.625 9.75zm32.34375 13.5q0 -1.5 0.890625 -2.5q0.890625 -1.0 2.671875 -1.0q1.78125 0 2.703125 1.0q0.921875 1.0 0.921875 2.5q0 1.4375 -0.921875 2.40625q-0.921875 0.96875 -2.703125 0.96875q-1.78125 0 -2.671875 -0.96875q-0.890625 -0.96875 -0.890625 -2.40625zm16.84375 0q0 -1.5 0.890625 -2.5q0.890625 -1.0 2.671875 -1.0q1.78125 0 2.703125 1.0q0.921875 1.0 0.921875 2.5q0 1.4375 -0.921875 2.40625q-0.921875 0.96875 -2.703125 0.96875q-1.78125 0 -2.671875 -0.96875q-0.890625 -0.96875 -0.890625 -2.40625zm16.84375 0q0 -1.5 0.890625 -2.5q0.890625 -1.0 2.671875 -1.0q1.78125 0 2.703125 1.0q0.921875 1.0 0.921875 2.5q0 1.4375 -0.921875 2.40625q-0.921875 0.96875 -2.703125 0.96875q-1.78125 0 -2.671875 -0.96875q-0.890625 -0.96875 -0.890625 -2.40625z" fill-rule="nonzero"/><path fill="#e396a1" d="m481.23547 314.2525q0 -7.78125 3.6875 -12.515625q3.6875 -4.734375 9.65625 -4.734375q5.9375 0 9.40625 4.0625l0 -17.625l5.78125 0l0 48.0l-5.3125 0l-0.28125 -3.625q-3.46875 4.25 -9.65625 4.25q-5.875 0 -9.578125 -4.8125q-3.703125 -4.8125 -3.703125 -12.5625l0 -0.4375zm5.78125 0.65625q0 5.75 2.375 9.0q2.375 3.25 6.5625 3.25q5.5 0 8.03125 -4.9375l0 -15.53125q-2.59375 -4.78125 -7.96875 -4.78125q-4.25 0 -6.625 3.28125q-2.375 3.28125 -2.375 9.71875zm38.0 16.53125l-5.78125 0l0 -33.8125l5.78125 0l0 33.8125zm-6.25 -42.78125q0 -1.40625 0.859375 -2.375q0.859375 -0.96875 2.546875 -0.96875q1.6875 0 2.5625 0.96875q0.875 0.96875 0.875 2.375q0 1.40625 -0.875 2.34375q-0.875 0.9375 -2.5625 0.9375q-1.6875 0 -2.546875 -0.9375q-0.859375 -0.9375 -0.859375 -2.34375zm18.34375 42.78125l0 -29.34375l-5.34375 0l0 -4.46875l5.34375 0l0 -3.46875q0 -5.4375 2.90625 -8.40625q2.90625 -2.96875 8.21875 -2.96875q2.0 0 3.96875 0.53125l-0.3125 4.6875q-1.46875 -0.28125 -3.125 -0.28125q-2.8125 0 -4.34375 1.640625q-1.53125 1.640625 -1.53125 4.703125l0 3.5625l12.5 0l0 -2.875q0 -5.65625 3.234375 -8.8125q3.234375 -3.15625 9.140625 -3.15625q3.5 0 8.84375 1.90625l-0.96875 4.875q-3.90625 -1.5625 -7.46875 -1.5625q-3.71875 0 -5.359375 1.65625q-1.640625 1.65625 -1.640625 5.03125l0 2.9375l6.9375 0l0 4.46875l-6.9375 0l0 29.34375l-5.78125 0l0 -29.34375l-12.5 0l0 29.34375l-5.78125 0zm42.34375 0l-5.78125 0l0 -33.8125l5.78125 0l0 33.8125zm23.0 -4.09375q3.09375 0 5.40625 -1.875q2.3125 -1.875 2.5625 -4.6875l5.46875 0q-0.15625 2.90625 -2.0 5.53125q-1.84375 2.625 -4.921875 4.1875q-3.078125 1.5625 -6.515625 1.5625q-6.90625 0 -10.984375 -4.609375q-4.078125 -4.609375 -4.078125 -12.609375l0 -0.96875q0 -4.9375 1.8125 -8.78125q1.8125 -3.84375 5.203125 -5.96875q3.390625 -2.125 8.015625 -2.125q5.6875 0 9.453125 3.40625q3.765625 3.40625 4.015625 8.84375l-5.46875 0q-0.25 -3.28125 -2.484375 -5.390625q-2.234375 -2.109375 -5.515625 -2.109375q-4.40625 0 -6.828125 3.171875q-2.421875 3.171875 -2.421875 9.171875l0 1.09375q0 5.84375 2.40625 9.0q2.40625 3.15625 6.875 3.15625zm40.8125 0.75q-3.375 3.96875 -9.90625 3.96875q-5.40625 0 -8.234375 -3.140625q-2.828125 -3.140625 -2.859375 -9.296875l0 -22.0l5.78125 0l0 21.84375q0 7.6875 6.25 7.6875q6.625 0 8.8125 -4.9375l0 -24.59375l5.78125 0l0 33.8125l-5.5 0l-0.125 -3.34375zm20.6875 3.34375l-5.78125 0l0 -48.0l5.78125 0l0 48.0zm17.09375 -42.0l0 8.1875l6.3125 0l0 4.46875l-6.3125 0l0 20.96875q0 2.03125 0.84375 3.046875q0.84375 1.015625 2.875 1.015625q1.0 0 2.75 -0.375l0 4.6875q-2.28125 0.625 -4.4375 0.625q-3.875 0 -5.84375 -2.34375q-1.96875 -2.34375 -1.96875 -6.65625l0 -20.96875l-6.15625 0l0 -4.46875l6.15625 0l0 -8.1875l5.78125 0z" fill-rule="nonzero"/><path fill="#80c9e8" d="m700.8917 318.6275q0.0625 -3.71875 0.84375 -5.875q0.78125 -2.15625 3.1875 -4.78125l4.09375 -4.21875q2.625 -2.96875 2.625 -6.375q0 -3.28125 -1.71875 -5.140625q-1.71875 -1.859375 -5.0 -1.859375q-3.1875 0 -5.125 1.6875q-1.9375 1.6875 -1.9375 4.53125l-5.78125 0q0.0625 -5.0625 3.609375 -8.171875q3.546875 -3.109375 9.234375 -3.109375q5.90625 0 9.203125 3.171875q3.296875 3.171875 3.296875 8.703125q0 5.46875 -5.0625 10.78125l-3.40625 3.375q-2.28125 2.53125 -2.28125 7.28125l-5.78125 0zm-0.25 9.90625q0 -1.40625 0.859375 -2.359375q0.859375 -0.953125 2.546875 -0.953125q1.6875 0 2.5625 0.953125q0.875 0.953125 0.875 2.359375q0 1.40625 -0.875 2.328125q-0.875 0.921875 -2.5625 0.921875q-1.6875 0 -2.546875 -0.921875q-0.859375 -0.921875 -0.859375 -2.328125z" fill-rule="nonzero"/><path fill="#000000" fill-opacity="0.0" d="m-0.70866144 86.91338l962.1102 0" fill-rule="evenodd"/><path stroke="#e396a1" stroke-width="4.0" stroke-linejoin="round" stroke-linecap="butt" d="m-0.70866144 86.91338l962.1102 0" fill-rule="evenodd"/></g></svg>