<?xml version="1.0" encoding="UTF-8"?>
<svg width="194px" height="130px" viewBox="0 0 194 130" version="1.1" xmlns="http://www.w3.org/2000/svg" xmlns:xlink="http://www.w3.org/1999/xlink">
    <!-- Generator: Sketch 57.1 (83088) - https://sketch.com -->
    <title>eye-icon</title>
    <desc>Created with Sketch.</desc>
    <g id="Page-1" stroke="none" stroke-width="1" fill="none" fill-rule="evenodd">
        <g id="eye-icon">
            <g id="icon-color" transform="translate(0.437500, 0.625000)" fill="#BCA2D5">
                <path d="M192.616726,62.5063636 C177.136812,26.0543818 139.355013,1.4842271 96.5,0 C53.6449867,1.4842271 15.8631883,26.0543818 0.383273901,62.5063636 C-0.127757967,63.7946491 -0.127757967,65.2053509 0.383273901,66.4936364 C15.8631883,102.945618 53.6449867,127.515773 96.5,129 C139.355013,127.515773 177.136812,102.945618 192.616726,66.4936364 C193.127758,65.2053509 193.127758,63.7946491 192.616726,62.5063636 Z M96.5,122.55 C62.4033333,122.55 26.3766667,97.2015 13.317,64.5 C26.3766667,31.7985 62.4033333,6.45 96.5,6.45 C130.596667,6.45 166.623333,31.7985 179.683,64.5 C166.623333,97.2015 130.596667,122.55 96.5,122.55 Z M96.5,25.8 C75.1818087,25.8 57.9,43.1265802 57.9,64.5 C57.9,85.8734198 75.1818087,103.2 96.5,103.2 C117.818191,103.2 135.1,85.8734198 135.1,64.5 C135.1,43.1265802 117.818191,25.8 96.5,25.8 Z" id="path-1"></path>
            </g>
            <path d="M96.9375,39.325 L96.9375,39.325 C111.149628,39.325 122.670833,50.8462058 122.670833,65.0583333 L122.670833,65.125" id="Path" stroke="#FFFFFF" stroke-linejoin="round"></path>
        </g>
    </g>
</svg>