<?xml version="1.0" encoding="UTF-8"?>
<svg width="19px" height="31px" viewBox="0 0 19 31" version="1.1" xmlns="http://www.w3.org/2000/svg" xmlns:xlink="http://www.w3.org/1999/xlink">
    <!-- Generator: Sketch 53.2 (72643) - https://sketchapp.com -->
    <title>Artboard</title>
    <desc>Created with Sketch.</desc>
    <g id="Artboard" stroke="none" stroke-width="1" fill="none" fill-rule="evenodd">
        <g id="pictograms/creativity/idea" transform="translate(-7.000000, -1.000000)" fill="#000000">
            <path d="M20.3599,29.7197 L12.3599,29.7197 C12.1609,29.7197 11.9999,29.5587 11.9999,29.3597 C11.9999,29.1607 12.1609,28.9997 12.3599,28.9997 L20.3599,28.9997 C20.5589,28.9997 20.7199,29.1607 20.7199,29.3597 C20.7199,29.5587 20.5589,29.7197 20.3599,29.7197 Z M12.7197,25 L19.9997,25 L19.9997,23.906 C19.9997,22.274 19.9997,19.544 22.2417,17.211 C24.0207,15.361 24.9997,13.022 24.9997,10.624 C24.9997,5.631 21.2047,1.72 16.3597,1.72 C11.5147,1.72 7.7197,5.631 7.7197,10.624 C7.7197,13.022 8.6987,15.361 10.4777,17.211 C12.7197,19.544 12.7197,22.274 12.7197,23.906 L12.7197,25 Z M20.3597,25.72 L12.3597,25.72 C12.1607,25.72 11.9997,25.559 11.9997,25.36 L11.9997,23.906 C11.9997,22.285 11.9997,19.833 9.9587,17.71 C8.0507,15.726 6.9997,13.208 6.9997,10.624 C6.9997,5.227 11.1117,1 16.3597,1 C21.6087,1 25.7197,5.227 25.7197,10.624 C25.7197,13.208 24.6687,15.726 22.7617,17.71 C20.7197,19.833 20.7197,22.285 20.7197,23.906 L20.7197,25.36 C20.7197,25.559 20.5587,25.72 20.3597,25.72 Z M19.3599,31.7197 L13.3599,31.7197 C13.1609,31.7197 12.9999,31.5587 12.9999,31.3597 C12.9999,31.1607 13.1609,30.9997 13.3599,30.9997 L19.3599,30.9997 C19.5589,30.9997 19.7199,31.1607 19.7199,31.3597 C19.7199,31.5587 19.5589,31.7197 19.3599,31.7197 Z M20.3599,27.7197 L12.3599,27.7197 C12.1609,27.7197 11.9999,27.5587 11.9999,27.3597 C11.9999,27.1607 12.1609,26.9997 12.3599,26.9997 L20.3599,26.9997 C20.5589,26.9997 20.7199,27.1607 20.7199,27.3597 C20.7199,27.5587 20.5589,27.7197 20.3599,27.7197 Z" id="Fill-7"></path>
        </g>
    </g>
</svg>