<svg version="1.1" viewBox="0.0 0.0 960.0 540.0" fill="none" stroke="none" stroke-linecap="square" stroke-miterlimit="10" xmlns:xlink="http://www.w3.org/1999/xlink" xmlns="http://www.w3.org/2000/svg"><clipPath id="g7408bba05d_0_68.0"><path d="m0 0l960.0 0l0 540.0l-960.0 0l0 -540.0z" clip-rule="nonzero"/></clipPath><g clip-path="url(#g7408bba05d_0_68.0)"><path fill="#ffffff" d="m0 0l960.0 0l0 540.0l-960.0 0z" fill-rule="evenodd"/><path fill="#000000" fill-opacity="0.0" d="m260.12854 43.637794l655.5591 0" fill-rule="evenodd"/><path stroke="#000000" stroke-width="4.0" stroke-linejoin="round" stroke-linecap="butt" d="m260.12854 43.637794l655.5591 0" fill-rule="evenodd"/><path fill="#000000" fill-opacity="0.0" d="m260.12854 497.6378l655.5591 0" fill-rule="evenodd"/><path stroke="#000000" stroke-width="2.0" stroke-linejoin="round" stroke-linecap="butt" d="m260.12854 497.6378l655.5591 0" fill-rule="evenodd"/><path fill="#000000" fill-opacity="0.0" d="m44.640232 43.637794l19.244091 0" fill-rule="evenodd"/><path stroke="#000000" stroke-width="2.0" stroke-linejoin="round" stroke-linecap="butt" d="m44.640232 43.637794l19.244091 0" fill-rule="evenodd"/><path fill="#000000" fill-opacity="0.0" d="m251.99475 60.46719l663.68506 0l0 66.708664l-663.68506 0z" fill-rule="evenodd"/><path fill="#000000" d="m323.68225 161.62718l0 -45.124992l-17.5625 33.609367l-7.203125 0l-17.5625 -33.609367l0 45.124992l-13.25 0l0 -68.15624l14.203125 0l20.15625 38.781242l20.359375 -38.781242l14.109375 0l0 68.15624l-13.25 0zm48.7742 0.953125q-6.15625 0 -11.046875 -2.109375q-4.890625 -2.109375 -8.296875 -5.703125q-3.40625 -3.609375 -5.234375 -8.3125q-1.828125 -4.703125 -1.828125 -9.890625q0 -5.28125 1.828125 -9.984367q1.828125 -4.703125 5.234375 -8.296875q3.40625 -3.59375 8.296875 -5.703125q4.890625 -2.125 11.046875 -2.125q6.140625 0 10.984375 2.125q4.84375 2.109375 8.25 5.703125q3.421875 3.59375 5.234375 8.296875q1.828125 4.7031174 1.828125 9.984367q0 5.1875 -1.828125 9.890625q-1.8125 4.703125 -5.171875 8.3125q-3.359375 3.59375 -8.265625 5.703125q-4.890625 2.109375 -11.03125 2.109375zm-13.15625 -26.015625q0 3.359375 1.0 6.109375q1.015625 2.734375 2.78125 4.75q1.78125 2.015625 4.171875 3.125q2.40625 1.09375 5.203125 1.09375q2.78125 0 5.171875 -1.09375q2.40625 -1.109375 4.171875 -3.125q1.78125 -2.015625 2.78125 -4.796875q1.015625 -2.796875 1.015625 -6.15625q0 -3.265625 -1.015625 -6.046875q-1.0 -2.7812424 -2.78125 -4.7968674q-1.765625 -2.015625 -4.171875 -3.109375q-2.390625 -1.109375 -5.171875 -1.109375q-2.796875 0 -5.203125 1.15625q-2.390625 1.140625 -4.171875 3.15625q-1.765625 2.015625 -2.78125 4.8124924q-1.0 2.78125 -1.0 6.03125zm94.84787 25.0625l-12.859375 0l0 -28.21875q0 -6.0468674 -2.125 -8.828117q-2.109375 -2.796875 -5.84375 -2.796875q-1.921875 0 -3.9375 0.78125q-2.015625 0.765625 -3.796875 2.15625q-1.78125 1.390625 -3.21875 3.3124924q-1.4375 1.90625 -2.109375 4.21875l0 29.375l-12.859375 0l0 -50.296867l11.609375 0l0 9.3125q2.78125 -4.8125 8.0625 -7.5q5.28125 -2.6875 11.90625 -2.6875q4.703125 0 7.671875 1.734375q2.984375 1.71875 4.609375 4.515625q1.640625 2.78125 2.265625 6.328125q0.625 3.546875 0.625 7.2031174l0 31.390625zm34.562103 0.953125q-6.046875 0 -10.953125 -2.0625q-4.890625 -2.0625 -8.34375 -5.609375q-3.453125 -3.546875 -5.328125 -8.25q-1.875 -4.71875 -1.875 -9.890625q0 -5.375 1.828125 -10.124992q1.828125 -4.765625 5.28125 -8.359375q3.453125 -3.59375 8.390625 -5.703125q4.953125 -2.125 11.09375 -2.125q6.140625 0 10.984375 2.125q4.859375 2.109375 8.265625 5.65625q3.40625 3.546875 5.1718445 8.25q1.78125 4.7031174 1.78125 9.796867q0 1.25 -0.046875 2.40625q-0.046875 1.140625 -0.234375 1.90625l-38.890594 0q0.296875 2.984375 1.4375 5.296875q1.15625 2.296875 2.984375 3.9375q1.828125 1.625 4.125 2.484375q2.3125 0.859375 4.796875 0.859375q3.84375 0 7.25 -1.859375q3.40625 -1.875 4.65625 -4.953125l11.0468445 3.078125q-2.7812195 5.75 -8.8905945 9.453125q-6.09375 3.6875 -14.53125 3.6875zm13.046875 -30.328125q-0.46875 -5.6718674 -4.171875 -9.078117q-3.6875 -3.40625 -8.96875 -3.40625q-2.59375 0 -4.859375 0.921875q-2.25 0.90625 -3.984375 2.546875q-1.71875 1.625 -2.828125 3.9375q-1.109375 2.2968674 -1.296875 5.0781174l26.109375 0zm20.831818 39.171875q1.640625 0.46875 3.171875 0.703125q1.53125 0.25 2.59375 0.25q1.25 0 2.296875 -0.484375q1.0625 -0.46875 1.921875 -1.671875q0.875 -1.203125 1.734375 -3.3125q0.859375 -2.109375 1.828125 -5.28125l-19.875 -50.296867l13.25 0l13.625 39.156242l12.09375 -39.156242l12.09375 0l-21.109375 60.281242q-1.828125 5.28125 -6.25 8.640625q-4.40625 3.359375 -10.9375 3.359375q-1.53125 0 -3.125 -0.25q-1.578125 -0.234375 -3.3125 -0.8125l0 -11.125z" fill-rule="nonzero"/><path fill="#000000" fill-opacity="0.0" d="m253.02887 270.00003l663.68506 0l0 212.75592l-663.68506 0z" fill-rule="evenodd"/><path fill="#000000" d="m270.74762 295.1963l0 6.84375l-2.328125 0l0 -6.84375l-6.296875 -10.359375l2.046875 0q0.3125 0 0.484375 0.15625q0.1875 0.15625 0.3125 0.390625l3.9375 6.6875q0.234375 0.421875 0.390625 0.796875q0.171875 0.359375 0.3125 0.71875q0.125 -0.359375 0.28125 -0.734375q0.15625 -0.375 0.390625 -0.78125l3.9375 -6.6875q0.09375 -0.1875 0.28125 -0.359375q0.1875 -0.1875 0.484375 -0.1875l2.078125 0l-6.3125 10.359375zm11.129242 -5.5q1.328125 0 2.40625 0.453125q1.078125 0.4375 1.828125 1.25q0.75 0.8125 1.140625 1.96875q0.40625 1.15625 0.40625 2.59375q0 1.4375 -0.40625 2.59375q-0.390625 1.140625 -1.140625 1.96875q-0.75 0.8125 -1.828125 1.25q-1.078125 0.4375 -2.40625 0.4375q-1.328125 0 -2.40625 -0.4375q-1.078125 -0.4375 -1.828125 -1.25q-0.75 -0.828125 -1.171875 -1.96875q-0.40625 -1.15625 -0.40625 -2.59375q0 -1.4375 0.40625 -2.59375q0.421875 -1.15625 1.171875 -1.96875q0.75 -0.8125 1.828125 -1.25q1.078125 -0.453125 2.40625 -0.453125zm0 10.84375q1.796875 0 2.6875 -1.203125q0.890625 -1.203125 0.890625 -3.375q0 -2.171875 -0.890625 -3.375q-0.890625 -1.21875 -2.6875 -1.21875q-0.90625 0 -1.578125 0.3125q-0.671875 0.3125 -1.125 0.90625q-0.453125 0.578125 -0.671875 1.4375q-0.21875 0.859375 -0.21875 1.9375q0 1.09375 0.21875 1.953125q0.21875 0.84375 0.671875 1.421875q0.453125 0.578125 1.125 0.890625q0.671875 0.3125 1.578125 0.3125zm10.265961 -10.65625l0 7.75q0 1.375 0.640625 2.140625q0.640625 0.75 1.921875 0.75q0.9375 0 1.765625 -0.4375q0.828125 -0.453125 1.515625 -1.234375l0 -8.96875l2.140625 0l0 12.15625l-1.265625 0q-0.453125 0 -0.578125 -0.4375l-0.171875 -1.3125q-0.796875 0.875 -1.78125 1.40625q-0.984375 0.53125 -2.25 0.53125q-1.0 0 -1.765625 -0.328125q-0.75 -0.328125 -1.265625 -0.921875q-0.515625 -0.609375 -0.78125 -1.453125q-0.25 -0.859375 -0.25 -1.890625l0 -7.75l2.125 0zm16.132385 12.15625l0 -12.15625l1.28125 0q0.453125 0 0.5625 0.4375l0.15625 1.25q0.671875 -0.828125 1.5 -1.34375q0.84375 -0.53125 1.953125 -0.53125q1.234375 0 1.984375 0.6875q0.765625 0.671875 1.109375 1.84375q0.25 -0.65625 0.65625 -1.140625q0.421875 -0.484375 0.9375 -0.796875q0.515625 -0.3125 1.09375 -0.453125q0.59375 -0.140625 1.1875 -0.140625q0.953125 0 1.703125 0.3125q0.75 0.296875 1.265625 0.890625q0.53125 0.578125 0.8125 1.4375q0.28125 0.859375 0.28125 1.96875l0 7.734375l-2.140625 0l0 -7.734375q0 -1.4375 -0.625 -2.171875q-0.625 -0.734375 -1.8125 -0.734375q-0.53125 0 -1.0 0.1875q-0.46875 0.1875 -0.84375 0.546875q-0.359375 0.359375 -0.5625 0.90625q-0.203125 0.546875 -0.203125 1.265625l0 7.734375l-2.140625 0l0 -7.734375q0 -1.46875 -0.59375 -2.1875q-0.578125 -0.71875 -1.71875 -0.71875q-0.78125 0 -1.46875 0.421875q-0.671875 0.421875 -1.234375 1.15625l0 9.0625l-2.140625 0zm28.641632 0l-0.953125 0q-0.3125 0 -0.515625 -0.09375q-0.1875 -0.09375 -0.25 -0.40625l-0.234375 -1.125q-0.484375 0.421875 -0.9375 0.765625q-0.453125 0.34375 -0.953125 0.578125q-0.5 0.234375 -1.078125 0.34375q-0.5625 0.125 -1.265625 0.125q-0.703125 0 -1.328125 -0.1875q-0.609375 -0.203125 -1.078125 -0.59375q-0.453125 -0.40625 -0.71875 -1.0q-0.265625 -0.609375 -0.265625 -1.4375q0 -0.71875 0.390625 -1.390625q0.390625 -0.671875 1.265625 -1.1875q0.890625 -0.515625 2.3125 -0.84375q1.4375 -0.328125 3.5 -0.375l0 -0.953125q0 -1.40625 -0.609375 -2.125q-0.59375 -0.734375 -1.78125 -0.734375q-0.78125 0 -1.328125 0.203125q-0.53125 0.1875 -0.921875 0.4375q-0.390625 0.25 -0.671875 0.453125q-0.28125 0.1875 -0.546875 0.1875q-0.21875 0 -0.390625 -0.109375q-0.15625 -0.125 -0.25 -0.28125l-0.390625 -0.6875q1.015625 -0.96875 2.171875 -1.453125q1.171875 -0.484375 2.578125 -0.484375q1.03125 0 1.8125 0.34375q0.796875 0.328125 1.328125 0.9375q0.546875 0.59375 0.828125 1.453125q0.28125 0.84375 0.28125 1.859375l0 7.78125zm-5.546875 -1.3125q0.5625 0 1.03125 -0.109375q0.46875 -0.109375 0.875 -0.3125q0.421875 -0.21875 0.796875 -0.515625q0.375 -0.3125 0.734375 -0.6875l0 -2.53125q-1.46875 0.046875 -2.5 0.234375q-1.03125 0.1875 -1.6875 0.484375q-0.640625 0.296875 -0.9375 0.703125q-0.296875 0.40625 -0.296875 0.921875q0 0.46875 0.15625 0.828125q0.15625 0.34375 0.421875 0.5625q0.265625 0.21875 0.625 0.328125q0.359375 0.09375 0.78125 0.09375zm11.955963 4.90625q-0.109375 0.234375 -0.265625 0.375q-0.15625 0.140625 -0.5 0.140625l-1.578125 0l2.21875 -4.8125l-5.015625 -11.453125l1.84375 0q0.28125 0 0.4375 0.140625q0.15625 0.140625 0.21875 0.296875l3.25 7.65625q0.109375 0.265625 0.1875 0.53125q0.078125 0.265625 0.140625 0.546875q0.09375 -0.28125 0.171875 -0.546875q0.078125 -0.265625 0.1875 -0.53125l3.15625 -7.65625q0.078125 -0.1875 0.25 -0.3125q0.171875 -0.125 0.375 -0.125l1.703125 0l-6.78125 15.75zm17.045135 -3.40625q-1.4375 0 -2.21875 -0.796875q-0.765625 -0.8125 -0.765625 -2.3125l0 -7.453125l-1.46875 0q-0.1875 0 -0.328125 -0.109375q-0.125 -0.109375 -0.125 -0.359375l0 -0.84375l1.984375 -0.25l0.5 -3.765625q0.015625 -0.171875 0.140625 -0.28125q0.140625 -0.125 0.34375 -0.125l1.078125 0l0 4.1875l3.484375 0l0 1.546875l-3.484375 0l0 7.296875q0 0.78125 0.375 1.15625q0.375 0.359375 0.96875 0.359375q0.328125 0 0.578125 -0.078125q0.25 -0.09375 0.421875 -0.203125q0.1875 -0.109375 0.3125 -0.203125q0.125 -0.09375 0.21875 -0.09375q0.171875 0 0.296875 0.203125l0.625 1.03125q-0.546875 0.515625 -1.328125 0.8125q-0.78125 0.28125 -1.609375 0.28125zm5.264557 -0.1875l0 -17.671875l2.140625 0l0 7.140625q0.78125 -0.828125 1.71875 -1.3125q0.953125 -0.5 2.1875 -0.5q1.0 0 1.75 0.328125q0.765625 0.328125 1.28125 0.9375q0.515625 0.609375 0.78125 1.46875q0.265625 0.84375 0.265625 1.875l0 7.734375l-2.140625 0l0 -7.734375q0 -1.390625 -0.640625 -2.140625q-0.625 -0.765625 -1.921875 -0.765625q-0.9375 0 -1.765625 0.453125q-0.828125 0.453125 -1.515625 1.234375l0 8.953125l-2.140625 0zm15.719086 -12.15625l0 12.15625l-2.140625 0l0 -12.15625l2.140625 0zm0.484375 -3.8125q0 0.3125 -0.125 0.578125q-0.125 0.265625 -0.34375 0.484375q-0.203125 0.203125 -0.484375 0.328125q-0.265625 0.125 -0.578125 0.125q-0.3125 0 -0.59375 -0.125q-0.265625 -0.125 -0.484375 -0.328125q-0.203125 -0.21875 -0.328125 -0.484375q-0.109375 -0.265625 -0.109375 -0.578125q0 -0.3125 0.109375 -0.59375q0.125 -0.28125 0.328125 -0.484375q0.21875 -0.21875 0.484375 -0.34375q0.28125 -0.125 0.59375 -0.125q0.3125 0 0.578125 0.125q0.28125 0.125 0.484375 0.34375q0.21875 0.203125 0.34375 0.484375q0.125 0.28125 0.125 0.59375zm3.284668 15.96875l0 -12.15625l1.28125 0q0.453125 0 0.5625 0.4375l0.171875 1.328125q0.796875 -0.875 1.765625 -1.40625q0.984375 -0.546875 2.265625 -0.546875q1.0 0 1.75 0.328125q0.765625 0.328125 1.28125 0.9375q0.515625 0.609375 0.78125 1.46875q0.265625 0.84375 0.265625 1.875l0 7.734375l-2.140625 0l0 -7.734375q0 -1.390625 -0.640625 -2.140625q-0.625 -0.765625 -1.921875 -0.765625q-0.9375 0 -1.765625 0.453125q-0.828125 0.453125 -1.515625 1.234375l0 8.953125l-2.140625 0zm15.562866 -17.671875l0 10.40625l0.5625 0q0.234375 0 0.390625 -0.0625q0.15625 -0.078125 0.34375 -0.28125l3.84375 -4.109375q0.171875 -0.203125 0.34375 -0.3125q0.1875 -0.125 0.5 -0.125l1.9375 0l-4.46875 4.765625q-0.171875 0.203125 -0.34375 0.359375q-0.15625 0.15625 -0.359375 0.28125q0.21875 0.140625 0.390625 0.328125q0.171875 0.1875 0.328125 0.421875l4.75 6.0l-1.921875 0q-0.25 0 -0.4375 -0.09375q-0.1875 -0.109375 -0.359375 -0.328125l-4.0 -4.984375q-0.171875 -0.25 -0.359375 -0.328125q-0.171875 -0.078125 -0.53125 -0.078125l-0.609375 0l0 5.8125l-2.140625 0l0 -17.671875l2.140625 0zm14.98938 17.671875l0 -12.15625l1.28125 0q0.453125 0 0.5625 0.4375l0.15625 1.25q0.671875 -0.828125 1.5 -1.34375q0.84375 -0.53125 1.953125 -0.53125q1.234375 0 1.984375 0.6875q0.765625 0.671875 1.109375 1.84375q0.25 -0.65625 0.65625 -1.140625q0.421875 -0.484375 0.9375 -0.796875q0.515625 -0.3125 1.09375 -0.453125q0.59375 -0.140625 1.1875 -0.140625q0.953125 0 1.703125 0.3125q0.75 0.296875 1.265625 0.890625q0.53125 0.578125 0.8125 1.4375q0.28125 0.859375 0.28125 1.96875l0 7.734375l-2.140625 0l0 -7.734375q0 -1.4375 -0.625 -2.171875q-0.625 -0.734375 -1.8125 -0.734375q-0.53125 0 -1.0 0.1875q-0.46875 0.1875 -0.84375 0.546875q-0.359375 0.359375 -0.5625 0.90625q-0.203125 0.546875 -0.203125 1.265625l0 7.734375l-2.140625 0l0 -7.734375q0 -1.46875 -0.59375 -2.1875q-0.578125 -0.71875 -1.71875 -0.71875q-0.78125 0 -1.46875 0.421875q-0.671875 0.421875 -1.234375 1.15625l0 9.0625l-2.140625 0zm24.626007 -12.34375q1.328125 0 2.40625 0.453125q1.078125 0.4375 1.828125 1.25q0.75 0.8125 1.140625 1.96875q0.40625 1.15625 0.40625 2.59375q0 1.4375 -0.40625 2.59375q-0.390625 1.140625 -1.140625 1.96875q-0.75 0.8125 -1.828125 1.25q-1.078125 0.4375 -2.40625 0.4375q-1.328125 0 -2.40625 -0.4375q-1.078125 -0.4375 -1.828125 -1.25q-0.75 -0.828125 -1.171875 -1.96875q-0.40625 -1.15625 -0.40625 -2.59375q0 -1.4375 0.40625 -2.59375q0.421875 -1.15625 1.171875 -1.96875q0.75 -0.8125 1.828125 -1.25q1.078125 -0.453125 2.40625 -0.453125zm0 10.84375q1.796875 0 2.6875 -1.203125q0.890625 -1.203125 0.890625 -3.375q0 -2.171875 -0.890625 -3.375q-0.890625 -1.21875 -2.6875 -1.21875q-0.90625 0 -1.578125 0.3125q-0.671875 0.3125 -1.125 0.90625q-0.453125 0.578125 -0.671875 1.4375q-0.21875 0.859375 -0.21875 1.9375q0 1.09375 0.21875 1.953125q0.21875 0.84375 0.671875 1.421875q0.453125 0.578125 1.125 0.890625q0.671875 0.3125 1.578125 0.3125zm8.422211 1.5l0 -12.15625l1.28125 0q0.453125 0 0.5625 0.4375l0.171875 1.328125q0.796875 -0.875 1.765625 -1.40625q0.984375 -0.546875 2.265625 -0.546875q1.0 0 1.75 0.328125q0.765625 0.328125 1.28125 0.9375q0.515625 0.609375 0.78125 1.46875q0.265625 0.84375 0.265625 1.875l0 7.734375l-2.140625 0l0 -7.734375q0 -1.390625 -0.640625 -2.140625q-0.625 -0.765625 -1.921875 -0.765625q-0.9375 0 -1.765625 0.453125q-0.828125 0.453125 -1.515625 1.234375l0 8.953125l-2.140625 0zm18.156616 -12.34375q1.09375 0 2.015625 0.375q0.921875 0.359375 1.59375 1.046875q0.671875 0.6875 1.046875 1.703125q0.390625 1.015625 0.390625 2.3125q0 0.5 -0.109375 0.671875q-0.109375 0.15625 -0.40625 0.15625l-8.09375 0q0.03125 1.15625 0.3125 2.015625q0.28125 0.84375 0.78125 1.421875q0.515625 0.5625 1.203125 0.84375q0.703125 0.28125 1.5625 0.28125q0.8125 0 1.390625 -0.1875q0.578125 -0.1875 1.0 -0.390625q0.421875 -0.21875 0.703125 -0.40625q0.28125 -0.1875 0.484375 -0.1875q0.265625 0 0.40625 0.203125l0.609375 0.78125q-0.40625 0.484375 -0.953125 0.84375q-0.546875 0.34375 -1.1875 0.578125q-0.625 0.21875 -1.296875 0.328125q-0.671875 0.125 -1.328125 0.125q-1.265625 0 -2.328125 -0.421875q-1.0625 -0.4375 -1.84375 -1.25q-0.765625 -0.828125 -1.203125 -2.03125q-0.421875 -1.21875 -0.421875 -2.796875q0 -1.265625 0.390625 -2.359375q0.390625 -1.109375 1.109375 -1.921875q0.734375 -0.8125 1.796875 -1.265625q1.0625 -0.46875 2.375 -0.46875zm0.046875 1.5625q-1.546875 0 -2.4375 0.90625q-0.890625 0.890625 -1.09375 2.46875l6.609375 0q0 -0.734375 -0.203125 -1.359375q-0.203125 -0.625 -0.609375 -1.0625q-0.390625 -0.453125 -0.96875 -0.703125q-0.5625 -0.25 -1.296875 -0.25zm10.967224 14.375q-0.109375 0.234375 -0.265625 0.375q-0.15625 0.140625 -0.5 0.140625l-1.578125 0l2.21875 -4.8125l-5.015625 -11.453125l1.84375 0q0.28125 0 0.4375 0.140625q0.15625 0.140625 0.21875 0.296875l3.25 7.65625q0.109375 0.265625 0.1875 0.53125q0.078125 0.265625 0.140625 0.546875q0.09375 -0.28125 0.171875 -0.546875q0.078125 -0.265625 0.1875 -0.53125l3.15625 -7.65625q0.078125 -0.1875 0.25 -0.3125q0.171875 -0.125 0.375 -0.125l1.703125 0l-6.78125 15.75zm15.732605 -15.75l0 12.15625l-2.140625 0l0 -12.15625l2.140625 0zm0.484375 -3.8125q0 0.3125 -0.125 0.578125q-0.125 0.265625 -0.34375 0.484375q-0.203125 0.203125 -0.484375 0.328125q-0.265625 0.125 -0.578125 0.125q-0.3125 0 -0.59375 -0.125q-0.265625 -0.125 -0.484375 -0.328125q-0.203125 -0.21875 -0.328125 -0.484375q-0.109375 -0.265625 -0.109375 -0.578125q0 -0.3125 0.109375 -0.59375q0.125 -0.28125 0.328125 -0.484375q0.21875 -0.21875 0.484375 -0.34375q0.28125 -0.125 0.59375 -0.125q0.3125 0 0.578125 0.125q0.28125 0.125 0.484375 0.34375q0.21875 0.203125 0.34375 0.484375q0.125 0.28125 0.125 0.59375zm10.253418 5.8125q-0.15625 0.265625 -0.453125 0.265625q-0.171875 0 -0.40625 -0.125q-0.234375 -0.140625 -0.5625 -0.296875q-0.328125 -0.15625 -0.78125 -0.296875q-0.453125 -0.140625 -1.078125 -0.140625q-0.546875 0 -0.984375 0.140625q-0.421875 0.140625 -0.734375 0.375q-0.296875 0.234375 -0.46875 0.5625q-0.15625 0.3125 -0.15625 0.6875q0 0.46875 0.265625 0.78125q0.28125 0.3125 0.71875 0.546875q0.453125 0.21875 1.015625 0.390625q0.5625 0.171875 1.15625 0.375q0.59375 0.1875 1.15625 0.4375q0.5625 0.234375 1.0 0.59375q0.453125 0.359375 0.71875 0.890625q0.265625 0.515625 0.265625 1.25q0 0.84375 -0.296875 1.5625q-0.296875 0.703125 -0.890625 1.234375q-0.578125 0.515625 -1.4375 0.8125q-0.84375 0.296875 -1.96875 0.296875q-1.265625 0 -2.296875 -0.40625q-1.03125 -0.421875 -1.75 -1.0625l0.5 -0.8125q0.09375 -0.15625 0.21875 -0.234375q0.140625 -0.09375 0.359375 -0.09375q0.21875 0 0.453125 0.171875q0.234375 0.15625 0.578125 0.359375q0.34375 0.203125 0.828125 0.375q0.484375 0.171875 1.21875 0.171875q0.625 0 1.09375 -0.15625q0.46875 -0.171875 0.78125 -0.4375q0.3125 -0.28125 0.453125 -0.640625q0.15625 -0.359375 0.15625 -0.765625q0 -0.515625 -0.265625 -0.84375q-0.265625 -0.328125 -0.71875 -0.5625q-0.4375 -0.234375 -1.015625 -0.40625q-0.5625 -0.171875 -1.15625 -0.359375q-0.59375 -0.203125 -1.171875 -0.4375q-0.5625 -0.25 -1.015625 -0.625q-0.4375 -0.375 -0.71875 -0.921875q-0.265625 -0.546875 -0.265625 -1.3125q0 -0.703125 0.28125 -1.34375q0.296875 -0.640625 0.84375 -1.125q0.5625 -0.484375 1.359375 -0.765625q0.8125 -0.296875 1.84375 -0.296875q1.203125 0 2.15625 0.375q0.953125 0.375 1.640625 1.03125l-0.46875 0.78125zm11.766876 10.34375q-1.4375 0 -2.21875 -0.796875q-0.765625 -0.8125 -0.765625 -2.3125l0 -7.453125l-1.46875 0q-0.1875 0 -0.328125 -0.109375q-0.125 -0.109375 -0.125 -0.359375l0 -0.84375l1.984375 -0.25l0.5 -3.765625q0.015625 -0.171875 0.140625 -0.28125q0.140625 -0.125 0.34375 -0.125l1.078125 0l0 4.1875l3.484375 0l0 1.546875l-3.484375 0l0 7.296875q0 0.78125 0.375 1.15625q0.375 0.359375 0.96875 0.359375q0.328125 0 0.578125 -0.078125q0.25 -0.09375 0.421875 -0.203125q0.1875 -0.109375 0.3125 -0.203125q0.125 -0.09375 0.21875 -0.09375q0.171875 0 0.296875 0.203125l0.625 1.03125q-0.546875 0.515625 -1.328125 0.8125q-0.78125 0.28125 -1.609375 0.28125zm5.2645264 -0.1875l0 -17.671875l2.140625 0l0 7.140625q0.78125 -0.828125 1.71875 -1.3125q0.953125 -0.5 2.1875 -0.5q1.0 0 1.75 0.328125q0.765625 0.328125 1.28125 0.9375q0.515625 0.609375 0.78125 1.46875q0.265625 0.84375 0.265625 1.875l0 7.734375l-2.140625 0l0 -7.734375q0 -1.390625 -0.640625 -2.140625q-0.625 -0.765625 -1.921875 -0.765625q-0.9375 0 -1.765625 0.453125q-0.828125 0.453125 -1.515625 1.234375l0 8.953125l-2.140625 0zm18.156616 -12.34375q1.09375 0 2.015625 0.375q0.921875 0.359375 1.59375 1.046875q0.671875 0.6875 1.046875 1.703125q0.390625 1.015625 0.390625 2.3125q0 0.5 -0.109375 0.671875q-0.109375 0.15625 -0.40625 0.15625l-8.09375 0q0.03125 1.15625 0.3125 2.015625q0.28125 0.84375 0.78125 1.421875q0.515625 0.5625 1.203125 0.84375q0.703125 0.28125 1.5625 0.28125q0.8125 0 1.390625 -0.1875q0.578125 -0.1875 1.0 -0.390625q0.421875 -0.21875 0.703125 -0.40625q0.28125 -0.1875 0.484375 -0.1875q0.265625 0 0.40625 0.203125l0.609375 0.78125q-0.40625 0.484375 -0.953125 0.84375q-0.546875 0.34375 -1.1875 0.578125q-0.625 0.21875 -1.296875 0.328125q-0.671875 0.125 -1.328125 0.125q-1.265625 0 -2.328125 -0.421875q-1.0625 -0.4375 -1.84375 -1.25q-0.765625 -0.828125 -1.203125 -2.03125q-0.421875 -1.21875 -0.421875 -2.796875q0 -1.265625 0.390625 -2.359375q0.390625 -1.109375 1.109375 -1.921875q0.734375 -0.8125 1.796875 -1.265625q1.0625 -0.46875 2.375 -0.46875zm0.046875 1.5625q-1.546875 0 -2.4375 0.90625q-0.890625 0.890625 -1.09375 2.46875l6.609375 0q0 -0.734375 -0.203125 -1.359375q-0.203125 -0.625 -0.609375 -1.0625q-0.390625 -0.453125 -0.96875 -0.703125q-0.5625 -0.25 -1.296875 -0.25zm12.348755 10.78125l0 -12.15625l1.28125 0q0.453125 0 0.5625 0.4375l0.15625 1.25q0.671875 -0.828125 1.5 -1.34375q0.84375 -0.53125 1.953125 -0.53125q1.234375 0 1.984375 0.6875q0.765625 0.671875 1.109375 1.84375q0.25 -0.65625 0.65625 -1.140625q0.421875 -0.484375 0.9375 -0.796875q0.515625 -0.3125 1.09375 -0.453125q0.59375 -0.140625 1.1875 -0.140625q0.953125 0 1.703125 0.3125q0.75 0.296875 1.265625 0.890625q0.53125 0.578125 0.8125 1.4375q0.28125 0.859375 0.28125 1.96875l0 7.734375l-2.140625 0l0 -7.734375q0 -1.4375 -0.625 -2.171875q-0.625 -0.734375 -1.8125 -0.734375q-0.53125 0 -1.0 0.1875q-0.46875 0.1875 -0.84375 0.546875q-0.359375 0.359375 -0.5625 0.90625q-0.203125 0.546875 -0.203125 1.265625l0 7.734375l-2.140625 0l0 -7.734375q0 -1.46875 -0.59375 -2.1875q-0.578125 -0.71875 -1.71875 -0.71875q-0.78125 0 -1.46875 0.421875q-0.671875 0.421875 -1.234375 1.15625l0 9.0625l-2.140625 0zm24.626038 -12.34375q1.328125 0 2.40625 0.453125q1.078125 0.4375 1.828125 1.25q0.75 0.8125 1.140625 1.96875q0.40625 1.15625 0.40625 2.59375q0 1.4375 -0.40625 2.59375q-0.390625 1.140625 -1.140625 1.96875q-0.75 0.8125 -1.828125 1.25q-1.078125 0.4375 -2.40625 0.4375q-1.328125 0 -2.40625 -0.4375q-1.078125 -0.4375 -1.828125 -1.25q-0.75 -0.828125 -1.171875 -1.96875q-0.40625 -1.15625 -0.40625 -2.59375q0 -1.4375 0.40625 -2.59375q0.421875 -1.15625 1.171875 -1.96875q0.75 -0.8125 1.828125 -1.25q1.078125 -0.453125 2.40625 -0.453125zm0 10.84375q1.796875 0 2.6875 -1.203125q0.890625 -1.203125 0.890625 -3.375q0 -2.171875 -0.890625 -3.375q-0.890625 -1.21875 -2.6875 -1.21875q-0.90625 0 -1.578125 0.3125q-0.671875 0.3125 -1.125 0.90625q-0.453125 0.578125 -0.671875 1.4375q-0.21875 0.859375 -0.21875 1.9375q0 1.09375 0.21875 1.953125q0.21875 0.84375 0.671875 1.421875q0.453125 0.578125 1.125 0.890625q0.671875 0.3125 1.578125 0.3125zm15.39093 -8.65625q-0.15625 0.265625 -0.453125 0.265625q-0.171875 0 -0.40625 -0.125q-0.234375 -0.140625 -0.5625 -0.296875q-0.328125 -0.15625 -0.78125 -0.296875q-0.453125 -0.140625 -1.078125 -0.140625q-0.546875 0 -0.984375 0.140625q-0.421875 0.140625 -0.734375 0.375q-0.296875 0.234375 -0.46875 0.5625q-0.15625 0.3125 -0.15625 0.6875q0 0.46875 0.265625 0.78125q0.28125 0.3125 0.71875 0.546875q0.453125 0.21875 1.015625 0.390625q0.5625 0.171875 1.15625 0.375q0.59375 0.1875 1.15625 0.4375q0.5625 0.234375 1.0 0.59375q0.453125 0.359375 0.71875 0.890625q0.265625 0.515625 0.265625 1.25q0 0.84375 -0.296875 1.5625q-0.296875 0.703125 -0.890625 1.234375q-0.578125 0.515625 -1.4375 0.8125q-0.84375 0.296875 -1.96875 0.296875q-1.265625 0 -2.296875 -0.40625q-1.03125 -0.421875 -1.75 -1.0625l0.5 -0.8125q0.09375 -0.15625 0.21875 -0.234375q0.140625 -0.09375 0.359375 -0.09375q0.21875 0 0.453125 0.171875q0.234375 0.15625 0.578125 0.359375q0.34375 0.203125 0.828125 0.375q0.484375 0.171875 1.21875 0.171875q0.625 0 1.09375 -0.15625q0.46875 -0.171875 0.78125 -0.4375q0.3125 -0.28125 0.453125 -0.640625q0.15625 -0.359375 0.15625 -0.765625q0 -0.515625 -0.265625 -0.84375q-0.265625 -0.328125 -0.71875 -0.5625q-0.4375 -0.234375 -1.015625 -0.40625q-0.5625 -0.171875 -1.15625 -0.359375q-0.59375 -0.203125 -1.171875 -0.4375q-0.5625 -0.25 -1.015625 -0.625q-0.4375 -0.375 -0.71875 -0.921875q-0.265625 -0.546875 -0.265625 -1.3125q0 -0.703125 0.28125 -1.34375q0.296875 -0.640625 0.84375 -1.125q0.5625 -0.484375 1.359375 -0.765625q0.8125 -0.296875 1.84375 -0.296875q1.203125 0 2.15625 0.375q0.953125 0.375 1.640625 1.03125l-0.46875 0.78125zm7.1348267 10.34375q-1.4375 0 -2.21875 -0.796875q-0.765625 -0.8125 -0.765625 -2.3125l0 -7.453125l-1.46875 0q-0.1875 0 -0.328125 -0.109375q-0.125 -0.109375 -0.125 -0.359375l0 -0.84375l1.984375 -0.25l0.5 -3.765625q0.015625 -0.171875 0.140625 -0.28125q0.140625 -0.125 0.34375 -0.125l1.078125 0l0 4.1875l3.484375 0l0 1.546875l-3.484375 0l0 7.296875q0 0.78125 0.375 1.15625q0.375 0.359375 0.96875 0.359375q0.328125 0 0.578125 -0.078125q0.25 -0.09375 0.421875 -0.203125q0.1875 -0.109375 0.3125 -0.203125q0.125 -0.09375 0.21875 -0.09375q0.171875 0 0.296875 0.203125l0.625 1.03125q-0.546875 0.515625 -1.328125 0.8125q-0.78125 0.28125 -1.609375 0.28125zm12.271606 -12.34375l0 12.15625l-2.140625 0l0 -12.15625l2.140625 0zm0.484375 -3.8125q0 0.3125 -0.125 0.578125q-0.125 0.265625 -0.34375 0.484375q-0.203125 0.203125 -0.484375 0.328125q-0.265625 0.125 -0.578125 0.125q-0.3125 0 -0.59375 -0.125q-0.265625 -0.125 -0.484375 -0.328125q-0.203125 -0.21875 -0.328125 -0.484375q-0.109375 -0.265625 -0.109375 -0.578125q0 -0.3125 0.109375 -0.59375q0.125 -0.28125 0.328125 -0.484375q0.21875 -0.21875 0.484375 -0.34375q0.28125 -0.125 0.59375 -0.125q0.3125 0 0.578125 0.125q0.28125 0.125 0.484375 0.34375q0.21875 0.203125 0.34375 0.484375q0.125 0.28125 0.125 0.59375zm3.284668 15.96875l0 -12.15625l1.28125 0q0.453125 0 0.5625 0.4375l0.15625 1.25q0.671875 -0.828125 1.5 -1.34375q0.84375 -0.53125 1.953125 -0.53125q1.234375 0 1.984375 0.6875q0.765625 0.671875 1.109375 1.84375q0.25 -0.65625 0.65625 -1.140625q0.421875 -0.484375 0.9375 -0.796875q0.515625 -0.3125 1.09375 -0.453125q0.59375 -0.140625 1.1875 -0.140625q0.953125 0 1.703125 0.3125q0.75 0.296875 1.265625 0.890625q0.53125 0.578125 0.8125 1.4375q0.28125 0.859375 0.28125 1.96875l0 7.734375l-2.140625 0l0 -7.734375q0 -1.4375 -0.625 -2.171875q-0.625 -0.734375 -1.8125 -0.734375q-0.53125 0 -1.0 0.1875q-0.46875 0.1875 -0.84375 0.546875q-0.359375 0.359375 -0.5625 0.90625q-0.203125 0.546875 -0.203125 1.265625l0 7.734375l-2.140625 0l0 -7.734375q0 -1.46875 -0.59375 -2.1875q-0.578125 -0.71875 -1.71875 -0.71875q-0.78125 0 -1.46875 0.421875q-0.671875 0.421875 -1.234375 1.15625l0 9.0625l-2.140625 0zm19.704163 4.109375l0 -16.265625l1.28125 0q0.453125 0 0.5625 0.4375l0.1875 1.453125q0.78125 -0.953125 1.78125 -1.53125q1.0 -0.578125 2.3125 -0.578125q1.046875 0 1.890625 0.40625q0.859375 0.40625 1.453125 1.1875q0.59375 0.78125 0.921875 1.953125q0.328125 1.15625 0.328125 2.671875q0 1.34375 -0.359375 2.5q-0.359375 1.15625 -1.03125 2.015625q-0.671875 0.84375 -1.65625 1.328125q-0.96875 0.484375 -2.203125 0.484375q-1.125 0 -1.921875 -0.375q-0.796875 -0.375 -1.40625 -1.0625l0 5.375l-2.140625 0zm5.40625 -14.75q-1.03125 0 -1.828125 0.484375q-0.78125 0.46875 -1.4375 1.34375l0 5.890625q0.578125 0.78125 1.28125 1.109375q0.703125 0.328125 1.578125 0.328125q1.6875 0 2.59375 -1.203125q0.921875 -1.21875 0.921875 -3.46875q0 -1.1875 -0.21875 -2.03125q-0.203125 -0.859375 -0.609375 -1.40625q-0.390625 -0.546875 -0.96875 -0.796875q-0.578125 -0.25 -1.3125 -0.25zm12.763672 -1.703125q1.328125 0 2.40625 0.453125q1.078125 0.4375 1.828125 1.25q0.75 0.8125 1.140625 1.96875q0.40625 1.15625 0.40625 2.59375q0 1.4375 -0.40625 2.59375q-0.390625 1.140625 -1.140625 1.96875q-0.75 0.8125 -1.828125 1.25q-1.078125 0.4375 -2.40625 0.4375q-1.328125 0 -2.40625 -0.4375q-1.078125 -0.4375 -1.828125 -1.25q-0.75 -0.828125 -1.171875 -1.96875q-0.40625 -1.15625 -0.40625 -2.59375q0 -1.4375 0.40625 -2.59375q0.421875 -1.15625 1.171875 -1.96875q0.75 -0.8125 1.828125 -1.25q1.078125 -0.453125 2.40625 -0.453125zm0 10.84375q1.796875 0 2.6875 -1.203125q0.890625 -1.203125 0.890625 -3.375q0 -2.171875 -0.890625 -3.375q-0.890625 -1.21875 -2.6875 -1.21875q-0.90625 0 -1.578125 0.3125q-0.671875 0.3125 -1.125 0.90625q-0.453125 0.578125 -0.671875 1.4375q-0.21875 0.859375 -0.21875 1.9375q0 1.09375 0.21875 1.953125q0.21875 0.84375 0.671875 1.421875q0.453125 0.578125 1.125 0.890625q0.671875 0.3125 1.578125 0.3125zm8.422241 1.5l0 -12.15625l1.21875 0q0.359375 0 0.484375 0.140625q0.140625 0.125 0.1875 0.453125l0.140625 1.890625q0.625 -1.265625 1.53125 -1.984375q0.921875 -0.71875 2.15625 -0.71875q0.515625 0 0.921875 0.125q0.40625 0.109375 0.75 0.3125l-0.265625 1.59375q-0.09375 0.296875 -0.375 0.296875q-0.171875 0 -0.53125 -0.109375q-0.34375 -0.109375 -0.953125 -0.109375q-1.125 0 -1.875 0.65625q-0.75 0.640625 -1.25 1.875l0 7.734375l-2.140625 0zm13.359558 0.1875q-1.4375 0 -2.21875 -0.796875q-0.765625 -0.8125 -0.765625 -2.3125l0 -7.453125l-1.46875 0q-0.1875 0 -0.328125 -0.109375q-0.125 -0.109375 -0.125 -0.359375l0 -0.84375l1.984375 -0.25l0.5 -3.765625q0.015625 -0.171875 0.140625 -0.28125q0.140625 -0.125 0.34375 -0.125l1.078125 0l0 4.1875l3.484375 0l0 1.546875l-3.484375 0l0 7.296875q0 0.78125 0.375 1.15625q0.375 0.359375 0.96875 0.359375q0.328125 0 0.578125 -0.078125q0.25 -0.09375 0.421875 -0.203125q0.1875 -0.109375 0.3125 -0.203125q0.125 -0.09375 0.21875 -0.09375q0.171875 0 0.296875 0.203125l0.625 1.03125q-0.546875 0.515625 -1.328125 0.8125q-0.78125 0.28125 -1.609375 0.28125zm14.202087 -0.1875l-0.953125 0q-0.3125 0 -0.515625 -0.09375q-0.1875 -0.09375 -0.25 -0.40625l-0.234375 -1.125q-0.484375 0.421875 -0.9375 0.765625q-0.453125 0.34375 -0.953125 0.578125q-0.5 0.234375 -1.078125 0.34375q-0.5625 0.125 -1.265625 0.125q-0.703125 0 -1.328125 -0.1875q-0.609375 -0.203125 -1.078125 -0.59375q-0.453125 -0.40625 -0.71875 -1.0q-0.265625 -0.609375 -0.265625 -1.4375q0 -0.71875 0.390625 -1.390625q0.390625 -0.671875 1.265625 -1.1875q0.890625 -0.515625 2.3125 -0.84375q1.4375 -0.328125 3.5 -0.375l0 -0.953125q0 -1.40625 -0.609375 -2.125q-0.59375 -0.734375 -1.78125 -0.734375q-0.78125 0 -1.328125 0.203125q-0.53125 0.1875 -0.921875 0.4375q-0.390625 0.25 -0.671875 0.453125q-0.28125 0.1875 -0.546875 0.1875q-0.21875 0 -0.390625 -0.109375q-0.15625 -0.125 -0.25 -0.28125l-0.390625 -0.6875q1.015625 -0.96875 2.171875 -1.453125q1.171875 -0.484375 2.578125 -0.484375q1.03125 0 1.8125 0.34375q0.796875 0.328125 1.328125 0.9375q0.546875 0.59375 0.828125 1.453125q0.28125 0.84375 0.28125 1.859375l0 7.78125zm-5.546875 -1.3125q0.5625 0 1.03125 -0.109375q0.46875 -0.109375 0.875 -0.3125q0.421875 -0.21875 0.796875 -0.515625q0.375 -0.3125 0.734375 -0.6875l0 -2.53125q-1.46875 0.046875 -2.5 0.234375q-1.03125 0.1875 -1.6875 0.484375q-0.640625 0.296875 -0.9375 0.703125q-0.296875 0.40625 -0.296875 0.921875q0 0.46875 0.15625 0.828125q0.15625 0.34375 0.421875 0.5625q0.265625 0.21875 0.625 0.328125q0.359375 0.09375 0.78125 0.09375zm8.777466 1.3125l0 -12.15625l1.28125 0q0.453125 0 0.5625 0.4375l0.171875 1.328125q0.796875 -0.875 1.765625 -1.40625q0.984375 -0.546875 2.265625 -0.546875q1.0 0 1.75 0.328125q0.765625 0.328125 1.28125 0.9375q0.515625 0.609375 0.78125 1.46875q0.265625 0.84375 0.265625 1.875l0 7.734375l-2.140625 0l0 -7.734375q0 -1.390625 -0.640625 -2.140625q-0.625 -0.765625 -1.921875 -0.765625q-0.9375 0 -1.765625 0.453125q-0.828125 0.453125 -1.515625 1.234375l0 8.953125l-2.140625 0zm17.031555 0.1875q-1.4375 0 -2.21875 -0.796875q-0.765625 -0.8125 -0.765625 -2.3125l0 -7.453125l-1.46875 0q-0.1875 0 -0.328125 -0.109375q-0.125 -0.109375 -0.125 -0.359375l0 -0.84375l1.984375 -0.25l0.5 -3.765625q0.015625 -0.171875 0.140625 -0.28125q0.140625 -0.125 0.34375 -0.125l1.078125 0l0 4.1875l3.484375 0l0 1.546875l-3.484375 0l0 7.296875q0 0.78125 0.375 1.15625q0.375 0.359375 0.96875 0.359375q0.328125 0 0.578125 -0.078125q0.25 -0.09375 0.421875 -0.203125q0.1875 -0.109375 0.3125 -0.203125q0.125 -0.09375 0.21875 -0.09375q0.171875 0 0.296875 0.203125l0.625 1.03125q-0.546875 0.515625 -1.328125 0.8125q-0.78125 0.28125 -1.609375 0.28125zm18.193481 -10.1875q-0.09375 0.140625 -0.203125 0.21875q-0.09375 0.0625 -0.265625 0.0625q-0.1875 0 -0.40625 -0.140625q-0.203125 -0.15625 -0.53125 -0.328125q-0.3125 -0.1875 -0.78125 -0.34375q-0.453125 -0.15625 -1.125 -0.15625q-0.890625 0 -1.578125 0.328125q-0.6875 0.3125 -1.15625 0.921875q-0.453125 0.59375 -0.6875 1.453125q-0.234375 0.84375 -0.234375 1.90625q0 1.09375 0.25 1.953125q0.265625 0.859375 0.71875 1.453125q0.453125 0.578125 1.109375 0.890625q0.65625 0.296875 1.46875 0.296875q0.78125 0 1.28125 -0.1875q0.5 -0.1875 0.828125 -0.40625q0.34375 -0.234375 0.5625 -0.421875q0.21875 -0.1875 0.4375 -0.1875q0.28125 0 0.40625 0.203125l0.59375 0.78125q-0.78125 0.96875 -1.96875 1.421875q-1.1875 0.453125 -2.515625 0.453125q-1.140625 0 -2.125 -0.421875q-0.96875 -0.421875 -1.6875 -1.21875q-0.71875 -0.796875 -1.140625 -1.953125q-0.40625 -1.171875 -0.40625 -2.65625q0 -1.359375 0.375 -2.515625q0.375 -1.15625 1.09375 -1.984375q0.734375 -0.828125 1.796875 -1.296875q1.078125 -0.46875 2.453125 -0.46875q1.28125 0 2.265625 0.421875q0.984375 0.40625 1.734375 1.15625l-0.5625 0.765625zm7.833069 -2.34375q1.328125 0 2.40625 0.453125q1.078125 0.4375 1.828125 1.25q0.75 0.8125 1.140625 1.96875q0.40625 1.15625 0.40625 2.59375q0 1.4375 -0.40625 2.59375q-0.390625 1.140625 -1.140625 1.96875q-0.75 0.8125 -1.828125 1.25q-1.078125 0.4375 -2.40625 0.4375q-1.328125 0 -2.40625 -0.4375q-1.078125 -0.4375 -1.828125 -1.25q-0.75 -0.828125 -1.171875 -1.96875q-0.40625 -1.15625 -0.40625 -2.59375q0 -1.4375 0.40625 -2.59375q0.421875 -1.15625 1.171875 -1.96875q0.75 -0.8125 1.828125 -1.25q1.078125 -0.453125 2.40625 -0.453125zm0 10.84375q1.796875 0 2.6875 -1.203125q0.890625 -1.203125 0.890625 -3.375q0 -2.171875 -0.890625 -3.375q-0.890625 -1.21875 -2.6875 -1.21875q-0.90625 0 -1.578125 0.3125q-0.671875 0.3125 -1.125 0.90625q-0.453125 0.578125 -0.671875 1.4375q-0.21875 0.859375 -0.21875 1.9375q0 1.09375 0.21875 1.953125q0.21875 0.84375 0.671875 1.421875q0.453125 0.578125 1.125 0.890625q0.671875 0.3125 1.578125 0.3125zm8.422241 1.5l0 -12.15625l1.28125 0q0.453125 0 0.5625 0.4375l0.15625 1.25q0.671875 -0.828125 1.5 -1.34375q0.84375 -0.53125 1.953125 -0.53125q1.234375 0 1.984375 0.6875q0.765625 0.671875 1.109375 1.84375q0.25 -0.65625 0.65625 -1.140625q0.421875 -0.484375 0.9375 -0.796875q0.515625 -0.3125 1.09375 -0.453125q0.59375 -0.140625 1.1875 -0.140625q0.953125 0 1.703125 0.3125q0.75 0.296875 1.265625 0.890625q0.53125 0.578125 0.8125 1.4375q0.28125 0.859375 0.28125 1.96875l0 7.734375l-2.140625 0l0 -7.734375q0 -1.4375 -0.625 -2.171875q-0.625 -0.734375 -1.8125 -0.734375q-0.53125 0 -1.0 0.1875q-0.46875 0.1875 -0.84375 0.546875q-0.359375 0.359375 -0.5625 0.90625q-0.203125 0.546875 -0.203125 1.265625l0 7.734375l-2.140625 0l0 -7.734375q0 -1.46875 -0.59375 -2.1875q-0.578125 -0.71875 -1.71875 -0.71875q-0.78125 0 -1.46875 0.421875q-0.671875 0.421875 -1.234375 1.15625l0 9.0625l-2.140625 0zm19.704163 4.109375l0 -16.265625l1.28125 0q0.453125 0 0.5625 0.4375l0.1875 1.453125q0.78125 -0.953125 1.78125 -1.53125q1.0 -0.578125 2.3125 -0.578125q1.046875 0 1.890625 0.40625q0.859375 0.40625 1.453125 1.1875q0.59375 0.78125 0.921875 1.953125q0.328125 1.15625 0.328125 2.671875q0 1.34375 -0.359375 2.5q-0.359375 1.15625 -1.03125 2.015625q-0.671875 0.84375 -1.65625 1.328125q-0.96875 0.484375 -2.203125 0.484375q-1.125 0 -1.921875 -0.375q-0.796875 -0.375 -1.40625 -1.0625l0 5.375l-2.140625 0zm5.40625 -14.75q-1.03125 0 -1.828125 0.484375q-0.78125 0.46875 -1.4375 1.34375l0 5.890625q0.578125 0.78125 1.28125 1.109375q0.703125 0.328125 1.578125 0.328125q1.6875 0 2.59375 -1.203125q0.921875 -1.21875 0.921875 -3.46875q0 -1.1875 -0.21875 -2.03125q-0.203125 -0.859375 -0.609375 -1.40625q-0.390625 -0.546875 -0.96875 -0.796875q-0.578125 -0.25 -1.3125 -0.25zm12.763672 -1.703125q1.328125 0 2.40625 0.453125q1.078125 0.4375 1.828125 1.25q0.75 0.8125 1.140625 1.96875q0.40625 1.15625 0.40625 2.59375q0 1.4375 -0.40625 2.59375q-0.390625 1.140625 -1.140625 1.96875q-0.75 0.8125 -1.828125 1.25q-1.078125 0.4375 -2.40625 0.4375q-1.328125 0 -2.40625 -0.4375q-1.078125 -0.4375 -1.828125 -1.25q-0.75 -0.828125 -1.171875 -1.96875q-0.40625 -1.15625 -0.40625 -2.59375q0 -1.4375 0.40625 -2.59375q0.421875 -1.15625 1.171875 -1.96875q0.75 -0.8125 1.828125 -1.25q1.078125 -0.453125 2.40625 -0.453125zm0 10.84375q1.796875 0 2.6875 -1.203125q0.890625 -1.203125 0.890625 -3.375q0 -2.171875 -0.890625 -3.375q-0.890625 -1.21875 -2.6875 -1.21875q-0.90625 0 -1.578125 0.3125q-0.671875 0.3125 -1.125 0.90625q-0.453125 0.578125 -0.671875 1.4375q-0.21875 0.859375 -0.21875 1.9375q0 1.09375 0.21875 1.953125q0.21875 0.84375 0.671875 1.421875q0.453125 0.578125 1.125 0.890625q0.671875 0.3125 1.578125 0.3125zm8.422241 1.5l0 -12.15625l1.28125 0q0.453125 0 0.5625 0.4375l0.171875 1.328125q0.796875 -0.875 1.765625 -1.40625q0.984375 -0.546875 2.265625 -0.546875q1.0 0 1.75 0.328125q0.765625 0.328125 1.28125 0.9375q0.515625 0.609375 0.78125 1.46875q0.265625 0.84375 0.265625 1.875l0 7.734375l-2.140625 0l0 -7.734375q0 -1.390625 -0.640625 -2.140625q-0.625 -0.765625 -1.921875 -0.765625q-0.9375 0 -1.765625 0.453125q-0.828125 0.453125 -1.515625 1.234375l0 8.953125l-2.140625 0zm18.156616 -12.34375q1.09375 0 2.015625 0.375q0.921875 0.359375 1.59375 1.046875q0.671875 0.6875 1.046875 1.703125q0.390625 1.015625 0.390625 2.3125q0 0.5 -0.109375 0.671875q-0.109375 0.15625 -0.40625 0.15625l-8.09375 0q0.03125 1.15625 0.3125 2.015625q0.28125 0.84375 0.78125 1.421875q0.515625 0.5625 1.203125 0.84375q0.703125 0.28125 1.5625 0.28125q0.8125 0 1.390625 -0.1875q0.578125 -0.1875 1.0 -0.390625q0.421875 -0.21875 0.703125 -0.40625q0.28125 -0.1875 0.484375 -0.1875q0.265625 0 0.40625 0.203125l0.609375 0.78125q-0.40625 0.484375 -0.953125 0.84375q-0.546875 0.34375 -1.1875 0.578125q-0.625 0.21875 -1.296875 0.328125q-0.671875 0.125 -1.328125 0.125q-1.265625 0 -2.328125 -0.421875q-1.0625 -0.4375 -1.84375 -1.25q-0.765625 -0.828125 -1.203125 -2.03125q-0.421875 -1.21875 -0.421875 -2.796875q0 -1.265625 0.390625 -2.359375q0.390625 -1.109375 1.109375 -1.921875q0.734375 -0.8125 1.796875 -1.265625q1.0625 -0.46875 2.375 -0.46875zm0.046875 1.5625q-1.546875 0 -2.4375 0.90625q-0.890625 0.890625 -1.09375 2.46875l6.609375 0q0 -0.734375 -0.203125 -1.359375q-0.203125 -0.625 -0.609375 -1.0625q-0.390625 -0.453125 -0.96875 -0.703125q-0.5625 -0.25 -1.296875 -0.25zm7.716736 10.78125l0 -12.15625l1.28125 0q0.453125 0 0.5625 0.4375l0.171875 1.328125q0.796875 -0.875 1.765625 -1.40625q0.984375 -0.546875 2.265625 -0.546875q1.0 0 1.75 0.328125q0.765625 0.328125 1.28125 0.9375q0.515625 0.609375 0.78125 1.46875q0.265625 0.84375 0.265625 1.875l0 7.734375l-2.140625 0l0 -7.734375q0 -1.390625 -0.640625 -2.140625q-0.625 -0.765625 -1.921875 -0.765625q-0.9375 0 -1.765625 0.453125q-0.828125 0.453125 -1.515625 1.234375l0 8.953125l-2.140625 0zm17.031616 0.1875q-1.4375 0 -2.21875 -0.796875q-0.765625 -0.8125 -0.765625 -2.3125l0 -7.453125l-1.46875 0q-0.1875 0 -0.328125 -0.109375q-0.125 -0.109375 -0.125 -0.359375l0 -0.84375l1.984375 -0.25l0.5 -3.765625q0.015625 -0.171875 0.140625 -0.28125q0.140625 -0.125 0.34375 -0.125l1.078125 0l0 4.1875l3.484375 0l0 1.546875l-3.484375 0l0 7.296875q0 0.78125 0.375 1.15625q0.375 0.359375 0.96875 0.359375q0.328125 0 0.578125 -0.078125q0.25 -0.09375 0.421875 -0.203125q0.1875 -0.109375 0.3125 -0.203125q0.125 -0.09375 0.21875 -0.09375q0.171875 0 0.296875 0.203125l0.625 1.03125q-0.546875 0.515625 -1.328125 0.8125q-0.78125 0.28125 -1.609375 0.28125zm12.271606 -12.34375l0 12.15625l-2.140625 0l0 -12.15625l2.140625 0zm0.484375 -3.8125q0 0.3125 -0.125 0.578125q-0.125 0.265625 -0.34375 0.484375q-0.203125 0.203125 -0.484375 0.328125q-0.265625 0.125 -0.578125 0.125q-0.3125 0 -0.59375 -0.125q-0.265625 -0.125 -0.484375 -0.328125q-0.203125 -0.21875 -0.328125 -0.484375q-0.109375 -0.265625 -0.109375 -0.578125q0 -0.3125 0.109375 -0.59375q0.125 -0.28125 0.328125 -0.484375q0.21875 -0.21875 0.484375 -0.34375q0.28125 -0.125 0.59375 -0.125q0.3125 0 0.578125 0.125q0.28125 0.125 0.484375 0.34375q0.21875 0.203125 0.34375 0.484375q0.125 0.28125 0.125 0.59375zm3.284668 15.96875l0 -12.15625l1.28125 0q0.453125 0 0.5625 0.4375l0.171875 1.328125q0.796875 -0.875 1.765625 -1.40625q0.984375 -0.546875 2.265625 -0.546875q1.0 0 1.75 0.328125q0.765625 0.328125 1.28125 0.9375q0.515625 0.609375 0.78125 1.46875q0.265625 0.84375 0.265625 1.875l0 7.734375l-2.140625 0l0 -7.734375q0 -1.390625 -0.640625 -2.140625q-0.625 -0.765625 -1.921875 -0.765625q-0.9375 0 -1.765625 0.453125q-0.828125 0.453125 -1.515625 1.234375l0 8.953125l-2.140625 0z" fill-rule="nonzero"/><path fill="#000000" d="m270.74762 324.8838q-0.15625 0.265625 -0.453125 0.265625q-0.171875 0 -0.40625 -0.125q-0.234375 -0.140625 -0.5625 -0.296875q-0.328125 -0.15625 -0.78125 -0.296875q-0.453125 -0.140625 -1.078125 -0.140625q-0.546875 0 -0.984375 0.140625q-0.421875 0.140625 -0.734375 0.375q-0.296875 0.234375 -0.46875 0.5625q-0.15625 0.3125 -0.15625 0.6875q0 0.46875 0.265625 0.78125q0.28125 0.3125 0.71875 0.546875q0.453125 0.21875 1.015625 0.390625q0.5625 0.171875 1.15625 0.375q0.59375 0.1875 1.15625 0.4375q0.5625 0.234375 1.0 0.59375q0.453125 0.359375 0.71875 0.890625q0.265625 0.515625 0.265625 1.25q0 0.84375 -0.296875 1.5625q-0.296875 0.703125 -0.890625 1.234375q-0.578125 0.515625 -1.4375 0.8125q-0.84375 0.296875 -1.96875 0.296875q-1.265625 0 -2.296875 -0.40625q-1.03125 -0.421875 -1.75 -1.0625l0.5 -0.8125q0.09375 -0.15625 0.21875 -0.234375q0.140625 -0.09375 0.359375 -0.09375q0.21875 0 0.453125 0.171875q0.234375 0.15625 0.578125 0.359375q0.34375 0.203125 0.828125 0.375q0.484375 0.171875 1.21875 0.171875q0.625 0 1.09375 -0.15625q0.46875 -0.171875 0.78125 -0.4375q0.3125 -0.28125 0.453125 -0.640625q0.15625 -0.359375 0.15625 -0.765625q0 -0.515625 -0.265625 -0.84375q-0.265625 -0.328125 -0.71875 -0.5625q-0.4375 -0.234375 -1.015625 -0.40625q-0.5625 -0.171875 -1.15625 -0.359375q-0.59375 -0.203125 -1.171875 -0.4375q-0.5625 -0.25 -1.015625 -0.625q-0.4375 -0.375 -0.71875 -0.921875q-0.265625 -0.546875 -0.265625 -1.3125q0 -0.703125 0.28125 -1.34375q0.296875 -0.640625 0.84375 -1.125q0.5625 -0.484375 1.359375 -0.765625q0.8125 -0.296875 1.84375 -0.296875q1.203125 0 2.15625 0.375q0.953125 0.375 1.640625 1.03125l-0.46875 0.78125zm7.1348267 10.34375q-1.4375 0 -2.21875 -0.796875q-0.765625 -0.8125 -0.765625 -2.3125l0 -7.453125l-1.46875 0q-0.1875 0 -0.328125 -0.109375q-0.125 -0.109375 -0.125 -0.359375l0 -0.84375l1.984375 -0.25l0.5 -3.765625q0.015625 -0.171875 0.140625 -0.28125q0.140625 -0.125 0.34375 -0.125l1.078125 0l0 4.1875l3.484375 0l0 1.546875l-3.484375 0l0 7.296875q0 0.78125 0.375 1.15625q0.375 0.359375 0.96875 0.359375q0.328125 0 0.578125 -0.078125q0.25 -0.09375 0.421875 -0.203125q0.1875 -0.109375 0.3125 -0.203125q0.125 -0.09375 0.21875 -0.09375q0.171875 0 0.296875 0.203125l0.625 1.03125q-0.546875 0.515625 -1.328125 0.8125q-0.78125 0.28125 -1.609375 0.28125zm14.202057 -0.1875l-0.953125 0q-0.3125 0 -0.515625 -0.09375q-0.1875 -0.09375 -0.25 -0.40625l-0.234375 -1.125q-0.484375 0.421875 -0.9375 0.765625q-0.453125 0.34375 -0.953125 0.578125q-0.5 0.234375 -1.078125 0.34375q-0.5625 0.125 -1.265625 0.125q-0.703125 0 -1.328125 -0.1875q-0.609375 -0.203125 -1.078125 -0.59375q-0.453125 -0.40625 -0.71875 -1.0q-0.265625 -0.609375 -0.265625 -1.4375q0 -0.71875 0.390625 -1.390625q0.390625 -0.671875 1.265625 -1.1875q0.890625 -0.515625 2.3125 -0.84375q1.4375 -0.328125 3.5 -0.375l0 -0.953125q0 -1.40625 -0.609375 -2.125q-0.59375 -0.734375 -1.78125 -0.734375q-0.78125 0 -1.328125 0.203125q-0.53125 0.1875 -0.921875 0.4375q-0.390625 0.25 -0.671875 0.453125q-0.28125 0.1875 -0.546875 0.1875q-0.21875 0 -0.390625 -0.109375q-0.15625 -0.125 -0.25 -0.28125l-0.390625 -0.6875q1.015625 -0.96875 2.171875 -1.453125q1.171875 -0.484375 2.578125 -0.484375q1.03125 0 1.8125 0.34375q0.796875 0.328125 1.328125 0.9375q0.546875 0.59375 0.828125 1.453125q0.28125 0.84375 0.28125 1.859375l0 7.78125zm-5.546875 -1.3125q0.5625 0 1.03125 -0.109375q0.46875 -0.109375 0.875 -0.3125q0.421875 -0.21875 0.796875 -0.515625q0.375 -0.3125 0.734375 -0.6875l0 -2.53125q-1.46875 0.046875 -2.5 0.234375q-1.03125 0.1875 -1.6875 0.484375q-0.640625 0.296875 -0.9375 0.703125q-0.296875 0.40625 -0.296875 0.921875q0 0.46875 0.15625 0.828125q0.15625 0.34375 0.421875 0.5625q0.265625 0.21875 0.625 0.328125q0.359375 0.09375 0.78125 0.09375zm8.777466 1.3125l0 -12.15625l1.21875 0q0.359375 0 0.484375 0.140625q0.140625 0.125 0.1875 0.453125l0.140625 1.890625q0.625 -1.265625 1.53125 -1.984375q0.921875 -0.71875 2.15625 -0.71875q0.515625 0 0.921875 0.125q0.40625 0.109375 0.75 0.3125l-0.265625 1.59375q-0.09375 0.296875 -0.375 0.296875q-0.171875 0 -0.53125 -0.109375q-0.34375 -0.109375 -0.953125 -0.109375q-1.125 0 -1.875 0.65625q-0.75 0.640625 -1.25 1.875l0 7.734375l-2.140625 0zm13.359589 0.1875q-1.4375 0 -2.21875 -0.796875q-0.765625 -0.8125 -0.765625 -2.3125l0 -7.453125l-1.46875 0q-0.1875 0 -0.328125 -0.109375q-0.125 -0.109375 -0.125 -0.359375l0 -0.84375l1.984375 -0.25l0.5 -3.765625q0.015625 -0.171875 0.140625 -0.28125q0.140625 -0.125 0.34375 -0.125l1.078125 0l0 4.1875l3.484375 0l0 1.546875l-3.484375 0l0 7.296875q0 0.78125 0.375 1.15625q0.375 0.359375 0.96875 0.359375q0.328125 0 0.578125 -0.078125q0.25 -0.09375 0.421875 -0.203125q0.1875 -0.109375 0.3125 -0.203125q0.125 -0.09375 0.21875 -0.09375q0.171875 0 0.296875 0.203125l0.625 1.03125q-0.546875 0.515625 -1.328125 0.8125q-0.78125 0.28125 -1.609375 0.28125zm7.639557 -12.34375l0 12.15625l-2.140625 0l0 -12.15625l2.140625 0zm0.484375 -3.8125q0 0.3125 -0.125 0.578125q-0.125 0.265625 -0.34375 0.484375q-0.203125 0.203125 -0.484375 0.328125q-0.265625 0.125 -0.578125 0.125q-0.3125 0 -0.59375 -0.125q-0.265625 -0.125 -0.484375 -0.328125q-0.203125 -0.21875 -0.328125 -0.484375q-0.109375 -0.265625 -0.109375 -0.578125q0 -0.3125 0.109375 -0.59375q0.125 -0.28125 0.328125 -0.484375q0.21875 -0.21875 0.484375 -0.34375q0.28125 -0.125 0.59375 -0.125q0.3125 0 0.578125 0.125q0.28125 0.125 0.484375 0.34375q0.21875 0.203125 0.34375 0.484375q0.125 0.28125 0.125 0.59375zm3.284668 15.96875l0 -12.15625l1.28125 0q0.453125 0 0.5625 0.4375l0.171875 1.328125q0.796875 -0.875 1.765625 -1.40625q0.984375 -0.546875 2.265625 -0.546875q1.0 0 1.75 0.328125q0.765625 0.328125 1.28125 0.9375q0.515625 0.609375 0.78125 1.46875q0.265625 0.84375 0.265625 1.875l0 7.734375l-2.140625 0l0 -7.734375q0 -1.390625 -0.640625 -2.140625q-0.625 -0.765625 -1.921875 -0.765625q-0.9375 0 -1.765625 0.453125q-0.828125 0.453125 -1.515625 1.234375l0 8.953125l-2.140625 0zm17.437836 -12.359375q0.796875 0 1.484375 0.171875q0.6875 0.171875 1.25 0.515625l3.296875 0l0 0.78125q0 0.40625 -0.5 0.515625l-1.375 0.1875q0.40625 0.78125 0.40625 1.734375q0 0.890625 -0.34375 1.625q-0.34375 0.71875 -0.953125 1.234375q-0.59375 0.515625 -1.4375 0.796875q-0.828125 0.265625 -1.828125 0.265625q-0.859375 0 -1.609375 -0.203125q-0.375 0.25 -0.578125 0.53125q-0.203125 0.265625 -0.203125 0.53125q0 0.4375 0.34375 0.65625q0.359375 0.21875 0.921875 0.3125q0.578125 0.09375 1.3125 0.125q0.734375 0.015625 1.5 0.078125q0.765625 0.046875 1.484375 0.1875q0.734375 0.125 1.3125 0.4375q0.578125 0.296875 0.921875 0.828125q0.359375 0.515625 0.359375 1.359375q0 0.78125 -0.390625 1.515625q-0.390625 0.734375 -1.125 1.296875q-0.734375 0.578125 -1.796875 0.90625q-1.046875 0.34375 -2.375 0.34375q-1.34375 0 -2.34375 -0.265625q-1.0 -0.25 -1.65625 -0.703125q-0.65625 -0.4375 -1.0 -1.03125q-0.328125 -0.578125 -0.328125 -1.21875q0 -0.890625 0.5625 -1.515625q0.578125 -0.640625 1.578125 -1.015625q-0.515625 -0.234375 -0.828125 -0.625q-0.296875 -0.40625 -0.296875 -1.078125q0 -0.265625 0.09375 -0.546875q0.09375 -0.28125 0.296875 -0.5625q0.203125 -0.28125 0.484375 -0.53125q0.28125 -0.25 0.671875 -0.4375q-0.90625 -0.5 -1.421875 -1.328125q-0.5 -0.84375 -0.5 -1.96875q0 -0.890625 0.34375 -1.609375q0.34375 -0.71875 0.953125 -1.234375q0.609375 -0.515625 1.453125 -0.78125q0.859375 -0.28125 1.859375 -0.28125zm3.796875 13.015625q0 -0.453125 -0.265625 -0.71875q-0.25 -0.28125 -0.6875 -0.421875q-0.421875 -0.15625 -0.984375 -0.234375q-0.5625 -0.078125 -1.1875 -0.109375q-0.625 -0.03125 -1.28125 -0.0625q-0.640625 -0.03125 -1.21875 -0.125q-0.6875 0.3125 -1.125 0.78125q-0.421875 0.46875 -0.421875 1.125q0 0.40625 0.203125 0.75q0.21875 0.359375 0.640625 0.609375q0.4375 0.265625 1.09375 0.40625q0.65625 0.15625 1.546875 0.15625q0.859375 0 1.546875 -0.15625q0.6875 -0.140625 1.15625 -0.4375q0.46875 -0.28125 0.71875 -0.6875q0.265625 -0.390625 0.265625 -0.875zm-3.796875 -6.59375q0.640625 0 1.140625 -0.171875q0.5 -0.1875 0.828125 -0.515625q0.34375 -0.328125 0.515625 -0.765625q0.171875 -0.453125 0.171875 -1.0q0 -1.109375 -0.6875 -1.765625q-0.671875 -0.671875 -1.96875 -0.671875q-1.28125 0 -1.96875 0.671875q-0.671875 0.65625 -0.671875 1.765625q0 0.546875 0.171875 1.0q0.171875 0.4375 0.5 0.765625q0.34375 0.328125 0.828125 0.515625q0.5 0.171875 1.140625 0.171875zm16.364868 9.53125q-0.109375 0.234375 -0.265625 0.375q-0.15625 0.140625 -0.5 0.140625l-1.578125 0l2.21875 -4.8125l-5.015625 -11.453125l1.84375 0q0.28125 0 0.4375 0.140625q0.15625 0.140625 0.21875 0.296875l3.25 7.65625q0.109375 0.265625 0.1875 0.53125q0.078125 0.265625 0.140625 0.546875q0.09375 -0.28125 0.171875 -0.546875q0.078125 -0.265625 0.1875 -0.53125l3.15625 -7.65625q0.078125 -0.1875 0.25 -0.3125q0.171875 -0.125 0.375 -0.125l1.703125 0l-6.78125 15.75zm13.33548 -15.9375q1.328125 0 2.40625 0.453125q1.078125 0.4375 1.828125 1.25q0.75 0.8125 1.140625 1.96875q0.40625 1.15625 0.40625 2.59375q0 1.4375 -0.40625 2.59375q-0.390625 1.140625 -1.140625 1.96875q-0.75 0.8125 -1.828125 1.25q-1.078125 0.4375 -2.40625 0.4375q-1.328125 0 -2.40625 -0.4375q-1.078125 -0.4375 -1.828125 -1.25q-0.75 -0.828125 -1.171875 -1.96875q-0.40625 -1.15625 -0.40625 -2.59375q0 -1.4375 0.40625 -2.59375q0.421875 -1.15625 1.171875 -1.96875q0.75 -0.8125 1.828125 -1.25q1.078125 -0.453125 2.40625 -0.453125zm0 10.84375q1.796875 0 2.6875 -1.203125q0.890625 -1.203125 0.890625 -3.375q0 -2.171875 -0.890625 -3.375q-0.890625 -1.21875 -2.6875 -1.21875q-0.90625 0 -1.578125 0.3125q-0.671875 0.3125 -1.125 0.90625q-0.453125 0.578125 -0.671875 1.4375q-0.21875 0.859375 -0.21875 1.9375q0 1.09375 0.21875 1.953125q0.21875 0.84375 0.671875 1.421875q0.453125 0.578125 1.125 0.890625q0.671875 0.3125 1.578125 0.3125zm10.265961 -10.65625l0 7.75q0 1.375 0.640625 2.140625q0.640625 0.75 1.921875 0.75q0.9375 0 1.765625 -0.4375q0.828125 -0.453125 1.515625 -1.234375l0 -8.96875l2.140625 0l0 12.15625l-1.265625 0q-0.453125 0 -0.578125 -0.4375l-0.171875 -1.3125q-0.796875 0.875 -1.78125 1.40625q-0.984375 0.53125 -2.25 0.53125q-1.0 0 -1.765625 -0.328125q-0.75 -0.328125 -1.265625 -0.921875q-0.515625 -0.609375 -0.78125 -1.453125q-0.25 -0.859375 -0.25 -1.890625l0 -7.75l2.125 0zm11.500366 12.15625l0 -12.15625l1.21875 0q0.359375 0 0.484375 0.140625q0.140625 0.125 0.1875 0.453125l0.140625 1.890625q0.625 -1.265625 1.53125 -1.984375q0.921875 -0.71875 2.15625 -0.71875q0.515625 0 0.921875 0.125q0.40625 0.109375 0.75 0.3125l-0.265625 1.59375q-0.09375 0.296875 -0.375 0.296875q-0.171875 0 -0.53125 -0.109375q-0.34375 -0.109375 -0.953125 -0.109375q-1.125 0 -1.875 0.65625q-0.75 0.640625 -1.25 1.875l0 7.734375l-2.140625 0zm14.382233 0l0 -17.671875l2.140625 0l0 7.265625q0.765625 -0.875 1.734375 -1.40625q0.984375 -0.53125 2.234375 -0.53125q1.0625 0 1.90625 0.390625q0.859375 0.390625 1.453125 1.1875q0.609375 0.78125 0.921875 1.9375q0.328125 1.15625 0.328125 2.671875q0 1.34375 -0.359375 2.5q-0.359375 1.15625 -1.046875 2.015625q-0.671875 0.84375 -1.65625 1.328125q-0.96875 0.484375 -2.1875 0.484375q-1.171875 0 -2.0 -0.453125q-0.828125 -0.46875 -1.4375 -1.28125l-0.109375 1.109375q-0.09375 0.453125 -0.546875 0.453125l-1.375 0zm5.421875 -10.640625q-1.046875 0 -1.84375 0.484375q-0.78125 0.46875 -1.4375 1.34375l0 5.890625q0.578125 0.78125 1.28125 1.109375q0.703125 0.328125 1.5625 0.328125q1.703125 0 2.609375 -1.203125q0.921875 -1.21875 0.921875 -3.46875q0 -1.1875 -0.21875 -2.03125q-0.203125 -0.859375 -0.609375 -1.40625q-0.390625 -0.546875 -0.96875 -0.796875q-0.5625 -0.25 -1.296875 -0.25zm9.759827 -1.515625l0 7.75q0 1.375 0.640625 2.140625q0.640625 0.75 1.921875 0.75q0.9375 0 1.765625 -0.4375q0.828125 -0.453125 1.515625 -1.234375l0 -8.96875l2.140625 0l0 12.15625l-1.265625 0q-0.453125 0 -0.578125 -0.4375l-0.171875 -1.3125q-0.796875 0.875 -1.78125 1.40625q-0.984375 0.53125 -2.25 0.53125q-1.0 0 -1.765625 -0.328125q-0.75 -0.328125 -1.265625 -0.921875q-0.515625 -0.609375 -0.78125 -1.453125q-0.25 -0.859375 -0.25 -1.890625l0 -7.75l2.125 0zm18.469116 2.0q-0.15625 0.265625 -0.453125 0.265625q-0.171875 0 -0.40625 -0.125q-0.234375 -0.140625 -0.5625 -0.296875q-0.328125 -0.15625 -0.78125 -0.296875q-0.453125 -0.140625 -1.078125 -0.140625q-0.546875 0 -0.984375 0.140625q-0.421875 0.140625 -0.734375 0.375q-0.296875 0.234375 -0.46875 0.5625q-0.15625 0.3125 -0.15625 0.6875q0 0.46875 0.265625 0.78125q0.28125 0.3125 0.71875 0.546875q0.453125 0.21875 1.015625 0.390625q0.5625 0.171875 1.15625 0.375q0.59375 0.1875 1.15625 0.4375q0.5625 0.234375 1.0 0.59375q0.453125 0.359375 0.71875 0.890625q0.265625 0.515625 0.265625 1.25q0 0.84375 -0.296875 1.5625q-0.296875 0.703125 -0.890625 1.234375q-0.578125 0.515625 -1.4375 0.8125q-0.84375 0.296875 -1.96875 0.296875q-1.265625 0 -2.296875 -0.40625q-1.03125 -0.421875 -1.75 -1.0625l0.5 -0.8125q0.09375 -0.15625 0.21875 -0.234375q0.140625 -0.09375 0.359375 -0.09375q0.21875 0 0.453125 0.171875q0.234375 0.15625 0.578125 0.359375q0.34375 0.203125 0.828125 0.375q0.484375 0.171875 1.21875 0.171875q0.625 0 1.09375 -0.15625q0.46875 -0.171875 0.78125 -0.4375q0.3125 -0.28125 0.453125 -0.640625q0.15625 -0.359375 0.15625 -0.765625q0 -0.515625 -0.265625 -0.84375q-0.265625 -0.328125 -0.71875 -0.5625q-0.4375 -0.234375 -1.015625 -0.40625q-0.5625 -0.171875 -1.15625 -0.359375q-0.59375 -0.203125 -1.171875 -0.4375q-0.5625 -0.25 -1.015625 -0.625q-0.4375 -0.375 -0.71875 -0.921875q-0.265625 -0.546875 -0.265625 -1.3125q0 -0.703125 0.28125 -1.34375q0.296875 -0.640625 0.84375 -1.125q0.5625 -0.484375 1.359375 -0.765625q0.8125 -0.296875 1.84375 -0.296875q1.203125 0 2.15625 0.375q0.953125 0.375 1.640625 1.03125l-0.46875 0.78125zm5.8223267 -2.0l0 12.15625l-2.140625 0l0 -12.15625l2.140625 0zm0.484375 -3.8125q0 0.3125 -0.125 0.578125q-0.125 0.265625 -0.34375 0.484375q-0.203125 0.203125 -0.484375 0.328125q-0.265625 0.125 -0.578125 0.125q-0.3125 0 -0.59375 -0.125q-0.265625 -0.125 -0.484375 -0.328125q-0.203125 -0.21875 -0.328125 -0.484375q-0.109375 -0.265625 -0.109375 -0.578125q0 -0.3125 0.109375 -0.59375q0.125 -0.28125 0.328125 -0.484375q0.21875 -0.21875 0.484375 -0.34375q0.28125 -0.125 0.59375 -0.125q0.3125 0 0.578125 0.125q0.28125 0.125 0.484375 0.34375q0.21875 0.203125 0.34375 0.484375q0.125 0.28125 0.125 0.59375zm3.284668 15.96875l0 -12.15625l1.28125 0q0.453125 0 0.5625 0.4375l0.171875 1.328125q0.796875 -0.875 1.765625 -1.40625q0.984375 -0.546875 2.265625 -0.546875q1.0 0 1.75 0.328125q0.765625 0.328125 1.28125 0.9375q0.515625 0.609375 0.78125 1.46875q0.265625 0.84375 0.265625 1.875l0 7.734375l-2.140625 0l0 -7.734375q0 -1.390625 -0.640625 -2.140625q-0.625 -0.765625 -1.921875 -0.765625q-0.9375 0 -1.765625 0.453125q-0.828125 0.453125 -1.515625 1.234375l0 8.953125l-2.140625 0zm18.156586 -12.34375q1.09375 0 2.015625 0.375q0.921875 0.359375 1.59375 1.046875q0.671875 0.6875 1.046875 1.703125q0.390625 1.015625 0.390625 2.3125q0 0.5 -0.109375 0.671875q-0.109375 0.15625 -0.40625 0.15625l-8.09375 0q0.03125 1.15625 0.3125 2.015625q0.28125 0.84375 0.78125 1.421875q0.515625 0.5625 1.203125 0.84375q0.703125 0.28125 1.5625 0.28125q0.8125 0 1.390625 -0.1875q0.578125 -0.1875 1.0 -0.390625q0.421875 -0.21875 0.703125 -0.40625q0.28125 -0.1875 0.484375 -0.1875q0.265625 0 0.40625 0.203125l0.609375 0.78125q-0.40625 0.484375 -0.953125 0.84375q-0.546875 0.34375 -1.1875 0.578125q-0.625 0.21875 -1.296875 0.328125q-0.671875 0.125 -1.328125 0.125q-1.265625 0 -2.328125 -0.421875q-1.0625 -0.4375 -1.84375 -1.25q-0.765625 -0.828125 -1.203125 -2.03125q-0.421875 -1.21875 -0.421875 -2.796875q0 -1.265625 0.390625 -2.359375q0.390625 -1.109375 1.109375 -1.921875q0.734375 -0.8125 1.796875 -1.265625q1.0625 -0.46875 2.375 -0.46875zm0.046875 1.5625q-1.546875 0 -2.4375 0.90625q-0.890625 0.890625 -1.09375 2.46875l6.609375 0q0 -0.734375 -0.203125 -1.359375q-0.203125 -0.625 -0.609375 -1.0625q-0.390625 -0.453125 -0.96875 -0.703125q-0.5625 -0.25 -1.296875 -0.25zm14.685486 0.625q-0.15625 0.265625 -0.453125 0.265625q-0.171875 0 -0.40625 -0.125q-0.234375 -0.140625 -0.5625 -0.296875q-0.328125 -0.15625 -0.78125 -0.296875q-0.453125 -0.140625 -1.078125 -0.140625q-0.546875 0 -0.984375 0.140625q-0.421875 0.140625 -0.734375 0.375q-0.296875 0.234375 -0.46875 0.5625q-0.15625 0.3125 -0.15625 0.6875q0 0.46875 0.265625 0.78125q0.28125 0.3125 0.71875 0.546875q0.453125 0.21875 1.015625 0.390625q0.5625 0.171875 1.15625 0.375q0.59375 0.1875 1.15625 0.4375q0.5625 0.234375 1.0 0.59375q0.453125 0.359375 0.71875 0.890625q0.265625 0.515625 0.265625 1.25q0 0.84375 -0.296875 1.5625q-0.296875 0.703125 -0.890625 1.234375q-0.578125 0.515625 -1.4375 0.8125q-0.84375 0.296875 -1.96875 0.296875q-1.265625 0 -2.296875 -0.40625q-1.03125 -0.421875 -1.75 -1.0625l0.5 -0.8125q0.09375 -0.15625 0.21875 -0.234375q0.140625 -0.09375 0.359375 -0.09375q0.21875 0 0.453125 0.171875q0.234375 0.15625 0.578125 0.359375q0.34375 0.203125 0.828125 0.375q0.484375 0.171875 1.21875 0.171875q0.625 0 1.09375 -0.15625q0.46875 -0.171875 0.78125 -0.4375q0.3125 -0.28125 0.453125 -0.640625q0.15625 -0.359375 0.15625 -0.765625q0 -0.515625 -0.265625 -0.84375q-0.265625 -0.328125 -0.71875 -0.5625q-0.4375 -0.234375 -1.015625 -0.40625q-0.5625 -0.171875 -1.15625 -0.359375q-0.59375 -0.203125 -1.171875 -0.4375q-0.5625 -0.25 -1.015625 -0.625q-0.4375 -0.375 -0.71875 -0.921875q-0.265625 -0.546875 -0.265625 -1.3125q0 -0.703125 0.28125 -1.34375q0.296875 -0.640625 0.84375 -1.125q0.5625 -0.484375 1.359375 -0.765625q0.8125 -0.296875 1.84375 -0.296875q1.203125 0 2.15625 0.375q0.953125 0.375 1.640625 1.03125l-0.46875 0.78125zm10.416077 0q-0.15625 0.265625 -0.453125 0.265625q-0.171875 0 -0.40625 -0.125q-0.234375 -0.140625 -0.5625 -0.296875q-0.328125 -0.15625 -0.78125 -0.296875q-0.453125 -0.140625 -1.078125 -0.140625q-0.546875 0 -0.984375 0.140625q-0.421875 0.140625 -0.734375 0.375q-0.296875 0.234375 -0.46875 0.5625q-0.15625 0.3125 -0.15625 0.6875q0 0.46875 0.265625 0.78125q0.28125 0.3125 0.71875 0.546875q0.453125 0.21875 1.015625 0.390625q0.5625 0.171875 1.15625 0.375q0.59375 0.1875 1.15625 0.4375q0.5625 0.234375 1.0 0.59375q0.453125 0.359375 0.71875 0.890625q0.265625 0.515625 0.265625 1.25q0 0.84375 -0.296875 1.5625q-0.296875 0.703125 -0.890625 1.234375q-0.578125 0.515625 -1.4375 0.8125q-0.84375 0.296875 -1.96875 0.296875q-1.265625 0 -2.296875 -0.40625q-1.03125 -0.421875 -1.75 -1.0625l0.5 -0.8125q0.09375 -0.15625 0.21875 -0.234375q0.140625 -0.09375 0.359375 -0.09375q0.21875 0 0.453125 0.171875q0.234375 0.15625 0.578125 0.359375q0.34375 0.203125 0.828125 0.375q0.484375 0.171875 1.21875 0.171875q0.625 0 1.09375 -0.15625q0.46875 -0.171875 0.78125 -0.4375q0.3125 -0.28125 0.453125 -0.640625q0.15625 -0.359375 0.15625 -0.765625q0 -0.515625 -0.265625 -0.84375q-0.265625 -0.328125 -0.71875 -0.5625q-0.4375 -0.234375 -1.015625 -0.40625q-0.5625 -0.171875 -1.15625 -0.359375q-0.59375 -0.203125 -1.171875 -0.4375q-0.5625 -0.25 -1.015625 -0.625q-0.4375 -0.375 -0.71875 -0.921875q-0.265625 -0.546875 -0.265625 -1.3125q0 -0.703125 0.28125 -1.34375q0.296875 -0.640625 0.84375 -1.125q0.5625 -0.484375 1.359375 -0.765625q0.8125 -0.296875 1.84375 -0.296875q1.203125 0 2.15625 0.375q0.953125 0.375 1.640625 1.03125l-0.46875 0.78125zm2.7598267 8.84375q0 -0.3125 0.109375 -0.59375q0.109375 -0.28125 0.3125 -0.484375q0.203125 -0.203125 0.46875 -0.3125q0.28125 -0.125 0.59375 -0.125q0.3125 0 0.578125 0.125q0.28125 0.109375 0.484375 0.3125q0.203125 0.203125 0.3125 0.484375q0.125 0.28125 0.125 0.59375q0 0.3125 -0.125 0.59375q-0.109375 0.265625 -0.3125 0.46875q-0.203125 0.203125 -0.484375 0.3125q-0.265625 0.125 -0.578125 0.125q-0.3125 0 -0.59375 -0.125q-0.265625 -0.109375 -0.46875 -0.3125q-0.203125 -0.203125 -0.3125 -0.46875q-0.109375 -0.28125 -0.109375 -0.59375zm5.088043 0q0 -0.3125 0.109375 -0.59375q0.109375 -0.28125 0.3125 -0.484375q0.203125 -0.203125 0.46875 -0.3125q0.28125 -0.125 0.59375 -0.125q0.3125 0 0.578125 0.125q0.28125 0.109375 0.484375 0.3125q0.203125 0.203125 0.3125 0.484375q0.125 0.28125 0.125 0.59375q0 0.3125 -0.125 0.59375q-0.109375 0.265625 -0.3125 0.46875q-0.203125 0.203125 -0.484375 0.3125q-0.265625 0.125 -0.578125 0.125q-0.3125 0 -0.59375 -0.125q-0.265625 -0.109375 -0.46875 -0.3125q-0.203125 -0.203125 -0.3125 -0.46875q-0.109375 -0.28125 -0.109375 -0.59375zm5.088043 0q0 -0.3125 0.109375 -0.59375q0.109375 -0.28125 0.3125 -0.484375q0.203125 -0.203125 0.46875 -0.3125q0.28125 -0.125 0.59375 -0.125q0.3125 0 0.578125 0.125q0.28125 0.109375 0.484375 0.3125q0.203125 0.203125 0.3125 0.484375q0.125 0.28125 0.125 0.59375q0 0.3125 -0.125 0.59375q-0.109375 0.265625 -0.3125 0.46875q-0.203125 0.203125 -0.484375 0.3125q-0.265625 0.125 -0.578125 0.125q-0.3125 0 -0.59375 -0.125q-0.265625 -0.109375 -0.46875 -0.3125q-0.203125 -0.203125 -0.3125 -0.46875q-0.109375 -0.28125 -0.109375 -0.59375z" fill-rule="nonzero"/></g></svg>