<svg version="1.1" viewBox="0.0 0.0 960.0 540.0" fill="none" stroke="none" stroke-linecap="square" stroke-miterlimit="10" xmlns:xlink="http://www.w3.org/1999/xlink" xmlns="http://www.w3.org/2000/svg"><clipPath id="p.0"><path d="m0 0l960.0 0l0 540.0l-960.0 0l0 -540.0z" clip-rule="nonzero"/></clipPath><g clip-path="url(#p.0)"><path fill="#0099e8" d="m0 0l960.0 0l0 540.0l-960.0 0z" fill-rule="evenodd"/><path fill="#000000" fill-opacity="0.0" d="m260.12854 43.637794l655.5591 0" fill-rule="evenodd"/><path stroke="#ffffff" stroke-width="4.0" stroke-linejoin="round" stroke-linecap="butt" d="m260.12854 43.637794l655.5591 0" fill-rule="evenodd"/><path fill="#000000" fill-opacity="0.0" d="m260.12854 497.6378l655.5591 0" fill-rule="evenodd"/><path stroke="#ffffff" stroke-width="2.0" stroke-linejoin="round" stroke-linecap="butt" d="m260.12854 497.6378l655.5591 0" fill-rule="evenodd"/><path fill="#000000" fill-opacity="0.0" d="m44.640232 43.637794l19.244091 0" fill-rule="evenodd"/><path stroke="#ffffff" stroke-width="2.0" stroke-linejoin="round" stroke-linecap="butt" d="m44.640232 43.637794l19.244091 0" fill-rule="evenodd"/><path fill="#000000" fill-opacity="0.0" d="m249.0 66.16535l664.7244 0l0 161.88977l-664.7244 0z" fill-rule="evenodd"/><path fill="#ffffff" d="m289.8125 103.074104q-0.453125 -0.453125 -1.640625 -1.21875q-1.1875 -0.765625 -2.890625 -1.5q-1.6875 -0.734375 -3.671875 -1.25q-1.984375 -0.515625 -4.03125 -0.515625q-3.640625 0 -5.4375 1.34375q-1.78125 1.34375 -1.78125 3.78125q0 1.40625 0.671875 2.34375q0.671875 0.921875 1.9375 1.625q1.28125 0.703125 3.234375 1.28125q1.953125 0.5625 4.515625 1.203125q3.328125 0.90625 6.046875 1.9375q2.71875 1.015625 4.609375 2.546875q1.890625 1.53125 2.90625 3.6875q1.03125 2.140625 1.03125 5.28125q0 3.640625 -1.375 6.2343826q-1.375 2.59375 -3.71875 4.203125q-2.328125 1.59375 -5.375 2.328125q-3.03125 0.734375 -6.359375 0.734375q-5.125 0 -10.125 -1.53125q-4.984375 -1.546875 -8.953125 -4.359375l3.90625 -7.6093826q0.578125 0.5625 2.078125 1.5q1.5 0.921875 3.546875 1.859375q2.046875 0.921875 4.546875 1.5625076q2.5 0.640625 5.125 0.640625q7.296875 0 7.296875 -4.6718826q0 -1.46875 -0.84375 -2.484375q-0.828125 -1.03125 -2.359375 -1.796875q-1.53125 -0.78125 -3.71875 -1.421875q-2.171875 -0.640625 -4.859375 -1.40625q-3.265625 -0.890625 -5.671875 -1.9375q-2.390625 -1.0625 -4.0 -2.5q-1.59375 -1.453125 -2.390625 -3.328125q-0.796875 -1.890625 -0.796875 -4.515625q0 -3.453125 1.28125 -6.140625q1.28125 -2.6875 3.546875 -4.484375q2.28125 -1.796875 5.28125 -2.71875q3.015625 -0.9375 6.46875 -0.9375q4.796875 0 8.828125 1.515625q4.03125 1.5 7.046875 3.546875l-3.90625 7.171875zm26.810059 34.171883q-4.09375 0 -7.359375 -1.40625q-3.265625 -1.40625 -5.546875 -3.796875q-2.265625 -2.40625 -3.484375 -5.5468826q-1.203125 -3.140625 -1.203125 -6.59375q0 -3.515625 1.203125 -6.65625q1.21875 -3.140625 3.484375 -5.53125q2.28125 -2.40625 5.546875 -3.8125q3.265625 -1.40625 7.359375 -1.40625q4.09375 0 7.328125 1.40625q3.234375 1.40625 5.5 3.8125q2.28125 2.390625 3.484375 5.53125q1.21875 3.140625 1.21875 6.65625q0 3.453125 -1.21875 6.59375q-1.203125 3.1406326 -3.453125 5.5468826q-2.234375 2.390625 -5.5 3.796875q-3.265625 1.40625 -7.359375 1.40625zm-8.765625 -17.343758q0 2.234375 0.671875 4.0625q0.671875 1.828125 1.859375 3.171875q1.1875 1.3437576 2.78125 2.0781326q1.59375 0.734375 3.453125 0.734375q1.859375 0 3.453125 -0.734375q1.609375 -0.734375 2.78125 -2.0781326q1.1875 -1.34375 1.859375 -3.203125q0.671875 -1.859375 0.671875 -4.09375q0 -2.171875 -0.671875 -4.03125q-0.671875 -1.859375 -1.859375 -3.203125q-1.171875 -1.34375 -2.78125 -2.078125q-1.59375 -0.734375 -3.453125 -0.734375q-1.859375 0 -3.453125 0.765625q-1.59375 0.765625 -2.78125 2.109375q-1.1875 1.34375 -1.859375 3.203125q-0.671875 1.859375 -0.671875 4.03125zm46.336273 23.234383q1.09375 0.3125 2.109375 0.46875q1.03125 0.171875 1.734375 0.171875q0.828125 0 1.53125 -0.328125q0.703125 -0.3125 1.28125 -1.125q0.578125 -0.796875 1.140625 -2.203125q0.578125 -1.40625 1.21875 -3.515625l-13.234375 -33.531258l8.828125 0l9.078125 26.109383l8.078125 -26.109383l8.0625 0l-14.078125 40.187508q-1.21875 3.515625 -4.171875 5.75q-2.9375 2.25 -7.296875 2.25q-1.015625 0 -2.078125 -0.15625q-1.046875 -0.15625 -2.203125 -0.546875l0 -7.421875zm48.829193 -5.890625q-4.09375 0 -7.359375 -1.40625q-3.265625 -1.40625 -5.546875 -3.796875q-2.265625 -2.40625 -3.484375 -5.5468826q-1.203125 -3.140625 -1.203125 -6.59375q0 -3.515625 1.203125 -6.65625q1.21875 -3.140625 3.484375 -5.53125q2.28125 -2.40625 5.546875 -3.8125q3.265625 -1.40625 7.359375 -1.40625q4.09375 0 7.328125 1.40625q3.234375 1.40625 5.5 3.8125q2.28125 2.390625 3.484375 5.53125q1.21875 3.140625 1.21875 6.65625q0 3.453125 -1.21875 6.59375q-1.203125 3.1406326 -3.453125 5.5468826q-2.234375 2.390625 -5.5 3.796875q-3.265625 1.40625 -7.359375 1.40625zm-8.765625 -17.343758q0 2.234375 0.671875 4.0625q0.671875 1.828125 1.859375 3.171875q1.1875 1.3437576 2.78125 2.0781326q1.59375 0.734375 3.453125 0.734375q1.859375 0 3.453125 -0.734375q1.609375 -0.734375 2.78125 -2.0781326q1.1875 -1.34375 1.859375 -3.203125q0.671875 -1.859375 0.671875 -4.09375q0 -2.171875 -0.671875 -4.03125q-0.671875 -1.859375 -1.859375 -3.203125q-1.171875 -1.34375 -2.78125 -2.078125q-1.59375 -0.734375 -3.453125 -0.734375q-1.859375 0 -3.453125 0.765625q-1.59375 0.765625 -2.78125 2.109375q-1.1875 1.34375 -1.859375 3.203125q-0.671875 1.859375 -0.671875 4.03125zm42.29956 17.343758q-5.1875 0 -7.875 -3.328125q-2.6875 -3.328125 -2.6875 -9.859383l0 -20.984375l8.578125 0l0 19.125q0 7.7500076 5.578125 7.7500076q2.484375 0 4.8125 -1.5q2.34375 -1.5000076 3.828125 -4.5781326l0 -20.796875l8.5625 0l0 23.671875q0 1.3437576 0.484375 1.9218826q0.484375 0.578125 1.5625 0.640625l0 7.296875q-1.265625 0.25 -2.140625 0.3125q-0.859375 0.078125 -1.5625 0.078125q-2.3125 0 -3.75 -1.0625q-1.4375 -1.0625 -1.6875 -2.90625l-0.203125 -2.6875q-2.234375 3.453125 -5.75 5.1875q-3.515625 1.71875 -7.75 1.71875zm64.77127 -2.375q-1.734375 0.78125 -4.234375 1.546875q-2.484375 0.765625 -5.234375 0.765625q-1.796875 0 -3.375 -0.453125q-1.5625 -0.4375 -2.75 -1.421875q-1.171875 -1.0 -1.875 -2.5625q-0.703125 -1.578125 -0.703125 -3.828125l0 -19.250008l-4.421875 0l0 -6.59375l4.421875 0l0 -10.890625l8.578125 0l0 10.890625l7.03125 0l0 6.59375l-7.03125 0l0 16.375q0 1.796875 0.921875 2.5312576q0.921875 0.734375 2.265625 0.734375q1.34375 0 2.625 -0.4375q1.28125 -0.453125 2.046875 -0.78125l1.734375 6.78125zm35.654083 1.734375l-8.578125 0l0 -18.812508q0 -3.96875 -1.484375 -5.859375q-1.46875 -1.890625 -4.15625 -1.890625q-1.140625 0 -2.421875 0.515625q-1.28125 0.515625 -2.4375 1.4375q-1.15625 0.921875 -2.125 2.203125q-0.953125 1.28125 -1.390625 2.828125l0 19.578133l-8.578125 0l0 -46.718758l8.578125 0l0 19.390625q1.859375 -3.265625 5.015625 -5.015625q3.171875 -1.765625 7.015625 -1.765625q3.265625 0 5.3125 1.125q2.046875 1.109375 3.1875 2.96875q1.15625 1.859375 1.609375 4.234375q0.453125 2.359375 0.453125 4.859375l0 20.921883zm7.48407 0l0 -33.531258l8.578125 0l0 33.531258l-8.578125 0zm0 -38.203133l0 -8.515625l8.578125 0l0 8.515625l-8.578125 0zm47.491882 38.203133l-8.578125 0l0 -18.812508q0 -4.03125 -1.40625 -5.890625q-1.40625 -1.859375 -3.90625 -1.859375q-1.28125 0 -2.625 0.515625q-1.34375 0.515625 -2.53125 1.4375q-1.1875 0.921875 -2.15625 2.203125q-0.953125 1.28125 -1.390625 2.828125l0 19.578133l-8.578125 0l0 -33.531258l7.734375 0l0 6.203125q1.859375 -3.203125 5.375 -4.984375q3.53125 -1.796875 7.9375 -1.796875q3.140625 0 5.125 1.15625q1.984375 1.140625 3.0625 3.0q1.09375 1.859375 1.515625 4.234375q0.421875 2.359375 0.421875 4.796875l0 20.921883zm30.390259 0l-9.71875 -14.531258l-4.609375 4.546875l0 9.984383l-8.578125 0l0 -46.718758l8.578125 0l0 28.34375l13.4375 -15.09375l9.15625 0l-12.484375 14.203125l13.375 19.265633l-9.15625 0zm27.076782 6.53125q1.09375 0.3125 2.109375 0.46875q1.03125 0.171875 1.734375 0.171875q0.828125 0 1.53125 -0.328125q0.703125 -0.3125 1.28125 -1.125q0.578125 -0.796875 1.140625 -2.203125q0.578125 -1.40625 1.21875 -3.515625l-13.234375 -33.531258l8.828125 0l9.078125 26.109383l8.078125 -26.109383l8.0625 0l-14.078125 40.187508q-1.21875 3.515625 -4.171875 5.75q-2.9375 2.25 -7.296875 2.25q-1.015625 0 -2.078125 -0.15625q-1.046875 -0.15625 -2.203125 -0.546875l0 -7.421875zm48.829224 -5.890625q-4.09375 0 -7.359375 -1.40625q-3.265625 -1.40625 -5.546875 -3.796875q-2.265625 -2.40625 -3.484375 -5.5468826q-1.203125 -3.140625 -1.203125 -6.59375q0 -3.515625 1.203125 -6.65625q1.21875 -3.140625 3.484375 -5.53125q2.28125 -2.40625 5.546875 -3.8125q3.265625 -1.40625 7.359375 -1.40625q4.09375 0 7.328125 1.40625q3.234375 1.40625 5.5 3.8125q2.28125 2.390625 3.484375 5.53125q1.21875 3.140625 1.21875 6.65625q0 3.453125 -1.21875 6.59375q-1.203125 3.1406326 -3.453125 5.5468826q-2.234375 2.390625 -5.5 3.796875q-3.265625 1.40625 -7.359375 1.40625zm-8.765625 -17.343758q0 2.234375 0.671875 4.0625q0.671875 1.828125 1.859375 3.171875q1.1875 1.3437576 2.78125 2.0781326q1.59375 0.734375 3.453125 0.734375q1.859375 0 3.453125 -0.734375q1.609375 -0.734375 2.78125 -2.0781326q1.1875 -1.34375 1.859375 -3.203125q0.671875 -1.859375 0.671875 -4.09375q0 -2.171875 -0.671875 -4.03125q-0.671875 -1.859375 -1.859375 -3.203125q-1.171875 -1.34375 -2.78125 -2.078125q-1.59375 -0.734375 -3.453125 -0.734375q-1.859375 0 -3.453125 0.765625q-1.59375 0.765625 -2.78125 2.109375q-1.1875 1.34375 -1.859375 3.203125q-0.671875 1.859375 -0.671875 4.03125zm42.29956 17.343758q-5.1875 0 -7.875 -3.328125q-2.6875 -3.328125 -2.6875 -9.859383l0 -20.984375l8.578125 0l0 19.125q0 7.7500076 5.578125 7.7500076q2.484375 0 4.8125 -1.5q2.34375 -1.5000076 3.828125 -4.5781326l0 -20.796875l8.5625 0l0 23.671875q0 1.3437576 0.484375 1.9218826q0.484375 0.578125 1.5625 0.640625l0 7.296875q-1.265625 0.25 -2.140625 0.3125q-0.859375 0.078125 -1.5625 0.078125q-2.3125 0 -3.75 -1.0625q-1.4375 -1.0625 -1.6875 -2.90625l-0.203125 -2.6875q-2.234375 3.453125 -5.75 5.1875q-3.515625 1.71875 -7.75 1.71875zm29.89563 -31.296883l1.40625 -7.8125l-2.5625 0l0 -8.640625l8.640625 0l0 8.78125l-2.3125 7.671875l-5.171875 0zm34.558594 4.546875q-3.90625 0.0625 -6.984375 1.5q-3.0625 1.4375 -4.40625 4.328125l0 20.281258l-8.578125 0l0 -33.531258l7.875 0l0 7.15625q0.890625 -1.71875 2.109375 -3.09375q1.21875 -1.375 2.625 -2.390625q1.40625 -1.03125 2.84375 -1.578125q1.4375 -0.546875 2.78125 -0.546875q0.703125 0 1.046875 0q0.359375 0 0.6875 0.0625l0 7.8125zm18.682068 26.750008q-4.03125 0 -7.296875 -1.375q-3.265625 -1.375 -5.578125 -3.734375q-2.296875 -2.375 -3.546875 -5.5156326q-1.234375 -3.140625 -1.234375 -6.59375q0 -3.578125 1.203125 -6.75q1.21875 -3.171875 3.515625 -5.5625q2.3125 -2.40625 5.609375 -3.8125q3.296875 -1.40625 7.390625 -1.40625q4.09375 0 7.328125 1.40625q3.234375 1.40625 5.5 3.78125q2.28125 2.359375 3.453125 5.5q1.1875 3.140625 1.1875 6.53125q0 0.828125 -0.03125 1.59375q-0.03125 0.765625 -0.15625 1.28125l-25.921875 0q0.203125 1.984375 0.96875 3.53125q0.765625 1.53125 1.984375 2.6250076q1.21875 1.078125 2.75 1.65625q1.53125 0.578125 3.203125 0.578125q2.5625 0 4.828125 -1.25q2.265625 -1.25 3.109375 -3.2968826l7.359375 2.0468826q-1.859375 3.84375 -5.921875 6.3125q-4.0625 2.453125 -9.703125 2.453125zm8.703125 -20.218758q-0.3125 -3.78125 -2.78125 -6.046875q-2.46875 -2.28125 -5.984375 -2.28125q-1.734375 0 -3.234375 0.609375q-1.5 0.609375 -2.65625 1.703125q-1.140625 1.078125 -1.890625 2.625q-0.734375 1.53125 -0.859375 3.390625l17.40625 0zm38.602173 20.218758q-2.4375 0 -4.546875 -0.796875q-2.109375 -0.796875 -3.65625 -2.234375q-1.53125 -1.453125 -2.40625 -3.375q-0.859375 -1.921875 -0.859375 -4.2187576q0 -2.375 1.0625 -4.390625q1.0625 -2.015625 2.9375 -3.421875q1.890625 -1.40625 4.515625 -2.203125q2.625 -0.796875 5.765625 -0.796875q2.234375 0 4.375 0.390625q2.15625 0.375 3.8125 1.078125l0 -1.921875q0 -3.328125 -1.890625 -5.109375q-1.890625 -1.796875 -5.59375 -1.796875q-2.6875 0 -5.25 0.96875q-2.5625 0.953125 -5.25 2.796875l-2.625 -5.4375q6.46875 -4.28125 13.953125 -4.28125q7.234375 0 11.234375 3.546875q4.0 3.546875 4.0 10.28125l0 10.421875q0 1.3437576 0.46875 1.9218826q0.484375 0.578125 1.578125 0.640625l0 7.296875q-2.171875 0.453125 -3.78125 0.453125q-2.421875 0 -3.734375 -1.09375q-1.3125 -1.09375 -1.640625 -2.875l-0.1875 -1.859375q-2.234375 2.9375 -5.4375 4.484375q-3.203125 1.53125 -6.84375 1.53125zm2.421875 -6.265625q2.171875 0 4.125 -0.765625q1.953125 -0.78125 3.046875 -2.0625q1.40625 -1.0781326 1.40625 -2.4218826l0 -3.84375q-1.53125 -0.578125 -3.328125 -0.921875q-1.796875 -0.359375 -3.453125 -0.359375q-3.328125 0 -5.4375 1.515625q-2.109375 1.5 -2.109375 3.796875q0 2.1718826 1.65625 3.6250076q1.671875 1.4375 4.09375 1.4375z" fill-rule="nonzero"/><path fill="#ffffff" d="m263.95312 213.60536l0 -25.21875l-4.421875 0l0 -6.53125l4.421875 0l0 -2.046875q0 -6.265625 3.0 -9.90625q3.015625 -3.65625 8.203125 -3.65625q4.09375 0 8.25 1.984375l-1.71875 6.46875q-0.96875 -0.515625 -2.28125 -0.859375q-1.3125 -0.359375 -2.390625 -0.359375q-4.484375 0 -4.484375 6.015625l0 2.359375l8.1875 0l0 6.53125l-8.1875 0l0 25.21875l-8.578125 0zm35.45346 0.640625q-4.09375 0 -7.359375 -1.40625q-3.265625 -1.40625 -5.546875 -3.796875q-2.265625 -2.40625 -3.484375 -5.546875q-1.203125 -3.140625 -1.203125 -6.59375q0 -3.515625 1.203125 -6.65625q1.21875 -3.140625 3.484375 -5.53125q2.28125 -2.40625 5.546875 -3.8125q3.265625 -1.40625 7.359375 -1.40625q4.09375 0 7.328125 1.40625q3.234375 1.40625 5.5 3.8125q2.28125 2.390625 3.484375 5.53125q1.21875 3.140625 1.21875 6.65625q0 3.453125 -1.21875 6.59375q-1.203125 3.140625 -3.453125 5.546875q-2.234375 2.390625 -5.5 3.796875q-3.265625 1.40625 -7.359375 1.40625zm-8.765625 -17.34375q0 2.234375 0.671875 4.0625q0.671875 1.828125 1.859375 3.171875q1.1875 1.34375 2.78125 2.078125q1.59375 0.734375 3.453125 0.734375q1.859375 0 3.453125 -0.734375q1.609375 -0.734375 2.78125 -2.078125q1.1875 -1.34375 1.859375 -3.203125q0.671875 -1.859375 0.671875 -4.09375q0 -2.171875 -0.671875 -4.03125q-0.671875 -1.859375 -1.859375 -3.203125q-1.171875 -1.34375 -2.78125 -2.078125q-1.59375 -0.734375 -3.453125 -0.734375q-1.859375 0 -3.453125 0.765625q-1.59375 0.765625 -2.78125 2.109375q-1.1875 1.34375 -1.859375 3.203125q-0.671875 1.859375 -0.671875 4.03125zm47.54956 17.34375q-4.09375 0 -7.359375 -1.40625q-3.265625 -1.40625 -5.546875 -3.796875q-2.265625 -2.40625 -3.484375 -5.546875q-1.203125 -3.140625 -1.203125 -6.59375q0 -3.515625 1.203125 -6.65625q1.21875 -3.140625 3.484375 -5.53125q2.28125 -2.40625 5.546875 -3.8125q3.265625 -1.40625 7.359375 -1.40625q4.09375 0 7.328125 1.40625q3.234375 1.40625 5.5 3.8125q2.28125 2.390625 3.484375 5.53125q1.21875 3.140625 1.21875 6.65625q0 3.453125 -1.21875 6.59375q-1.203125 3.140625 -3.453125 5.546875q-2.234375 2.390625 -5.5 3.796875q-3.265625 1.40625 -7.359375 1.40625zm-8.765625 -17.34375q0 2.234375 0.671875 4.0625q0.671875 1.828125 1.859375 3.171875q1.1875 1.34375 2.78125 2.078125q1.59375 0.734375 3.453125 0.734375q1.859375 0 3.453125 -0.734375q1.609375 -0.734375 2.78125 -2.078125q1.1875 -1.34375 1.859375 -3.203125q0.671875 -1.859375 0.671875 -4.09375q0 -2.171875 -0.671875 -4.03125q-0.671875 -1.859375 -1.859375 -3.203125q-1.171875 -1.34375 -2.78125 -2.078125q-1.59375 -0.734375 -3.453125 -0.734375q-1.859375 0 -3.453125 0.765625q-1.59375 0.765625 -2.78125 2.109375q-1.1875 1.34375 -1.859375 3.203125q-0.671875 1.859375 -0.671875 4.03125zm45.95581 17.34375q-3.453125 0 -6.40625 -1.34375q-2.9375 -1.34375 -5.0625 -3.703125q-2.109375 -2.375 -3.296875 -5.546875q-1.171875 -3.171875 -1.171875 -6.8125q0 -3.65625 1.109375 -6.78125q1.125 -3.140625 3.109375 -5.5q1.984375 -2.375 4.734375 -3.71875q2.75 -1.34375 6.015625 -1.34375q3.71875 0 6.6875 1.796875q2.984375 1.78125 4.640625 4.671875l0 -19.078125l8.578125 0l0 36.859375q0 1.34375 0.4375 1.921875q0.453125 0.578125 1.546875 0.640625l0 7.296875q-2.234375 0.453125 -3.640625 0.453125q-2.3125 0 -3.78125 -1.15625q-1.46875 -1.15625 -1.671875 -3.015625l-0.1875 -2.109375q-1.859375 3.203125 -5.03125 4.84375q-3.15625 1.625 -6.609375 1.625zm2.234375 -7.296875q1.21875 0 2.5 -0.40625q1.28125 -0.421875 2.359375 -1.1875q1.09375 -0.78125 1.953125 -1.796875q0.875 -1.03125 1.3125 -2.234375l0 -8.0q-0.515625 -1.421875 -1.4375 -2.59375q-0.921875 -1.1875 -2.109375 -2.046875q-1.1875 -0.875 -2.5 -1.375q-1.3125 -0.515625 -2.59375 -0.515625q-1.921875 0 -3.546875 0.828125q-1.625 0.828125 -2.78125 2.28125q-1.15625 1.4375 -1.796875 3.296875q-0.640625 1.84375 -0.640625 3.828125q0 2.109375 0.703125 3.90625q0.703125 1.796875 1.921875 3.140625q1.21875 1.34375 2.90625 2.109375q1.703125 0.765625 3.75 0.765625zm56.061768 7.296875q-4.03125 0 -7.296875 -1.375q-3.265625 -1.375 -5.578125 -3.734375q-2.296875 -2.375 -3.546875 -5.515625q-1.234375 -3.140625 -1.234375 -6.59375q0 -3.578125 1.203125 -6.75q1.21875 -3.171875 3.515625 -5.5625q2.3125 -2.40625 5.609375 -3.8125q3.296875 -1.40625 7.390625 -1.40625q4.09375 0 7.328125 1.40625q3.234375 1.40625 5.5 3.78125q2.28125 2.359375 3.453125 5.5q1.1875 3.140625 1.1875 6.53125q0 0.828125 -0.03125 1.59375q-0.03125 0.765625 -0.15625 1.28125l-25.921875 0q0.203125 1.984375 0.96875 3.53125q0.765625 1.53125 1.984375 2.625q1.21875 1.078125 2.75 1.65625q1.53125 0.578125 3.203125 0.578125q2.5625 0 4.828125 -1.25q2.265625 -1.25 3.109375 -3.296875l7.359375 2.046875q-1.859375 3.84375 -5.921875 6.3125q-4.0625 2.453125 -9.703125 2.453125zm8.703125 -20.21875q-0.3125 -3.78125 -2.78125 -6.046875q-2.46875 -2.28125 -5.984375 -2.28125q-1.734375 0 -3.234375 0.609375q-1.5 0.609375 -2.65625 1.703125q-1.140625 1.078125 -1.890625 2.625q-0.734375 1.53125 -0.859375 3.390625l17.40625 0zm45.257812 19.578125l-8.578125 0l0 -18.8125q0 -4.03125 -1.40625 -5.890625q-1.40625 -1.859375 -3.90625 -1.859375q-1.28125 0 -2.625 0.515625q-1.34375 0.515625 -2.53125 1.4375q-1.1875 0.921875 -2.15625 2.203125q-0.953125 1.28125 -1.390625 2.828125l0 19.578125l-8.578125 0l0 -33.53125l7.734375 0l0 6.203125q1.859375 -3.203125 5.375 -4.984375q3.53125 -1.796875 7.9375 -1.796875q3.140625 0 5.125 1.15625q1.984375 1.140625 3.0625 3.0q1.09375 1.859375 1.515625 4.234375q0.421875 2.359375 0.421875 4.796875l0 20.921875zm27.257782 -1.734375q-1.734375 0.78125 -4.234375 1.546875q-2.484375 0.765625 -5.234375 0.765625q-1.796875 0 -3.375 -0.453125q-1.5625 -0.4375 -2.75 -1.421875q-1.171875 -1.0 -1.875 -2.5625q-0.703125 -1.578125 -0.703125 -3.828125l0 -19.25l-4.421875 0l0 -6.59375l4.421875 0l0 -10.890625l8.578125 0l0 10.890625l7.03125 0l0 6.59375l-7.03125 0l0 16.375q0 1.796875 0.921875 2.53125q0.921875 0.734375 2.265625 0.734375q1.34375 0 2.625 -0.4375q1.28125 -0.453125 2.046875 -0.78125l1.734375 6.78125zm24.450989 -24.375q-3.90625 0.0625 -6.984375 1.5q-3.0625 1.4375 -4.40625 4.328125l0 20.28125l-8.578125 0l0 -33.53125l7.875 0l0 7.15625q0.890625 -1.71875 2.109375 -3.09375q1.21875 -1.375 2.625 -2.390625q1.40625 -1.03125 2.84375 -1.578125q1.4375 -0.546875 2.78125 -0.546875q0.703125 0 1.046875 0q0.359375 0 0.6875 0.0625l0 7.8125zm18.682068 26.75q-4.03125 0 -7.296875 -1.375q-3.265625 -1.375 -5.578125 -3.734375q-2.296875 -2.375 -3.546875 -5.515625q-1.234375 -3.140625 -1.234375 -6.59375q0 -3.578125 1.203125 -6.75q1.21875 -3.171875 3.515625 -5.5625q2.3125 -2.40625 5.609375 -3.8125q3.296875 -1.40625 7.390625 -1.40625q4.09375 0 7.328125 1.40625q3.234375 1.40625 5.5 3.78125q2.28125 2.359375 3.453125 5.5q1.1875 3.140625 1.1875 6.53125q0 0.828125 -0.03125 1.59375q-0.03125 0.765625 -0.15625 1.28125l-25.921875 0q0.203125 1.984375 0.96875 3.53125q0.765625 1.53125 1.984375 2.625q1.21875 1.078125 2.75 1.65625q1.53125 0.578125 3.203125 0.578125q2.5625 0 4.828125 -1.25q2.265625 -1.25 3.109375 -3.296875l7.359375 2.046875q-1.859375 3.84375 -5.921875 6.3125q-4.0625 2.453125 -9.703125 2.453125zm8.703125 -20.21875q-0.3125 -3.78125 -2.78125 -6.046875q-2.46875 -2.28125 -5.984375 -2.28125q-1.734375 0 -3.234375 0.609375q-1.5 0.609375 -2.65625 1.703125q-1.140625 1.078125 -1.890625 2.625q-0.734375 1.53125 -0.859375 3.390625l17.40625 0zm34.179688 20.21875q-3.96875 0 -6.921875 -1.75q-2.9375 -1.765625 -4.59375 -4.78125l0 19.515625l-8.578125 0l0 -47.15625l7.484375 0l0 5.75q1.859375 -2.9375 4.796875 -4.625q2.953125 -1.703125 6.78125 -1.703125q3.40625 0 6.28125 1.375q2.875 1.375 4.953125 3.71875q2.078125 2.328125 3.265625 5.5q1.1875 3.15625 1.1875 6.6875q0 3.640625 -1.09375 6.84375q-1.078125 3.203125 -3.03125 5.578125q-1.953125 2.359375 -4.640625 3.703125q-2.6875 1.34375 -5.890625 1.34375zm-2.875 -7.296875q1.921875 0 3.546875 -0.828125q1.625 -0.828125 2.78125 -2.234375q1.15625 -1.421875 1.796875 -3.265625q0.640625 -1.859375 0.640625 -3.84375q0 -2.109375 -0.703125 -3.9375q-0.703125 -1.828125 -1.953125 -3.171875q-1.25 -1.34375 -2.953125 -2.109375q-1.6875 -0.765625 -3.671875 -0.765625q-1.21875 0 -2.5 0.421875q-1.28125 0.40625 -2.375 1.171875q-1.078125 0.765625 -1.953125 1.796875q-0.859375 1.015625 -1.296875 2.234375l0 7.875q1.140625 2.875 3.515625 4.765625q2.375 1.890625 5.125 1.890625zm43.325928 -19.453125q-3.90625 0.0625 -6.984375 1.5q-3.0625 1.4375 -4.40625 4.328125l0 20.28125l-8.578125 0l0 -33.53125l7.875 0l0 7.15625q0.890625 -1.71875 2.109375 -3.09375q1.21875 -1.375 2.625 -2.390625q1.40625 -1.03125 2.84375 -1.578125q1.4375 -0.546875 2.78125 -0.546875q0.703125 0 1.046875 0q0.359375 0 0.6875 0.0625l0 7.8125zm18.682068 26.75q-4.03125 0 -7.296875 -1.375q-3.265625 -1.375 -5.578125 -3.734375q-2.296875 -2.375 -3.546875 -5.515625q-1.234375 -3.140625 -1.234375 -6.59375q0 -3.578125 1.203125 -6.75q1.21875 -3.171875 3.515625 -5.5625q2.3125 -2.40625 5.609375 -3.8125q3.296875 -1.40625 7.390625 -1.40625q4.09375 0 7.328125 1.40625q3.234375 1.40625 5.5 3.78125q2.28125 2.359375 3.453125 5.5q1.1875 3.140625 1.1875 6.53125q0 0.828125 -0.03125 1.59375q-0.03125 0.765625 -0.15625 1.28125l-25.921875 0q0.203125 1.984375 0.96875 3.53125q0.765625 1.53125 1.984375 2.625q1.21875 1.078125 2.75 1.65625q1.53125 0.578125 3.203125 0.578125q2.5625 0 4.828125 -1.25q2.265625 -1.25 3.109375 -3.296875l7.359375 2.046875q-1.859375 3.84375 -5.921875 6.3125q-4.0625 2.453125 -9.703125 2.453125zm8.703125 -20.21875q-0.3125 -3.78125 -2.78125 -6.046875q-2.46875 -2.28125 -5.984375 -2.28125q-1.734375 0 -3.234375 0.609375q-1.5 0.609375 -2.65625 1.703125q-1.140625 1.078125 -1.890625 2.625q-0.734375 1.53125 -0.859375 3.390625l17.40625 0zm45.257812 19.578125l-8.578125 0l0 -18.8125q0 -4.03125 -1.40625 -5.890625q-1.40625 -1.859375 -3.90625 -1.859375q-1.28125 0 -2.625 0.515625q-1.34375 0.515625 -2.53125 1.4375q-1.1875 0.921875 -2.15625 2.203125q-0.953125 1.28125 -1.390625 2.828125l0 19.578125l-8.578125 0l0 -33.53125l7.734375 0l0 6.203125q1.859375 -3.203125 5.375 -4.984375q3.53125 -1.796875 7.9375 -1.796875q3.140625 0 5.125 1.15625q1.984375 1.140625 3.0625 3.0q1.09375 1.859375 1.515625 4.234375q0.421875 2.359375 0.421875 4.796875l0 20.921875zm23.030945 0.640625q-4.03125 0 -7.296875 -1.375q-3.265625 -1.375 -5.578125 -3.734375q-2.296875 -2.375 -3.546875 -5.515625q-1.234375 -3.140625 -1.234375 -6.59375q0 -3.578125 1.203125 -6.75q1.21875 -3.171875 3.515625 -5.5625q2.3125 -2.40625 5.609375 -3.8125q3.296875 -1.40625 7.390625 -1.40625q4.09375 0 7.328125 1.40625q3.234375 1.40625 5.5 3.78125q2.28125 2.359375 3.453125 5.5q1.1875 3.140625 1.1875 6.53125q0 0.828125 -0.03125 1.59375q-0.03125 0.765625 -0.15625 1.28125l-25.921875 0q0.203125 1.984375 0.96875 3.53125q0.765625 1.53125 1.984375 2.625q1.21875 1.078125 2.75 1.65625q1.53125 0.578125 3.203125 0.578125q2.5625 0 4.828125 -1.25q2.265625 -1.25 3.109375 -3.296875l7.359375 2.046875q-1.859375 3.84375 -5.921875 6.3125q-4.0625 2.453125 -9.703125 2.453125zm8.703125 -20.21875q-0.3125 -3.78125 -2.78125 -6.046875q-2.46875 -2.28125 -5.984375 -2.28125q-1.734375 0 -3.234375 0.609375q-1.5 0.609375 -2.65625 1.703125q-1.140625 1.078125 -1.890625 2.625q-0.734375 1.53125 -0.859375 3.390625l17.40625 0zm24.320312 20.21875q-5.1875 0 -7.875 -3.328125q-2.6875 -3.328125 -2.6875 -9.859375l0 -20.984375l8.578125 0l0 19.125q0 7.75 5.578125 7.75q2.484375 0 4.8125 -1.5q2.34375 -1.5 3.828125 -4.578125l0 -20.796875l8.5625 0l0 23.671875q0 1.34375 0.484375 1.921875q0.484375 0.578125 1.5625 0.640625l0 7.296875q-1.265625 0.25 -2.140625 0.3125q-0.859375 0.078125 -1.5625 0.078125q-2.3125 0 -3.75 -1.0625q-1.4375 -1.0625 -1.6875 -2.90625l-0.203125 -2.6875q-2.234375 3.453125 -5.75 5.1875q-3.515625 1.71875 -7.75 1.71875zm49.286316 -26.75q-3.90625 0.0625 -6.984375 1.5q-3.0625 1.4375 -4.40625 4.328125l0 20.28125l-8.578125 0l0 -33.53125l7.875 0l0 7.15625q0.890625 -1.71875 2.109375 -3.09375q1.21875 -1.375 2.625 -2.390625q1.40625 -1.03125 2.84375 -1.578125q1.4375 -0.546875 2.78125 -0.546875q0.703125 0 1.046875 0q0.359375 0 0.6875 0.0625l0 7.8125z" fill-rule="nonzero"/><path fill="#000000" fill-opacity="0.0" d="m250.94664 339.99475l664.7244 0l0 130.36221l-664.7244 0z" fill-rule="evenodd"/><path fill="#ffffff" d="m260.11853 409.19382l1.921875 0q0.3125 0 0.515625 0.15625q0.203125 0.15625 0.28125 0.40625l3.546875 11.953125q0.109375 0.3125 0.1875 0.6875q0.078125 0.375 0.140625 0.78125q0.09375 -0.40625 0.171875 -0.78125q0.078125 -0.375 0.1875 -0.6875l4.046875 -11.953125q0.078125 -0.203125 0.28125 -0.375q0.21875 -0.1875 0.515625 -0.1875l0.671875 0q0.3125 0 0.5 0.15625q0.203125 0.15625 0.28125 0.40625l4.03125 11.953125q0.21875 0.625 0.375 1.421875q0.078125 -0.390625 0.140625 -0.75q0.0625 -0.359375 0.15625 -0.671875l3.5625 -11.953125q0.0625 -0.21875 0.265625 -0.390625q0.21875 -0.171875 0.515625 -0.171875l1.8125 0l-5.375 17.203125l-2.078125 0l-4.359375 -13.109375q-0.125 -0.375 -0.234375 -0.875q-0.0625 0.25 -0.125 0.46875q-0.046875 0.21875 -0.109375 0.40625l-4.375 13.109375l-2.09375 0l-5.359375 -17.203125zm26.034302 17.203125l0 -17.671875l2.140625 0l0 7.140625q0.78125 -0.828125 1.71875 -1.3125q0.953125 -0.5 2.1875 -0.5q1.0 0 1.75 0.328125q0.765625 0.328125 1.28125 0.9375q0.515625 0.609375 0.78125 1.46875q0.265625 0.84375 0.265625 1.875l0 7.734375l-2.140625 0l0 -7.734375q0 -1.390625 -0.640625 -2.140625q-0.625 -0.765625 -1.921875 -0.765625q-0.9375 0 -1.765625 0.453125q-0.828125 0.453125 -1.515625 1.234375l0 8.953125l-2.140625 0zm22.281586 0l-0.953125 0q-0.3125 0 -0.515625 -0.09375q-0.1875 -0.09375 -0.25 -0.40625l-0.234375 -1.125q-0.484375 0.421875 -0.9375 0.765625q-0.453125 0.34375 -0.953125 0.578125q-0.5 0.234375 -1.078125 0.34375q-0.5625 0.125 -1.265625 0.125q-0.703125 0 -1.328125 -0.1875q-0.609375 -0.203125 -1.078125 -0.59375q-0.453125 -0.40625 -0.71875 -1.0q-0.265625 -0.609375 -0.265625 -1.4375q0 -0.71875 0.390625 -1.390625q0.390625 -0.671875 1.265625 -1.1875q0.890625 -0.515625 2.3125 -0.84375q1.4375 -0.328125 3.5 -0.375l0 -0.953125q0 -1.40625 -0.609375 -2.125q-0.59375 -0.734375 -1.78125 -0.734375q-0.78125 0 -1.328125 0.203125q-0.53125 0.1875 -0.921875 0.4375q-0.390625 0.25 -0.671875 0.453125q-0.28125 0.1875 -0.546875 0.1875q-0.21875 0 -0.390625 -0.109375q-0.15625 -0.125 -0.25 -0.28125l-0.390625 -0.6875q1.015625 -0.96875 2.171875 -1.453125q1.171875 -0.484375 2.578125 -0.484375q1.03125 0 1.8125 0.34375q0.796875 0.328125 1.328125 0.9375q0.546875 0.59375 0.828125 1.453125q0.28125 0.84375 0.28125 1.859375l0 7.78125zm-5.546875 -1.3125q0.5625 0 1.03125 -0.109375q0.46875 -0.109375 0.875 -0.3125q0.421875 -0.21875 0.796875 -0.515625q0.375 -0.3125 0.734375 -0.6875l0 -2.53125q-1.46875 0.046875 -2.5 0.234375q-1.03125 0.1875 -1.6875 0.484375q-0.640625 0.296875 -0.9375 0.703125q-0.296875 0.40625 -0.296875 0.921875q0 0.46875 0.15625 0.828125q0.15625 0.34375 0.421875 0.5625q0.265625 0.21875 0.625 0.328125q0.359375 0.09375 0.78125 0.09375zm12.464966 1.5q-1.4375 0 -2.21875 -0.796875q-0.765625 -0.8125 -0.765625 -2.3125l0 -7.453125l-1.46875 0q-0.1875 0 -0.328125 -0.109375q-0.125 -0.109375 -0.125 -0.359375l0 -0.84375l1.984375 -0.25l0.5 -3.765625q0.015625 -0.171875 0.140625 -0.28125q0.140625 -0.125 0.34375 -0.125l1.078125 0l0 4.1875l3.484375 0l0 1.546875l-3.484375 0l0 7.296875q0 0.78125 0.375 1.15625q0.375 0.359375 0.96875 0.359375q0.328125 0 0.578125 -0.078125q0.25 -0.09375 0.421875 -0.203125q0.1875 -0.109375 0.3125 -0.203125q0.125 -0.09375 0.21875 -0.09375q0.171875 0 0.296875 0.203125l0.625 1.03125q-0.546875 0.515625 -1.328125 0.8125q-0.78125 0.28125 -1.609375 0.28125zm13.459106 3.40625q-0.109375 0.234375 -0.265625 0.375q-0.15625 0.140625 -0.5 0.140625l-1.578125 0l2.21875 -4.8125l-5.015625 -11.453125l1.84375 0q0.28125 0 0.4375 0.140625q0.15625 0.140625 0.21875 0.296875l3.25 7.65625q0.109375 0.265625 0.1875 0.53125q0.078125 0.265625 0.140625 0.546875q0.09375 -0.28125 0.171875 -0.546875q0.078125 -0.265625 0.1875 -0.53125l3.15625 -7.65625q0.078125 -0.1875 0.25 -0.3125q0.171875 -0.125 0.375 -0.125l1.703125 0l-6.78125 15.75zm13.335449 -15.9375q1.328125 0 2.40625 0.453125q1.078125 0.4375 1.828125 1.25q0.75 0.8125 1.140625 1.96875q0.40625 1.15625 0.40625 2.59375q0 1.4375 -0.40625 2.59375q-0.390625 1.140625 -1.140625 1.96875q-0.75 0.8125 -1.828125 1.25q-1.078125 0.4375 -2.40625 0.4375q-1.328125 0 -2.40625 -0.4375q-1.078125 -0.4375 -1.828125 -1.25q-0.75 -0.828125 -1.171875 -1.96875q-0.40625 -1.15625 -0.40625 -2.59375q0 -1.4375 0.40625 -2.59375q0.421875 -1.15625 1.171875 -1.96875q0.75 -0.8125 1.828125 -1.25q1.078125 -0.453125 2.40625 -0.453125zm0 10.84375q1.796875 0 2.6875 -1.203125q0.890625 -1.203125 0.890625 -3.375q0 -2.171875 -0.890625 -3.375q-0.890625 -1.21875 -2.6875 -1.21875q-0.90625 0 -1.578125 0.3125q-0.671875 0.3125 -1.125 0.90625q-0.453125 0.578125 -0.671875 1.4375q-0.21875 0.859375 -0.21875 1.9375q0 1.09375 0.21875 1.953125q0.21875 0.84375 0.671875 1.421875q0.453125 0.578125 1.125 0.890625q0.671875 0.3125 1.578125 0.3125zm10.265991 -10.65625l0 7.75q0 1.375 0.640625 2.140625q0.640625 0.75 1.921875 0.75q0.9375 0 1.765625 -0.4375q0.828125 -0.453125 1.515625 -1.234375l0 -8.96875l2.140625 0l0 12.15625l-1.265625 0q-0.453125 0 -0.578125 -0.4375l-0.171875 -1.3125q-0.796875 0.875 -1.78125 1.40625q-0.984375 0.53125 -2.25 0.53125q-1.0 0 -1.765625 -0.328125q-0.75 -0.328125 -1.265625 -0.921875q-0.515625 -0.609375 -0.78125 -1.453125q-0.25 -0.859375 -0.25 -1.890625l0 -7.75l2.125 0zm23.101135 2.0q-0.15625 0.265625 -0.453125 0.265625q-0.171875 0 -0.40625 -0.125q-0.234375 -0.140625 -0.5625 -0.296875q-0.328125 -0.15625 -0.78125 -0.296875q-0.453125 -0.140625 -1.078125 -0.140625q-0.546875 0 -0.984375 0.140625q-0.421875 0.140625 -0.734375 0.375q-0.296875 0.234375 -0.46875 0.5625q-0.15625 0.3125 -0.15625 0.6875q0 0.46875 0.265625 0.78125q0.28125 0.3125 0.71875 0.546875q0.453125 0.21875 1.015625 0.390625q0.5625 0.171875 1.15625 0.375q0.59375 0.1875 1.15625 0.4375q0.5625 0.234375 1.0 0.59375q0.453125 0.359375 0.71875 0.890625q0.265625 0.515625 0.265625 1.25q0 0.84375 -0.296875 1.5625q-0.296875 0.703125 -0.890625 1.234375q-0.578125 0.515625 -1.4375 0.8125q-0.84375 0.296875 -1.96875 0.296875q-1.265625 0 -2.296875 -0.40625q-1.03125 -0.421875 -1.75 -1.0625l0.5 -0.8125q0.09375 -0.15625 0.21875 -0.234375q0.140625 -0.09375 0.359375 -0.09375q0.21875 0 0.453125 0.171875q0.234375 0.15625 0.578125 0.359375q0.34375 0.203125 0.828125 0.375q0.484375 0.171875 1.21875 0.171875q0.625 0 1.09375 -0.15625q0.46875 -0.171875 0.78125 -0.4375q0.3125 -0.28125 0.453125 -0.640625q0.15625 -0.359375 0.15625 -0.765625q0 -0.515625 -0.265625 -0.84375q-0.265625 -0.328125 -0.71875 -0.5625q-0.4375 -0.234375 -1.015625 -0.40625q-0.5625 -0.171875 -1.15625 -0.359375q-0.59375 -0.203125 -1.171875 -0.4375q-0.5625 -0.25 -1.015625 -0.625q-0.4375 -0.375 -0.71875 -0.921875q-0.265625 -0.546875 -0.265625 -1.3125q0 -0.703125 0.28125 -1.34375q0.296875 -0.640625 0.84375 -1.125q0.5625 -0.484375 1.359375 -0.765625q0.8125 -0.296875 1.84375 -0.296875q1.203125 0 2.15625 0.375q0.953125 0.375 1.640625 1.03125l-0.46875 0.78125zm3.4473267 10.15625l0 -17.671875l2.140625 0l0 7.140625q0.78125 -0.828125 1.71875 -1.3125q0.953125 -0.5 2.1875 -0.5q1.0 0 1.75 0.328125q0.765625 0.328125 1.28125 0.9375q0.515625 0.609375 0.78125 1.46875q0.265625 0.84375 0.265625 1.875l0 7.734375l-2.140625 0l0 -7.734375q0 -1.390625 -0.640625 -2.140625q-0.625 -0.765625 -1.921875 -0.765625q-0.9375 0 -1.765625 0.453125q-0.828125 0.453125 -1.515625 1.234375l0 8.953125l-2.140625 0zm18.26596 -12.34375q1.328125 0 2.40625 0.453125q1.078125 0.4375 1.828125 1.25q0.75 0.8125 1.140625 1.96875q0.40625 1.15625 0.40625 2.59375q0 1.4375 -0.40625 2.59375q-0.390625 1.140625 -1.140625 1.96875q-0.75 0.8125 -1.828125 1.25q-1.078125 0.4375 -2.40625 0.4375q-1.328125 0 -2.40625 -0.4375q-1.078125 -0.4375 -1.828125 -1.25q-0.75 -0.828125 -1.171875 -1.96875q-0.40625 -1.15625 -0.40625 -2.59375q0 -1.4375 0.40625 -2.59375q0.421875 -1.15625 1.171875 -1.96875q0.75 -0.8125 1.828125 -1.25q1.078125 -0.453125 2.40625 -0.453125zm0 10.84375q1.796875 0 2.6875 -1.203125q0.890625 -1.203125 0.890625 -3.375q0 -2.171875 -0.890625 -3.375q-0.890625 -1.21875 -2.6875 -1.21875q-0.90625 0 -1.578125 0.3125q-0.671875 0.3125 -1.125 0.90625q-0.453125 0.578125 -0.671875 1.4375q-0.21875 0.859375 -0.21875 1.9375q0 1.09375 0.21875 1.953125q0.21875 0.84375 0.671875 1.421875q0.453125 0.578125 1.125 0.890625q0.671875 0.3125 1.578125 0.3125zm10.265991 -10.65625l0 7.75q0 1.375 0.640625 2.140625q0.640625 0.75 1.921875 0.75q0.9375 0 1.765625 -0.4375q0.828125 -0.453125 1.515625 -1.234375l0 -8.96875l2.140625 0l0 12.15625l-1.265625 0q-0.453125 0 -0.578125 -0.4375l-0.171875 -1.3125q-0.796875 0.875 -1.78125 1.40625q-0.984375 0.53125 -2.25 0.53125q-1.0 0 -1.765625 -0.328125q-0.75 -0.328125 -1.265625 -0.921875q-0.515625 -0.609375 -0.78125 -1.453125q-0.25 -0.859375 -0.25 -1.890625l0 -7.75l2.125 0zm13.875336 -5.515625l0 17.671875l-2.140625 0l0 -17.671875l2.140625 0zm12.331543 17.671875q-0.453125 0 -0.578125 -0.4375l-0.1875 -1.484375q-0.78125 0.953125 -1.796875 1.53125q-1.0 0.5625 -2.296875 0.5625q-1.03125 0 -1.890625 -0.40625q-0.84375 -0.40625 -1.453125 -1.1875q-0.59375 -0.78125 -0.921875 -1.9375q-0.328125 -1.171875 -0.328125 -2.671875q0 -1.34375 0.359375 -2.5q0.359375 -1.171875 1.03125 -2.015625q0.6875 -0.859375 1.65625 -1.34375q0.984375 -0.484375 2.21875 -0.484375q1.109375 0 1.890625 0.390625q0.796875 0.375 1.421875 1.046875l0 -6.734375l2.140625 0l0 17.671875l-1.265625 0zm-4.140625 -1.5625q1.046875 0 1.828125 -0.46875q0.78125 -0.484375 1.4375 -1.359375l0 -5.890625q-0.578125 -0.78125 -1.28125 -1.09375q-0.703125 -0.328125 -1.5625 -0.328125q-1.703125 0 -2.609375 1.21875q-0.90625 1.203125 -0.90625 3.453125q0 1.1875 0.203125 2.03125q0.203125 0.84375 0.59375 1.390625q0.390625 0.546875 0.96875 0.796875q0.578125 0.25 1.328125 0.25zm15.845001 -16.109375l0 10.40625l0.5625 0q0.234375 0 0.390625 -0.0625q0.15625 -0.078125 0.34375 -0.28125l3.84375 -4.109375q0.171875 -0.203125 0.34375 -0.3125q0.1875 -0.125 0.5 -0.125l1.9375 0l-4.46875 4.765625q-0.171875 0.203125 -0.34375 0.359375q-0.15625 0.15625 -0.359375 0.28125q0.21875 0.140625 0.390625 0.328125q0.171875 0.1875 0.328125 0.421875l4.75 6.0l-1.921875 0q-0.25 0 -0.4375 -0.09375q-0.1875 -0.109375 -0.359375 -0.328125l-4.0 -4.984375q-0.171875 -0.25 -0.359375 -0.328125q-0.171875 -0.078125 -0.53125 -0.078125l-0.609375 0l0 5.8125l-2.140625 0l0 -17.671875l2.140625 0zm10.357361 17.671875l0 -12.15625l1.28125 0q0.453125 0 0.5625 0.4375l0.171875 1.328125q0.796875 -0.875 1.765625 -1.40625q0.984375 -0.546875 2.265625 -0.546875q1.0 0 1.75 0.328125q0.765625 0.328125 1.28125 0.9375q0.515625 0.609375 0.78125 1.46875q0.265625 0.84375 0.265625 1.875l0 7.734375l-2.140625 0l0 -7.734375q0 -1.390625 -0.640625 -2.140625q-0.625 -0.765625 -1.921875 -0.765625q-0.9375 0 -1.765625 0.453125q-0.828125 0.453125 -1.515625 1.234375l0 8.953125l-2.140625 0zm18.26596 -12.34375q1.328125 0 2.40625 0.453125q1.078125 0.4375 1.828125 1.25q0.75 0.8125 1.140625 1.96875q0.40625 1.15625 0.40625 2.59375q0 1.4375 -0.40625 2.59375q-0.390625 1.140625 -1.140625 1.96875q-0.75 0.8125 -1.828125 1.25q-1.078125 0.4375 -2.40625 0.4375q-1.328125 0 -2.40625 -0.4375q-1.078125 -0.4375 -1.828125 -1.25q-0.75 -0.828125 -1.171875 -1.96875q-0.40625 -1.15625 -0.40625 -2.59375q0 -1.4375 0.40625 -2.59375q0.421875 -1.15625 1.171875 -1.96875q0.75 -0.8125 1.828125 -1.25q1.078125 -0.453125 2.40625 -0.453125zm0 10.84375q1.796875 0 2.6875 -1.203125q0.890625 -1.203125 0.890625 -3.375q0 -2.171875 -0.890625 -3.375q-0.890625 -1.21875 -2.6875 -1.21875q-0.90625 0 -1.578125 0.3125q-0.671875 0.3125 -1.125 0.90625q-0.453125 0.578125 -0.671875 1.4375q-0.21875 0.859375 -0.21875 1.9375q0 1.09375 0.21875 1.953125q0.21875 0.84375 0.671875 1.421875q0.453125 0.578125 1.125 0.890625q0.671875 0.3125 1.578125 0.3125zm6.844116 -10.65625l1.671875 0q0.265625 0 0.4375 0.140625q0.171875 0.125 0.234375 0.296875l2.328125 7.828125q0.09375 0.4375 0.171875 0.84375q0.078125 0.390625 0.140625 0.796875q0.09375 -0.40625 0.21875 -0.796875q0.125 -0.40625 0.25 -0.84375l2.578125 -7.875q0.046875 -0.171875 0.203125 -0.296875q0.15625 -0.125 0.375 -0.125l0.921875 0q0.25 0 0.40625 0.125q0.15625 0.125 0.203125 0.296875l2.515625 7.875q0.125 0.421875 0.234375 0.828125q0.109375 0.40625 0.203125 0.8125q0.046875 -0.40625 0.140625 -0.828125q0.109375 -0.4375 0.21875 -0.8125l2.375 -7.828125q0.0625 -0.1875 0.21875 -0.3125q0.171875 -0.125 0.40625 -0.125l1.609375 0l-3.9375 12.15625l-1.703125 0q-0.3125 0 -0.421875 -0.40625l-2.6875 -8.25q-0.09375 -0.265625 -0.15625 -0.546875q-0.0625 -0.28125 -0.125 -0.5625q-0.0625 0.28125 -0.125 0.5625q-0.046875 0.28125 -0.15625 0.5625l-2.71875 8.234375q-0.125 0.40625 -0.484375 0.40625l-1.609375 0l-3.9375 -12.15625zm24.672394 12.15625l0 -17.671875l2.140625 0l0 7.265625q0.765625 -0.875 1.734375 -1.40625q0.984375 -0.53125 2.234375 -0.53125q1.0625 0 1.90625 0.390625q0.859375 0.390625 1.453125 1.1875q0.609375 0.78125 0.921875 1.9375q0.328125 1.15625 0.328125 2.671875q0 1.34375 -0.359375 2.5q-0.359375 1.15625 -1.046875 2.015625q-0.671875 0.84375 -1.65625 1.328125q-0.96875 0.484375 -2.1875 0.484375q-1.171875 0 -2.0 -0.453125q-0.828125 -0.46875 -1.4375 -1.28125l-0.109375 1.109375q-0.09375 0.453125 -0.546875 0.453125l-1.375 0zm5.421875 -10.640625q-1.046875 0 -1.84375 0.484375q-0.78125 0.46875 -1.4375 1.34375l0 5.890625q0.578125 0.78125 1.28125 1.109375q0.703125 0.328125 1.5625 0.328125q1.703125 0 2.609375 -1.203125q0.921875 -1.21875 0.921875 -3.46875q0 -1.1875 -0.21875 -2.03125q-0.203125 -0.859375 -0.609375 -1.40625q-0.390625 -0.546875 -0.96875 -0.796875q-0.5625 -0.25 -1.296875 -0.25zm12.728577 -1.703125q1.09375 0 2.015625 0.375q0.921875 0.359375 1.59375 1.046875q0.671875 0.6875 1.046875 1.703125q0.390625 1.015625 0.390625 2.3125q0 0.5 -0.109375 0.671875q-0.109375 0.15625 -0.40625 0.15625l-8.09375 0q0.03125 1.15625 0.3125 2.015625q0.28125 0.84375 0.78125 1.421875q0.515625 0.5625 1.203125 0.84375q0.703125 0.28125 1.5625 0.28125q0.8125 0 1.390625 -0.1875q0.578125 -0.1875 1.0 -0.390625q0.421875 -0.21875 0.703125 -0.40625q0.28125 -0.1875 0.484375 -0.1875q0.265625 0 0.40625 0.203125l0.609375 0.78125q-0.40625 0.484375 -0.953125 0.84375q-0.546875 0.34375 -1.1875 0.578125q-0.625 0.21875 -1.296875 0.328125q-0.671875 0.125 -1.328125 0.125q-1.265625 0 -2.328125 -0.421875q-1.0625 -0.4375 -1.84375 -1.25q-0.765625 -0.828125 -1.203125 -2.03125q-0.421875 -1.21875 -0.421875 -2.796875q0 -1.265625 0.390625 -2.359375q0.390625 -1.109375 1.109375 -1.921875q0.734375 -0.8125 1.796875 -1.265625q1.0625 -0.46875 2.375 -0.46875zm0.046875 1.5625q-1.546875 0 -2.4375 0.90625q-0.890625 0.890625 -1.09375 2.46875l6.609375 0q0 -0.734375 -0.203125 -1.359375q-0.203125 -0.625 -0.609375 -1.0625q-0.390625 -0.453125 -0.96875 -0.703125q-0.5625 -0.25 -1.296875 -0.25zm8.201111 10.78125l0 -10.328125l-1.34375 -0.15625q-0.25 -0.0625 -0.421875 -0.1875q-0.15625 -0.125 -0.15625 -0.375l0 -0.875l1.921875 0l0 -1.171875q0 -1.046875 0.28125 -1.84375q0.296875 -0.8125 0.84375 -1.375q0.546875 -0.5625 1.3125 -0.84375q0.78125 -0.296875 1.734375 -0.296875q0.8125 0 1.515625 0.25l-0.046875 1.0625q-0.015625 0.234375 -0.21875 0.296875q-0.1875 0.046875 -0.53125 0.046875l-0.375 0q-0.546875 0 -1.0 0.140625q-0.453125 0.140625 -0.78125 0.46875q-0.3125 0.3125 -0.484375 0.84375q-0.171875 0.53125 -0.171875 1.3125l0 1.109375l3.515625 0l0 1.546875l-3.453125 0l0 10.375l-2.140625 0zm12.525574 -12.34375q1.328125 0 2.40625 0.453125q1.078125 0.4375 1.828125 1.25q0.75 0.8125 1.140625 1.96875q0.40625 1.15625 0.40625 2.59375q0 1.4375 -0.40625 2.59375q-0.390625 1.140625 -1.140625 1.96875q-0.75 0.8125 -1.828125 1.25q-1.078125 0.4375 -2.40625 0.4375q-1.328125 0 -2.40625 -0.4375q-1.078125 -0.4375 -1.828125 -1.25q-0.75 -0.828125 -1.171875 -1.96875q-0.40625 -1.15625 -0.40625 -2.59375q0 -1.4375 0.40625 -2.59375q0.421875 -1.15625 1.171875 -1.96875q0.75 -0.8125 1.828125 -1.25q1.078125 -0.453125 2.40625 -0.453125zm0 10.84375q1.796875 0 2.6875 -1.203125q0.890625 -1.203125 0.890625 -3.375q0 -2.171875 -0.890625 -3.375q-0.890625 -1.21875 -2.6875 -1.21875q-0.90625 0 -1.578125 0.3125q-0.671875 0.3125 -1.125 0.90625q-0.453125 0.578125 -0.671875 1.4375q-0.21875 0.859375 -0.21875 1.9375q0 1.09375 0.21875 1.953125q0.21875 0.84375 0.671875 1.421875q0.453125 0.578125 1.125 0.890625q0.671875 0.3125 1.578125 0.3125zm8.422241 1.5l0 -12.15625l1.21875 0q0.359375 0 0.484375 0.140625q0.140625 0.125 0.1875 0.453125l0.140625 1.890625q0.625 -1.265625 1.53125 -1.984375q0.921875 -0.71875 2.15625 -0.71875q0.515625 0 0.921875 0.125q0.40625 0.109375 0.75 0.3125l-0.265625 1.59375q-0.09375 0.296875 -0.375 0.296875q-0.171875 0 -0.53125 -0.109375q-0.34375 -0.109375 -0.953125 -0.109375q-1.125 0 -1.875 0.65625q-0.75 0.640625 -1.25 1.875l0 7.734375l-2.140625 0zm14.484558 -12.34375q1.09375 0 2.015625 0.375q0.921875 0.359375 1.59375 1.046875q0.671875 0.6875 1.046875 1.703125q0.390625 1.015625 0.390625 2.3125q0 0.5 -0.109375 0.671875q-0.109375 0.15625 -0.40625 0.15625l-8.09375 0q0.03125 1.15625 0.3125 2.015625q0.28125 0.84375 0.78125 1.421875q0.515625 0.5625 1.203125 0.84375q0.703125 0.28125 1.5625 0.28125q0.8125 0 1.390625 -0.1875q0.578125 -0.1875 1.0 -0.390625q0.421875 -0.21875 0.703125 -0.40625q0.28125 -0.1875 0.484375 -0.1875q0.265625 0 0.40625 0.203125l0.609375 0.78125q-0.40625 0.484375 -0.953125 0.84375q-0.546875 0.34375 -1.1875 0.578125q-0.625 0.21875 -1.296875 0.328125q-0.671875 0.125 -1.328125 0.125q-1.265625 0 -2.328125 -0.421875q-1.0625 -0.4375 -1.84375 -1.25q-0.765625 -0.828125 -1.203125 -2.03125q-0.421875 -1.21875 -0.421875 -2.796875q0 -1.265625 0.390625 -2.359375q0.390625 -1.109375 1.109375 -1.921875q0.734375 -0.8125 1.796875 -1.265625q1.0625 -0.46875 2.375 -0.46875zm0.046875 1.5625q-1.546875 0 -2.4375 0.90625q-0.890625 0.890625 -1.09375 2.46875l6.609375 0q0 -0.734375 -0.203125 -1.359375q-0.203125 -0.625 -0.609375 -1.0625q-0.390625 -0.453125 -0.96875 -0.703125q-0.5625 -0.25 -1.296875 -0.25zm17.27063 -1.5625q1.328125 0 2.40625 0.453125q1.078125 0.4375 1.828125 1.25q0.75 0.8125 1.140625 1.96875q0.40625 1.15625 0.40625 2.59375q0 1.4375 -0.40625 2.59375q-0.390625 1.140625 -1.140625 1.96875q-0.75 0.8125 -1.828125 1.25q-1.078125 0.4375 -2.40625 0.4375q-1.328125 0 -2.40625 -0.4375q-1.078125 -0.4375 -1.828125 -1.25q-0.75 -0.828125 -1.171875 -1.96875q-0.40625 -1.15625 -0.40625 -2.59375q0 -1.4375 0.40625 -2.59375q0.421875 -1.15625 1.171875 -1.96875q0.75 -0.8125 1.828125 -1.25q1.078125 -0.453125 2.40625 -0.453125zm0 10.84375q1.796875 0 2.6875 -1.203125q0.890625 -1.203125 0.890625 -3.375q0 -2.171875 -0.890625 -3.375q-0.890625 -1.21875 -2.6875 -1.21875q-0.90625 0 -1.578125 0.3125q-0.671875 0.3125 -1.125 0.90625q-0.453125 0.578125 -0.671875 1.4375q-0.21875 0.859375 -0.21875 1.9375q0 1.09375 0.21875 1.953125q0.21875 0.84375 0.671875 1.421875q0.453125 0.578125 1.125 0.890625q0.671875 0.3125 1.578125 0.3125zm8.422241 5.609375l0 -16.265625l1.28125 0q0.453125 0 0.5625 0.4375l0.1875 1.453125q0.78125 -0.953125 1.78125 -1.53125q1.0 -0.578125 2.3125 -0.578125q1.046875 0 1.890625 0.40625q0.859375 0.40625 1.453125 1.1875q0.59375 0.78125 0.921875 1.953125q0.328125 1.15625 0.328125 2.671875q0 1.34375 -0.359375 2.5q-0.359375 1.15625 -1.03125 2.015625q-0.671875 0.84375 -1.65625 1.328125q-0.96875 0.484375 -2.203125 0.484375q-1.125 0 -1.921875 -0.375q-0.796875 -0.375 -1.40625 -1.0625l0 5.375l-2.140625 0zm5.40625 -14.75q-1.03125 0 -1.828125 0.484375q-0.78125 0.46875 -1.4375 1.34375l0 5.890625q0.578125 0.78125 1.28125 1.109375q0.703125 0.328125 1.578125 0.328125q1.6875 0 2.59375 -1.203125q0.921875 -1.21875 0.921875 -3.46875q0 -1.1875 -0.21875 -2.03125q-0.203125 -0.859375 -0.609375 -1.40625q-0.390625 -0.546875 -0.96875 -0.796875q-0.578125 -0.25 -1.3125 -0.25zm12.654358 -1.703125q1.09375 0 2.015625 0.375q0.921875 0.359375 1.59375 1.046875q0.671875 0.6875 1.046875 1.703125q0.390625 1.015625 0.390625 2.3125q0 0.5 -0.109375 0.671875q-0.109375 0.15625 -0.40625 0.15625l-8.09375 0q0.03125 1.15625 0.3125 2.015625q0.28125 0.84375 0.78125 1.421875q0.515625 0.5625 1.203125 0.84375q0.703125 0.28125 1.5625 0.28125q0.8125 0 1.390625 -0.1875q0.578125 -0.1875 1.0 -0.390625q0.421875 -0.21875 0.703125 -0.40625q0.28125 -0.1875 0.484375 -0.1875q0.265625 0 0.40625 0.203125l0.609375 0.78125q-0.40625 0.484375 -0.953125 0.84375q-0.546875 0.34375 -1.1875 0.578125q-0.625 0.21875 -1.296875 0.328125q-0.671875 0.125 -1.328125 0.125q-1.265625 0 -2.328125 -0.421875q-1.0625 -0.4375 -1.84375 -1.25q-0.765625 -0.828125 -1.203125 -2.03125q-0.421875 -1.21875 -0.421875 -2.796875q0 -1.265625 0.390625 -2.359375q0.390625 -1.109375 1.109375 -1.921875q0.734375 -0.8125 1.796875 -1.265625q1.0625 -0.46875 2.375 -0.46875zm0.046875 1.5625q-1.546875 0 -2.4375 0.90625q-0.890625 0.890625 -1.09375 2.46875l6.609375 0q0 -0.734375 -0.203125 -1.359375q-0.203125 -0.625 -0.609375 -1.0625q-0.390625 -0.453125 -0.96875 -0.703125q-0.5625 -0.25 -1.296875 -0.25zm7.716736 10.78125l0 -12.15625l1.28125 0q0.453125 0 0.5625 0.4375l0.171875 1.328125q0.796875 -0.875 1.765625 -1.40625q0.984375 -0.546875 2.265625 -0.546875q1.0 0 1.75 0.328125q0.765625 0.328125 1.28125 0.9375q0.515625 0.609375 0.78125 1.46875q0.265625 0.84375 0.265625 1.875l0 7.734375l-2.140625 0l0 -7.734375q0 -1.390625 -0.640625 -2.140625q-0.625 -0.765625 -1.921875 -0.765625q-0.9375 0 -1.765625 0.453125q-0.828125 0.453125 -1.515625 1.234375l0 8.953125l-2.140625 0zm15.719116 -12.15625l0 12.15625l-2.140625 0l0 -12.15625l2.140625 0zm0.484375 -3.8125q0 0.3125 -0.125 0.578125q-0.125 0.265625 -0.34375 0.484375q-0.203125 0.203125 -0.484375 0.328125q-0.265625 0.125 -0.578125 0.125q-0.3125 0 -0.59375 -0.125q-0.265625 -0.125 -0.484375 -0.328125q-0.203125 -0.21875 -0.328125 -0.484375q-0.109375 -0.265625 -0.109375 -0.578125q0 -0.3125 0.109375 -0.59375q0.125 -0.28125 0.328125 -0.484375q0.21875 -0.21875 0.484375 -0.34375q0.28125 -0.125 0.59375 -0.125q0.3125 0 0.578125 0.125q0.28125 0.125 0.484375 0.34375q0.21875 0.203125 0.34375 0.484375q0.125 0.28125 0.125 0.59375zm3.284668 15.96875l0 -12.15625l1.28125 0q0.453125 0 0.5625 0.4375l0.171875 1.328125q0.796875 -0.875 1.765625 -1.40625q0.984375 -0.546875 2.265625 -0.546875q1.0 0 1.75 0.328125q0.765625 0.328125 1.28125 0.9375q0.515625 0.609375 0.78125 1.46875q0.265625 0.84375 0.265625 1.875l0 7.734375l-2.140625 0l0 -7.734375q0 -1.390625 -0.640625 -2.140625q-0.625 -0.765625 -1.921875 -0.765625q-0.9375 0 -1.765625 0.453125q-0.828125 0.453125 -1.515625 1.234375l0 8.953125l-2.140625 0zm17.437866 -12.359375q0.796875 0 1.484375 0.171875q0.6875 0.171875 1.25 0.515625l3.296875 0l0 0.78125q0 0.40625 -0.5 0.515625l-1.375 0.1875q0.40625 0.78125 0.40625 1.734375q0 0.890625 -0.34375 1.625q-0.34375 0.71875 -0.953125 1.234375q-0.59375 0.515625 -1.4375 0.796875q-0.828125 0.265625 -1.828125 0.265625q-0.859375 0 -1.609375 -0.203125q-0.375 0.25 -0.578125 0.53125q-0.203125 0.265625 -0.203125 0.53125q0 0.4375 0.34375 0.65625q0.359375 0.21875 0.921875 0.3125q0.578125 0.09375 1.3125 0.125q0.734375 0.015625 1.5 0.078125q0.765625 0.046875 1.484375 0.1875q0.734375 0.125 1.3125 0.4375q0.578125 0.296875 0.921875 0.828125q0.359375 0.515625 0.359375 1.359375q0 0.78125 -0.390625 1.515625q-0.390625 0.734375 -1.125 1.296875q-0.734375 0.578125 -1.796875 0.90625q-1.046875 0.34375 -2.375 0.34375q-1.34375 0 -2.34375 -0.265625q-1.0 -0.25 -1.65625 -0.703125q-0.65625 -0.4375 -1.0 -1.03125q-0.328125 -0.578125 -0.328125 -1.21875q0 -0.890625 0.5625 -1.515625q0.578125 -0.640625 1.578125 -1.015625q-0.515625 -0.234375 -0.828125 -0.625q-0.296875 -0.40625 -0.296875 -1.078125q0 -0.265625 0.09375 -0.546875q0.09375 -0.28125 0.296875 -0.5625q0.203125 -0.28125 0.484375 -0.53125q0.28125 -0.25 0.671875 -0.4375q-0.90625 -0.5 -1.421875 -1.328125q-0.5 -0.84375 -0.5 -1.96875q0 -0.890625 0.34375 -1.609375q0.34375 -0.71875 0.953125 -1.234375q0.609375 -0.515625 1.453125 -0.78125q0.859375 -0.28125 1.859375 -0.28125zm3.796875 13.015625q0 -0.453125 -0.265625 -0.71875q-0.25 -0.28125 -0.6875 -0.421875q-0.421875 -0.15625 -0.984375 -0.234375q-0.5625 -0.078125 -1.1875 -0.109375q-0.625 -0.03125 -1.28125 -0.0625q-0.640625 -0.03125 -1.21875 -0.125q-0.6875 0.3125 -1.125 0.78125q-0.421875 0.46875 -0.421875 1.125q0 0.40625 0.203125 0.75q0.21875 0.359375 0.640625 0.609375q0.4375 0.265625 1.09375 0.40625q0.65625 0.15625 1.546875 0.15625q0.859375 0 1.546875 -0.15625q0.6875 -0.140625 1.15625 -0.4375q0.46875 -0.28125 0.71875 -0.6875q0.265625 -0.390625 0.265625 -0.875zm-3.796875 -6.59375q0.640625 0 1.140625 -0.171875q0.5 -0.1875 0.828125 -0.515625q0.34375 -0.328125 0.515625 -0.765625q0.171875 -0.453125 0.171875 -1.0q0 -1.109375 -0.6875 -1.765625q-0.671875 -0.671875 -1.96875 -0.671875q-1.28125 0 -1.96875 0.671875q-0.671875 0.65625 -0.671875 1.765625q0 0.546875 0.171875 1.0q0.171875 0.4375 0.5 0.765625q0.34375 0.328125 0.828125 0.515625q0.5 0.171875 1.140625 0.171875zm21.739868 5.9375l-0.953125 0q-0.3125 0 -0.515625 -0.09375q-0.1875 -0.09375 -0.25 -0.40625l-0.234375 -1.125q-0.484375 0.421875 -0.9375 0.765625q-0.453125 0.34375 -0.953125 0.578125q-0.5 0.234375 -1.078125 0.34375q-0.5625 0.125 -1.265625 0.125q-0.703125 0 -1.328125 -0.1875q-0.609375 -0.203125 -1.078125 -0.59375q-0.453125 -0.40625 -0.71875 -1.0q-0.265625 -0.609375 -0.265625 -1.4375q0 -0.71875 0.390625 -1.390625q0.390625 -0.671875 1.265625 -1.1875q0.890625 -0.515625 2.3125 -0.84375q1.4375 -0.328125 3.5 -0.375l0 -0.953125q0 -1.40625 -0.609375 -2.125q-0.59375 -0.734375 -1.78125 -0.734375q-0.78125 0 -1.328125 0.203125q-0.53125 0.1875 -0.921875 0.4375q-0.390625 0.25 -0.671875 0.453125q-0.28125 0.1875 -0.546875 0.1875q-0.21875 0 -0.390625 -0.109375q-0.15625 -0.125 -0.25 -0.28125l-0.390625 -0.6875q1.015625 -0.96875 2.171875 -1.453125q1.171875 -0.484375 2.578125 -0.484375q1.03125 0 1.8125 0.34375q0.796875 0.328125 1.328125 0.9375q0.546875 0.59375 0.828125 1.453125q0.28125 0.84375 0.28125 1.859375l0 7.78125zm-5.546875 -1.3125q0.5625 0 1.03125 -0.109375q0.46875 -0.109375 0.875 -0.3125q0.421875 -0.21875 0.796875 -0.515625q0.375 -0.3125 0.734375 -0.6875l0 -2.53125q-1.46875 0.046875 -2.5 0.234375q-1.03125 0.1875 -1.6875 0.484375q-0.640625 0.296875 -0.9375 0.703125q-0.296875 0.40625 -0.296875 0.921875q0 0.46875 0.15625 0.828125q0.15625 0.34375 0.421875 0.5625q0.265625 0.21875 0.625 0.328125q0.359375 0.09375 0.78125 0.09375zm20.378235 -8.84375q-0.15625 0.265625 -0.453125 0.265625q-0.171875 0 -0.40625 -0.125q-0.234375 -0.140625 -0.5625 -0.296875q-0.328125 -0.15625 -0.78125 -0.296875q-0.453125 -0.140625 -1.078125 -0.140625q-0.546875 0 -0.984375 0.140625q-0.421875 0.140625 -0.734375 0.375q-0.296875 0.234375 -0.46875 0.5625q-0.15625 0.3125 -0.15625 0.6875q0 0.46875 0.265625 0.78125q0.28125 0.3125 0.71875 0.546875q0.453125 0.21875 1.015625 0.390625q0.5625 0.171875 1.15625 0.375q0.59375 0.1875 1.15625 0.4375q0.5625 0.234375 1.0 0.59375q0.453125 0.359375 0.71875 0.890625q0.265625 0.515625 0.265625 1.25q0 0.84375 -0.296875 1.5625q-0.296875 0.703125 -0.890625 1.234375q-0.578125 0.515625 -1.4375 0.8125q-0.84375 0.296875 -1.96875 0.296875q-1.265625 0 -2.296875 -0.40625q-1.03125 -0.421875 -1.75 -1.0625l0.5 -0.8125q0.09375 -0.15625 0.21875 -0.234375q0.140625 -0.09375 0.359375 -0.09375q0.21875 0 0.453125 0.171875q0.234375 0.15625 0.578125 0.359375q0.34375 0.203125 0.828125 0.375q0.484375 0.171875 1.21875 0.171875q0.625 0 1.09375 -0.15625q0.46875 -0.171875 0.78125 -0.4375q0.3125 -0.28125 0.453125 -0.640625q0.15625 -0.359375 0.15625 -0.765625q0 -0.515625 -0.265625 -0.84375q-0.265625 -0.328125 -0.71875 -0.5625q-0.4375 -0.234375 -1.015625 -0.40625q-0.5625 -0.171875 -1.15625 -0.359375q-0.59375 -0.203125 -1.171875 -0.4375q-0.5625 -0.25 -1.015625 -0.625q-0.4375 -0.375 -0.71875 -0.921875q-0.265625 -0.546875 -0.265625 -1.3125q0 -0.703125 0.28125 -1.34375q0.296875 -0.640625 0.84375 -1.125q0.5625 -0.484375 1.359375 -0.765625q0.8125 -0.296875 1.84375 -0.296875q1.203125 0 2.15625 0.375q0.953125 0.375 1.640625 1.03125l-0.46875 0.78125zm3.4473267 10.15625l0 -12.15625l1.28125 0q0.453125 0 0.5625 0.4375l0.15625 1.25q0.671875 -0.828125 1.5 -1.34375q0.84375 -0.53125 1.953125 -0.53125q1.234375 0 1.984375 0.6875q0.765625 0.671875 1.109375 1.84375q0.25 -0.65625 0.65625 -1.140625q0.421875 -0.484375 0.9375 -0.796875q0.515625 -0.3125 1.09375 -0.453125q0.59375 -0.140625 1.1875 -0.140625q0.953125 0 1.703125 0.3125q0.75 0.296875 1.265625 0.890625q0.53125 0.578125 0.8125 1.4375q0.28125 0.859375 0.28125 1.96875l0 7.734375l-2.140625 0l0 -7.734375q0 -1.4375 -0.625 -2.171875q-0.625 -0.734375 -1.8125 -0.734375q-0.53125 0 -1.0 0.1875q-0.46875 0.1875 -0.84375 0.546875q-0.359375 0.359375 -0.5625 0.90625q-0.203125 0.546875 -0.203125 1.265625l0 7.734375l-2.140625 0l0 -7.734375q0 -1.46875 -0.59375 -2.1875q-0.578125 -0.71875 -1.71875 -0.71875q-0.78125 0 -1.46875 0.421875q-0.671875 0.421875 -1.234375 1.15625l0 9.0625l-2.140625 0zm28.641602 0l-0.953125 0q-0.3125 0 -0.515625 -0.09375q-0.1875 -0.09375 -0.25 -0.40625l-0.234375 -1.125q-0.484375 0.421875 -0.9375 0.765625q-0.453125 0.34375 -0.953125 0.578125q-0.5 0.234375 -1.078125 0.34375q-0.5625 0.125 -1.265625 0.125q-0.703125 0 -1.328125 -0.1875q-0.609375 -0.203125 -1.078125 -0.59375q-0.453125 -0.40625 -0.71875 -1.0q-0.265625 -0.609375 -0.265625 -1.4375q0 -0.71875 0.390625 -1.390625q0.390625 -0.671875 1.265625 -1.1875q0.890625 -0.515625 2.3125 -0.84375q1.4375 -0.328125 3.5 -0.375l0 -0.953125q0 -1.40625 -0.609375 -2.125q-0.59375 -0.734375 -1.78125 -0.734375q-0.78125 0 -1.328125 0.203125q-0.53125 0.1875 -0.921875 0.4375q-0.390625 0.25 -0.671875 0.453125q-0.28125 0.1875 -0.546875 0.1875q-0.21875 0 -0.390625 -0.109375q-0.15625 -0.125 -0.25 -0.28125l-0.390625 -0.6875q1.015625 -0.96875 2.171875 -1.453125q1.171875 -0.484375 2.578125 -0.484375q1.03125 0 1.8125 0.34375q0.796875 0.328125 1.328125 0.9375q0.546875 0.59375 0.828125 1.453125q0.28125 0.84375 0.28125 1.859375l0 7.78125zm-5.546875 -1.3125q0.5625 0 1.03125 -0.109375q0.46875 -0.109375 0.875 -0.3125q0.421875 -0.21875 0.796875 -0.515625q0.375 -0.3125 0.734375 -0.6875l0 -2.53125q-1.46875 0.046875 -2.5 0.234375q-1.03125 0.1875 -1.6875 0.484375q-0.640625 0.296875 -0.9375 0.703125q-0.296875 0.40625 -0.296875 0.921875q0 0.46875 0.15625 0.828125q0.15625 0.34375 0.421875 0.5625q0.265625 0.21875 0.625 0.328125q0.359375 0.09375 0.78125 0.09375zm11.152466 -16.359375l0 17.671875l-2.140625 0l0 -17.671875l2.140625 0zm6.144043 0l0 17.671875l-2.140625 0l0 -17.671875l2.140625 0zm8.885498 17.671875l0 -10.328125l-1.34375 -0.15625q-0.25 -0.0625 -0.421875 -0.1875q-0.15625 -0.125 -0.15625 -0.375l0 -0.875l1.921875 0l0 -1.171875q0 -1.046875 0.28125 -1.84375q0.296875 -0.8125 0.84375 -1.375q0.546875 -0.5625 1.3125 -0.84375q0.78125 -0.296875 1.734375 -0.296875q0.8125 0 1.515625 0.25l-0.046875 1.0625q-0.015625 0.234375 -0.21875 0.296875q-0.1875 0.046875 -0.53125 0.046875l-0.375 0q-0.546875 0 -1.0 0.140625q-0.453125 0.140625 -0.78125 0.46875q-0.3125 0.3125 -0.484375 0.84375q-0.171875 0.53125 -0.171875 1.3125l0 1.109375l3.515625 0l0 1.546875l-3.453125 0l0 10.375l-2.140625 0zm12.525574 -12.34375q1.328125 0 2.40625 0.453125q1.078125 0.4375 1.828125 1.25q0.75 0.8125 1.140625 1.96875q0.40625 1.15625 0.40625 2.59375q0 1.4375 -0.40625 2.59375q-0.390625 1.140625 -1.140625 1.96875q-0.75 0.8125 -1.828125 1.25q-1.078125 0.4375 -2.40625 0.4375q-1.328125 0 -2.40625 -0.4375q-1.078125 -0.4375 -1.828125 -1.25q-0.75 -0.828125 -1.171875 -1.96875q-0.40625 -1.15625 -0.40625 -2.59375q0 -1.4375 0.40625 -2.59375q0.421875 -1.15625 1.171875 -1.96875q0.75 -0.8125 1.828125 -1.25q1.078125 -0.453125 2.40625 -0.453125zm0 10.84375q1.796875 0 2.6875 -1.203125q0.890625 -1.203125 0.890625 -3.375q0 -2.171875 -0.890625 -3.375q-0.890625 -1.21875 -2.6875 -1.21875q-0.90625 0 -1.578125 0.3125q-0.671875 0.3125 -1.125 0.90625q-0.453125 0.578125 -0.671875 1.4375q-0.21875 0.859375 -0.21875 1.9375q0 1.09375 0.21875 1.953125q0.21875 0.84375 0.671875 1.421875q0.453125 0.578125 1.125 0.890625q0.671875 0.3125 1.578125 0.3125zm13.344116 -10.84375q1.328125 0 2.40625 0.453125q1.078125 0.4375 1.828125 1.25q0.75 0.8125 1.140625 1.96875q0.40625 1.15625 0.40625 2.59375q0 1.4375 -0.40625 2.59375q-0.390625 1.140625 -1.140625 1.96875q-0.75 0.8125 -1.828125 1.25q-1.078125 0.4375 -2.40625 0.4375q-1.328125 0 -2.40625 -0.4375q-1.078125 -0.4375 -1.828125 -1.25q-0.75 -0.828125 -1.171875 -1.96875q-0.40625 -1.15625 -0.40625 -2.59375q0 -1.4375 0.40625 -2.59375q0.421875 -1.15625 1.171875 -1.96875q0.75 -0.8125 1.828125 -1.25q1.078125 -0.453125 2.40625 -0.453125zm0 10.84375q1.796875 0 2.6875 -1.203125q0.890625 -1.203125 0.890625 -3.375q0 -2.171875 -0.890625 -3.375q-0.890625 -1.21875 -2.6875 -1.21875q-0.90625 0 -1.578125 0.3125q-0.671875 0.3125 -1.125 0.90625q-0.453125 0.578125 -0.671875 1.4375q-0.21875 0.859375 -0.21875 1.9375q0 1.09375 0.21875 1.953125q0.21875 0.84375 0.671875 1.421875q0.453125 0.578125 1.125 0.890625q0.671875 0.3125 1.578125 0.3125zm16.984741 1.5q-0.453125 0 -0.578125 -0.4375l-0.1875 -1.484375q-0.78125 0.953125 -1.796875 1.53125q-1.0 0.5625 -2.296875 0.5625q-1.03125 0 -1.890625 -0.40625q-0.84375 -0.40625 -1.453125 -1.1875q-0.59375 -0.78125 -0.921875 -1.9375q-0.328125 -1.171875 -0.328125 -2.671875q0 -1.34375 0.359375 -2.5q0.359375 -1.171875 1.03125 -2.015625q0.6875 -0.859375 1.65625 -1.34375q0.984375 -0.484375 2.21875 -0.484375q1.109375 0 1.890625 0.390625q0.796875 0.375 1.421875 1.046875l0 -6.734375l2.140625 0l0 17.671875l-1.265625 0zm-4.140625 -1.5625q1.046875 0 1.828125 -0.46875q0.78125 -0.484375 1.4375 -1.359375l0 -5.890625q-0.578125 -0.78125 -1.28125 -1.09375q-0.703125 -0.328125 -1.5625 -0.328125q-1.703125 0 -2.609375 1.21875q-0.90625 1.203125 -0.90625 3.453125q0 1.1875 0.203125 2.03125q0.203125 0.84375 0.59375 1.390625q0.390625 0.546875 0.96875 0.796875q0.578125 0.25 1.328125 0.25zm13.704346 1.5625l0 -17.671875l2.140625 0l0 7.265625q0.765625 -0.875 1.734375 -1.40625q0.984375 -0.53125 2.234375 -0.53125q1.0625 0 1.90625 0.390625q0.859375 0.390625 1.453125 1.1875q0.609375 0.78125 0.921875 1.9375q0.328125 1.15625 0.328125 2.671875q0 1.34375 -0.359375 2.5q-0.359375 1.15625 -1.046875 2.015625q-0.671875 0.84375 -1.65625 1.328125q-0.96875 0.484375 -2.1875 0.484375q-1.171875 0 -2.0 -0.453125q-0.828125 -0.46875 -1.4375 -1.28125l-0.109375 1.109375q-0.09375 0.453125 -0.546875 0.453125l-1.375 0zm5.421875 -10.640625q-1.046875 0 -1.84375 0.484375q-0.78125 0.46875 -1.4375 1.34375l0 5.890625q0.578125 0.78125 1.28125 1.109375q0.703125 0.328125 1.5625 0.328125q1.703125 0 2.609375 -1.203125q0.921875 -1.21875 0.921875 -3.46875q0 -1.1875 -0.21875 -2.03125q-0.203125 -0.859375 -0.609375 -1.40625q-0.390625 -0.546875 -0.96875 -0.796875q-0.5625 -0.25 -1.296875 -0.25zm9.759827 -1.515625l0 7.75q0 1.375 0.640625 2.140625q0.640625 0.75 1.921875 0.75q0.9375 0 1.765625 -0.4375q0.828125 -0.453125 1.515625 -1.234375l0 -8.96875l2.140625 0l0 12.15625l-1.265625 0q-0.453125 0 -0.578125 -0.4375l-0.171875 -1.3125q-0.796875 0.875 -1.78125 1.40625q-0.984375 0.53125 -2.25 0.53125q-1.0 0 -1.765625 -0.328125q-0.75 -0.328125 -1.265625 -0.921875q-0.515625 -0.609375 -0.78125 -1.453125q-0.25 -0.859375 -0.25 -1.890625l0 -7.75l2.125 0zm18.469116 2.0q-0.15625 0.265625 -0.453125 0.265625q-0.171875 0 -0.40625 -0.125q-0.234375 -0.140625 -0.5625 -0.296875q-0.328125 -0.15625 -0.78125 -0.296875q-0.453125 -0.140625 -1.078125 -0.140625q-0.546875 0 -0.984375 0.140625q-0.421875 0.140625 -0.734375 0.375q-0.296875 0.234375 -0.46875 0.5625q-0.15625 0.3125 -0.15625 0.6875q0 0.46875 0.265625 0.78125q0.28125 0.3125 0.71875 0.546875q0.453125 0.21875 1.015625 0.390625q0.5625 0.171875 1.15625 0.375q0.59375 0.1875 1.15625 0.4375q0.5625 0.234375 1.0 0.59375q0.453125 0.359375 0.71875 0.890625q0.265625 0.515625 0.265625 1.25q0 0.84375 -0.296875 1.5625q-0.296875 0.703125 -0.890625 1.234375q-0.578125 0.515625 -1.4375 0.8125q-0.84375 0.296875 -1.96875 0.296875q-1.265625 0 -2.296875 -0.40625q-1.03125 -0.421875 -1.75 -1.0625l0.5 -0.8125q0.09375 -0.15625 0.21875 -0.234375q0.140625 -0.09375 0.359375 -0.09375q0.21875 0 0.453125 0.171875q0.234375 0.15625 0.578125 0.359375q0.34375 0.203125 0.828125 0.375q0.484375 0.171875 1.21875 0.171875q0.625 0 1.09375 -0.15625q0.46875 -0.171875 0.78125 -0.4375q0.3125 -0.28125 0.453125 -0.640625q0.15625 -0.359375 0.15625 -0.765625q0 -0.515625 -0.265625 -0.84375q-0.265625 -0.328125 -0.71875 -0.5625q-0.4375 -0.234375 -1.015625 -0.40625q-0.5625 -0.171875 -1.15625 -0.359375q-0.59375 -0.203125 -1.171875 -0.4375q-0.5625 -0.25 -1.015625 -0.625q-0.4375 -0.375 -0.71875 -0.921875q-0.265625 -0.546875 -0.265625 -1.3125q0 -0.703125 0.28125 -1.34375q0.296875 -0.640625 0.84375 -1.125q0.5625 -0.484375 1.359375 -0.765625q0.8125 -0.296875 1.84375 -0.296875q1.203125 0 2.15625 0.375q0.953125 0.375 1.640625 1.03125l-0.46875 0.78125zm5.8223267 -2.0l0 12.15625l-2.140625 0l0 -12.15625l2.140625 0zm0.484375 -3.8125q0 0.3125 -0.125 0.578125q-0.125 0.265625 -0.34375 0.484375q-0.203125 0.203125 -0.484375 0.328125q-0.265625 0.125 -0.578125 0.125q-0.3125 0 -0.59375 -0.125q-0.265625 -0.125 -0.484375 -0.328125q-0.203125 -0.21875 -0.328125 -0.484375q-0.109375 -0.265625 -0.109375 -0.578125q0 -0.3125 0.109375 -0.59375q0.125 -0.28125 0.328125 -0.484375q0.21875 -0.21875 0.484375 -0.34375q0.28125 -0.125 0.59375 -0.125q0.3125 0 0.578125 0.125q0.28125 0.125 0.484375 0.34375q0.21875 0.203125 0.34375 0.484375q0.125 0.28125 0.125 0.59375zm3.284668 15.96875l0 -12.15625l1.28125 0q0.453125 0 0.5625 0.4375l0.171875 1.328125q0.796875 -0.875 1.765625 -1.40625q0.984375 -0.546875 2.265625 -0.546875q1.0 0 1.75 0.328125q0.765625 0.328125 1.28125 0.9375q0.515625 0.609375 0.78125 1.46875q0.265625 0.84375 0.265625 1.875l0 7.734375l-2.140625 0l0 -7.734375q0 -1.390625 -0.640625 -2.140625q-0.625 -0.765625 -1.921875 -0.765625q-0.9375 0 -1.765625 0.453125q-0.828125 0.453125 -1.515625 1.234375l0 8.953125l-2.140625 0zm18.156616 -12.34375q1.09375 0 2.015625 0.375q0.921875 0.359375 1.59375 1.046875q0.671875 0.6875 1.046875 1.703125q0.390625 1.015625 0.390625 2.3125q0 0.5 -0.109375 0.671875q-0.109375 0.15625 -0.40625 0.15625l-8.09375 0q0.03125 1.15625 0.3125 2.015625q0.28125 0.84375 0.78125 1.421875q0.515625 0.5625 1.203125 0.84375q0.703125 0.28125 1.5625 0.28125q0.8125 0 1.390625 -0.1875q0.578125 -0.1875 1.0 -0.390625q0.421875 -0.21875 0.703125 -0.40625q0.28125 -0.1875 0.484375 -0.1875q0.265625 0 0.40625 0.203125l0.609375 0.78125q-0.40625 0.484375 -0.953125 0.84375q-0.546875 0.34375 -1.1875 0.578125q-0.625 0.21875 -1.296875 0.328125q-0.671875 0.125 -1.328125 0.125q-1.265625 0 -2.328125 -0.421875q-1.0625 -0.4375 -1.84375 -1.25q-0.765625 -0.828125 -1.203125 -2.03125q-0.421875 -1.21875 -0.421875 -2.796875q0 -1.265625 0.390625 -2.359375q0.390625 -1.109375 1.109375 -1.921875q0.734375 -0.8125 1.796875 -1.265625q1.0625 -0.46875 2.375 -0.46875zm0.046875 1.5625q-1.546875 0 -2.4375 0.90625q-0.890625 0.890625 -1.09375 2.46875l6.609375 0q0 -0.734375 -0.203125 -1.359375q-0.203125 -0.625 -0.609375 -1.0625q-0.390625 -0.453125 -0.96875 -0.703125q-0.5625 -0.25 -1.296875 -0.25zm14.685486 0.625q-0.15625 0.265625 -0.453125 0.265625q-0.171875 0 -0.40625 -0.125q-0.234375 -0.140625 -0.5625 -0.296875q-0.328125 -0.15625 -0.78125 -0.296875q-0.453125 -0.140625 -1.078125 -0.140625q-0.546875 0 -0.984375 0.140625q-0.421875 0.140625 -0.734375 0.375q-0.296875 0.234375 -0.46875 0.5625q-0.15625 0.3125 -0.15625 0.6875q0 0.46875 0.265625 0.78125q0.28125 0.3125 0.71875 0.546875q0.453125 0.21875 1.015625 0.390625q0.5625 0.171875 1.15625 0.375q0.59375 0.1875 1.15625 0.4375q0.5625 0.234375 1.0 0.59375q0.453125 0.359375 0.71875 0.890625q0.265625 0.515625 0.265625 1.25q0 0.84375 -0.296875 1.5625q-0.296875 0.703125 -0.890625 1.234375q-0.578125 0.515625 -1.4375 0.8125q-0.84375 0.296875 -1.96875 0.296875q-1.265625 0 -2.296875 -0.40625q-1.03125 -0.421875 -1.75 -1.0625l0.5 -0.8125q0.09375 -0.15625 0.21875 -0.234375q0.140625 -0.09375 0.359375 -0.09375q0.21875 0 0.453125 0.171875q0.234375 0.15625 0.578125 0.359375q0.34375 0.203125 0.828125 0.375q0.484375 0.171875 1.21875 0.171875q0.625 0 1.09375 -0.15625q0.46875 -0.171875 0.78125 -0.4375q0.3125 -0.28125 0.453125 -0.640625q0.15625 -0.359375 0.15625 -0.765625q0 -0.515625 -0.265625 -0.84375q-0.265625 -0.328125 -0.71875 -0.5625q-0.4375 -0.234375 -1.015625 -0.40625q-0.5625 -0.171875 -1.15625 -0.359375q-0.59375 -0.203125 -1.171875 -0.4375q-0.5625 -0.25 -1.015625 -0.625q-0.4375 -0.375 -0.71875 -0.921875q-0.265625 -0.546875 -0.265625 -1.3125q0 -0.703125 0.28125 -1.34375q0.296875 -0.640625 0.84375 -1.125q0.5625 -0.484375 1.359375 -0.765625q0.8125 -0.296875 1.84375 -0.296875q1.203125 0 2.15625 0.375q0.953125 0.375 1.640625 1.03125l-0.46875 0.78125zm10.416077 0q-0.15625 0.265625 -0.453125 0.265625q-0.171875 0 -0.40625 -0.125q-0.234375 -0.140625 -0.5625 -0.296875q-0.328125 -0.15625 -0.78125 -0.296875q-0.453125 -0.140625 -1.078125 -0.140625q-0.546875 0 -0.984375 0.140625q-0.421875 0.140625 -0.734375 0.375q-0.296875 0.234375 -0.46875 0.5625q-0.15625 0.3125 -0.15625 0.6875q0 0.46875 0.265625 0.78125q0.28125 0.3125 0.71875 0.546875q0.453125 0.21875 1.015625 0.390625q0.5625 0.171875 1.15625 0.375q0.59375 0.1875 1.15625 0.4375q0.5625 0.234375 1.0 0.59375q0.453125 0.359375 0.71875 0.890625q0.265625 0.515625 0.265625 1.25q0 0.84375 -0.296875 1.5625q-0.296875 0.703125 -0.890625 1.234375q-0.578125 0.515625 -1.4375 0.8125q-0.84375 0.296875 -1.96875 0.296875q-1.265625 0 -2.296875 -0.40625q-1.03125 -0.421875 -1.75 -1.0625l0.5 -0.8125q0.09375 -0.15625 0.21875 -0.234375q0.140625 -0.09375 0.359375 -0.09375q0.21875 0 0.453125 0.171875q0.234375 0.15625 0.578125 0.359375q0.34375 0.203125 0.828125 0.375q0.484375 0.171875 1.21875 0.171875q0.625 0 1.09375 -0.15625q0.46875 -0.171875 0.78125 -0.4375q0.3125 -0.28125 0.453125 -0.640625q0.15625 -0.359375 0.15625 -0.765625q0 -0.515625 -0.265625 -0.84375q-0.265625 -0.328125 -0.71875 -0.5625q-0.4375 -0.234375 -1.015625 -0.40625q-0.5625 -0.171875 -1.15625 -0.359375q-0.59375 -0.203125 -1.171875 -0.4375q-0.5625 -0.25 -1.015625 -0.625q-0.4375 -0.375 -0.71875 -0.921875q-0.265625 -0.546875 -0.265625 -1.3125q0 -0.703125 0.28125 -1.34375q0.296875 -0.640625 0.84375 -1.125q0.5625 -0.484375 1.359375 -0.765625q0.8125 -0.296875 1.84375 -0.296875q1.203125 0 2.15625 0.375q0.953125 0.375 1.640625 1.03125l-0.46875 0.78125z" fill-rule="nonzero"/><path fill="#ffffff" d="m264.07166 443.2407l0 12.15625l-2.140625 0l0 -12.15625l2.140625 0zm0.484375 -3.8125q0 0.3125 -0.125 0.578125q-0.125 0.265625 -0.34375 0.484375q-0.203125 0.203125 -0.484375 0.328125q-0.265625 0.125 -0.578125 0.125q-0.3125 0 -0.59375 -0.125q-0.265625 -0.125 -0.484375 -0.328125q-0.203125 -0.21875 -0.328125 -0.484375q-0.109375 -0.265625 -0.109375 -0.578125q0 -0.3125 0.109375 -0.59375q0.125 -0.28125 0.328125 -0.484375q0.21875 -0.21875 0.484375 -0.34375q0.28125 -0.125 0.59375 -0.125q0.3125 0 0.578125 0.125q0.28125 0.125 0.484375 0.34375q0.21875 0.203125 0.34375 0.484375q0.125 0.28125 0.125 0.59375zm3.284668 15.96875l0 -12.15625l1.28125 0q0.453125 0 0.5625 0.4375l0.171875 1.328125q0.796875 -0.875 1.765625 -1.40625q0.984375 -0.546875 2.265625 -0.546875q1.0 0 1.75 0.328125q0.765625 0.328125 1.28125 0.9375q0.515625 0.609375 0.78125 1.46875q0.265625 0.84375 0.265625 1.875l0 7.734375l-2.140625 0l0 -7.734375q0 -1.390625 -0.640625 -2.140625q-0.625 -0.765625 -1.921875 -0.765625q-0.9375 0 -1.765625 0.453125q-0.828125 0.453125 -1.515625 1.234375l0 8.953125l-2.140625 0zm32.46051 0l-1.796875 0q-0.3125 0 -0.515625 -0.15625q-0.1875 -0.15625 -0.28125 -0.390625l-1.609375 -4.15625l-7.71875 0l-1.59375 4.15625q-0.09375 0.203125 -0.296875 0.375q-0.203125 0.171875 -0.5 0.171875l-1.796875 0l6.875 -17.203125l2.359375 0l6.875 17.203125zm-11.265625 -6.390625l6.421875 0l-2.703125 -6.984375q-0.265625 -0.65625 -0.515625 -1.625q-0.125 0.484375 -0.265625 0.90625q-0.125 0.40625 -0.234375 0.71875l-2.703125 6.984375zm14.945099 -5.765625l0 7.75q0 1.375 0.640625 2.140625q0.640625 0.75 1.921875 0.75q0.9375 0 1.765625 -0.4375q0.828125 -0.453125 1.515625 -1.234375l0 -8.96875l2.140625 0l0 12.15625l-1.265625 0q-0.453125 0 -0.578125 -0.4375l-0.171875 -1.3125q-0.796875 0.875 -1.78125 1.40625q-0.984375 0.53125 -2.25 0.53125q-1.0 0 -1.765625 -0.328125q-0.75 -0.328125 -1.265625 -0.921875q-0.515625 -0.609375 -0.78125 -1.453125q-0.25 -0.859375 -0.25 -1.890625l0 -7.75l2.125 0zm18.469116 2.0q-0.15625 0.265625 -0.453125 0.265625q-0.171875 0 -0.40625 -0.125q-0.234375 -0.140625 -0.5625 -0.296875q-0.328125 -0.15625 -0.78125 -0.296875q-0.453125 -0.140625 -1.078125 -0.140625q-0.546875 0 -0.984375 0.140625q-0.421875 0.140625 -0.734375 0.375q-0.296875 0.234375 -0.46875 0.5625q-0.15625 0.3125 -0.15625 0.6875q0 0.46875 0.265625 0.78125q0.28125 0.3125 0.71875 0.546875q0.453125 0.21875 1.015625 0.390625q0.5625 0.171875 1.15625 0.375q0.59375 0.1875 1.15625 0.4375q0.5625 0.234375 1.0 0.59375q0.453125 0.359375 0.71875 0.890625q0.265625 0.515625 0.265625 1.25q0 0.84375 -0.296875 1.5625q-0.296875 0.703125 -0.890625 1.234375q-0.578125 0.515625 -1.4375 0.8125q-0.84375 0.296875 -1.96875 0.296875q-1.265625 0 -2.296875 -0.40625q-1.03125 -0.421875 -1.75 -1.0625l0.5 -0.8125q0.09375 -0.15625 0.21875 -0.234375q0.140625 -0.09375 0.359375 -0.09375q0.21875 0 0.453125 0.171875q0.234375 0.15625 0.578125 0.359375q0.34375 0.203125 0.828125 0.375q0.484375 0.171875 1.21875 0.171875q0.625 0 1.09375 -0.15625q0.46875 -0.171875 0.78125 -0.4375q0.3125 -0.28125 0.453125 -0.640625q0.15625 -0.359375 0.15625 -0.765625q0 -0.515625 -0.265625 -0.84375q-0.265625 -0.328125 -0.71875 -0.5625q-0.4375 -0.234375 -1.015625 -0.40625q-0.5625 -0.171875 -1.15625 -0.359375q-0.59375 -0.203125 -1.171875 -0.4375q-0.5625 -0.25 -1.015625 -0.625q-0.4375 -0.375 -0.71875 -0.921875q-0.265625 -0.546875 -0.265625 -1.3125q0 -0.703125 0.28125 -1.34375q0.296875 -0.640625 0.84375 -1.125q0.5625 -0.484375 1.359375 -0.765625q0.8125 -0.296875 1.84375 -0.296875q1.203125 0 2.15625 0.375q0.953125 0.375 1.640625 1.03125l-0.46875 0.78125zm7.1348267 10.34375q-1.4375 0 -2.21875 -0.796875q-0.765625 -0.8125 -0.765625 -2.3125l0 -7.453125l-1.46875 0q-0.1875 0 -0.328125 -0.109375q-0.125 -0.109375 -0.125 -0.359375l0 -0.84375l1.984375 -0.25l0.5 -3.765625q0.015625 -0.171875 0.140625 -0.28125q0.140625 -0.125 0.34375 -0.125l1.078125 0l0 4.1875l3.484375 0l0 1.546875l-3.484375 0l0 7.296875q0 0.78125 0.375 1.15625q0.375 0.359375 0.96875 0.359375q0.328125 0 0.578125 -0.078125q0.25 -0.09375 0.421875 -0.203125q0.1875 -0.109375 0.3125 -0.203125q0.125 -0.09375 0.21875 -0.09375q0.171875 0 0.296875 0.203125l0.625 1.03125q-0.546875 0.515625 -1.328125 0.8125q-0.78125 0.28125 -1.609375 0.28125zm7.639557 -12.34375l0 12.15625l-2.140625 0l0 -12.15625l2.140625 0zm0.484375 -3.8125q0 0.3125 -0.125 0.578125q-0.125 0.265625 -0.34375 0.484375q-0.203125 0.203125 -0.484375 0.328125q-0.265625 0.125 -0.578125 0.125q-0.3125 0 -0.59375 -0.125q-0.265625 -0.125 -0.484375 -0.328125q-0.203125 -0.21875 -0.328125 -0.484375q-0.109375 -0.265625 -0.109375 -0.578125q0 -0.3125 0.109375 -0.59375q0.125 -0.28125 0.328125 -0.484375q0.21875 -0.21875 0.484375 -0.34375q0.28125 -0.125 0.59375 -0.125q0.3125 0 0.578125 0.125q0.28125 0.125 0.484375 0.34375q0.21875 0.203125 0.34375 0.484375q0.125 0.28125 0.125 0.59375zm3.284668 15.96875l0 -12.15625l1.28125 0q0.453125 0 0.5625 0.4375l0.171875 1.328125q0.796875 -0.875 1.765625 -1.40625q0.984375 -0.546875 2.265625 -0.546875q1.0 0 1.75 0.328125q0.765625 0.328125 1.28125 0.9375q0.515625 0.609375 0.78125 1.46875q0.265625 0.84375 0.265625 1.875l0 7.734375l-2.140625 0l0 -7.734375q0 -1.390625 -0.640625 -2.140625q-0.625 -0.765625 -1.921875 -0.765625q-0.9375 0 -1.765625 0.453125q-0.828125 0.453125 -1.515625 1.234375l0 8.953125l-2.140625 0zm12.719086 -1.46875q0 -0.28125 0.09375 -0.53125q0.109375 -0.25 0.296875 -0.421875q0.1875 -0.1875 0.453125 -0.296875q0.265625 -0.109375 0.578125 -0.109375q0.359375 0 0.640625 0.140625q0.28125 0.125 0.46875 0.359375q0.1875 0.234375 0.28125 0.546875q0.09375 0.296875 0.09375 0.65625q0 0.53125 -0.15625 1.125q-0.15625 0.578125 -0.453125 1.140625q-0.28125 0.578125 -0.703125 1.109375q-0.421875 0.546875 -0.96875 1.0l-0.359375 -0.34375q-0.15625 -0.140625 -0.15625 -0.34375q0 -0.15625 0.171875 -0.3125q0.125 -0.140625 0.296875 -0.359375q0.1875 -0.21875 0.375 -0.515625q0.203125 -0.28125 0.359375 -0.640625q0.171875 -0.34375 0.234375 -0.734375l-0.15625 0q-0.3125 0 -0.5625 -0.109375q-0.25 -0.109375 -0.4375 -0.296875q-0.1875 -0.203125 -0.296875 -0.46875q-0.09375 -0.28125 -0.09375 -0.59375zm22.391968 -15.734375l0 1.96875l-5.546875 0l0 15.234375l-2.328125 0l0 -15.234375l-5.578125 0l0 -1.96875l13.453125 0zm4.4057007 4.859375q1.09375 0 2.015625 0.375q0.921875 0.359375 1.59375 1.046875q0.671875 0.6875 1.046875 1.703125q0.390625 1.015625 0.390625 2.3125q0 0.5 -0.109375 0.671875q-0.109375 0.15625 -0.40625 0.15625l-8.09375 0q0.03125 1.15625 0.3125 2.015625q0.28125 0.84375 0.78125 1.421875q0.515625 0.5625 1.203125 0.84375q0.703125 0.28125 1.5625 0.28125q0.8125 0 1.390625 -0.1875q0.578125 -0.1875 1.0 -0.390625q0.421875 -0.21875 0.703125 -0.40625q0.28125 -0.1875 0.484375 -0.1875q0.265625 0 0.40625 0.203125l0.609375 0.78125q-0.40625 0.484375 -0.953125 0.84375q-0.546875 0.34375 -1.1875 0.578125q-0.625 0.21875 -1.296875 0.328125q-0.671875 0.125 -1.328125 0.125q-1.265625 0 -2.328125 -0.421875q-1.0625 -0.4375 -1.84375 -1.25q-0.765625 -0.828125 -1.203125 -2.03125q-0.421875 -1.21875 -0.421875 -2.796875q0 -1.265625 0.390625 -2.359375q0.390625 -1.109375 1.109375 -1.921875q0.734375 -0.8125 1.796875 -1.265625q1.0625 -0.46875 2.375 -0.46875zm0.046875 1.5625q-1.546875 0 -2.4375 0.90625q-0.890625 0.890625 -1.09375 2.46875l6.609375 0q0 -0.734375 -0.203125 -1.359375q-0.203125 -0.625 -0.609375 -1.0625q-0.390625 -0.453125 -0.96875 -0.703125q-0.5625 -0.25 -1.296875 -0.25zm9.840485 4.546875l-4.09375 -5.921875l2.0625 0q0.25 0 0.375 0.09375q0.125 0.078125 0.21875 0.234375l2.96875 4.5625q0.109375 -0.34375 0.3125 -0.671875l2.625 -3.84375q0.125 -0.171875 0.234375 -0.265625q0.125 -0.109375 0.296875 -0.109375l1.96875 0l-4.09375 5.8125l4.265625 6.34375l-2.046875 0q-0.265625 0 -0.421875 -0.140625q-0.140625 -0.140625 -0.234375 -0.296875l-3.0625 -4.765625q-0.09375 0.34375 -0.25 0.625l-2.84375 4.140625q-0.109375 0.15625 -0.25 0.296875q-0.140625 0.140625 -0.375 0.140625l-1.90625 0l4.25 -6.234375zm18.18982 6.234375l-0.953125 0q-0.3125 0 -0.515625 -0.09375q-0.1875 -0.09375 -0.25 -0.40625l-0.234375 -1.125q-0.484375 0.421875 -0.9375 0.765625q-0.453125 0.34375 -0.953125 0.578125q-0.5 0.234375 -1.078125 0.34375q-0.5625 0.125 -1.265625 0.125q-0.703125 0 -1.328125 -0.1875q-0.609375 -0.203125 -1.078125 -0.59375q-0.453125 -0.40625 -0.71875 -1.0q-0.265625 -0.609375 -0.265625 -1.4375q0 -0.71875 0.390625 -1.390625q0.390625 -0.671875 1.265625 -1.1875q0.890625 -0.515625 2.3125 -0.84375q1.4375 -0.328125 3.5 -0.375l0 -0.953125q0 -1.40625 -0.609375 -2.125q-0.59375 -0.734375 -1.78125 -0.734375q-0.78125 0 -1.328125 0.203125q-0.53125 0.1875 -0.921875 0.4375q-0.390625 0.25 -0.671875 0.453125q-0.28125 0.1875 -0.546875 0.1875q-0.21875 0 -0.390625 -0.109375q-0.15625 -0.125 -0.25 -0.28125l-0.390625 -0.6875q1.015625 -0.96875 2.171875 -1.453125q1.171875 -0.484375 2.578125 -0.484375q1.03125 0 1.8125 0.34375q0.796875 0.328125 1.328125 0.9375q0.546875 0.59375 0.828125 1.453125q0.28125 0.84375 0.28125 1.859375l0 7.78125zm-5.546875 -1.3125q0.5625 0 1.03125 -0.109375q0.46875 -0.109375 0.875 -0.3125q0.421875 -0.21875 0.796875 -0.515625q0.375 -0.3125 0.734375 -0.6875l0 -2.53125q-1.46875 0.046875 -2.5 0.234375q-1.03125 0.1875 -1.6875 0.484375q-0.640625 0.296875 -0.9375 0.703125q-0.296875 0.40625 -0.296875 0.921875q0 0.46875 0.15625 0.828125q0.15625 0.34375 0.421875 0.5625q0.265625 0.21875 0.625 0.328125q0.359375 0.09375 0.78125 0.09375zm15.746216 -8.84375q-0.15625 0.265625 -0.453125 0.265625q-0.171875 0 -0.40625 -0.125q-0.234375 -0.140625 -0.5625 -0.296875q-0.328125 -0.15625 -0.78125 -0.296875q-0.453125 -0.140625 -1.078125 -0.140625q-0.546875 0 -0.984375 0.140625q-0.421875 0.140625 -0.734375 0.375q-0.296875 0.234375 -0.46875 0.5625q-0.15625 0.3125 -0.15625 0.6875q0 0.46875 0.265625 0.78125q0.28125 0.3125 0.71875 0.546875q0.453125 0.21875 1.015625 0.390625q0.5625 0.171875 1.15625 0.375q0.59375 0.1875 1.15625 0.4375q0.5625 0.234375 1.0 0.59375q0.453125 0.359375 0.71875 0.890625q0.265625 0.515625 0.265625 1.25q0 0.84375 -0.296875 1.5625q-0.296875 0.703125 -0.890625 1.234375q-0.578125 0.515625 -1.4375 0.8125q-0.84375 0.296875 -1.96875 0.296875q-1.265625 0 -2.296875 -0.40625q-1.03125 -0.421875 -1.75 -1.0625l0.5 -0.8125q0.09375 -0.15625 0.21875 -0.234375q0.140625 -0.09375 0.359375 -0.09375q0.21875 0 0.453125 0.171875q0.234375 0.15625 0.578125 0.359375q0.34375 0.203125 0.828125 0.375q0.484375 0.171875 1.21875 0.171875q0.625 0 1.09375 -0.15625q0.46875 -0.171875 0.78125 -0.4375q0.3125 -0.28125 0.453125 -0.640625q0.15625 -0.359375 0.15625 -0.765625q0 -0.515625 -0.265625 -0.84375q-0.265625 -0.328125 -0.71875 -0.5625q-0.4375 -0.234375 -1.015625 -0.40625q-0.5625 -0.171875 -1.15625 -0.359375q-0.59375 -0.203125 -1.171875 -0.4375q-0.5625 -0.25 -1.015625 -0.625q-0.4375 -0.375 -0.71875 -0.921875q-0.265625 -0.546875 -0.265625 -1.3125q0 -0.703125 0.28125 -1.34375q0.296875 -0.640625 0.84375 -1.125q0.5625 -0.484375 1.359375 -0.765625q0.8125 -0.296875 1.84375 -0.296875q1.203125 0 2.15625 0.375q0.953125 0.375 1.640625 1.03125l-0.46875 0.78125z" fill-rule="nonzero"/></g></svg>